<svg id="Layer_1" data-name="Layer 1" xmlns="http://www.w3.org/2000/svg" viewBox="0 0 626.66 399.79"><polygon points="24.84 200.51 311.17 367.11 601.6 200.51 311.31 32.89 24.84 200.51" style="fill:#163b72"/><path d="M120.72,186a16.38,16.38,0,0,0,5.13-2,31.46,31.46,0,0,0,5.68-3.29,2.79,2.79,0,0,0-1.85-5c-3.25,0-7,2.56-9.24,4.69-1.22,1.16-2.24,2.86-1.58,4.57a3.21,3.21,0,0,0,3.77,2,2.18,2.18,0,0,0,1.52-2.66,2.11,2.11,0,0,0-.94-1.25,1.6,1.6,0,0,0-.87-.3c-.5-.13-.43,0,.22.5.28.66.54.72.77.2.75-.37,1.6-1.79,2.35-2.35a15.54,15.54,0,0,1,2.59-1.57c.4-.2,1-.64,1.52-.54.66.14-.43.55-.86.86-1,.7-2,1.35-3,2-1.83,1.12-4,1.91-5.6,3.28a.54.54,0,0,0,.38.92Z" style="fill:#20528e"/><path d="M152.05,187.58c.86-1.75-1.16-2.33-2.56-2.09a6.24,6.24,0,0,0-4.58,3.58,1.9,1.9,0,0,0,1.12,2.74,8.5,8.5,0,0,0,5.65-.25c1.74-.7,3.76-2,3.83-4a1.75,1.75,0,0,0-2.2-1.67c-1.22.39-1.86,1.5-3,2a4.86,4.86,0,0,1-3.29.31l1.31,2.3a3.41,3.41,0,0,1,3.34-2.88l-.58-.58v.27c0,.49.73.74,1,.26Z" style="fill:#20528e"/><path d="M191.67,142.4a9.35,9.35,0,0,0-4.75,2.62c-1.34,1.41-1.47,3.71.36,4.79,2.91,1.71,7.18-.44,7.89-3.64a2,2,0,0,0-3.84-1.06,2,2,0,0,1-.76.94,1.91,1.91,0,0,1-.8.31s-.59,0-.58,0c-.41-.15-.25.25.49,1.19a1.28,1.28,0,0,1,.29-.32,8,8,0,0,1,.91-.75c.75-.54,1.52-1,2.23-1.6,1.25-1.06-.15-2.67-1.44-2.47Z" style="fill:#20528e"/><path d="M147.86,231.16a10,10,0,0,0-6.77,4.25,1.69,1.69,0,0,0,1,2.48,7.87,7.87,0,0,0,7-2.15c1.59-1.58-.75-3.79-2.42-2.41a5.71,5.71,0,0,1-4.11,1.24l1.46,2.54a7,7,0,0,1,4.65-3.11,1.5,1.5,0,0,0,1-1.81,1.51,1.51,0,0,0-1.82-1Z" style="fill:#20528e"/><path d="M83.16,193.15a3.4,3.4,0,0,0-2.25.9,3.5,3.5,0,0,0-1.08,2.27,1.36,1.36,0,0,0,.71,1.24,3.36,3.36,0,0,0,1.49.35,3.72,3.72,0,0,0,1.49-.4,1.49,1.49,0,0,0,.53-2,1.52,1.52,0,0,0-2-.53c.13-.06.12-.05,0,0s.1,0,0,0a1.13,1.13,0,0,0-.26,0c-.22,0,.31.07-.06,0l1.06,1.39v-.16c0-.11,0-.07,0,.11l.08-.3c0,.16-.07.14,0,0l.08-.13c-.09.11-.11.13,0,.06a1.62,1.62,0,0,0,.18-.19c-.15.18,0,0,.08,0s-.17,0,.09,0c.1,0,.2-.05.3-.06a1.22,1.22,0,0,0-.32-2.4Z" style="fill:#20528e"/><path d="M235.71,190.25A18.78,18.78,0,0,0,224,195.71c-1.24,1.26-2.79,2.91-2.32,4.84a4,4,0,0,0,3.67,2.77c4.45.44,8.66-3.18,11.62-6,1.26-1.22,2.86-2.63,2.32-4.57a2.57,2.57,0,0,0-3.88-1.49,2,2,0,0,0,.47,3.6l.31.1-1.27-1c.32-1.21.15-1.35-.5-.42-.39.41-.8.81-1.2,1.21-.61.59-1.24,1.17-1.9,1.71-1.43,1.17-4.14,2.83-5.65,2.91,0,.51.17.37.49-.43a12.48,12.48,0,0,1,1.29-1.52,15.72,15.72,0,0,1,2.52-2.09,16.2,16.2,0,0,1,6.14-2.35c1.51-.27,1.18-2.87-.37-2.72Z" style="fill:#20528e"/><path d="M212.23,234.9a8.53,8.53,0,0,0-7.42,2.25c-2,1.88-3.52,5.23-.82,7.22,2,1.51,5.11,1,7.16-.24,1.81-1.12,4.91-4.49,3.21-6.72a1.78,1.78,0,0,0-2.38-.62c-1.18.73-1.15,2-2,3a3.86,3.86,0,0,1-3,1.35c-.69,0-.41,0,0-.44s.79-1,1.29-1.44a9.16,9.16,0,0,1,4-1.91c1.15-.25,1.23-2.21,0-2.4Z" style="fill:#20528e"/><path d="M228,294.75c-3.5-1.69-7.06,2.51-8.23,5.34a1.86,1.86,0,0,0,.86,2.09c3.85,1.86,10.67.26,11.7-4.52.31-1.41-1.48-2.72-2.58-1.5S228,298.47,226.4,299a5.93,5.93,0,0,1-4.34-.24l1.29,2.28a6,6,0,0,1,2.15-3,21.69,21.69,0,0,0,2.7-1.83,1,1,0,0,0-.19-1.47Z" style="fill:#20528e"/><path d="M301.63,237.5a25.26,25.26,0,0,0-13.32,7.76,2,2,0,0,0,0,2.82c4.86,5.34,13.37-2.29,15.75-6.72,1.38-2.56-2.58-4.85-3.89-2.27-1,1.94-6.41,8.46-9,6.17l.31,2.42a22,22,0,0,1,10.79-8,1.15,1.15,0,0,0-.61-2.21Z" style="fill:#20528e"/><path d="M284.29,125.52a24.9,24.9,0,0,0-11.63,7.32,2,2,0,0,0,.4,3.13,12.22,12.22,0,0,0,14.13-1.9c1.65-1.46,3.84-3.38,3.51-5.83a3.28,3.28,0,0,0-4.12-2.92c-2.09.44-1.73,3.27,0,3.88-.74-.26-1.63,1.13-2.1,1.55a9.46,9.46,0,0,1-2.88,2,8.28,8.28,0,0,1-6.53-.19l.41,3.12a25.7,25.7,0,0,1,10-7.35c1.6-.68.45-3.25-1.17-2.78Z" style="fill:#20528e"/><path d="M249.49,93.93a8.83,8.83,0,0,0-5.92,3,1.72,1.72,0,0,0,1.2,2.9c2.74,0,5.88-.25,7.71-2.56a1.91,1.91,0,1,0-3-2.33c-1,1.36-3.2,1.4-4.69,1.5L246.24,99a5.66,5.66,0,0,1,3.65-2.14c1.61-.3,1.26-3.08-.4-2.9Z" style="fill:#20528e"/><path d="M317.08,60.93c-3.16-2.84-7.3,1.3-9.7,3.46-1.82,1.63-7.56,7-2.92,9,1.71.76,4.4,0,6.16-.34A16.2,16.2,0,0,0,317,70.64c2.87-2,5.25-6.89,1.65-9.35-1.57-1.07-3.14.69-2.89,2.22.42,2.61-1.16,3.87-3.58,4.77a17.67,17.67,0,0,1-6.92,1.21l1.46.6c.1.89.36.86.77-.09q.57-.66,1.17-1.29c.69-.73,1.42-1.43,2.17-2.11.94-.86,3.62-3.89,5.08-3.63,1.09.2,2.16-1.15,1.18-2Z" style="fill:#20528e"/><path d="M262.88,70.93a7.5,7.5,0,0,0-6.58,3.64,1.91,1.91,0,0,0,.68,2.58,5.55,5.55,0,0,0,5.28,0c1.81-1,.6-4-1.43-3.38a2.69,2.69,0,0,1-1.95.11l.68,2.58a4.92,4.92,0,0,1,3.69-2.83c1.57-.27,1.15-2.7-.37-2.71Z" style="fill:#20528e"/><path d="M200.89,116.48a1.74,1.74,0,0,0-2.28-.64,1.86,1.86,0,0,0-1,2.21,1.44,1.44,0,0,0,1,1,1.41,1.41,0,0,0,1.08-.14,1.52,1.52,0,0,0,.65-.84,1.47,1.47,0,0,0-.37-1.37l0,0,.22.29-.06-.1.14.33a.43.43,0,0,1,0-.11l0,.36a.17.17,0,0,1,0-.1l0,.36a.57.57,0,0,1,0-.14l-.14.31a.86.86,0,0,1,.1-.16l-.2.26a.93.93,0,0,1,.14-.14c.1-.11.22-.16-.08,0l.06,0-.19.08c.09,0,0,0-.22,0s-.32,0-.21,0l-.18-.08c.14.07-.21-.19-.09-.07a1,1,0,0,0,1.36.08,1,1,0,0,0,.26-1.33Z" style="fill:#20528e"/><path d="M325.4,170.82c-4.75-.43-17.36,3.86-14.26,10.7,1.69,3.71,5.75,2.16,8.53.79,3.12-1.55,6.69-3.76,7.7-7.31.57-2-2.21-3.85-3.68-2.14a23.46,23.46,0,0,1-3.68,3.9c-.62.46-4.69,3.33-5.19,2.78-1-1.14,3.2-3.79,3.94-4.27a13.3,13.3,0,0,1,6.64-2.34,1.06,1.06,0,0,0,0-2.11Z" style="fill:#20528e"/><path d="M349.87,169.85a2.38,2.38,0,0,0-2.72.36,2.45,2.45,0,0,0-.73,1.09,1.75,1.75,0,0,0,.51,1.85,1.49,1.49,0,0,0,2.46-.65l0-.05-.15.36a4.92,4.92,0,0,0,.22-.5,2.9,2.9,0,0,0,.09-.59l-.06.43c0-.08,0-.14.06-.21l-.15.37a1.18,1.18,0,0,1,.11-.19l-.24.31.17-.15-.31.24a1.18,1.18,0,0,1,.19-.11l-.36.15.22-.05-.4.05H349l-.39-.05.16,0a1.47,1.47,0,0,0,1.14-.15,1.52,1.52,0,0,0,.6-.7,1.48,1.48,0,0,0-.6-1.85Z" style="fill:#20528e"/><path d="M412.52,144.62a1.72,1.72,0,0,0,.22-2,2.36,2.36,0,0,0-2.63-.86,13.86,13.86,0,0,0-6.12,3,1.91,1.91,0,0,0,0,2.71c1.87,1.6,4.46,2,6.31.13a1.7,1.7,0,0,0-1.64-2.82,2.84,2.84,0,0,1-2.35-.32l.39,3c1.28-1.24,3.2-2.8,5-2.78l-1.06-.61.1.16-.13-.92,0,.2c-.3,1,1.17,2,1.92,1.12Z" style="fill:#20528e"/><path d="M387.09,97.5c-1.46.14-3.58.27-4.59,1.56a2.41,2.41,0,0,0-.14,2.78,2.22,2.22,0,0,0,3.09.72,1.93,1.93,0,0,0,.77-2.37,1.89,1.89,0,0,0-2.24-1.1l-.12,0h1c.86.28,1,1.08.38,2.39l.28-.16c.22-.12.46-.21.69-.32l.75-.37a7.6,7.6,0,0,0,.81-.54,1.44,1.44,0,0,0,.64-1.58,1.42,1.42,0,0,0-1.35-1Z" style="fill:#20528e"/><path d="M312.33,296.55a12.05,12.05,0,0,0-4.12,1.32,12.59,12.59,0,0,0-3.45,3c-.8,1-1.77,2.28-1.51,3.64a3,3,0,0,0,3,2.21c3,.23,6.94-.39,9.27-2.41s2.93-6.25.07-7.91c-1.18-.68-3.19.16-3,1.72.22,1.77,1.08,2.81-1,3.73a12.73,12.73,0,0,1-2.49.74,16.79,16.79,0,0,1-1.87.25c-.35,0-1-.12-.86.09l.55,1.33c-.05-1,1.64-2.49,2.37-3.08a10.55,10.55,0,0,1,3.7-2c1.71-.42,1-3-.72-2.62Z" style="fill:#20528e"/><path d="M374.89,266.7a7.31,7.31,0,0,0-3.11,1,1.71,1.71,0,0,0-.75,1.85A2.09,2.09,0,0,0,372.1,271a2.25,2.25,0,0,0,2.08,0,1.66,1.66,0,0,0,.6-2.28,1.71,1.71,0,0,0-2.28-.59,1.15,1.15,0,0,1,1.69.65l-.42,1.59a5.55,5.55,0,0,1,.42-.42c.13-.11.15-.12,0,0a.76.76,0,0,1,.19-.12l.2-.1c-.12.05-.1,0,.07,0s.38-.12.57-.16a1.41,1.41,0,0,0,1-1.54,1.39,1.39,0,0,0-1.38-1.22Z" style="fill:#20528e"/><path d="M438.36,219.45a4.67,4.67,0,0,0-3.92-.14,3.82,3.82,0,0,0-2.59,3.32,1.65,1.65,0,0,0,3.06.83c.5-1,1.12-2,2.41-1.52s2.42-1.8,1-2.49Z" style="fill:#20528e"/><path d="M456,254.47c-2.58.64-17.38,6.94-11,10.7,2.76,1.61,7.3.82,10-.4a8.54,8.54,0,0,0,5.38-7.58,2.33,2.33,0,0,0-1.16-2l-.38-.2a1.83,1.83,0,0,0-2.16.27c-1.58,1.58-.67,3.65-2.69,5.13a8.57,8.57,0,0,1-3.59,1.38c-.39.07-3.52.48-3.69.22l.18,1.35c.22-1.53,3.21-3.48,4.29-4.2a19.92,19.92,0,0,1,5.36-2.47,1.13,1.13,0,0,0-.6-2.17Z" style="fill:#20528e"/><path d="M503.86,187.8a2.56,2.56,0,0,0-3.64.17,2.13,2.13,0,0,0-.32,2.52,2.44,2.44,0,0,0,.75.75,2.27,2.27,0,0,0,1.6.21c1.58-.21,2.82-2.35,1.61-3.65Z" style="fill:#20528e"/><path d="M543.34,206.45l-1.16.24a1.79,1.79,0,0,0-1.09.84,1.77,1.77,0,0,0-.09,1.63,1.74,1.74,0,0,0,1,1,1.87,1.87,0,0,0,1.63-.09l1-.49a1.7,1.7,0,0,0,.77-1,1.7,1.7,0,0,0-2.07-2.08Z" style="fill:#20528e"/><path d="M445.56,154.07a20.36,20.36,0,0,0-10.59,4c-2.35,1.83-3.58,5.09-.73,7.12,5.29,3.78,13.74-1.74,14.1-7.63.14-2.28-3.16-2.53-3.82-.52s-1.22,3.49-2.95,4.66c-1.13.76-3.45,1.69-4.76.93-2-1.15,1.74-3,2.86-3.59a24.31,24.31,0,0,1,6.27-2.13c1.58-.33,1.26-3-.38-2.86Z" style="fill:#20528e"/><path d="M372.33,214.54l-.76.73a1.55,1.55,0,0,0,0,2.16,1.55,1.55,0,0,0,1.08.44,1.56,1.56,0,0,0,1.08-.44l.72-.76a1.58,1.58,0,0,0,.44-1.06,1.54,1.54,0,0,0-.44-1.07,1.49,1.49,0,0,0-1.06-.43,1.57,1.57,0,0,0-1.06.43Z" style="fill:#20528e"/><path d="M497.6,145.74c-2.77,1.35-5.92,3.55-7.15,6.5-1.14,2.71.7,5.14,3.48,5.43a7.64,7.64,0,0,0,6.72-3.23c1.64-2.19,2.61-5.68.82-8-1.17-1.5-3.22-.08-3.36,1.4-.13,1.31.41,2.32-.14,3.64a4.61,4.61,0,0,1-2.89,2.67c-.64.17-1.41.29-1.67-.36s.72-1.79,1.14-2.32a17.23,17.23,0,0,1,4.16-3.83,1.1,1.1,0,0,0-1.11-1.9Z" style="fill:#20528e"/><path d="M362,315.91a9.54,9.54,0,0,0-7.69,3c-2,2.14-.42,4.24,1.88,5.16,5.73,2.26,10.82-2.86,10-8.53-.36-2.4-4.2-1.43-3.71,1a3.92,3.92,0,0,1-4.7,4.62c-.16,0-1.5-.7-1.34-.07-.1-.38,1.69-1.47,1.95-1.63a12.71,12.71,0,0,1,4-1.28c1.4-.29.89-2.16-.31-2.3Z" style="fill:#20528e"/><path d="M343.46,106.85h-.31a1.64,1.64,0,0,0-1.12.47,1.08,1.08,0,0,0-.33.51,1.17,1.17,0,0,0-.14.61,1.61,1.61,0,0,0,.47,1.13,1.63,1.63,0,0,0,1.12.47h.31a1.64,1.64,0,0,0,1.12-.47,1.13,1.13,0,0,0,.33-.51,1.2,1.2,0,0,0,.14-.62,1.61,1.61,0,0,0-.47-1.12,1.63,1.63,0,0,0-1.12-.47Z" style="fill:#20528e"/><path d="M296.53,341c.78-.5,1.55-1,2.29-1.55a1.8,1.8,0,1,0-2.18-2.83c-.72.59-1.38,1.23-2,1.88a1.59,1.59,0,0,0,1.93,2.5Z" style="fill:#20528e"/><path d="M575.25,200.87a.89.89,0,0,0,0-1.78.89.89,0,0,0,0,1.78Z" style="fill:#20528e"/><path d="M176.57,272.26a6.84,6.84,0,0,0,1.26-.57,9.23,9.23,0,0,0,1.11-.87,1.53,1.53,0,0,0-1.85-2.39,6.5,6.5,0,0,0-1.93,1.4,1.48,1.48,0,0,0-.23,1.76,1.46,1.46,0,0,0,1.64.67Z" style="fill:#20528e"/><path d="M275.56,203.74a5.76,5.76,0,0,0,2-.4,4.59,4.59,0,0,0,1.71-1.28,1.23,1.23,0,0,0-.87-2.08,4.32,4.32,0,0,0-2.16.25c-.25.11-.53.21-.78.34a4.19,4.19,0,0,0-.88.69,1.46,1.46,0,0,0,1,2.48Z" style="fill:#20528e"/></svg>