<svg id="Layer_1" data-name="Layer 1" xmlns="http://www.w3.org/2000/svg" viewBox="0 0 626.66 399.79"><polygon points="24.84 200.51 311.17 367.11 601.6 200.51 311.31 32.89 24.84 200.51" style="fill:#163b72"/><path d="M284.11,108.84c-6.92,1.64-12.48,7.16-17.41,11.93a2.13,2.13,0,0,0,.43,3.31,10.5,10.5,0,0,0,9.43.32,41.83,41.83,0,0,0,5.49-3c1.82-1.06,3.81-1.65,5.67-2.62,2.47-1.28,4.16-3.65,3.42-6.51s-3.11-4-5.65-2.81c-1.66.79-1.39,3.18,0,4,1,.63-1,.9-1.81,1.31a32.22,32.22,0,0,0-3.6,2c-3.12,2-6.81,5.38-10.82,3.65l.76,2.88c4.06-5.36,9.89-8.09,15.18-11.91a1.41,1.41,0,0,0-1.09-2.57Z" style="fill:#20528e"/><path d="M208.88,181.38c-4.4-1.41-12.49,6.31-7.59,10,2.27,1.69,5.59.5,7.87-.54,2.76-1.25,5.9-3.42,7.26-6.22,1.07-2.22-1.6-4.53-3.5-2.7-2.35,2.25-4.07,4.43-7.31,5.5-.17.05-1.58.57-1.69.38.2.36,1.55-1.57,1.49-1.5,1.08-1.14,2.59-1.45,3.8-2.35a1.41,1.41,0,0,0-.33-2.53Z" style="fill:#20528e"/><path d="M272.72,240.89a10,10,0,0,0-5.92,1.54,10.3,10.3,0,0,0-4.19,5,3.16,3.16,0,0,0,3,4.39,7.07,7.07,0,0,0,3-1c1.35-.67,2.71-1.34,4-2.11,2.33-1.35.29-4.53-2.06-3.52-1.29.56-2.54,1.21-3.8,1.84l-.87.44c-.63.14-.41.41.65.81.19-.05.61-1.05.74-1.22a9.14,9.14,0,0,1,5.37-3.22c1.83-.22,2-3,0-3Z" style="fill:#20528e"/><path d="M422,172.89a25.58,25.58,0,0,0-18.82,12.62,2.36,2.36,0,0,0,.83,3.18c5,2.91,10.13.21,14.65-2.34,4.07-2.29,10.37-5.21,8.72-10.94-.87-3-5.3-1.76-4.7,1.3.48,2.41-5.55,4.9-7.11,5.79-2.69,1.54-6,3.68-9.21,2.18l.83,3.17a25.42,25.42,0,0,1,15.36-13,1,1,0,0,0-.55-2Z" style="fill:#20528e"/><path d="M370.94,205.42c-4.23-.3-9.78,3.9-7.14,8.49,2.9,5.07,9.51.5,11.52-2.93a1.83,1.83,0,0,0-2-2.65c-1.42.33-2.27,1.33-3.3,2.29-.37.35-1.92,1.81-2.56,1.23s.41-1.67.8-2c1-.8,2.37-1,3.49-1.62a1.54,1.54,0,0,0-.77-2.84Z" style="fill:#20528e"/><path d="M347.41,289.23a16.82,16.82,0,0,0-11.9,7,2.22,2.22,0,0,0,.79,3,8.63,8.63,0,0,0,8.1.05c2.44-1.17,5.38-3.52,5.72-6.33.15-1.23-1.27-2-2.28-1.74-3.26.73-5.27,6.28-9.3,4.2l.79,3a15.17,15.17,0,0,1,8.55-5.73c1.89-.49,1.56-3.76-.47-3.5Z" style="fill:#20528e"/><path d="M423.67,255a2.24,2.24,0,0,0-2.44,1.19,2,2,0,0,0-.29,1.53,1.46,1.46,0,0,0,1.16,1.07c.45.07,1-.21,1-.75,0-.25-.05,0,0-.09a1.68,1.68,0,0,0,.07-.44c0-.13,0-.12,0,0a.8.8,0,0,0,0-.34c0-.06,0-.39,0-.11s0,0,0-.06h0l.13-.12-.07.06c.1-.06.1-.06,0,0,.12,0,.11,0,0,0h.17c1.13.12,1.38-1.76.27-2Z" style="fill:#20528e"/><path d="M401.75,292.52a2,2,0,0,0-1.22-1,2.36,2.36,0,0,0-1.29,0,2.26,2.26,0,0,0-1.3,1,2.15,2.15,0,0,0,0,2,1.62,1.62,0,0,0,1,.76,1.72,1.72,0,0,0,1.88-.76,1.92,1.92,0,0,0,.17-1.29v0l.06.45v-.11l-.06.44,0-.1-.17.41a1.71,1.71,0,0,1,.13-.23l-.27.35.11-.11-.33.26.16-.1-.39.16.18-.05-.43.06h.11l-.43-.06.14,0-.38-.16.06,0-.32-.24.09.08a1.57,1.57,0,0,0,1.11.46,1.67,1.67,0,0,0,1-.34,1.53,1.53,0,0,0,.56-.81,1.7,1.7,0,0,0-.16-1.21Z" style="fill:#20528e"/><path d="M145.41,240.13c-3.82-.25-7.48,3.32-9.49,6.2a2,2,0,0,0,1.2,3,11,11,0,0,0,8-1.06c2-1.1,5-3.64,4.28-6.17a1.64,1.64,0,0,0-2.37-1c-.84.36-1.09.91-1.58,1.62a6.69,6.69,0,0,1-2.11,1.92,6.82,6.82,0,0,1-5.18.78l1.21,3a11.84,11.84,0,0,1,3.1-3.25c1.17-.82,2.54-1.28,3.68-2.15a1.54,1.54,0,0,0-.77-2.84Z" style="fill:#20528e"/><path d="M145.49,180.43a5.47,5.47,0,0,0-2.36.46A3.59,3.59,0,0,0,141,183a1.91,1.91,0,0,0,.87,2.14,2,2,0,0,0,2.3-.29,5.4,5.4,0,0,0,.62-.74c-.09.13-.16.17,0,0s.34-.33.16-.17.1-.06.13-.08-.15,0,0,0-.26,0,0,0,.26,0,.4,0a1.75,1.75,0,0,0,1.73-1.73,1.77,1.77,0,0,0-1.73-1.74Z" style="fill:#20528e"/><path d="M82.85,179.94a4.39,4.39,0,0,0-3.48.81,12,12,0,0,0-2.62,2.36,2,2,0,0,0,1.39,3.34,8.28,8.28,0,0,0,6.25-2.33c1.94-1.77-1-4.7-2.88-2.89a5,5,0,0,1-3.37,1.3l1.69,2.95c.93-1.69,2.52-2.7,3.52-4.3a.84.84,0,0,0-.5-1.24Z" style="fill:#20528e"/><path d="M213.59,115.31a3,3,0,0,0-4.28,1.69,1.48,1.48,0,0,0,2.85.78s0-.35,0-.14,0,0,.05-.07-.12.19,0,0l.08-.08c-.12.1-.14.12-.05.06s.26-.11.08,0,.12,0,.15,0-.18,0,0,0c-.28,0,.08,0-.12,0A1.28,1.28,0,0,0,214,117a1.26,1.26,0,0,0-.45-1.7Z" style="fill:#20528e"/><path d="M296.42,171.84c-.79-1-2.51-.57-3.55-.25a9.8,9.8,0,0,0-3.33,2,1.83,1.83,0,0,0,0,2.52,2.9,2.9,0,0,0,4.68-.4,1.6,1.6,0,0,0-.41-2.08,1.66,1.66,0,0,0-2.13.12c.15-.11.69-.19.26-.18,0,0,.14,0,.12,0v2.52a9,9,0,0,1,2.26-1.5c.78-.4,1.87-.55,2.28-1.42a1.18,1.18,0,0,0-.18-1.36Z" style="fill:#20528e"/><path d="M237.58,207.38c-2.59,0-12,1.73-9.39,6.18,2.37,4,9.77-.61,11.68-2.94a1.89,1.89,0,0,0-2.27-3c-1.07.56-2.07,1.19-3.13,1.76a13.12,13.12,0,0,1-1.65.79,10.19,10.19,0,0,0-1.72.56l-.13,0c.11,1.83.56,2.29,1.36,1.38a9.61,9.61,0,0,1,1.51-.91,11,11,0,0,1,3.74-.95c1.86-.17,1.94-3,0-3Z" style="fill:#20528e"/><path d="M361.25,89c-3.32-1.23-7.3,1.72-8.77,4.56A1.89,1.89,0,0,0,355,96.11c1.48-.81,3-1.56,4.44-2.49s.59-4-1.35-3.22c-1.71.72-3.34,1.64-5,2.48l2.56,2.56a7.06,7.06,0,0,1,2.44-2.76c1.07-.66,2.26-1,3.38-1.55a1.19,1.19,0,0,0-.28-2.14Z" style="fill:#20528e"/><path d="M324.09,69.92a1.08,1.08,0,0,0,0-2.16,1.08,1.08,0,0,0,0,2.16Z" style="fill:#20528e"/><path d="M388.28,151.39a3.57,3.57,0,0,0-2.76,1.23,1.46,1.46,0,0,0,.15,2.17,1.45,1.45,0,0,0,2.13-.41s.16-.37.21-.36-.18.19,0,0c0,0,.23-.23.09-.11s.05,0,.08,0l.19-.1c.13-.08-.17,0,0,0l.25-.07a1.18,1.18,0,0,0,.85-1.31,1.2,1.2,0,0,0-1.17-1Z" style="fill:#20528e"/><path d="M513.83,161a25.44,25.44,0,0,0-17.48,8.38c-1.09,1.19-.39,3.48,1.41,3.39,5.3-.28,10.93-1.64,15.18-5,1.89-1.47-.52-3.86-2.35-3.05-4.31,1.89-8.07,3.6-12.83,4l1.4,3.39a25.59,25.59,0,0,1,15-8.57c1.48-.26,1.15-2.73-.35-2.62Z" style="fill:#20528e"/><path d="M486.72,205.4a2.5,2.5,0,0,0-1.1-.29,2.39,2.39,0,0,0-.75.11,2.48,2.48,0,0,0-1.48,1.19,1.86,1.86,0,0,0-.17,1.31,1.62,1.62,0,0,0,1,1.11,1.72,1.72,0,0,0,2.31-1.11.83.83,0,0,1,.06-.21l-.17.4.08-.14-.25.33a1.14,1.14,0,0,1,.19-.19l-.32.25.14-.09-.38.16.22-.06-.42.06h.22l-.4-.05h.05a1.66,1.66,0,0,0,1.18-.15,1.63,1.63,0,0,0,.62-.73,1.49,1.49,0,0,0-.62-1.9Z" style="fill:#20528e"/><path d="M539.4,206.7l-.37-.18-.51-.22a1.68,1.68,0,0,0-.86,0,1.11,1.11,0,0,0-.54.14,1.6,1.6,0,0,0-.69.45l0,0a1.6,1.6,0,0,0-.44.68,1.64,1.64,0,0,0-.18.82l.07.56a2,2,0,0,0,.55.93l0,0,.43.33a1.65,1.65,0,0,0,.8.26,1.1,1.1,0,0,0,.57,0,1.65,1.65,0,0,0,.8-.26l.37-.17a2.13,2.13,0,0,0,.7-.7,1.93,1.93,0,0,0-.7-2.66Z" style="fill:#20528e"/><path d="M276.59,308.17a12.55,12.55,0,0,0-9.57,4.72,1.8,1.8,0,0,0,1.25,3,14.37,14.37,0,0,0,8.7-2.22c2-1.26.15-4.48-1.87-3.2a11.77,11.77,0,0,1-6.83,1.87l1.54,2.67A11,11,0,0,1,277,311c1.61-.28,1.21-2.82-.38-2.8Z" style="fill:#20528e"/><path d="M343.24,186.41a1.72,1.72,0,0,0-.41-.54c-.12-.12-.11-.08.05.11-.1-.13-.2-.27-.31-.39a2.86,2.86,0,0,0-1.24-.77c-1.44-.4-3.31.63-3.09,2.27a1.88,1.88,0,0,0,.49,1.1c.23.23.45.23.7.39-.33-.16-.43-.2-.29-.12a1.86,1.86,0,0,0,.95.26,3.13,3.13,0,0,0,1.13-.32c-.85.29.53,0-.38.1a2.47,2.47,0,0,0,.76-.15c-.31,0-.37,0-.19,0l.17,0-.78-.22c.11.07.11.06,0,0a.46.46,0,0,1-.19-.22,1.58,1.58,0,0,0,2.09.55,1.55,1.55,0,0,0,.54-2.09Z" style="fill:#20528e"/><path d="M277.55,67.06a53.35,53.35,0,0,0-5.35,2A39.19,39.19,0,0,0,267,72.46a1.54,1.54,0,0,0,.77,2.84c3.94.19,8.36-1.22,11-4.3a1.75,1.75,0,0,0-2.48-2.48c-2.5,2.29-5,3.72-8.5,3.73l1.07,2.61a36.91,36.91,0,0,1,4.5-3.78A34.71,34.71,0,0,1,277.93,68c.5-.23.14-1.11-.38-.9Z" style="fill:#20528e"/><path d="M198.9,282.28a5,5,0,0,0-3.92.34,5.7,5.7,0,0,0-2.57,3.12,1.91,1.91,0,0,0,1.83,2.4,7.27,7.27,0,0,0,6-2.67,1.75,1.75,0,0,0,.13-2.27,1.7,1.7,0,0,0-2.23-.45,7.42,7.42,0,0,1-3.92,1.6l1.83,2.4a2.41,2.41,0,0,1,2.43-1.47c1.73.19,2-2.57.4-3Z" style="fill:#20528e"/><path d="M431,107.41a3.16,3.16,0,0,0-2.91.44,3.06,3.06,0,0,0-1.22,3.28,1.46,1.46,0,0,0,2.85-.39c0-.15,0-.36,0-.11,0-.15.17-.3,0-.11a3.54,3.54,0,0,0,.19-.33s.24-.36,0-.12a1.72,1.72,0,0,1,.27-.27c-.18.15.08,0,.14-.06-.17.08,0,0,.1,0h.22a1.18,1.18,0,0,0,1.17-1,1.2,1.2,0,0,0-.85-1.31Z" style="fill:#20528e"/><path d="M480.11,259.73a3.79,3.79,0,0,0-3.66.71,1.64,1.64,0,0,0,0,2.3,2.73,2.73,0,0,0,2.37.61,2.82,2.82,0,0,0,1.73-1.21,1.54,1.54,0,0,0-.4-2,1.59,1.59,0,0,0-2.06.12.42.42,0,0,1,.22-.15c.12,0,.12,0,0,0l-.11,0c.22,0,.27,0,.15,0s.39.13,0,0L478,260l1,2.38a2.12,2.12,0,0,1,.11-.21c-.12.15-.13.16,0,0s.33-.3.21-.21l.05,0c.19-.1.14-.09-.17,0h.25c-.12,0-.11,0,0,0a1.2,1.2,0,1,0,.63-2.31Z" style="fill:#20528e"/><path d="M333.94,340.51a9.53,9.53,0,0,1,.44-1A1.59,1.59,0,0,0,333,337.1a6.34,6.34,0,0,0-4.74,1.72,2.14,2.14,0,0,0,1.5,3.63l4.35-.26a2.13,2.13,0,0,0,2.08-2.09,2.1,2.1,0,0,0-2.08-2.08l-4.35.17,1.84,3.21a3.32,3.32,0,0,1,1.82-1.21l-1.94-1.93a12.85,12.85,0,0,1-.41,1.47,1.47,1.47,0,1,0,2.84.78Z" style="fill:#20528e"/></svg>