<svg id="Layer_1" data-name="Layer 1" xmlns="http://www.w3.org/2000/svg" viewBox="0 0 411.73 403.94"><polygon points="62.9 313.17 177.09 379.1 212.92 360.82 95.91 294.11 62.9 313.17" style="fill:#5f84ce;stroke:#000;stroke-linecap:round;stroke-linejoin:round;stroke-width:5px"/><polygon points="229.29 214.98 343.48 280.92 379.31 262.63 262.3 195.92 229.29 214.98" style="fill:#5f84ce;stroke:#000;stroke-linecap:round;stroke-linejoin:round;stroke-width:5px"/><path d="M175.9,361.09a6,6,0,0,1-6-6V284.37L67.31,225.13a6,6,0,0,1-3-5.2V136.51a6,6,0,0,1,12,0v80L178.9,275.71a6,6,0,0,1,3,5.19v74.19A6,6,0,0,1,175.9,361.09Z" style="fill:#b95838;stroke:#000;stroke-linecap:round;stroke-linejoin:round;stroke-width:5px"/><path d="M344.47,263.76a6,6,0,0,1-6-6V187L235.88,127.8a6,6,0,0,1-3-5.2V39.17a6,6,0,0,1,12,0v80l102.59,59.23a6,6,0,0,1,3,5.2v74.19A6,6,0,0,1,344.47,263.76Z" style="fill:#b95838;stroke:#000;stroke-linecap:round;stroke-linejoin:round;stroke-width:5px"/><path d="M99.83,317.14a6,6,0,0,1-6-6V236.07a6,6,0,0,1,12,0v75.07A6,6,0,0,1,99.83,317.14Z" style="fill:#b95838;stroke:#000;stroke-linecap:round;stroke-linejoin:round;stroke-width:5px"/><path d="M269.42,223.38a6,6,0,0,1-6-6V142.31a6,6,0,0,1,12,0v75.07A6,6,0,0,1,269.42,223.38Z" style="fill:#b95838;stroke:#000;stroke-linecap:round;stroke-linejoin:round;stroke-width:5px"/><polygon points="70.31 242.37 70.31 262.29 129.36 296.13 129.36 276.95 70.31 242.37" style="fill:#2b3990;stroke:#000;stroke-linecap:round;stroke-linejoin:round;stroke-width:5px"/><polygon points="129.36 296.13 369.75 156.32 369.75 138.64 129.36 276.95 129.36 296.13" style="fill:#2b3990;stroke:#000;stroke-linecap:round;stroke-linejoin:round;stroke-width:5px"/><path d="M70.31,242.37s15.54-13,24.08-14.22,16.11-5.56,25.13-10.77,13.56-13.18,23-13.3,27.27-15.74,37.72-21.77,40.29-29.85,51.24-29.59,37-24.83,47.76-27.57,31.85-18.4,31.85-18.4l24.08,13.91-18.33,13.9L341,124l28.77,14.65s-44,28.4-60.37,34.73S271.61,195.1,264.81,199s-15.89,16.37-22.36,16.48S211.36,229.77,205.73,233,153,268.9,147.56,269.25s-18.2,7.7-18.2,7.7l-25-15.68,17.45-11.58L97.16,258.1s-9.87-8.37-11.36-8.37S70.31,242.37,70.31,242.37Z" style="fill:#1c75bc;stroke:#000;stroke-linecap:round;stroke-linejoin:round;stroke-width:5px"/><path d="M46.23,215.87s28.4-18.23,38.45-21.21,38.7-24.93,49.86-28.28,51-28.12,59.54-33.49,70.62-44,76.95-47.74,12.28-7.44,12.28-7.44-.26-19.61.44-23,0-10.41,0-10.41V29.82S219.21,70,211.85,72.89s-43.69,28.69-47.54,29.49-55.82,31.79-61,34.13-56.07,29.87-56.07,29.87Z" style="fill:#2b3990;stroke:#000;stroke-linecap:round;stroke-linejoin:round;stroke-width:5px"/><path d="M46.23,215.87,32.59,206.2s-.37-28.22,0-29.93-.17-17.83-.17-17.83l14.8,7.94Z" style="fill:#2b3990;stroke:#000;stroke-linecap:round;stroke-linejoin:round;stroke-width:5px"/><path d="M283.75,29.82l-11.23-5s-43.21,27.52-47.19,28.81-24.44,12.74-29.15,14.55-44.52,28.24-50.85,31.59S96.59,126.57,89.15,131s-49.33,24.56-49.33,24.56l-7.4,2.85,14.8,7.94a670.77,670.77,0,0,0,67.23-31.82c31.05-17.17,60.42-38.75,65.61-41.71,10.67-6.1,37.88-23.11,46.6-27.81S283.75,29.82,283.75,29.82Z" style="fill:#1c75bc;stroke:#000;stroke-linecap:round;stroke-linejoin:round;stroke-width:5px"/><path d="M74.88,169.79a3.58,3.58,0,0,0-4.48,2.7,4.21,4.21,0,0,0,2.92,5,4,4,0,0,0,5-2.87,4.5,4.5,0,0,0-.39-3.24,3.57,3.57,0,0,0-4.1-1.8,3.22,3.22,0,0,0-2,1.82,3,3,0,0,0,.16,2.8,3.79,3.79,0,0,0,1.36,1.31c.23.12.09,0-.41-.33l-.36-.45s-.27-.8-.18-.41a1.6,1.6,0,0,1,.18-1.4,2.35,2.35,0,0,1,1.23-1l.47-.05c-.22,0-.2,0,.08,0a.7.7,0,0,1,.42.11c.2.1.25.11.12,0s-.09,0,.08.08a.91.91,0,0,1,.38.42c-.19-.3,0,.11.08.21l.06.36c-.07.38-.09.47,0,.28s-.23.41-.06.14,0-.1-.14.15l.37-.48c.08-.12.24-.69.31-.7-.13.3-.16.38-.07.23s0-.08-.1.13a1.89,1.89,0,0,0-.83-3.13Z"/><path d="M133.82,239.56a3.19,3.19,0,0,0-1.32-1.78,4,4,0,0,0-1.88-.47,3.83,3.83,0,0,0-3.22,1.79,3.62,3.62,0,0,0,.06,3.77,5.15,5.15,0,0,0,2.31,1.84c2.1,1,4.56,1.57,6.45-.23a4.27,4.27,0,0,0,1.28-3.2,4.46,4.46,0,0,0-2.09-3.62,3.73,3.73,0,0,0-4.54.67,3.5,3.5,0,0,0,0,4.9l-.44-.58.57.74.73.57-.51-.4-.7-1.18,1.77-3.4.48-.06c-.3,0-.3,0,0,0,.52.09,0,0-.12-.05s-.34-.08-.5-.12l-.5-.13c-1.12-.33.92,0,1.13,1.34v1.59l-1.4,1.32c-.39.08-.36.09.1,0a2.62,2.62,0,0,0,1.17-.42,2.66,2.66,0,0,0,1.18-2.92Z"/><path d="M246.22,68.62a5.25,5.25,0,0,0-1.77,5.14,4.59,4.59,0,0,0,4.27,3.48A4.38,4.38,0,0,0,253,73a5.45,5.45,0,0,0-2.6-4.88,3.34,3.34,0,0,0-3.65.25,3.27,3.27,0,0,0-1.17,3.45,5.09,5.09,0,0,0,.4,1,7.82,7.82,0,0,0,.67.85c-.43-.69,0,0,0,0-.15-.42-.2-.52-.14-.3s.05.12-.06-.42a1.79,1.79,0,0,1,.25-1,1.86,1.86,0,0,1,2-1,1.58,1.58,0,0,1,1.57.78l.15.39c0,.46,0,.51,0,.14-.11.75.05,0,.09-.14.12-.88.14-1,.06-.49,0-.16.05-.32.08-.47a2.71,2.71,0,0,0-1.21-3,2.74,2.74,0,0,0-3.18.41Z"/><path d="M302.54,141.83a5.4,5.4,0,0,0-3.35-1.4,2.91,2.91,0,0,0-3.26,4.24,8.34,8.34,0,0,0,9.21,3.92c2.11-.46,2.77-2.93,1.9-4.66a6,6,0,0,0-2.22-2.32,3.11,3.11,0,0,0-3.21,0l-.16.11a2.92,2.92,0,0,0-1.44,2.51,3.7,3.7,0,0,0,.95,2.39c.66.56.84.69.53.37-.13-.24-.11-.19.07.15l1.89-4.66c-.19,0-.45.08-.1.05a4.56,4.56,0,0,1-.64,0c.33,0,.09,0-.11,0l-.78-.21c-.48-.15.3.17-.15-.06a4.34,4.34,0,0,1-.54-.33c-.4-.28.2.22-.14-.13a7.2,7.2,0,0,1-.52-.6l-2,4.92a5.65,5.65,0,0,0,3.65-.67,2.33,2.33,0,0,0,.46-3.6Z"/><path d="M155.81,232.92a9.38,9.38,0,0,0,2.18-.29c.89-.3,1.75-.85,2.61-1.22a12.64,12.64,0,0,0,4.62-2.8,1.8,1.8,0,0,0-1.26-3,11.17,11.17,0,0,0-9,5.8c-.3.64,0,1.62.89,1.55Z" style="fill:#2b3990"/><path d="M166.42,221.83a16.56,16.56,0,0,0,5.85-3.63.69.69,0,0,0-.83-1.07c-1.89,1.06-3.67,2.31-5.61,3.29-.77.38-.22,1.75.59,1.41Z" style="fill:#2b3990"/><path d="M162.83,228c2.7-4.86,6.41-7.08,11.1-9.68,5.18-2.86,10.16-6.14,15.25-9.17,4.81-2.87,9.54-5.87,14.34-8.77s10.09-5.37,14.5-8.92a.9.9,0,0,0-.86-1.49c-5.59,2.2-10.56,5.79-15.81,8.67-6.07,3.33-12.14,6.64-18.17,10.05-7.49,4.23-20.16,9-22.49,18.4a1.18,1.18,0,0,0,2.14.91Z" style="fill:#2b3990"/><path d="M148.76,237.4c7-4.11,14.16-8.14,21-12.59a107,107,0,0,0,8.68-6.92c3.08-2.51,6.44-4.59,9.22-7.46A.92.92,0,0,0,186.5,209c-3.61,1.61-6.67,4-10.05,6s-7,3.83-10.23,6.35c-6.21,4.81-12.3,9.83-18.37,14.83-.66.55.19,1.6.91,1.18Z" style="fill:#2b3990"/><path d="M233.19,192.32c5.78-2.76,11.28-6.62,16.8-9.9,5.87-3.5,11.66-7.11,17.49-10.67,10.82-6.6,23.43-11.21,32.8-20a1.47,1.47,0,0,0-1.42-2.43c-12.47,4.21-22.7,13.55-33.7,20.4-5.52,3.44-11.06,6.86-16.49,10.44s-11.36,6.94-16.36,11c-.68.55.19,1.47.88,1.14Z" style="fill:#2b3990"/><path d="M300.41,154.56c3.17-.78,6.38-1.64,9.52-2.55,1.72-.5,3.41-1,4.53-2.52,1.6-2.19,1.69-3.41,4.14-5.26s5.35-3.61,7.95-5.52c.76-.56.09-1.82-.75-1.3a49.6,49.6,0,0,1-8.24,4.37c-1.69.66-3.66.78-5.1,1.95-1.62,1.33-2.34,3.31-4.07,4.63-2.59,2-5.79,3.12-8.59,4.75a.8.8,0,0,0,.61,1.45Z" style="fill:#2b3990"/><path d="M336.25,132.76l1.83-1.17a.56.56,0,0,0-.57-1l-1.9,1c-.72.39-.05,1.53.64,1.09Z" style="fill:#2b3990"/><path d="M95,242.2c8-2.43,16.32-6.8,23.78-10.7,3.82-2,7.54-4.15,11.29-6.26,4-2.27,8.23-3.13,11.92-6,3.44-2.63,7.38-4.1,10.8-6.65a107.68,107.68,0,0,1,9.31-6.8c8.14-4.87,16.08-10.12,24-15.29.65-.43.05-1.47-.62-1.05-8,5-16.14,10-24,15.36-6.63,4.51-14.42,5.09-21.57,8.61-4.3,2.12-6.31,4.88-10.19,7.61-3.48,2.45-7.42,4.44-11.12,6.55s-7.48,4.23-11.18,6.43c-4.22,2.52-8.86,4.29-13,6.9A.68.68,0,0,0,95,242.2Z" style="fill:#2b3990"/><path d="M125.79,266.47c9.57-4,18.71-8.84,28.31-12.71,10-4,18.13-10.55,27-16.43q28.46-18.92,57-37.76a.37.37,0,0,0-.38-.64c-19.32,11.39-38.59,22.88-57.91,34.28-9.18,5.41-18.82,9.87-27.61,16-8.56,5.93-18.29,9.92-27.3,15.11-1.13.66-.36,2.72.92,2.19Z" style="fill:#2b3990"/><path d="M257.9,151.71c11.19-5.45,22.44-10.92,33.41-16.78,5.35-2.86,10.61-5.91,16-8.71,4.41-2.29,11.44-3.38,14.06-7.92a1.66,1.66,0,0,0-1.42-2.47c-5.3.12-9.55,5.62-13.85,8.31-5.14,3.22-10.52,6.09-15.81,9-10.92,6-21.79,12-33,17.54-.67.34-.08,1.34.59,1Z" style="fill:#2b3990"/><path d="M332.59,154.59c7.51-5.83,17-8.79,25-14,2.5-1.64-.66-5.14-2.59-2.6-5.54,7.28-16.11,10.06-23.06,15.94-.49.41.21,1.07.7.69Z" style="fill:#2b3990"/><path d="M256.23,187.47a14.49,14.49,0,0,0-4.77,2.44,18.81,18.81,0,0,0-3.47,3.66c-.57.66,0,1.89.92,1.57,4.21-1.37,9.85-3.75,12.34-7.63A1.11,1.11,0,0,0,260,185.9c-1.7.5-3.36,1-4.53,2.37-.47.57.12,1.49.82,1.07,1.3-.78,2.44-1.49,4-1.29l-.55-2c-2,1-3.71,2.76-5.58,4a43.58,43.58,0,0,1-6,3.4l1.39,1.07c.68-3.19,5.28-3.56,7.64-4.71,1.33-.64.37-2.63-1-2.31Z" style="fill:#2b3990"/><path d="M247.15,198.9a27.14,27.14,0,0,0-4,2.56,1.15,1.15,0,0,0-.41,1.54,2.72,2.72,0,0,0,3.47.86c1.3-.53,2-1.82,3.12-2.57,1.71-1.11.18-3.8-1.61-2.76a4.86,4.86,0,0,0-1.83,2.13,2.73,2.73,0,0,1-.65.89c-.09.07-.2.12-.29.18s-.38,0-.27.13l-.17,1.36c1.13-1,2.33-1.86,3.53-2.74a.91.91,0,0,0-.92-1.58Z" style="fill:#2b3990"/><path d="M208.71,172.82c-4.39.92-6.93,3.57-10.15,6.47a1.41,1.41,0,0,0,1,2.37c5.7.52,10.18-2.87,13.18-7.41.86-1.31-.56-2.69-1.88-2.44-1.61.3-2.83.69-3.69,2.11a1.3,1.3,0,0,0,1.12,1.94,29.88,29.88,0,0,0,3.45-.84l-1.88-2.44c-2.35,3.56-6.65,5.41-10.67,6.36l1.57,2c1.87-2.92,5.7-4.91,8.63-6.57a.87.87,0,0,0-.66-1.59Z" style="fill:#2b3990"/><path d="M221.62,171.7c-.75-1.31-2.53-1-3.63-.32a5,5,0,0,0-2.28,3.09,1.66,1.66,0,0,0,1.59,2.09,6.75,6.75,0,0,0,3.28-1c1-.6,2.27-1.6,2.14-2.89a1.49,1.49,0,0,0-1.84-1.4c-.86.17-1.3.94-2,1.37a5,5,0,0,1-2,.65l2,2a2,2,0,0,1,.82-1.46c.67-.49,1.43-.64,1.9-1.38a.83.83,0,0,0,0-.81Z" style="fill:#2b3990"/><path d="M286.12,145.84c-.75-1-2.09-.79-3.08-.21a3.42,3.42,0,0,0-1.71,3,1.58,1.58,0,0,0,2.35,1.35,24.68,24.68,0,0,0,4.07-2.76,1.6,1.6,0,0,0,.24-1.88,1.55,1.55,0,0,0-1.75-.71,23.38,23.38,0,0,0-4.13,2.65l2.34,1.35c-.06-1.15.87-.94,1.52-1.59a1,1,0,0,0,.15-1.19Z" style="fill:#2b3990"/><path d="M138,226.36c-2.23.6-4.27,2.47-6.18,3.72a1.44,1.44,0,0,0-.51,1.93c1,2.21,4.39,2.7,6.42,1.76a8.1,8.1,0,0,0,3.18-2.8,8.52,8.52,0,0,0,1-1.9,10.28,10.28,0,0,1,.74-2.38,1.06,1.06,0,0,0-1.18-1.53c-1.82.36-4.46,1.32-5.29,3.11a1.09,1.09,0,0,0,1.48,1.48,22.58,22.58,0,0,0,1.9-1.52,7.81,7.81,0,0,1,2.46-1.06l-1.17-1.53c-.48.71-1.11,1-1.72,1.5s-1.24,1.43-1.88,2.1c-1.24,1.29-2.48,1.77-4,.84v2.44c1.92-1.45,4.44-2.79,5.82-4.78.48-.69-.31-1.58-1.06-1.38Z" style="fill:#2b3990"/><path d="M139.79,238.94h.2c.15.11.15.09,0,0,0,0,0,0,0,0s0,.09,0,0c0,.16,0,.17,0,0a2.64,2.64,0,0,0-.08.49c0,.16,0,.17,0,0a1.3,1.3,0,0,0,2.15,1.25c.94-1,2.1-2.28,1.36-3.69s-2.83-1.81-3.31-.08c-.19.68.5,1.55,1.24,1.24l0,0c-.15,0-.06,0,.26,0,0,0-.18,0-.17,0s-.28.12,0,0c0,0-.06-.07-.05-.08a3.09,3.09,0,0,1-.95.6l1.76,1.76c1.17-1.65-.8-3.85-2.52-3.84-1.5,0-1.46,2.42,0,2.3Z" style="fill:#2b3990"/><path d="M117.16,240.65a9.35,9.35,0,0,1-1,.55.83.83,0,0,0-.19,1.49,8.35,8.35,0,0,0,3.1,1,1,1,0,0,0,1.17-.48,2.33,2.33,0,0,0-.77-3.12l.58,2.2a3.64,3.64,0,0,0,.5-1.85,1.56,1.56,0,0,0-1.14-1.49,1.61,1.61,0,0,0-1.75.71,3.62,3.62,0,0,0-.6,1.82,1.61,1.61,0,0,0,1.6,1.6c.27,0,0,0-.14-.1s-.21-.12-.22-.29l1-1a11.27,11.27,0,0,1-2.75-.44l.36,1.37a12.93,12.93,0,0,1,1-1c.52-.48-.14-1.28-.74-.95Z" style="fill:#2b3990"/><path d="M55,198.11c7.4-1.78,14.5-6.24,21.24-9.67,6.93-3.52,13.91-6.86,20.58-10.87S110,169,116.66,164.92c3.79-2.34,7.67-4.51,11.45-6.84s7.79-4.27,11.59-6.58c.69-.42.09-1.35-.61-1.05a299.91,299.91,0,0,0-43.82,22.67c-6.55,4.19-12.71,8.95-19.29,13.09-6.82,4.3-14.44,7-21.37,11a.52.52,0,0,0,.4.94Z" style="fill:#1d2b70"/><path d="M167.45,135.82a48.54,48.54,0,0,0,10.39-6.37.88.88,0,0,0-.61-1.49,11.93,11.93,0,0,0-5.67,1.57,9,9,0,0,0-4,4c-.4,1,1,1.95,1.79,1.37,1.29-.9,2.2-2.18,3.54-3.06a17.33,17.33,0,0,1,4.56-2.16l-.85-1.45a67.54,67.54,0,0,1-9.78,6.55c-.7.38-.08,1.38.62,1Z" style="fill:#1d2b70"/><path d="M183.07,126.43c5.39-1.43,10.62-4.77,15-8.18,5.55-4.32,10.33-8.44,16.73-11.57,13.07-6.39,26.15-13.68,37.51-22.77.58-.47,0-1.51-.73-1.26-13.6,5.1-26.67,12.58-38.79,20.6a122.07,122.07,0,0,0-13.74,11c-5,4.48-10.79,7.93-16,12.15,0,0,0,0,0,0Z" style="fill:#1d2b70"/><path d="M255.61,81.32a.43.43,0,0,0,0-.85.43.43,0,0,0,0,.85Z" style="fill:#1d2b70"/><path d="M256,78.44a40.75,40.75,0,0,0,6.57-6c1.53-1.91,1.28-2.72.93-5.05-.21-1.4-1-.31.81-.57,1.38-.19,3.35-2.06,4.59-2.79,3.32-1.92,6.65-4.14,10.13-5.73l-.79-1.87c-3.92,1.45-9.61,4.12-12.3,7.45-1.33,1.63-1.45,3.47-2.34,5.28-1.6,3.26-5.27,5-8,7.24-1.14,1,.32,2.53,1.51,2,4.35-2.1,8.9-4.12,11.41-8.41a19.82,19.82,0,0,1,3.68-5.22c2.37-2.17,5-4,7-6.58a1,1,0,0,0-1.23-1.6,122.65,122.65,0,0,1-12,5.09c-2.31.92-5.32,1.48-7.38,2.92a2.73,2.73,0,0,0-1.37,2.38,24.75,24.75,0,0,0,.95,2.87c.83,3.43-1.33,5-3.42,7.39A.89.89,0,0,0,256,78.44Z" style="fill:#1d2b70"/><path d="M265.4,65.56a3.22,3.22,0,0,0-3.55,1.74,1.51,1.51,0,0,0,.72,2.13,1.49,1.49,0,0,0,2-1,2.38,2.38,0,0,1,.05-.26s.1-.24,0-.08.06-.08.08-.12c-.09.15-.08.09,0,0s.18-.17.07-.07.11-.07.14-.08.11,0,0,0,.35-.07.12,0a1.15,1.15,0,0,0,1.11-1,1.11,1.11,0,0,0-.81-1.23Z" style="fill:#1d2b70"/><path d="M205.6,89.45c-21.93,12.21-44.2,24.5-65,38.7a.42.42,0,0,0,.42.72c22.35-11.53,43.74-25.3,64.9-38.81a.35.35,0,0,0-.36-.61Z" style="fill:#1d2b70"/><path d="M135.86,130.69c-8,2.93-16.89,5.9-23.17,11.82-1,1,.27,2.32,1.4,1.8,7.71-3.59,14.38-9.24,22-13.11a.28.28,0,0,0-.22-.51Z" style="fill:#1d2b70"/><path d="M58,173c9.17-5.51,19.1-7.94,28.89-12a122,122,0,0,0,25.48-14.26,1.41,1.41,0,0,0-1.42-2.43c-9.19,5.11-19.11,8.14-28.78,12.18-8.78,3.68-17.48,9.15-25.23,14.67-1.09.78-.12,2.54,1.06,1.82Z" style="fill:#1d2b70"/><path d="M75.66,166.38c2.63-.74,5.87,1.17,5.24,4.14a2.49,2.49,0,0,0,4.79,1.32c.19-.49,1.79-1,2.24-1.18a10.74,10.74,0,0,0,2.5-1.68,2.71,2.71,0,0,0,.42-3.26c-.79-1.16-1.88-2.29-.92-3.56,1.3-1.69-.46-4.25-2.4-4.18-2.44.09-4.94.71-6.06,3.14-.93,2-.39,4.78,1.76,5.74,2,.9,5.1-1.17,3.44-3.43-.55-.74.18,0,.86.11l-2-4.74c-3.31,3.12-1.41,7.28,1.05,10.18v-3.81c-2,2.07-4.71,2.22-5.72,5.35l4.88.66c-.16-6.11-5.53-9.88-11.09-7.12-1.3.65-.39,2.7,1,2.32Z" style="fill:#1d2b70"/><path d="M91.22,166.08a12.88,12.88,0,0,1,1.86-6.58,49.06,49.06,0,0,1,4.08-4.92,1.37,1.37,0,0,0-1.32-2.27c-3.12.77-5.44,3.28-6.82,6.09-1.24,2.52-2.3,6.39.12,8.54a1.24,1.24,0,0,0,2.08-.86Z" style="fill:#1d2b70"/><path d="M64.7,181.12c-.18,4.13,7.87,3.1,9.89,1.58l-2.23-2.89c-3.86,3.57-9.52,4.26-13.82,7-.69.44-.73,1.83.26,2,6.11.82,10.87-3.2,15.79-6.09,1.93-1.13.53-3.64-1.42-3.36-1.44.21-2.75.65-4.22.73a15,15,0,0,0-2.84,0c-.53.14-1.38.34-1.41,1.05Z" style="fill:#1d2b70"/><path d="M53.25,190.16a22,22,0,0,0,7.29-2.07c2.59-1.33,4.49-4,7.18-5a1.8,1.8,0,0,0,.79-3l-.46-.43a2.15,2.15,0,0,0-2.12-.56c-2.37.93-3.4,3.15-5.2,4.85a24.39,24.39,0,0,1-7.64,5c-.57.23-.58,1.29.16,1.2Z" style="fill:#1d2b70"/><path d="M220.17,80.43a.1.1,0,0,0,0-.19.1.1,0,0,0,0,.19Z" style="fill:#1d2b70"/><path d="M220.52,80.94c3.15-1.75,6.35-3.34,9.57-5,1.57-.79,3.62-2.42,5.49-1.86a20.11,20.11,0,0,1,1.58,1.25,2.25,2.25,0,0,0,3.27-2.51c-.57-1.92,3.89-5.77,5.06-7.22a2,2,0,0,0-2.38-3.08,61.57,61.57,0,0,0-14.18,8.81c-4.59,3.76-9.56,6.83-14.21,10.43-1.18.91.16,2.43,1.3,2.23,5.08-.88,9.63-5,13.62-8.08,4.72-3.59,9.22-8,15-9.8l-1.51-3.59c-3.62,2.69-8.89,6.33-7,11.48l3.27-2.51c-2.37-1.16-2.92-2.87-5.88-1.48-4.8,2.26-9.19,6.88-13.6,9.88a.59.59,0,0,0,.59,1Z" style="fill:#1d2b70"/><path d="M251,60.35c5.19,1.14,11.53-1.83,14.43-6.19a1.6,1.6,0,0,0-1.38-2.39,12.21,12.21,0,0,0-6.15,1.79,22.53,22.53,0,0,0-6.25,4.66,1.61,1.61,0,0,0,1.94,2.51c3.67-1.62,6-6.1,10.46-5.78l-.8-3a26.16,26.16,0,0,1-5.83,3.67A47.16,47.16,0,0,1,251,57.28a1.6,1.6,0,0,0,0,3.07Z" style="fill:#1d2b70"/></svg>