<svg id="Layer_1" data-name="Layer 1" xmlns="http://www.w3.org/2000/svg" viewBox="0 0 516.89 522.18"><path d="M491.23,253.82a18.86,18.86,0,0,0-4.91-6.91,6,6,0,0,0,1.83-4.45c0-1.91-.84-3.5-1.08-5.34s.82-2.56,1.77-4a10.69,10.69,0,0,0,0-12.44,11.67,11.67,0,0,0-2.22-2.42,19.77,19.77,0,0,0,1.16-8.53,24.41,24.41,0,0,0,3.83-14.42A26.27,26.27,0,0,0,483.35,178a16.68,16.68,0,0,0,3.86-9,8.86,8.86,0,0,0,4.82-5c2.15-5.34-1-9.48-2.76-14.27-.85-2.33-.13-4.61-.7-7a9.8,9.8,0,0,0-3.38-5.14c-.19-.16-.4-.32-.61-.47a2.8,2.8,0,0,0,0-.54c.13-.81.26-1.63.37-2.45.17-1.16.35-2.34.51-3.51a23.84,23.84,0,0,0,2.87-8.35,13.4,13.4,0,0,0-2.27-9c2.69-4.6,4.11-9.95,1.48-15a12.69,12.69,0,0,0-8.16-6.56c-2.24-4.76-6-9.79-10.26-12.07-3.65-2-9-2.36-13.58-1.23a18.32,18.32,0,0,0-9.77-12.64c-4.64-2.3-10.05-2.77-15.14-2.25-1.63.16-3.41.35-5.18.69-3.23-2.25-6.51-4.43-9.88-6.44a38.05,38.05,0,0,0-2.44-4.09,12.23,12.23,0,0,0-7.45-11.45,20.25,20.25,0,0,0-11.87-1.14c-2.15-6-4.71-12.37-11.66-12.73C375.79,28,370.62,33,369,38.79c-.88,0-1.74.07-2.6.15a17.2,17.2,0,0,0-2.87-.72c-4.9-.81-10.26-.32-14.62,2.22a22.42,22.42,0,0,0-9.78,13,41,41,0,0,0-3.41,5c-7.23-1.16-14.65,3.23-17.54,11.07-.1.26-.18.53-.27.8-1.19.09-2.9.38-3.12.43a16.86,16.86,0,0,0-7,3.44,15.12,15.12,0,0,0-5.89,10.1L299,86c-9.47-6.12-21.6-2-28.67,5.91a48.15,48.15,0,0,0-9.1,15c-.12.34-.24.69-.35,1l-.61.36A16.07,16.07,0,0,0,252,108c-5.41,1.27-10.95,6-11.94,11.26a21.27,21.27,0,0,0-15.49-1,20.78,20.78,0,0,0-7.92,4.32,12.24,12.24,0,0,0-4.63.79c-4,1.52-5.22,4.33-7.21,7.73a24.69,24.69,0,0,1-4.74,5.18l-5.7,2.39a8.76,8.76,0,0,0-11,1.81,15.71,15.71,0,0,0-2.64,4.07l-1.77.81c-.28-.13-.57-.26-.87-.38a51.37,51.37,0,0,0-12.06-3.72c-8.64-1.49-16.12-.39-23,5.3-5.57,4.62-11.39,10.76-12,18.32a14.31,14.31,0,0,0,.7,5.76,14.23,14.23,0,0,0-10.19,1.44,11.33,11.33,0,0,0-5.6,8.84c-12.34-3.69-26.9-4.49-37.43,3.8-5.75,4.54-11.76,15.3-8.14,22,0,.36,0,.73,0,1.09a23.84,23.84,0,0,0-4.51,1c-3.83-2.68-10-1.1-12.12,3.32a17.88,17.88,0,0,0-1.18,9.63h0c-4.48-1.18-9.28.18-13.19,3a21.82,21.82,0,0,0-9,17.06c-.22,6,2.66,14.61,7.53,20.37.09.2.17.39.26.58a40.38,40.38,0,0,0,5.14,8.06,7.94,7.94,0,0,0-2.7,7.34A8.59,8.59,0,0,0,44.08,284a13.27,13.27,0,0,0,1,2.79,59.25,59.25,0,0,0-6.56,5.68,18.46,18.46,0,0,0-5,15.88c1.33,9.06,7.27,17.59,15.72,21.09-6.32,1.76-10.22,11.86-10.6,17.41-.35,5.06,1.41,10.86,5.39,14a34.47,34.47,0,0,0-11,5.84,24.37,24.37,0,0,0-9.39,18.06,19.88,19.88,0,0,0,8.52,16.9l.62.4a31.43,31.43,0,0,0,6.93,6.78l.16.1a9.82,9.82,0,0,0-3.36,4.7,6.31,6.31,0,0,0,3.08,6.9l.13.07a9.26,9.26,0,0,0-.63,3.16c-6.65,6.57.95,16,7.67,19a36,36,0,0,0,22.92,2.28,17,17,0,0,0,6,9.89c5.24,4.19,12.52,4.48,17.47-.27.15.21.31.42.47.62,1.13,7.93,5.53,15.86,13.82,17.35A18.92,18.92,0,0,0,118.28,471a9.55,9.55,0,0,0,4.14,7,16.82,16.82,0,0,0,13.87,1.4,23.68,23.68,0,0,0,3.16-.69,13.62,13.62,0,0,0,5.47,11.58c5.81,4.44,13.51,4.66,20.25,2.39S179,485.93,183,479.79a14.73,14.73,0,0,0,2.41-10.74c0-.14-.06-.3-.09-.46a22.32,22.32,0,0,0,10.85-3,15.28,15.28,0,0,0,7.42-12l1.19-.71a7.52,7.52,0,0,0,1.23.79c4.34,2.12,11.18,1.48,15.86,1.27,9.1-.39,19.39-2,25.56-9.39a27.22,27.22,0,0,0,5.45-11.66c.69-.89,1.35-1.8,2-2.73A13.79,13.79,0,0,0,263,429a13,13,0,0,0,5.32-8.46,6.13,6.13,0,0,0,.81.46c4.1,1.95,9.18,1.48,13.54,1,9.6-1.09,19.34-3.63,25.45-11.71a22.34,22.34,0,0,0,4-8.32c1-.95,2-2,2.93-3a27.67,27.67,0,0,0,7.2-.86c6.92-1.91,13.38-8.91,11.64-15.95,8.08,3.78,18.75,2.23,26.58-1.26s17.54-10.79,20.15-19.82c8.82,2.93,19.37-2.65,21.54-12.56a5.11,5.11,0,0,0,.12-.85c.91.11,1.83.18,2.73.26a47.11,47.11,0,0,0,10.28-.08c6.08-.8,11.64-3.06,17.24-5.45,4.91-2.09,9.79-4.48,12.52-9.32,2.47-4.39,2.76-10.63,1.32-15.58,2.48.4,4.87.94,7.51-.26a7.84,7.84,0,0,0,3.83-3.49,5.55,5.55,0,0,0,.5-1.43c7.72,1.31,16,.44,22-4.91,6.25-5.57,9-15.43,4.15-22.73a5.73,5.73,0,0,0-1.41-1.48c-.13-.69-.27-1.36-.46-2,.13-.36.24-.73.35-1.09a19.72,19.72,0,0,0,9.79-13.49A21.79,21.79,0,0,0,491.23,253.82Z" style="fill:#00aaab;stroke:#000;stroke-linecap:round;stroke-linejoin:round;stroke-width:7px"/><path d="M209.31,282.41c-8.91,3.34-16.66,10.68-23.17,17.43C183.08,303,184,309.89,189,310.66c8.1,1.23,13.55-4.58,19.22-9.62a151.94,151.94,0,0,0,16.72-17.5c3.9-4.75,1.45-11.8-5-12.12-6-.29-11.92,4.56-16.75,7.68-5.37,3.47-10.39,7.36-15.54,11.13-7.91,5.78-1.06,18.48,7.85,13.43,7.79-4.43,14.05-11.74,18.88-19.16a8,8,0,0,0-1.23-9.55c-9-8.37-21.41,3.82-28.52,9.42-3.12,2.47-2.89,7.81-.63,10.64a8.2,8.2,0,0,0,10.45,2.09,30.1,30.1,0,0,0,11.76-10.77c4.88-7.37-4.38-14.24-11.1-11.1a33.2,33.2,0,0,0-9.87,7.15l12.66,9.78c3-5.94,1.39-10.33-2.55-15.11l2.08,3.56-.24-1.2v4.29l.19-.49c3.61-6.54-2.32-13.09-9.12-11.86-10.23,1.85-19.09,15.95-15.86,26a135,135,0,0,0,7.26,17.31c2.55,5.23,6.23,8.24,12.06,8.83,7.52.77,10.17-10.73,3.81-14.06-1.17-.62-1.55-2.14-2.07-3.35-1.38-3.27-2.74-6.54-4.12-9.82-1.2-2.86-1.79-2.86-.75-4.93s1.46-3.94,4-4.4l-9.12-11.86c-1.5,2.74-2.48,5.49-1.81,8.64a10.47,10.47,0,0,0,1.06,3.12c2.71,4.64.66.53.69.29l1.1-4.07-.49,1c-3.94,7.9,6,16.61,12.66,9.77a20.66,20.66,0,0,1,6.66-4.55l-11.1-11.1a15.31,15.31,0,0,1-5.93,5l9.82,12.72c2.08-1.72,4.18-3.36,6.39-4.92,1-.71,2-1.4,3-2.07.51-.34,1-.68,1.54-1,1.09-.65,1-.67-.16-.07l-5.57-2.31.67.63-1.23-9.55c-4,6.09-9.16,10.31-14.7,14.9l11,11a119.42,119.42,0,0,1,12.05-9.58c2-1.42,4-2.79,6-4.13,1-.67,2-1.33,3.07-2,.51-.33,1-.65,1.55-1,1-.58,1-.63.16-.17l-5-12.12A154.84,154.84,0,0,1,203.07,287c-1.89,1.92-3.84,3.78-5.83,5.59-1,.93-5,5.41-6.53,5.34l5.59,9.74c5.08-6.78,11.65-11.89,17.07-18.3,2.41-2.85.21-8.57-4.06-7Z" style="fill:#00776e"/><path d="M205.58,281.76c1.57-6.43.2-13.31,3-19.53a20.63,20.63,0,0,1,13.54-11.15c5-1.38,14.25-2.26,19,.67,1.94,1.2,2.75,4.21,3.86,6.12,1.83,3.15,4.29,6.1,8.12,6.64s8.84-1.64,8.48-6.47C260.91,250,254.18,240,246.62,237a44.84,44.84,0,0,0-31.08-.09c-8.52,3.29-16,9.38-19.92,17.79-4.22,9.1-3.33,21.36,4.16,28.61a3.5,3.5,0,0,0,5.8-1.53Z" style="fill:#00776e"/><path d="M196.45,273.41c-9.63-7.09-24.27-.77-25.63,11.15-1.26,11.06,9.47,25.48,21.35,22.9,5.56-1.21,7.36-10.55,1.69-13-2.62-1.11-8.46-5.35-7.77-8.9.63-3.26,7.87-4.63,10.36-5.88,2.68-1.35,2-4.81,0-6.3Z" style="fill:#00776e"/><path d="M216,269.46c-2.86-3-.32-8.41.67-11.84.8-2.81,1.9-7.07,5-8.22,3.65-1.37,9.56,1.17,13.14,2,5.93,1.31,11.84,2.65,17.76,4l2.15-15.85c-8.94.64-18.14,1.41-26.67,4.33-8.37,2.86-19.42,8.39-22.17,17.57-1.55,5.15-.1,11,4.68,13.94,4.58,2.84,10.4,1.79,15.37.82,10.56-2.08,20.41-7.1,30-11.91l-9.05-15.49c-14.24,9.25-28.52,18.54-43.12,27.19-8.91,5.29-3,21.53,7.33,17.39,19.28-7.75,38.23-16.49,57.24-24.87L256.9,253.73c-14.73,12-29.8,23.52-44.72,35.24-7.09,5.56-.77,16.5,6.92,16.71,10.94.3,21.83-7.57,31.22-12.45l29.95-15.54-14.18-10.91c-1.23,5.62-8.86,10.35-12.83,14-4.76,4.43-14.57,10.73-13.59,18.27.47,3.64,2.47,8.16,6.7,8.8l.41.07c4.36.66,7.66-.56,10.22-4.16,2.16-3,1.48-6.48.13-9.62-1.9-4.42-8.4-5.42-12.19-3.2-4.57,2.67-5.1,7.75-3.19,12.19l.12.28,5.32-13.08-.41.14,7,.91-.36-.21,4.19,10.31.18-.71-2.39,4.09c5.92-5.05,11.57-10.43,17.26-15.78,5.22-4.92,10.39-9.95,12.07-17.19,2-8.47-6.62-14.71-14.18-10.91l-26.72,13.44c-4.31,2.17-8.64,4.31-12.93,6.51-3.49,1.78-7.78,5.18-11.78,5.14L226,302.81c14.69-12,29.25-24.1,44.13-35.82,3.62-2.85,3.35-9,.74-12.31-3.15-4-7.65-4.29-12.09-2.41-18.39,7.79-37,15.27-55.11,23.66l9.6,16.43c13.92-9.75,28.27-18.95,42.57-28.13,9.76-6.27,1.26-20.63-9.05-15.49a146.84,146.84,0,0,1-15.59,7.11c-3.39,1.23-11.18,4.28-13.81,3.18l3.94,2.29-.81-.88,2.29,3.92c-1.05,2.89-.88,3.41.53,1.57.51-.52,1.06-1,1.62-1.48a24,24,0,0,1,3-2,35.74,35.74,0,0,1,8.09-3.48,99.09,99.09,0,0,1,18.65-3.33c4-.41,7.42-2.76,7.92-7,.44-3.7-1.78-8.09-5.78-8.85-8.66-1.67-17.32-3.53-26-5-7.89-1.37-16.21-1.2-21.71,5.52-7.07,8.62-8.77,28.72,2.5,34.87a3.62,3.62,0,0,0,4.37-5.67Z" style="fill:#00776e"/><path d="M272.8,255.13c-2.17-3.79-4.82-7.79-5.17-12.25-.17-2.27-.68-.81,0-2.49.66-.77,1.35-1.52,2.07-2.23,1-1.13,1.22-1.26.61-.4h-4.52c4.05.57,7.81,3.15,12,3.9a47.58,47.58,0,0,0,15.25.07L286.35,226c-6.72,3.77-13.24,7.83-19.74,12-6,3.79-13.21,7.69-14.6,15.29a9.51,9.51,0,0,0,4.17,10.24c8.8,6,19.41-.85,27.63-4.61l29.08-13.31-11.11-14.4c-8.57,7.48-17.27,14.81-25.93,22.17-8,6.79-21,14.27-14.65,26.48,2.62,5,8.77,5.56,13.39,3.51,21.31-9.48,41.5-21.32,61.72-32.89L324.42,235q-22.86,19.55-46.07,38.69c-7.87,6.51.58,19.86,9.85,16.91A111.78,111.78,0,0,0,318.87,275c9.42-6.66,18.74-13.77,25.95-22.84,5.44-6.85-1.21-17.2-9.71-12.59-9.19,5-17,11.89-25.62,17.71a116.14,116.14,0,0,1-26.67,13.79L292.66,288q22.68-19.71,45.64-39.12c8.72-7.34-2.44-20.73-11.9-15.41-20.33,11.43-40.8,22.54-61.69,33l13.39,3.5-.57-1,1.33,4.92q-1.78,4.29.84,1.18l2.16-2c1.45-1.31,2.89-2.62,4.34-3.91,3.15-2.81,6.33-5.58,9.49-8.37,6.34-5.59,12.65-11.18,19.06-16.68,3.42-3,3.36-8.72.71-12-3-3.82-7.53-4.29-11.82-2.36l-22.13,9.91-10.62,4.76c-1.76.79-3.51,1.67-5.3,2.4a7.65,7.65,0,0,1-1.17.53q-3.06.65.91.49L269.5,258c.39-2.87,8-6.49,10.53-8.13,4.92-3.16,9.94-6.16,15-9a8.61,8.61,0,0,0,3.53-10.77c-1.87-4.25-5.78-5.61-10.17-5-6.5.92-11-2.18-17-3.62-7.07-1.71-12.29,2.68-16.37,7.9-9.61,12.32,0,25.24,11.29,32.16,4.07,2.5,8.7-2.41,6.42-6.41Z" style="fill:#00776e"/><path d="M270,236.44c2.42-3,3.29-6.78,1.16-10.23-2.77-4.47-8.94-5-13.65-3.94-4.24.93-8.42,3.77-9.52,8.2a11.86,11.86,0,0,0,1,8.19c.28.55.61,1.05.92,1.58a6.79,6.79,0,0,1,.55,1c-.27-1-.33-1.09-.19-.31.4,2.67,3.38,4.67,5.81,5a7,7,0,0,0,6.95-3.33,9.49,9.49,0,0,0,1.08-7.73c-.38-1.2-1-2.37-1.45-3.53-.39-.79-.36-.72.09.2a4.41,4.41,0,0,1-.77,4.19,2.41,2.41,0,0,1-.94.88q1.08-.57-.21,0c.64-.24,1.3-.43,1.95-.62.25-.07,2.29-.47,1.5-.4a4.21,4.21,0,0,0,1.46,0,2.81,2.81,0,0,1-2.88-2v-2.43l.05-.2c-2.78,4.2,3.81,9.44,7.07,5.45Z" style="fill:#00776e"/><path d="M233.74,246.39l-.76-.14c1.54-.65,2.3-2.59,2.37-4.12.58-13-18.23-10.72-25.28-6.44-9.27,5.64-17.16,18.21-13.53,29.2,1.94,5.88,9.18,6.53,12.59,1.65s3.3-11,7.44-15.21c2.1-2.14,9.49-7,12.16-4.3a3.22,3.22,0,0,0,5-.64Z" style="fill:#00776e"/><path d="M292.48,228.93c1,1.91,1.28,2.15,1,.74-.07-.61-.17-1.21-.28-1.81a15.39,15.39,0,0,1,1.13-3.76,30.77,30.77,0,0,1,3.66-6.77c2.86-4,6.56-7.31,11.63-7.83,5.86-.61,11.87,2,17,4.52,6.36,3.09,12.6,6.36,19.38,8.47,8.23,2.57,15.31-8.94,8.62-14.8-11.71-10.26-27.29-8.75-41.5-5.62-14.62,3.23-27.66,9.8-36.81,21.88-5.23,6.91,3.38,15.52,10.56,13.74,20.87-5.16,41.64-10.71,62.43-16.15l-10.43-4.25.61.82-1.26-4.66q3.6-5.17-.08-2.38l-1.68,1c-1.68,1-3.38,1.89-5.07,2.84l-10.15,5.69L300.93,232c-7.12,4-5.6,12.79,0,17.08,5.11,3.91,11.93,3,17.58.92,6.45-2.31,12.86-4.72,19.29-7.08q19.29-7.08,38.54-14.24l-7.55-17.91c-21.8,14.35-43.57,28.72-65,43.64-8.7,6.06-4.91,17.77,5.13,19,6.76.81,13.22-2.13,19.42-4.42L348,261.63l39.3-14.57-7.79-18.49c-25.23,16.17-50.66,32-76,48a10.59,10.59,0,0,0-4.32,13.17c1.93,4.39,7.48,8.07,12.44,6.11q33.27-13.1,66.43-26.43L367.82,251.8c-18.29,16.93-41.34,28.37-62.69,40.91a10.86,10.86,0,0,0-3.83,14.61c3.16,5.39,9.34,6.23,14.61,3.83,21.26-9.68,42.54-19.42,65.1-25.7l-8.11-19.24c-20.69,14.17-41.65,28-62.48,41.9-4.48,3-6.7,8.44-4.45,13.57,1.95,4.43,7.76,8.41,12.82,6.29,10.27-4.31,20.55-8.61,30.77-13.05,8.34-3.61,17.73-9.28,26.92-10.16l-7.55-18.25c-17.61,14.57-37,26.18-57.1,37-4.9,2.65-6.44,9.42-3.7,14.11,3.08,5.26,9,5.95,14.11,3.7,22.47-9.85,43-24.07,61.8-39.69,6.89-5.71,1.45-19.12-7.56-18.25-11.68,1.14-21.89,6-32.6,10.46-11.19,4.67-22.33,9.46-33.46,14.27l11,18.76c20.7-14.17,41.28-28.53,62.13-42.48,9.67-6.47,3.85-22.43-8.11-19.24C351,271.66,328,282.08,305.13,292.71l10.78,18.44c22.85-13.66,47-26.4,66.78-44.48,7.41-6.78-.32-21.48-10.23-17.58Q339.21,262.2,306,275.47l8.12,19.28c25.18-16.26,50.27-32.65,75.58-48.71,9.22-5.85,3.45-22.6-7.8-18.49l-37.47,13.7-17.81,6.5c-5.31,1.94-11.95,5.85-17.71,5.24l5.14,18.95c21.23-15.18,42.67-30.13,64.61-44.29,8.86-5.71,3.4-21.87-7.55-17.91s-22.06,8-33.08,12l-15.61,5.73c-2.76,1-5.51,2-8.27,3-1.25.45-2.66.77-3.86,1.32-1.59.73-.4-.68.6.09V249l29-17.59c7.44-4.51,22.9-12.4,14.88-23.48-2.48-3.42-6.16-5.32-10.43-4.24-20.84,5.25-41.72,10.38-62.49,15.92l10.57,13.74c5.56-7.63,15.19-11.22,24-13.43,7.12-1.79,19.31-5.21,25.62.26l8.62-14.81c-11-3.31-20.51-10.5-32-12.6-11.69-2.14-23.13.87-30.68,10.36-5.64,7.08-9.85,19.39-6.94,28.35,2.45,7.59,15.82,8.69,16.42-.5.17-2.48-3.4-4-5-2.09Z" style="fill:#00776e"/><path d="M335.69,201.48c3.08-9.33,8.71-16.27,19.21-16.64a29.46,29.46,0,0,1,14.38,3.25c6.08,3,11.82,6.82,18.86,6.58,6.26-.22,10-8,5.24-12.65-11.94-11.65-31.28-18.2-47.64-13.77-13.7,3.7-32.28,21.46-19.06,35.61,2.9,3.1,7.79,1.31,9-2.38Z" style="fill:#00776e"/><path d="M378.86,180.92c.22,1.67-1.12.17.93-.46,1.47-.46,3.23.45,4.53,1a26.26,26.26,0,0,1,9.42,7.33c4.13,4.83,13.37,2.38,14.58-3.85q1.44-7.4,3.37-14.67c.47-1.77,1.22-3.53,1.65-5.29,0-.08.79-1.27.76-1.31.35-.24,0-.11-1,.38-1.22.21-1.4.41-.53.62.43,1,4.18,2.47,5.17,3a70.57,70.57,0,0,0,7.16,3.35,39.85,39.85,0,0,0,16.28,3.3c10.4-.18,11.36-13.88,2.34-17.31-6.21-2.36-12.31-4.36-18.05-7.76-6.57-3.89-14-6.54-21.29-2.71-12,6.33-12.95,24.22-13,36.07l14.9-6.17c-6.61-6.84-16.41-12.93-26.3-11.68-9.5,1.21-15,10.35-9.13,18.36,2.23,3,8.84,2.62,8.21-2.23Z" style="fill:#00776e"/><path d="M427.59,158.3c.11-3.16,4.7-6.94,7-8.58,3.85-2.81,8.3-5,12.41-7.37,3.9-2.25,6.44-4.2,11-3.47,2.15.34,5.09.56,6.9,1.84,1.5,1.06,2.2,2.83,3.68,4.07,4.58,3.81,13.13,3.13,14.49-3.83,2.08-10.57-7.34-17.32-16.56-19.6-9.55-2.37-17.4-2-25.78,3.27-11.83,7.49-32.51,19.45-20.64,35.71,2.3,3.14,7.37,2.19,7.51-2Z" style="fill:#00776e"/><path d="M480.23,143l-2.32-5.4-9,9c4.79,3.45,5.94,10.08,4.32,15.43-2.34,7.77-9.13,13.46-15.08,18.53l15.08,8.78c2.88-8.26,6.7-16.73,8.63-25.27s-2-16.17-8.65-21.5c-11.37-9.18-27.57-9.39-40.94-4.8-7.29,2.5-16.12,6.17-21.44,12-6.83,7.43-3.34,18.75,6.5,20.87,8.28,1.79,18.62-.25,26.92-1.26a249.79,249.79,0,0,0,27.42-4.87l-5.18-18.77c-21.66,9.13-43.57,18.16-63.42,30.89-6.29,4-6.74,13.47,0,17.41,9.73,5.68,21.7,1.28,31.74-1.5a255.06,255.06,0,0,0,30.47-10.65l-7.7-18.27c-13.21,7.17-26.34,14.47-39.31,22.05-12,7-26.14,13.45-34.78,24.67-2.16,2.8-1.67,7.48,0,10.33,2,3.43,5.12,4.59,8.84,5.07,10.95,1.43,22.1-5.77,31.62-10.36q15-7.22,29.78-14.87l-10.31-17.65q-28.24,16.66-54.93,35.8c-4.15,3-6.39,7.86-4.2,12.84,2,4.47,7.17,7.58,12.13,6a126.6,126.6,0,0,0,47.26-28.11c7-6.53-.25-20.68-9.81-16.85-16.42,6.58-32.9,13-49.38,19.43l9.82,16.86c14.46-17.57,30.69-34.84,40.74-55.46,3.88-8-2.49-16.84-11.39-14.82-12.74,2.88-22.46,13.72-32.05,21.88l-32.23,27.42,14.43,14.43c17.44-15.33,34.69-30.87,52-46.37,8.35-7.48-2.59-21.87-12.05-15.63-23,15.18-46.22,30.06-69.44,44.89l12.36,16c8.94-9,17.72-18.23,26.55-27.37,8.27-8.56-2.13-21-12.35-16a222.13,222.13,0,0,0-32.26,19.57l12.34,16a148.18,148.18,0,0,0,15-15.48c2.95-3.54,4-8.24,1.6-12.43-2.23-3.81-7.28-6.08-11.59-4.72a65.88,65.88,0,0,0-16,7.45l14,14a12.66,12.66,0,0,1,2.65-2.57c4.49-3.23,6.66-8.93,3.68-14a10.37,10.37,0,0,0-14-3.67,71.62,71.62,0,0,0-23.41,22.5c-7.26,11,10.42,21.25,17.64,10.32a48.55,48.55,0,0,1,16.1-15.13L346.3,181.81a42.7,42.7,0,0,0-10,9.92c-6.18,8.35,5.78,19.35,14,14a45.4,45.4,0,0,1,11.14-5.36l-10-17.15a158.83,158.83,0,0,1-14.89,15.58c-8.38,7.65,2.95,23,12.35,16a205,205,0,0,1,32.27-19.57l-12.35-16C360,188.35,351,197.4,342.26,206.6c-7.73,8.1,2.38,22.65,12.37,16,23-15.24,46-30.44,69.18-45.33l-12.06-15.63c-17.48,15.3-35,30.55-52.34,46-4.12,3.67-3.74,10.69,0,14.43,4.14,4.14,10.24,3.62,14.43,0l29-25.06c4.72-4.07,9.43-8.15,14.18-12.17,3.66-3.1,7.22-6,12-7L417.66,163c-9.39,19.06-24.28,35-37.59,51.37-2.87,3.53-4,8.08-1.58,12.23,2.09,3.56,7.31,6.26,11.4,4.64,16.44-6.53,32.88-13.07,49.37-19.45L429.46,195A107.27,107.27,0,0,1,391,217.5l7.92,18.8a651.91,651.91,0,0,1,54.86-35.91c11.43-6.68,1.35-23.61-10.31-17.65q-13.08,6.69-26.32,13.06c-4.12,2-8.26,3.92-12.39,5.86s-7.76,4.06-12.38,3.49l8.83,15.4c3-4,9.17-6.58,13.33-9.15q8.58-5.28,17.24-10.41,17.76-10.5,35.93-20.23c9.78-5.2,2.94-22.62-7.7-18.27a261.69,261.69,0,0,1-25.21,8.89q-6.19,1.83-12.47,3.37c-2.09.51-4.18,1.06-6.29,1.46a7,7,0,0,1-2,.34c-1.83,0-2.07,0-.73,0v17.41c18.26-12.22,38.24-21.07,58.43-29.53,4.84-2,8.32-6.44,6.8-12a9.9,9.9,0,0,0-12-6.8A206.36,206.36,0,0,1,442.35,150q-5.79.64-11.6,1c-3.17.19-8.59.8-10.2.13l4.32,2.52-.71-.71,2.52,4.32-.33-1.08v5.21c-1,1.15-1.08,1.48-.19,1l1.53-.93c1.82-1,3.62-2.07,5.51-3a43.56,43.56,0,0,1,7.66-2.78c4.71-1.25,9.81-1.78,14.58-.55a16.09,16.09,0,0,1,6,2.7,9.54,9.54,0,0,1,2,2c.37.71-.22-.5-.24.87-.05,3.29-2.38,7.76-3.35,10.9l-4,12.9c-2.79,9,8.72,14.59,15.08,8.78,9.38-8.56,18.43-19,19.4-32.2.84-11.3-5-23.34-16.35-26.52-6.44-1.8-10.81,6.28-6.38,11l3.93,4.16c4.66,4.93,11-1.33,8.69-6.7Z" style="fill:#00776e"/><path d="M301.2,276.54a819.94,819.94,0,0,1-82.57,41.11l9.7,12.58c7.82-8.15,15.22-16.7,22.73-25.14,6.73-7.56,15.63-15.89,10-26.7-2-3.74-8.06-5.71-11.62-3a406.76,406.76,0,0,0-44,38l15,8.75c3.82-11.31,7.44-22.71,11.14-34.06,2.7-8.31-9.6-16.26-15.35-8.93-10.19,13-16.93,27.57-23.62,42.56l17.72,4.8c1.29-11.2,2.06-22.47,3.07-33.7.85-9.44-13.81-13.2-17.93-4.85A105.62,105.62,0,0,0,184.47,332c-.3,10.66,17.46,13.58,19.06,2.58a50.62,50.62,0,0,0-1.27-22.43c-2.06-6.85-11.09-9.72-16.28-4.3a25.24,25.24,0,0,0-7.29,18L196.82,321,195,317.68a9.8,9.8,0,0,0-15.25-2A14.83,14.83,0,0,0,175.43,327c.13,3,1.67,6.23,1.09,9.3-.84,4.52-4.64,7.59-9,8.48-7.46,1.55-8.43,10.78-4.16,15.76,6.2,7.22,14.27,17,15.72,26.79,1.38,9.22-6.35,17.33-11.93,23.69-5.19,5.91-2,16.85,6.83,16.48-3.75.15-.11-2.4-1-.06-.73,2-.94,4.4-1.81,6.5-2.75,6.69-5.81,13.35-3.13,20.62,2.33,6.32,8.85,10.15,15.43,10.36,7.35.24,13.22-4.06,18.68-8.43l-13.67-13.67a36.17,36.17,0,0,1-11.24,7.75l9.44,16.22q21.28-19,42.75-37.7c8.53-7.42-2.38-20.61-11.8-15.3q-15.81,8.89-31.65,17.69l12.24,15.87c16-13.44,31.13-27.84,45.79-42.68,8.15-8.25-2.23-21.81-12.37-16-12,6.83-24.07,13.44-36.09,20.19l12.8,16.59c15.23-13,30.29-26.31,42.65-42.15,3.24-4.15,4.37-9.42.82-13.88-3.18-4-9.08-5.56-13.64-2.72-17.11,10.64-33.93,21.77-50.29,33.53l13.24,17.15Q216,405.07,230.09,392c8.9-8.27,19.07-16.47,22.89-28.44,2.76-8.64-8.14-17.68-15.95-12.25q-24,16.67-47,34.69l15.41,15.4q12.9-12.12,24.81-25.21c8.22-9,16.6-17.48,18.1-30.11,1-8.75-9.8-12.72-16.3-9.36a188.91,188.91,0,0,0-41.17,29l15.33,15.33c12.29-12.72,24.41-25.64,33.95-40.61,3.46-5.43.4-15-6.53-16.05-10.39-1.58-16.33,4-23.84,10.23l-20.11,16.81,15.44,15.45a190.19,190.19,0,0,0,25.2-35.65c5-9.25-5.39-21.13-15-15a176.35,176.35,0,0,0-34.62,28.67L198,358.29l13-21.64c5.33-8.89-5.85-21.7-15-15l-23.16,16.91c-4.76,3.47-7.11,9.49-3.92,14.94,2.75,4.71,10.14,7.4,14.94,3.92l23.21-16.83-15-15-13,21.6c-6.4,10.59,8.68,22.6,17.3,13.35a155.19,155.19,0,0,1,30.11-25.31l-15-15a165.39,165.39,0,0,1-21.7,31.27c-9.43,10.64,4.71,24.42,15.44,15.45l14.16-11.83,6.7-5.61,3-2.49c2.56-2.11,2-1-1.14-1.5l-6.52-16c-8.53,13.39-19.5,24.86-30.42,36.31-9.65,10.13,5.14,24.87,15.33,15.33A161.22,161.22,0,0,1,243,355.43l-16.3-9.35c-.32,2.66-4,5.93-5.61,7.8q-4.9,5.6-10,11-10.18,10.88-21,21.1c-4.27,4.05-4.08,11.32,0,15.4,4.57,4.57,10.77,3.66,15.41,0q20.76-16.35,42.52-31.35l-15.94-12.26c-1.21,3.75-4.38,6.46-7.14,9.15-4.25,4.15-8.59,8.2-13,12.21q-12.8,11.72-26.21,22.72C176.27,409.66,189,426.46,199,419c16.17-12.08,32.77-23.52,49.94-34.13l-12.82-16.61c-12.41,15.81-27.58,29-42.63,42.16-9.15,8,2.6,22.51,12.8,16.59,11.93-6.91,23.77-14,35.73-20.79l-12.37-16c-14.66,14.88-30,29-45.64,42.83-8.7,7.69,2.49,21.62,12.25,15.87q15.61-9.18,31.28-18.31L215.7,415.28Q194.48,434.3,173,453c-7,6.14.41,19.84,9.44,16.21a55.84,55.84,0,0,0,19.75-12.79c8.86-9-4.26-21.52-13.67-13.67-.56.47-3.6,2.21-3.77,2.84-.07.25,1.54,2.48,1,1.4.84,1.66,0,2,.87.19,2.31-5,4.68-10.61,5.44-16,1.55-11-5.92-23.55-18.06-23l6.83,16.48c9.38-10.33,18.87-22.5,17.44-37.34-1.49-15.46-12.2-28.45-21.56-40.12l-4.16,15.75c8.19-1.4,15.43-7,19.48-14.17a30.41,30.41,0,0,0,3.78-12.49,26.91,26.91,0,0,0-.39-6.58c-.14-.88-.31-1.76-.52-2.62q-.43-3.9-1.45,2.37l-15.25-2,1.82,3.31c4.71,8.57,18.09,4.56,18.13-4.91a5.32,5.32,0,0,1,1.6-4.25l-16.27-4.3a28.09,28.09,0,0,1,1.34,12.1L203.88,332a82.53,82.53,0,0,1,8.27-34.35l-17.94-4.86c-1,11.23-2.16,22.46-2.84,33.7-.28,4.67,3.83,8.81,8.25,9.34,5,.6,8.6-2.3,10.43-6.81,5.53-13.63,11.62-27.06,20.66-38.77l-16.78-7.07c-3.6,11.38-7.3,22.74-10.78,34.16-2.6,8.52,8.91,15.27,15,8.75A323.46,323.46,0,0,1,258,290l-11.62-3q.27-3.92-1-.94l-.47.6c-1.13,1.55-2.57,2.93-3.83,4.38l-8.3,9.48c-5.32,6.08-10.68,12.14-15.77,18.42-5.59,6.87,1.25,17,9.7,12.57,27.2-14.28,54.12-28.91,80.55-44.57,6.64-3.94.68-14.18-6.06-10.37Z" style="fill:#00776e"/><path d="M294.69,286.63c-23.45,7.11-41.67,24.24-64.07,33.52l6.4,15.18A387.74,387.74,0,0,0,296,281c6.53-7.31-1.94-20.19-11-14.25-25.63,16.83-48.2,37.72-70.68,58.44-9.52,8.77,4.54,22.58,14.14,14.13,20.94-18.42,40.87-38.05,60.47-57.88,9.17-9.27-4.9-23.31-14.3-14.3-12.81,12.3-25.25,25-37.14,38.17q-8.76,9.72-17.14,19.77c-5.55,6.63-14.08,15-7.93,24.22,3.32,4.94,8.83,6.24,14.15,3.71,16.49-7.82,32.07-17.49,47.76-26.77l48.08-28.43L310,281.63c-24.06,23.54-52.35,42.12-80.31,60.62-11.47,7.6-1.4,25.2,10.83,18.54q21.8-11.85,43.63-23.6c7.15-3.81,14.32-7.58,21.54-11.25,6.08-3.1,13.8-8.83,20.86-8.25L319.19,300a841.83,841.83,0,0,1-90.9,62c-11.87,7.07-1.36,24.91,10.79,18.47q44.55-23.6,88.93-47.51l-10.64-18.2q-47.21,30.56-94.87,60.42a11.11,11.11,0,0,0-3.9,14.9c3.26,5.57,9.47,6.24,14.89,3.9,26.68-11.53,53.15-23.52,79.66-35.43L302.34,340c-24.1,17.22-50.19,31.27-76.22,45.3-5.16,2.79-6.79,9.94-3.9,14.88,3.18,5.43,9.55,6.43,14.88,3.9,21.21-10.06,42.28-20.35,64.72-27.43l-8.15-19.32c-23,15.09-47.83,26.94-72.57,38.82-11,5.29-3.09,24.78,8.43,20,13.67-5.65,27.33-11.18,41.31-16l-8.19-19.41c-16,10.66-32.4,20.7-48.51,31.2-5,3.23-7,9.72-3.93,15,3.3,5.65,9.53,6.25,15,3.93,6.95-2.93,13.85-5.89,20.67-9.1l-10.73-18.36c-10.65,7.51-21.83,14.31-32.92,21.16a10.94,10.94,0,0,0-3.85,14.69c3.17,5.42,9.39,6.26,14.68,3.85,5-2.29,10-4.68,15-7.09l-10.46-17.89a48.18,48.18,0,0,1-10.49,5.33,40.7,40.7,0,0,1-5.74,1.6,13.51,13.51,0,0,0-1.91.41c-2.4-.1-1.85.24,1.63,1l2.71,4.64c-1.37-3.83-.94-8.1-2.89-12.11a25.84,25.84,0,0,0-8.91-9.8c-4.75-3.31-11.92-.87-14.68,3.85-3.13,5.35-.92,11.37,3.85,14.69,2.29,1.6,1.5,6.59,2.33,9,2.15,6.2,8.21,9.64,14.59,9.71,10.25.1,21.54-5,30-10.42a10.4,10.4,0,0,0,4.24-12.93c-1.88-4.27-7.38-8-12.22-6-6,2.43-11.93,4.91-17.83,7.48l10.83,18.54c10.8-7.3,21.59-14.71,32.82-21.34,10-5.91,3.42-23.79-8.19-19.43-7.94,3-15.73,6.29-23.55,9.59l11.07,18.94c16.12-10.5,31.94-21.46,48.16-31.8,9.77-6.23,3.73-23.26-8.18-19.41-14.93,4.82-29.71,10.18-44.09,16.47l11.05,18.91c24.57-12.23,49-24.66,72.19-39.48,9.78-6.26,3.74-22.92-8.14-19.32-24.24,7.34-47.33,18-70.08,29l11,18.78c25.91-14.24,51.77-28.65,76-45.59,11.49-8,1.73-23.95-10.81-18.49-26.65,11.61-53.35,23.13-79.84,35.12l11,18.8q47.07-30.76,94.52-61c11.46-7.28,1.38-24.54-10.64-18.2q-44.61,23.49-89.08,47.24l10.79,18.47a949.31,949.31,0,0,0,94.81-65.77c3.18-2.49,3.63-8,2.15-11.35-1.77-4-5.21-6-9.5-6.39-9.46-.82-18.05,4.24-26.27,8.24q-11.82,5.73-23.49,11.76c-15.86,8.16-31.48,16.75-47.1,25.35l10.83,18.54c29.32-19.84,58.48-40,84-64.61,8.44-8.14-2.38-22-12.47-16.16l-48.27,28.1c-15.75,9.16-31.23,19-47.62,27l14.15,3.71-.61-.88,1.41,5.21c-.84,1.93-.95,2.43-.35,1.48l1.17-1.46c1.16-1.46,2.36-2.9,3.55-4.34q3.57-4.34,7.22-8.59,7.29-8.52,14.86-16.81,15.15-16.56,31.4-32l-14.3-14.3c-19.71,19.77-40.08,38.82-60.31,58.05l14.14,14.13c20.7-20.33,41.61-40.57,65.7-56.9l-11-14.25c-17.14,19.79-36.13,37.46-56.27,54.14-3.14,2.6-3,7.93-.65,10.9,2.7,3.39,6.89,4,10.72,2.14,21.69-10.49,37.93-29.85,60.32-39.12,5.71-2.37,3.66-11.49-2.65-9.58Z" style="fill:#00776e"/><path d="M209.34,438.07l-1.38.65,3.75-.49c-1.7-.61-3.49-.74-5.22-1.27-8-2.42-13.34,9.7-5.77,13.67,15.59,8.19,35.25,3.7,47.2-8.68,11.09-11.48,15.53-27.3,24.47-40.24,5.81-8.39-7.09-18.07-14-10.81-7.92,8.3-16.1,16.36-24.25,24.44-5.63,5.58-12.08,12.23-20.49,12.6l6.39,15.4a17,17,0,0,0,3.48-6.23,8.23,8.23,0,0,0-10-10,16.86,16.86,0,0,0-6.21,3.5c-6.3,5-.89,15.51,6.38,15.4,11.82-.16,21.48-6.82,29.75-14.69,9.46-9,18.25-18.68,27.62-27.77L257,392.7c-7.73,10.31-11.28,23.11-19,33.36s-19.38,13.2-31.45,10.9v14.43a26,26,0,0,0,4.88-2.41c1-.68,1.92-2.07,2.84-2.57,5.54-3,.68-10.93-4.87-8.34Z" style="fill:#00776e"/><path d="M256.28,412.44a25.16,25.16,0,0,0-2.78,5.38c-3.39,8.85,11.53,13.24,14.37,4a22.59,22.59,0,0,1,5.33-9.19L260.73,403c-3.42,7.84,0,15.85,8.38,18.48,6.85,2.15,17-.07,23.71-2.13a33.88,33.88,0,0,0,18.72-13.6c5-7.28,8.82-15.59,13-23.33,5.32-9.8-6.66-17.84-14.69-11.34a269.13,269.13,0,0,1-41.65,27.67L278,415.39c18.43-12.41,35.63-26.26,49.15-44,5.53-7.25-3.56-15.39-10.74-14-9.94,1.95-18.58,8.71-26.92,14.09-8.84,5.71-17.56,11.61-26.39,17.33L275,404.3a399.1,399.1,0,0,0,31.41-29.87c10.11-10.54,20.1-21.35,28.1-33.61,5.5-8.43-6.66-17.18-13.62-10.51-10.2,9.77-19.35,20.58-29.21,30.69s-20.28,19.7-30.63,29.35c-8,7.48,2.76,22.16,11.95,15.49,8-5.82,16.25-11.31,24.5-16.78,7.31-4.84,15.13-11.69,23.92-13.31l-9.26-15.91c-12.21,15.67-27.91,27.44-43.95,38.88-9.94,7.1-1.24,23,9.74,16.67a331.6,331.6,0,0,0,45.14-31.11l-14.7-11.34q-3.75,7-7.47,14c-2.11,4-4,9.11-7.5,12.11-2.52,2.14-5.8,3.1-9,3.85-2,.49-4.09.85-6.16,1.14-.87.13-1.75.22-2.62.32-.59.06-1.16.13-1.74.21q-3.48,0,1.29,4.48c2.92-7.41-8.2-13.44-13.27-7.72a34,34,0,0,0-8.47,16.45l14.64,2a25.76,25.76,0,0,0-.89-5.92c-1.29-5.31-8.23-5.51-11-1.44Z" style="fill:#00776e"/><path d="M324.19,369.76a14.79,14.79,0,0,0-4.67,5.44c-.54,1.05-.95,2.19-1.42,3.28-1.08,2.5-.88.82,1.2,1.53l6,7.94c.11-5.1,5.76-7.59,9.55-9.84a130.8,130.8,0,0,0,14.48-10,117.78,117.78,0,0,0,24-26.25c4.68-6.88-4.94-17.16-11.86-11.85-12.52,9.59-25.1,19.13-37.82,28.45-4.09,3-6.13,8.18-3.38,12.89,2.47,4.22,8.63,6.19,12.9,3.38,11.1-7.3,21.65-15.48,32-23.83,9.25-7.46,19-15,24.66-25.72,3.69-7-2.49-16.88-10.84-14.11-23.4,7.78-41.51,25.23-64.26,34.15l7.63,18.1a331.12,331.12,0,0,0,63.65-47.72c8.23-7.87-2.27-21-12-15.55-11.57,6.47-23.18,12.85-34.77,19.28-5.65,3.13-11.29,6.29-17,9.4-2.72,1.49-6.45,4-8.94,2.17-9.05-6.61-19.83,7.84-11.87,15.39,12.48,11.85,28.13,1.21,40.2-5.53,14.11-7.87,28.19-15.8,42.33-23.61l-12-15.55a392.11,392.11,0,0,1-59.65,44.62,9.92,9.92,0,0,0-4,12.36c1.78,4,7.07,7.67,11.68,5.74,22.46-9.45,40.91-27.06,64.1-34.73l-10.84-14.11c-4.85,9.13-13.79,15.47-21.67,21.83-9.09,7.34-18.54,14.19-27.92,21.15l11.42,14.8c12.17-10,24.52-19.87,36.9-29.64l-13.61-10.5a98.42,98.42,0,0,1-26,26.41c-10.16,7-25.16,13.54-23.57,28.43.37,3.46,2.28,7.15,6.05,7.94,5.31,1.11,10.32-.69,13.18-5.48a15.14,15.14,0,0,0,1.95-6.23c.16-1.55-.67-5,.45-6.25,3.74-4.12-1.33-11.89-6.31-8.17Z" style="fill:#00776e"/><path d="M341.21,365.9l-1.43,2.37a1.74,1.74,0,0,0,.44,2.24,1.73,1.73,0,0,0,2.28-.14l1.87-2a2,2,0,1,0-3.16-2.44Z" style="fill:#00776e"/><path d="M339.63,368.92a17.6,17.6,0,0,0-8.74.19l4.65.6-.27-.13c-9.12-4.4-15,9.28-5.42,12.86,3.62,1.35,8.75,1.53,12-.83,4-2.95,3.9-7.37,2.07-11.53l1.06,3.92.08-.93-2.29,5.53c2.79-3.49,7.42-5.22,10.35-8.69,3.65-4.32,2-11.26-4.08-12-4.8-.57-9.56,3.52-13.32,6.08-2.11,1.44-4,2.8-5.23,5.11a9,9,0,0,0-1,4.88c0,.61,1.39,5.43.78,3.21l2-7.46-.38.49,3.36-2a17.83,17.83,0,0,1-3.44.34l6.78,5.16-.18-.46-.61,4.65a2.74,2.74,0,0,1,.77-.58c2.16-.28,3.93-1.43,4.24-3.74.26-1.95-1-4.36-3.09-4.73Z" style="fill:#00776e"/><path d="M326.81,378.1c0,.54,0,.49,0-.13-.14.44-.14.47,0,.1s.15-.34-.05.07-.25.42,0,.07.28-.34,0,0a4.52,4.52,0,0,1-.56.51c-.3.27-1.26,1,0,0-1,.77,1.23-.52,0,0s1.21.1.13-.05a7.25,7.25,0,0,0-4.84,1.07,6,6,0,0,0-2.08,8c2.85,5.62,10.66,3.93,14.34.25a9.71,9.71,0,0,0,1.08-12.08,4.39,4.39,0,0,0-8.12,2.2Z" style="fill:#00776e"/><path d="M336.2,368.82A9.22,9.22,0,0,0,334.73,380c2.69,4.7,8.06,5.54,13,4.6,9.33-1.78,18-6.41,25.26-12.38A69.79,69.79,0,0,0,389.83,351c4.29-8,7.59-16.88,14-23.52,8-8.29-4.13-20.27-12.56-12.57a507.1,507.1,0,0,1-50.77,41c-4,2.83-5.93,8-3.29,12.52,2.36,4,8.43,6.1,12.53,3.29,23.38-16.05,46.64-33,64.79-55.05,4.7-5.69,2.77-13-4.12-15.61-5.3-2-10.52,0-15.14,2.77-4.8,2.88-9.55,5.88-14.33,8.81-9.54,5.88-19.13,11.72-28.8,17.38l11.64,15.09C380.58,325,405,312.29,418.49,289.28c5.12-8.71-4.87-17.44-13.23-13.22a291,291,0,0,0-44.41,27.7L370.93,321c17.54-13.14,34.83-27.09,48.8-44.09,4.29-5.22,3.95-16.07-4.56-17.29-11.49-1.64-19,5.1-27.86,11.35q-13,9.18-26,18.35L374,305.77c10.66-9.16,21-18.72,30.78-28.81,9.45-9.73,22.63-20.49,23.35-35,.29-5.75-5.06-10.47-10.55-10.54-9.56-.13-17.7,5.25-25.82,9.62q-12.7,6.85-25.46,13.63l12.8,16.58q19.67-18.49,39.16-37.16c3.74-3.57,3.52-8.54,1.66-12.88-2.06-4.8-7.46-6.8-12.33-6.56-5.57.28-10.26,4-14.82,6.83q-13.5,8.33-27,16.65l12.75,16.53a261.36,261.36,0,0,0,25.21-32.49c2.51-3.83,1.51-9.46-1.63-12.6-3.46-3.47-8.36-3.59-12.59-1.62-17.5,8.11-36.31,15.14-52.45,25.71-8.12,5.32-3.17,18.95,6.79,16.11,19.37-5.52,37.8-15.6,56.15-23.87l-14.22-14.22a233.4,233.4,0,0,1-22.14,28.1c-7.87,8.54,2.2,22.95,12.75,16.52q9-5.49,18.05-11l8.2-5,4.92-3,1.64-1q5.1-2.46-4.18-1.36l-3.81-3.81.36.84,1.66-12.88q-19.59,18.57-39.06,37.26c-8.81,8.47,2.4,22.24,12.8,16.58q10.92-5.94,21.9-11.81l10.53-5.64c2.68-1.43,5.09-3,8.18-2.94L407.05,242c-.19,3.64-6.18,8.29-8.4,10.69q-6.22,6.74-12.7,13.23-12.9,13-26.75,25.06c-8.85,7.7,3,23.39,12.69,16.44q10.51-7.52,21.05-15l9.72-6.93c1.62-1.16,3.22-2.34,4.86-3.47.71-.48,4.5-2.1,2.15-2.42l-4.56-17.29c-13.43,16.49-30.06,29.47-46.28,43-4.14,3.46-3.58,10.55,0,14.12,4.15,4.16,9.9,3.39,14.12,0A233,233,0,0,1,415,292.75l-13.23-13.22c-13,22-37.71,33.87-53.14,54-6,7.77,5.49,18.08,13.15,13.14s15.62-9.87,23.47-14.74c3.92-2.44,7.86-4.84,11.8-7.25l5.06-3.11,3.37-2.07c1.86-.92,1.82-1-.1-.36l-4.12-15.62c-17.22,20.86-39,36.72-60.82,52.45l9.24,15.81a649.6,649.6,0,0,0,54.09-44.26l-12.56-12.57c-9.49,9.95-13.05,22.81-20.17,34.22a49.21,49.21,0,0,1-11.78,13,71.7,71.7,0,0,1-7.82,5.2,52.37,52.37,0,0,1-4.83,2.48,17.75,17.75,0,0,1-1.86.77q-5.22.8,1.67,6.15c4.32-6-5.24-13.26-10.24-7.9Z" style="fill:#00776e"/><path d="M384.94,345.44a11.56,11.56,0,0,1,4.73-1.63l-3.79-9.13a9.26,9.26,0,0,0-2.65,5.08c-.43,1.63-.22,2.61-1.76,3.48-6.81,3.87-4.25,16.25,4.19,15.49,18.91-1.71,24.93-21.13,22.62-37.44-1.09-7.73-14-7.48-15.37,0-1.26,7.08-.1,19.7-9.46,21.12l6.41,15.18c4.31-2.8,7-6.51,7.5-11.74.39-4.44-.52-10-5-12-2.74-1.25-5.61-.71-7.33,1.92a11.06,11.06,0,0,1-3.7,3.53c-3.87,2.43-.4,8.44,3.6,6.15Z" style="fill:#00776e"/><path d="M399.8,344a36.28,36.28,0,0,0,34.07-5.61c4.85-3.71,10.19-9,11.72-15.1,1.69-6.76-1.12-15.45-2.38-22.13l-18.45,5.08c2.37,6.91,3.34,14.38,1.08,21.47l2.46-4.22-.83,1,4.22-2.46c-1.32.4-7.5-1-10.08-1.39-4.36-.6-8.7-1.22-13.06-1.77l4.89,18.05a133.59,133.59,0,0,0,37.76-25.1,9.21,9.21,0,0,0,.72-12.12c-3.08-3.86-7.56-4.27-11.9-2.37-11.88,5.19-23.76,10.46-35.87,15.09l7.34,17.39c16.59-10.09,31.64-23.13,45.17-37,7.94-8.15-2.07-20.28-11.84-15.34-18.13,9.16-36.37,18.1-54.63,27l10.32,17.66c11.35-7.3,22.32-15.07,33-23.29,10-7.66,22.81-15.18,27.07-27.64,2.49-7.31-5.46-15.16-12.73-12.73a199.94,199.94,0,0,0-43.63,20.55c-11.44,7.25-1.06,25.28,10.66,18.24,20.27-12.16,39.2-25.72,53.72-44.6,4.62-6-.8-13.32-6.32-15.54-9.78-3.94-19.73,1.78-28.38,5.94Q420.71,249.45,408,256.8l10.74,18.37a227,227,0,0,0,43.66-41c4.63-5.72,3.82-12.45-2.16-16.79-7.23-5.24-15.94-1.93-22.83,2.06-7.44,4.3-14.82,8.7-22.28,13l10.73,18.36A185,185,0,0,0,462,218c3.05-3.62,4.16-8.48,1.65-12.77-2.22-3.8-7.56-6.41-11.9-4.84-13.93,5-26.49,12.58-38.92,20.53l12.84,16.64a151.87,151.87,0,0,0,24.92-28.29c5-7.25-3.43-19-12-15.59a136.76,136.76,0,0,0-20.77,10.08c-6.54,4-11.77,9.68-16.8,15.4-5.72,6.5,1.65,17.76,9.71,12.58,5.49-3.52,11.43-6,17-9.37a105,105,0,0,1,16.51-8.22l-12-15.6a141.47,141.47,0,0,1-21.58,24c-8.91,8,2.74,23.23,12.84,16.64,10.77-7,21.61-14.27,33.83-18.5l-10.25-17.61a183,183,0,0,1-32,29.37c-4.66,3.33-6.9,9.27-3.81,14.54a10.78,10.78,0,0,0,14.54,3.82q7.69-4.53,15.43-9c2.29-1.32,4.58-2.66,6.87-4l3.08-1.71c-.24-.77,2.77,3.07-1.79-.28l-2.17-16.79A221.13,221.13,0,0,1,408,256.8c-4.61,3.41-6.93,9.21-3.81,14.55a10.79,10.79,0,0,0,14.55,3.82q10.26-6.06,20.86-11.48c3.27-1.66,6.55-3.28,9.89-4.8,2.43-1.11,4.58-2.4,7.17-1.34L452,239.87c-12.92,16.52-30.15,28.19-47.76,39.18l10.66,18.24a162.32,162.32,0,0,1,38.47-18.83l-12.72-12.73c-1.15,3.33-6,6-8.61,8.12q-6.68,5.34-13.52,10.45-13.93,10.4-28.33,20.2c-10.8,7.4-1.46,23.78,10.32,17.66,18-9.36,36-18.69,54.17-27.82L442.84,279c-12.59,12.86-26.42,23.83-41,34.38-9.89,7.17-1.56,21.77,9.61,16.43,11.69-5.58,23.69-10.59,35.64-15.62l-9-15.42A106,106,0,0,1,406,319.23c-4,1.61-7.11,4.74-7.11,9.34,0,3.86,3,8.77,7.11,9.34,6.58.91,13.16,1.7,19.75,2.53,6.32.79,12.76,1.62,16.85-4.43,3.21-4.75,3.65-11.65,3.64-17.27a55,55,0,0,0-3-17.61c-4-11.71-20.73-7-18.45,5.08q.72,3.77,1.54,7.5c.3,1.38,1.54,4.45,1.29,5.78-.31,1.72-4.25,4.94-5.79,6.13a32.62,32.62,0,0,1-20.43,6.75c-6.9-.23-7.69,9.55-1.57,11.6Z" style="fill:#00776e"/><path d="M456.44,313.69q2.37-5.38,5-10.65a50,50,0,0,0,3.71-11.54l-13.61,1.78c1.94,2.65,4,5.82,4.3,9.22a8,8,0,0,0,7.75,7.75C475,311,487.33,303,483.17,290.1a16.52,16.52,0,0,0-4.83-6.88c-1-.86-.53-1.21-.47-.18a4.42,4.42,0,0,1,.23-1.51c1-2.64,1.42-5.63,2.13-8.36a28.17,28.17,0,0,0,1.14-4.4c.18-2.2,1.39-1.67-.43-.69l-4.8,1.29.93-.06-4.8-1.3.92.46-3.41-3.41c-.92-1.3.36-1.61-.46-.75-.58.6-.68,2.95-1,3.69a24.23,24.23,0,0,1-3.69,6.13l16.23,9.49c5.73-9.59,16.49-21.38,8.76-32.6-2.35-3.41-4.81-6-5.39-10.32a16.18,16.18,0,0,1,2.47-10.7l-17.23-7.27c-2,9.61-4.46,19.12-7.4,28.49q-2.21,7-4.76,13.93c-1.09,2.94-2.3,9.11-4.65,11.07l4.18-2.43c1.92-.63,4.58,4.62,6,2.85a7.54,7.54,0,0,0,.44-2.17c.43-2,.94-4,1.47-6,1-3.71,2.12-7.39,3.28-11.06,2.41-7.59,5-15.13,7-22.86,3.72-14.53,5.9-32-1.18-45.89-3.88-7.6-12.61-13.51-20.22-6.63a53.37,53.37,0,0,0-13.13,19.7,27.93,27.93,0,0,0,.12,20.24c2.87,7,10.27,14.37,18.56,12.32s12.23-11.3,15.06-18.5c3.57-9.09,6.9-18.28,10.35-27.41L466.69,186a87.46,87.46,0,0,1-4,32.65l18.15,5c2.32-9.25,9-16.21,8.06-26.37-.93-10.41-6.87-18.18-16.36-22.17-8.32-3.5-15,9.24-8.67,14.88,3.2,2.87,6.33,6.87,5.52,11.47-1,6-5.31,11.22-6.7,17.18-2.74,11.79,14.68,16.64,18.15,5A104.71,104.71,0,0,0,485,186c-.76-10.46-14.33-12.18-17.94-2.43l-7.36,19.85c-1,2.78-2,5.61-3.12,8.34a33,33,0,0,1-1.69,3.49l-.8,1.32q-1.28,1.57,1.15-.14l4.54,1.23c-8.85-4.59,3.06-18.6,7-22.47l-4.09,2.38,1.32-.42-7.15-.93q-1.31-1.83.23.53a6.58,6.58,0,0,1,.83,1.68,22.16,22.16,0,0,1,1.27,4.86,45.88,45.88,0,0,1,.32,9c-.28,7.31-2,14.46-4,21.48-2.07,7.4-4.59,14.67-6.82,22-2.18,7.17-5.26,15.45-4.73,23,.59,8.27,8.22,15.84,16.92,13.6,8.43-2.16,10.69-11.63,13.41-18.76a298.36,298.36,0,0,0,13.4-45.88c2.14-10.26-11.49-16.68-17.23-7.26a34,34,0,0,0-3,29.33c.37,1,6.67,12.19,7.07,11.64q.21-4.08-.91-1.66l-1.05,1.69-2.63,4.21-5.26,8.44c-5.51,8.85,8,19.86,14.76,11.39,5.45-6.84,10.6-16.62,8.6-25.73-2.28-10.39-14.7-12.18-21.12-4.4-2.83,3.43-3.73,7.62-4.85,11.83s-2.39,8.24-2.87,12.51a19.1,19.1,0,0,0,2.1,11.87,24.82,24.82,0,0,0,3.94,4.73c.63.57,1.23,1.16,1.81,1.77,1.21,1.51,1,1.25-.5-.8l1.15-4.25c-.83,1.8-3.67,1.63-6.17,2l9.53,5.41c-1.49-5.34-3.25-10.24-6.67-14.68s-12.13-5.17-13.6,1.78c-.87,4.07-1.86,7.95-1.76,12.14.1,4,.09,8,0,12-.09,3.73,5.8,5.73,7.43,2Z" style="fill:#00776e"/><path d="M70.48,257c-.49-5.13-3.9-9-9.26-9.26-5.75-.32-9.53,4.16-12,8.8s1.55,10.29,6.78,8.82c6.87-1.94,17.27-10,14.22-18.35-4-10.88-16.94-1.13-20.51,4.62-2.92,4.72,1.88,9.83,6.77,8.82,6.6-1.36,13.31-7.34,12.52-14.61-.85-7.79-9.86-10.68-16.19-7.23-5,2.72-12.74,11.78-4.85,16.28,7.11,4.05,14.21-5.4,16.15-11.15,1-3.07,1.44-6.65-.4-9.53-2-3.12-5.42-3.42-8.25-5.3s-5.29-3.77-9-3.43a12.16,12.16,0,0,0-9.2,6.32c-3.75,6.48-2.75,15.18,1.68,21,4.81,6.36,12.31,8.44,19.94,7.31s4.38-12.68-3.19-11.57a8,8,0,0,1-7.26-3c-1-1.3-2.61-7-1.06-7.91.16-.09,4.56,3.83,6.15,3.68,1.28.57,1.12-.2-.5-2.31a6.06,6.06,0,0,1-.86,2.14,7.8,7.8,0,0,1-3.32,3.45l4.62-.61-.86-.12,3.58,2.75-.32-.68.61,4.62c-.11.35,6.29-4.19.64-4a4.14,4.14,0,0,1-1.53,1.55,6,6,0,0,1-2.28.69l6.78,8.81a9,9,0,0,1,2.07-2.45,4.19,4.19,0,0,1,1.08-.73c.92-.44.79-.48-.38-.11l-4.19-4.19q.48-2.53-.56-.05a6.47,6.47,0,0,1-1.27,1.49,9,9,0,0,1-4,2.14l6.78,8.81a19,19,0,0,1,1.08-2q1.65-2.07-2.23-3.62c.74,7.61,12.75,7.69,12,0Z" style="fill:#014c48"/><path d="M65.55,259.45a97.73,97.73,0,0,0-12,1c-3,.42-3.59,4.14-2.58,6.33,2,4.21,7.49,4.54,10.57,1.44,3.54-3.55,3.25-9.94,2.7-14.55-1.18-9.82-8-22.16-19.16-23-5.29-.38-10,3.34-11.52,8.31-2,6.4,1,13.68,3.37,19.6,4.16,10.46,12.32,23.72,24.77,24.72,5,.41,8.22-7,4.24-10.24-4.43-3.6-9.19-5.78-12.65-10.56a52.92,52.92,0,0,1-7.4-16c-.28-.93-1.19-3-.71-3.94-.47.93.22.51,1.15,1.29a18.87,18.87,0,0,1,4.49,5.21,23.58,23.58,0,0,1,3.22,10l.06,1.36q-.66,2.67,2.18.72l2.6,2-.46-.76-2.58,6.33a80.4,80.4,0,0,1,9.67-.86c5.41-.17,5.45-8.52,0-8.43Z" style="fill:#014c48"/><path d="M58.62,273.87a16.74,16.74,0,0,0-9.48-3.53A6,6,0,0,0,44,279.27c4.21,7.83,14.76,13.51,23.13,8.68,3.78-2.18,3.27-8.71-1.27-9.68-4.14-.88-9-1.15-11.61-5L50.72,282c2.51-.91,4.66-2.33,7.24-3.08a2.8,2.8,0,0,0,.66-5.05Z" style="fill:#014c48"/><path d="M54.76,241.05a4.47,4.47,0,0,0-4.8-3.21l4.41-10.46-4.68-1,2.62,9.95c6.55-5.27,12.11,11,13.49,14.49a6.6,6.6,0,0,0,6,4.57,4.86,4.86,0,0,0,4.41-1.82c1.33-1.56,2.46-4,1.6-6.07-3.12-7.59-6.06-16.39-13.43-21-6.48-4-14.83-3.94-20.5,1.37-4.15,3.89-.53,9.6,4.21,10.17l4.75.56c6.35.77,7.88-10.17,1.52-11.24-4.88-.81-10.58,1.16-11.55,6.69-1,5.88,4.48,9.74,9.06,11.92a2.86,2.86,0,0,0,2.88-4.94Z" style="fill:#014c48"/><path d="M67.52,247.4c5.82-7.06,18.43-10.89,27.29-8.84,4.25,1,6.63,6.32,8,10.09,1.72,4.68-.09,10.85,2.91,14.75,2,2.64,5.35,4.17,8.53,2.24,7.71-4.68,4.81-16.25,1.9-23.22-3.15-7.57-8.5-14.89-16.9-16.88-14.33-3.38-35.51,3-35.82,20.17,0,1.94,2.73,3.32,4.08,1.69Z" style="fill:#014c48"/><path d="M103.64,237.44a57.33,57.33,0,0,1-4.43-6.65c-1.3-2.6-2-4.62-4-6.81a7.29,7.29,0,0,0-8.73-1.12,68.18,68.18,0,0,0-23.94,26.81c-3.3,6.48,3.47,14,10.18,10.18q14.11-8.09,28.24-16.14l-9.2-11.92c-6.36,5.6-12.69,11.25-19.1,16.8-5.18,4.51-12.14,9-13.14,16.36-.91,6.69,5.18,13,11.91,9.16,12.35-7,24.61-14.18,36.87-21.35L98.05,239.52c-11.15,10.37-22.28,20.76-33.54,31-6.7,6.1.42,16.42,8.46,14.52,14.76-3.48,27.93-13.82,40.7-21.59L103,249.57Q93.79,259,84.57,268.46c-6,6.08-14.08,12-11.67,21.56,1.44,5.69,8.38,8.37,13.35,5.43,10.19-6,20.33-12.11,30.48-18.2l-11.16-14.47Q96.78,273.43,88,284.05c-6.75,8.12,1.51,19.18,11.22,14.54q13.8-6.6,27.57-13.27L114,272.57c-6.27,8.69-13.29,16.78-19.64,25.4-6.15,8.34,7,17.81,14.06,10.85,8.12-8.05,15-17.61,21.66-26.85,2.39-3.29,1.26-8.57-1.46-11.28-3.08-3.08-7.52-3.27-11.28-1.46q-13.78,6.64-27.51,13.37l11.22,14.54q8.73-10.68,17.52-21.33c2.92-3.54,3.76-8.28.72-12.09a9.21,9.21,0,0,0-11.88-2.38c-10.13,6.12-20.27,12.23-30.35,18.42l13.35,5.43-.35-1.3v4.83c.21-.88,3.82-4.1,5.13-5.48l6.72-7.08c4.48-4.72,9-9.4,13.53-14.08,6.84-7.1-1.95-19.25-10.72-13.89L85.81,259.75c-5.58,3.41-11.09,6.86-17.46,8.55l8.45,14.52c11-10.55,22.09-20.95,33.17-31.38,7-6.58-2-18.11-10.21-13.24-12.22,7.25-24.42,14.5-36.55,21.9l12.21,7c0-.07,3.07-2.88,3.85-3.6,2.62-2.45,5.27-4.86,7.93-7.26l15.27-13.73c6.47-5.83-1.85-16.22-9.2-11.92L65.18,247l10.18,10.18a61.42,61.42,0,0,1,18.36-21.87L85,234.18c2.26,2,4.21,2.68,6.93,3.91a54,54,0,0,1,6.85,4.23c2.91,1.88,6.91-1.94,4.87-4.88Z" style="fill:#014c48"/><path d="M116.69,270.3a27.72,27.72,0,0,1,5.35-6c1.07-1,3.5-3.6,4.48-3.89l-5.38-.7.69.31-3.22-4.19.08-2.23c-.25.91-.51,1.8-.78,2.7-.36,1.19-.73,2.38-1.13,3.57-1,2.95-2,5.88-3.25,8.76-2.21,5.29-5.85,10.4-6.83,16.09-.59,3.37.42,6.37,3.36,8.26l.69.45a5.86,5.86,0,0,0,5.87,0c3.28-1.78,4.1-4.69,5.58-7.9,1.58-3.42,3.13-6.85,4.52-10.35s2.59-7,3.64-10.6c.91-3.08,2.36-6.66,2.26-9.9-.2-6.91-7.68-9.89-13-6.2-5.59,3.84-7.88,11.4-11.15,17-3.11,5.33,5.13,10.13,8.26,4.83Z" style="fill:#014c48"/><path d="M125,277.85c4.17-3.32,10.75-4.58,15.78-6,3.87-1.08,10.68-3.61,14.62-1.77l5.86-13.89c-8.53-1.9-17.2-4.88-24.91.73A43.07,43.07,0,0,0,121.45,276c-3.47,8.76,10,13.49,14.65,6.17,2.59-4,5.13-8.27,8.83-11.44,1.81-1.55,1.77-1.39,4.36-1,3.32.44,6.62,1,9.94,1.41,8.7,1.17,10-12.6,2-14.93-7.66-2.25-16-.35-23.23,2.54-7.69,3.06-12.32,8.51-18.47,13.67-3.82,3.22,1.63,8.46,5.44,5.44Z" style="fill:#014c48"/><path d="M152.67,271.41l-1.93-1,0,1.23a21,21,0,0,0-.41,3.34,55.63,55.63,0,0,1-1.95,7l14.83,4.09c-.1.34.67-2.28.68-2.27a2.6,2.6,0,0,1-2.09-.1l-1.1-3.47c-.6,0-5.78,7.09-6.4,7.7a61.38,61.38,0,0,1-7.09,6.09c-3,2.22-6.27,3.88-8,7.4-2.56,5.3.57,11,6.52,11.35,7.56.5,15.16-7.14,20-12.27,5-5.38,11.65-12.61,11.08-20.46s-8.84-13.37-16.37-11.78c-7.36,1.55-12.24,8.41-12.32,15.77-.11,9.89,15.37,9.91,15.37,0,0-5.28.56-13.43-3.38-17.56a7.6,7.6,0,0,0-11.11.18,3,3,0,0,0,3.63,4.71Z" style="fill:#014c48"/><path d="M157.69,303.72c2.05-.49,4.11,3,4.21,4.78.14,2.73-1.51,6-3.11,8.1-4.65,6.17-13.31,8.44-20.31,10.7l8.71,14.95C157,333.79,166.7,325,173,313.4c4.3-7.95-4.2-15.84-12-12-15.36,7.63-31,14.8-46.43,22.23l11.2,14.51q17.61-18.5,35.13-37.07c7.09-7.52-2-20.23-11.28-14.61q-18.36,11.13-36.79,22.19l11.33,14.68a203.4,203.4,0,0,0,35.57-44.79c4.42-7.54-5.07-18.91-12.89-12.89C131.1,277.77,117,291.49,103,305.48l13.32,13.32c12.39-14.44,24.94-29.17,32.72-46.72,1.9-4.3,1.6-9.15-2.43-12.17-3.48-2.59-9.34-2.92-12.39.74L87.45,316.76,103.28,326l13.31-36.32c3.84-10.48-11.76-16-17.35-7.31l-25,38.86,17.39,7.33q3.7-22.12,7.38-44.26c.77-4.67-.83-9.34-5.51-11.22-4.2-1.69-9.65-.38-11.89,3.89L63.43,311.69l17.73,4.8q.87-18.08,1.7-36.17c.41-9-13.82-13.51-17.69-4.79L52.51,304l17.58,4.76.65-28.05c.25-10.6-15.67-12.69-18.42-2.49l-5.15,19.1h18l-1.83-10.82c-1.43-8.43-13.06-8.36-17-2.23-5.11,7.93-9.08,17.09-7.84,26.7s7,16.88,16,20.64c3.78,1.58,8.74-1.07,10.65-4.34a9.7,9.7,0,0,0-1.47-11.43,30.37,30.37,0,0,1-8-17.44c-.42-4.25-2.67-8-7-9.21-3.7-1-9.16.56-10.78,4.39-4.18,9.85-6.38,20.66,1.84,29.18,6.12,6.33,14.82,8.06,23.2,9,9.67,1.1,10.67-13.54,2.2-16.3-3.52-1.14-7.82-2.46-10.71-4.88-2.3-1.93-1.43-4.13,0-7.37l-17.8-4.82a50.62,50.62,0,0,0,13.78,30.78l9.18-15.77c-2.33-.95-2.79-5.25-2.59-7.28.45-4.58,3.1-8.69,5.55-12.46l-17-2.22,1.79,10.84c1.56,9.44,15.72,8.32,18,0l5.23-19.09L52,280.74l-.77,28.05c-.24,8.87,13.66,13.49,17.58,4.76l12.76-28.43-17.69-4.8q-.9,18.09-1.74,36.17c-.44,9.34,13.4,13.09,17.74,4.8L98,286.56l-17.4-7.33Q77,301.36,73.26,323.48c-1.72,10.36,11.27,16.86,17.39,7.33l25-38.88-17.34-7.32L85,320.94c-3.18,8.72,9.86,16.41,15.83,9.22Q124.2,302.08,147.53,274l-14.82-11.43c-7.14,16.18-18.33,29.61-29.74,42.92-7.81,9.1,4.62,22,13.32,13.32C129.11,306,141.94,293,156.32,282l-12.89-12.89a188.52,188.52,0,0,1-32.52,41.08c-7.64,7.31,2.22,20.22,11.33,14.68q18.35-11.16,36.74-22.27L147.71,288q-17.57,18.54-35,37.15c-7.32,7.81,1.86,19.19,11.2,14.51,15.32-7.67,30.51-15.6,45.94-23.07l-12-12c-5.63,10.17-14.52,17.63-23.3,25-6.9,5.81.48,17.55,8.71,15,14.47-4.57,32.2-12.15,34.61-29.3,1-7.34-.95-14.94-6.81-19.78-5.24-4.32-13-4.58-17.82.56a4.63,4.63,0,0,0,4.47,7.68Z" style="fill:#014c48"/><path d="M89.55,322.71c-3.79-4.33-9.14-3.18-14.16-1.84-6.74,1.79-14.53,3.38-20.36,7.35-11.56,7.87-15,23.65-8.29,35.79L61.27,352.8c-4.88-4.44-.06-8.66,4.88-9.9,9.26-2.32,7.35-16.83-2.25-16.67-9.21.16-17.38,4.69-21.33,13.22a22.71,22.71,0,0,0,5.62,26.43c7.7,6.86,19.83-1.76,14.52-11.21C59.63,349.18,61.13,344,66,340.14c3.08-2.42,6.4-4.61,9.68-6.75,1.57-1,9-7.75,10.92-6.85a2.45,2.45,0,0,0,3-3.83Z" style="fill:#014c48"/><path d="M61.91,361.16c-7.35,1-15.83.39-22.41,4.31s-12,10.79-12.8,18.6,2.9,14.31,8.83,18.89c4.54,3.51,10.41,5.54,14.2,9.85l11.48-14.88c-3.1-1.63-4.85-4.92-3.19-8.25,1.33-2.65,4.19-4.7,6.24-6.73a60,60,0,0,0,7.1-8.48c8.08-11.68,11-26.06,13.55-39.77,1.87-10.26-11.64-17.16-17.48-7.36A157.71,157.71,0,0,0,46.72,385.4c-.9,6.18,4.15,14.84,11.72,11.72,6.88-2.83,10.84-7.32,14.8-13.48s7.87-12.47,11.66-18.79q11.38-19,21.64-38.57L90.15,316.7c-10.81,21.75-20.53,44-29.32,66.68-1.69,4.36,1.51,9.62,5.51,11.23,4.57,1.84,9.14.12,11.88-3.9q20.84-30.54,41.68-61.11l-16.75-9.79-36,68.33c-5,9.5,7.76,20.75,15.51,12,18.39-20.81,34.26-43.67,50-66.48l-17-9.94q-13.43,28.1-27,56.11c-2.14,4.46-1.6,9.71,2.56,12.82,3.78,2.83,9.67,2.95,13-.78,14.3-15.77,26.94-33,39.47-50.14l-17.32-10.12-22,48.7c-5.28,11.69,9.92,20.91,17.33,10.13,10.32-15,20.69-30,30.95-45.11l-18.29-7.71a101.06,101.06,0,0,1-13.23,31.71c-6.84,10.78,10.27,20.72,17.08,10a121,121,0,0,0,15.45-36.38c2.73-11.35-11.9-16.93-18.29-7.71-10.39,15-20.67,30.05-31,45.08l17.33,10.13,22-48.71c5.34-11.8-9.68-20.61-17.32-10.12-11.54,15.83-23.08,31.63-36.2,46.21l15.61,12q13.4-28.09,26.8-56.2c5.49-11.45-9.75-20.39-17-9.94-14.87,21.43-29.81,42.8-47,62.45l15.52,12L119.9,329.6c5.8-11.14-9.78-20.11-16.75-9.79l-41.36,61.3,17.39,7.33c8.08-21.17,17.26-41.87,27.36-62.16,5.42-10.87-10.67-20.46-16.39-9.58q-9,17-18.72,33.59-4.65,7.86-9.49,15.61c-1.7,2.72-3.41,5.44-5.15,8.13a31.36,31.36,0,0,1-2.25,3.37c-.34.41-2.45,1.87-1.17,1.34L65.1,390.47A144,144,0,0,1,83.94,337l-17.47-7.37c-1.55,8.4-3.1,16.9-6.12,24.93-2.7,7.17-7,12.32-12.35,17.68-5.88,5.9-10.23,13-9.51,21.6A25.32,25.32,0,0,0,51.65,414.3c9.66,5.07,18.63-6.79,11.48-14.88-3-3.43-6.92-5.84-10.89-8-2.17-1.2-6.7-3-7.26-5.21-.79-3,3.13-5.8,5.18-7.28,4.57-3.31,9.32-6.14,14.07-9.18,3.46-2.21,2.54-9.2-2.32-8.56Z" style="fill:#014c48"/><path d="M162.65,342.44c1.24-1,4-2,4.93-3.12q-1-7.36-4.33-5.42a25.47,25.47,0,0,1-3,.75c-4,.57-8,.06-12,.91-8.75,1.86-15,7.69-20.23,14.58-4.72,6.18,4.59,15.32,10.77,10.77,2.92-2.15,5.71-4.56,8.77-6.51,3.23-2.07,6.32-2.31,10.09-2.74,7.13-.81,15.14-2.66,18.93-9.52,3.47-6.26,1.42-15-6.16-16.81-8.89-2.14-12.44,6.26-15.11,12.82-1.89,4.61,4.4,6.59,7.36,4.29Z" style="fill:#014c48"/><path d="M155.62,360.79c.68-2.89,1.74-5.18,1.67-8.2-.19-9.07-14.86-8.62-13.8,0,.76,6.17,3.24,11,6.83,16,3.27,4.57,6.28,8.61,7.05,14.34.58,4.32,1.61,12.14-.72,16-2.68,4.49-9.72,7.68-14.09,10.05l14.05,10.8c4.78-18.2-1.2-37.85-4.44-55.86L133.72,369c2.14,7.13,7.08,11.15,11.63,16.65a14.67,14.67,0,0,1,2,3.26c.13.86.24.51.34-1.06a14.54,14.54,0,0,1-1,1.74c-1.77,2.79-3.54,5.4-4,8.75-1.1,7.11,4.1,13.66,11.76,11.77,5.44-1.34,11-3.3,14.91-7.51,4.52-4.86,4.57-9.69,4.82-15.78l-1.29,4.78.57-.85-3.4,3.4.89-.42-7.29,1,.86.28-6.61-6.61c-.5-1.59.55-1.18-.25-.85-1.35.57-2.66,2.09-3.7,3.15-4.33,4.44-2.51,12.45,3.7,14,6.94,1.76,12.95-1.93,16.55-7.81,3.31-5.41,4.2-14.24-1.45-18.46a11.1,11.1,0,0,0-17.18,5.88,15.13,15.13,0,0,0-.25,5.28c.26,3-.18,0,.57-.44a27.88,27.88,0,0,1-6.53,2.53L161,403.44c.4-2.62,2.58-4.73,3.68-7.15a18.56,18.56,0,0,0,.21-14.76A32.82,32.82,0,0,0,157.8,371c-2-2.14-4.77-4.16-5.63-7.05-3.59-12-20.6-6.89-18.45,5.08,1.45,8,3,16.05,4.33,24.09,1.22,7.18,2,14.48.12,21.61-2.16,8.21,6.74,14.77,14.05,10.8,7-3.8,14.13-8.34,18.87-14.85,4.85-6.66,4.84-14.44,4.29-22.34s-2.18-15.52-7.07-22c-3.78-5-9.51-9.28-11.26-15.54l-11.54,6.72a6.86,6.86,0,0,1,1.88,3.32c.68,4.24,7.3,3.9,8.23,0Z" style="fill:#014c48"/><path d="M151.48,410.51c-7.7,5.63-15.88,11-24.93,14.12l5.75,13.65c11.12-6.93,19.6-20.24,26.26-31.23,4.55-7.5-4.52-16.54-12-12-11.74,7.09-23.3,14.76-35.41,21.19l11.62,15.06c10.54-12.47,19.68-26.33,29.33-39.5,2.88-3.93,1-10.08-2.54-12.77-4.1-3.06-9.2-2.56-13,.78-13.36,11.74-26.72,23.49-40.24,35.06l16,12.33c5.22-7.29,10.32-14.66,15.42-22,4.67-6.76,11.7-14.35,10.6-23.19-.51-4.14-2.14-7.68-6.29-9.35-3.44-1.38-8.65-1.09-11.17,2.12A233.4,233.4,0,0,1,80,415.63l14,14.05c6.25-14.1,12.45-28.25,17.08-43,3.05-9.67-10.29-17.57-17.2-10q-14,15.35-28,30.7L83,417.32l4.89-25.41c1.6-8.27,3.86-17.25-4.71-22.49-4.84-3-10.81-.85-13.78,3.61a251.13,251.13,0,0,0-18.13,32.08l18.65,5.05,3.17-25.69c1.24-10.05-14.11-13.2-18.55-5a90.44,90.44,0,0,0-9,23.77L65,405.84l.49-13.49c.4-10.9-17.54-13.77-19.42-2.62A42.58,42.58,0,0,1,39,407.41c-3.74,5.44.21,12.72,5.88,14.47q-4.1-7.83-4-4c0,.7,0,.8-.07.3a19.32,19.32,0,0,0-1.13,4.38,17.19,17.19,0,0,0,.89,10.51c3.47,7.48,11.16,9,18.66,9.54a54.16,54.16,0,0,0,36.07-10.85c7.79-5.93,5.23-17.37-5-18.28-12.71-1.14-25.51-2.85-38.28-2.82-10,0-12.91,16.13-2.44,18.05,13.42,2.46,27.14,3.16,40.72,4.39l-5-18.28A39.67,39.67,0,0,1,70,422.28c-4,.91-11.28,2.11-14.68-.35l3.52,3.52c.53.74-.46,1.85.31.14a15.07,15.07,0,0,0,.77-2.72,21,21,0,0,0,.37-8.05,14.26,14.26,0,0,0-10.19-11.93L56,417.35A56,56,0,0,0,65.16,395l-19.42-2.63-.54,13.49c-.45,11.08,17,13.6,19.47,2.64a71.13,71.13,0,0,1,7.06-19l-18.55-5-3.27,25.69c-1.25,9.82,14.53,13.68,18.64,5a250.42,250.42,0,0,1,18.25-32L73,386.81l.81.5-3.61-3.61c-.92-1.6.25-5.53-.88-1.86-.45,1.48-.63,3.16-.94,4.69L66.69,395l-3.4,16.9c-1.89,9.38,9.69,17.95,17.08,9.94q14.07-15.25,28.08-30.6l-17.19-10c-4.13,13-9.52,25.57-15,38.09-4.76,10.93,6.75,19.76,16.13,12.45a253.38,253.38,0,0,0,42.91-42.56L117.85,382c.24,2,.7.74-.69,2.45-1.16,1.43-2.16,3.14-3.21,4.65l-6.27,9c-4.36,6.26-8.7,12.54-13,18.87-6.71,10,7.75,19.79,16,12.33,13.18-11.94,26.52-23.69,39.85-35.46l-15.54-12c-9.13,12.51-19.08,24.76-27.31,37.87-4.87,7.76,5.21,18.88,13.12,13.12,11.1-8.08,23.07-15.13,34.59-22.59l-12-12a141.73,141.73,0,0,1-10,15.5c-3.63,4.84-8.15,9.22-11.31,14.38-4.73,7.75,5.49,14.05,11.73,9.06,7.92-6.33,15.88-12.47,23-19.69,3.38-3.43-1.18-10-5.34-6.92Z" style="fill:#014c48"/><path d="M103,433.29a31.34,31.34,0,0,0-28.33,1,8.42,8.42,0,0,0-3.82,9.38c3.19,10.48,14.5,12.76,23.59,8.56,9.25-4.27,17.41-10.2,27-13.88,9-3.43,8.43-17.83-2.39-17.67A46.64,46.64,0,0,0,94.35,428c-4.65,3-6.23,10-1.81,14.07,9.23,8.43,25.36,5.66,36.55,3.59l-4.75-17.22-14,5.1c-4.38,1.6-10.44,2.71-13.82,6.1-6.18,6.18-2.93,17.79,2.08,23.55,6.29,7.23,16.17,8.12,24.49,4.14,8.14-3.9,12.63-11.7,18.91-17.74,5.8-5.57-.14-17.49-8.3-14.26a31.27,31.27,0,0,0-9.87,5.94c-2.56,2.26-4.55,5.14-7.19,7.3a10.8,10.8,0,0,1-2.42,1.73c-1.86.75-2.13,0-1.14.56-1.55-.9-1.93-2.35-1.8-4.09l-1.22,4.5.45-.84-3.2,3.2c6.57-3.57,14.76-5.42,21.8-8,10.84-3.92,6.58-19.29-4.75-17.22a68.73,68.73,0,0,1-11.72,1.13,51.23,51.23,0,0,1-5.68-.13c-.94-.1-2.92-1.12-1.74,0l-1.81,14.07a28.89,28.89,0,0,1,15.7-4.76L116.7,421a147.34,147.34,0,0,0-19.41,8.92c-2.85,1.59-5.57,3.34-8.29,5.13-.88.57-3,1.32-3.48,2.07l-.41.15q-1.38-.7,1.77,2l-3.82,9.37a43.3,43.3,0,0,1,18.87-7.1c3.8-.53,4.38-6.64,1.08-8.23Z" style="fill:#014c48"/><path d="M145.94,457.83c-8-.39-17.31-2.65-24.47,2.23-7.53,5.13-4.39,15.9,4,17.75,6.71,1.49,15.12-.09,21.75-1.37,8-1.54,15.61-4.55,20.07-11.7,3.51-5.64-2.32-13.22-8.68-11.29-5.52,1.67-10.5,4.45-16.15,5.72-4.76,1.06-10.87,2.42-15.72,1.8l4.27,1.16-.83-.38,3,3-.54-.71,1.14,4.22,0-1.18-1.11,4.11.74-1L130.51,473c4-3.07,10.27-6,15.43-6.08,5.88-.08,5.82-8.81,0-9.1Z" style="fill:#014c48"/><path d="M163.19,454c-10.46-.18-20.82.78-31.28.36l2.24,16.56c10.56-2.79,20.9-8.43,30.78-13,7-3.27,4.94-14.54-2.13-16.27-9.42-2.3-20.17-.53-29.77.07l2.55,18.81c7.52-2.84,14.95-5.9,22.41-8.89,4.42-1.78,7.62-5.46,6.86-10.52a9.58,9.58,0,0,0-9.41-8.31c-6.5-.05-13-.17-19.49-.29l2.57,19q6.38-2.49,12.71-5.1c10-4.1,8.69-17.89-2.56-18.89l-8.84-.79,2.53,18.69q8.08-2.28,16.2-4.53c2.22-.62,4.44-1.32,6.69-1.81.95-.21,2.05-.17,3-.41,1.09-.28,1.47.6.52-.39l-2.85-6.87v.8l1.32-4.9c-3.67,7.64-10.42,14.59-17.15,19.63l12,15.51a50.69,50.69,0,0,0,10.66-16.77,34.37,34.37,0,0,0,1.94-9.36c.22-2.94-1-6.23-.51-9.08,2-12.63-14.36-17.16-19.09-5.26-2.78,7-6.27,13.16-7.09,20.77-.61,5.65,6.57,8.81,10.93,6.27,8.22-4.79,11.86-13.32,15.25-21.78L155,421.9c-.84,5.17.61,10.48-.55,15.48-1,4.19-3.59,7.87-6.41,11-3.27,3.65-3.93,9-.77,13,2.75,3.46,8.78,5.58,12.74,2.54a90.27,90.27,0,0,0,16.42-15.73c4.79-6.08,12.52-14.91,6.78-22.73-5-6.87-14.81-6.83-22.29-5.21-8,1.73-15.8,4.49-23.63,6.75a9.52,9.52,0,0,0-6.81,10.44c.75,5,4.5,7.71,9.35,8.25l8.84,1-2.55-18.89q-6.39,2.46-12.74,5c-4.46,1.81-7.69,5.49-6.92,10.6a9.67,9.67,0,0,0,9.49,8.38c6.5,0,13,0,19.49.14l-2.55-18.83c-7.48,2.94-15,5.82-22.4,8.91-4.4,1.84-7.63,5.41-6.86,10.51.65,4.32,4.6,8.76,9.4,8.3,4.3-.42,8.59-.9,12.88-1.38,3.91-.43,8.28-1.51,12.16-.67l-2.13-16.27c-9.24,4.6-19.28,8-28.28,13-8.29,4.58-2.71,18.24,6.49,15.41,10-3.08,20.25-4.79,30.3-7.62,5.16-1.45,4.1-9.21-1.26-9.3Z" style="fill:#014c48"/><path d="M167.53,434.82c-6,4.43-8.59,12.58-10.53,19.57s6.37,14.26,12.81,9.85a35.72,35.72,0,0,0,8.25-7.45l-14-10.79c-3.17,5.45-6.37,10.89-9.4,16.43-3.3,6,.75,14.74,8.24,14.35a14.31,14.31,0,0,0,4-.36c1.6-.61,1,.54,0-.61l-2.49-4.28,1.83-5a12.74,12.74,0,0,1-1.46.78,29.42,29.42,0,0,0-3.66,1.53c-2.65,1.1-5.26,2.48-8.11,2.87h5.33c1.06.26-.19-.21-.64-.83a29.77,29.77,0,0,1-1.63-2.5c-1.13-2.07-2.07-4.2-3.24-6.26-4.6-8.06-17.09-4.38-17.21,4.66-.12,8.36,5.11,17.52,12.16,22.11,8.24,5.37,16.58.05,24.33-3.44,7.09-3.21,13.66-9.38,11.48-18a14,14,0,0,0-9.16-9.49c-3.88-1.29-7.5-.65-11.48-.33l8.23,14.35c2.88-5.63,5.58-11.35,8.32-17.06,5-10.42-8.71-18.31-15.39-9a14.84,14.84,0,0,1-3.06,3.17l13.12,7.54c-.2-6.3,1.51-12.9.35-19.06-.53-2.81-4.59-4.56-6.95-2.83Z" style="fill:#014c48"/><path d="M134.77,204.17c10.85-.85,25.4,4.15,27.89,16.14.79,3.8,6.49,2.17,5.79-1.59l-.09-.51c-.71-3.79-6.49-2.19-5.79,1.6l.09.5,5.79-1.59c-3-14.52-20.26-21.6-33.68-20.55-3.83.3-3.86,6.3,0,6Z" style="fill:#00776e"/><path d="M162.34,208.64a30.4,30.4,0,0,1,34.58-6.09c3.46,1.67,6.5-3.5,3-5.18a36.56,36.56,0,0,0-41.84,7c-2.72,2.75,1.52,7,4.24,4.24Z" style="fill:#00776e"/><path d="M187.24,159.61c8.75.61,14.77,7.76,14.48,16.4-.13,3.86,5.87,3.85,6,0,.41-12.07-8.55-21.57-20.48-22.4-3.85-.28-3.83,5.73,0,6Z" style="fill:#00776e"/><path d="M206.7,169.59c10.3-3.74,23-6.56,31.32,2.64,2.6,2.87,6.83-1.39,4.25-4.25-9.79-10.81-24.81-8.66-37.17-4.18-3.6,1.31-2,7.11,1.6,5.79Z" style="fill:#00776e"/><path d="M238,209.45c6.21-10.1,18.71-12.52,28.48-6,3.21,2.15,6.22-3.05,3-5.18a25.78,25.78,0,0,0-36.68,8.14c-2,3.3,3.16,6.31,5.18,3Z" style="fill:#00776e"/><path d="M273.79,172.1c.65-6.35,3.29-15,10-17.1,6.5-2.06,14-2.77,20.24.33,3.45,1.71,6.49-3.46,3-5.18-8.27-4.09-18.76-3.65-27.24-.14-8,3.32-11.2,14.27-12,22.09-.39,3.83,5.61,3.81,6,0Z" style="fill:#00776e"/><path d="M257.55,125.35a14.12,14.12,0,0,1,15.26,14.42c0,3.86,6,3.86,6,0a20.13,20.13,0,0,0-21.26-20.42c-3.85.2-3.87,6.2,0,6Z" style="fill:#00776e"/><path d="M311.84,127.66c8.62-9.38,21.8-10.37,31.94-2.76,3.09,2.32,6.08-2.89,3-5.18a29.14,29.14,0,0,0-39.22,3.69c-2.61,2.84,1.62,7.1,4.25,4.25Z" style="fill:#00776e"/><path d="M358,154.19a18.4,18.4,0,0,1,23.17-8.06c3.58,1.45,5.13-4.35,1.59-5.78-11.09-4.49-24.21.4-29.94,10.81-1.87,3.39,3.31,6.42,5.18,3Z" style="fill:#00776e"/><path d="M353,73.51c10.05.56,9.72,13.25,8.66,20.38-.56,3.78,5.23,5.41,5.79,1.59,1.68-11.33.2-27.16-14.45-28-3.86-.21-3.84,5.79,0,6Z" style="fill:#00776e"/><path d="M368.6,87.94a37,37,0,0,1,37.22,4.47c3.1,2.31,6.09-2.89,3-5.18a42.86,42.86,0,0,0-43.28-4.47c-3.51,1.57-.47,6.75,3,5.18Z" style="fill:#00776e"/><path d="M425.11,109.38c-1.49-4.2,2.19-8.09,5.4-10.35,3.75-2.66,8.24-3.37,12.36-1.12,3.39,1.86,6.42-3.32,3-5.18a17.51,17.51,0,0,0-19,1.54C421.73,98,417,104.39,419.32,111c1.28,3.62,7.08,2.06,5.79-1.59Z" style="fill:#00776e"/><path d="M95.78,204.06c9.84-7.65,18.91,4.84,20.78,13.42.54,2.46,4.34,3,5.49.71l.79-1.57c1.74-3.44-3.43-6.48-5.18-3l-.8,1.57,5.49.72c-1.58-7.22-5.34-14.49-12.23-17.9a17.18,17.18,0,0,0-18.58,1.83c-3.05,2.37,1.22,6.59,4.24,4.25Z" style="fill:#00776e"/><path d="M167.58,243.45a18.47,18.47,0,0,1,23.7-5.08c3.37,1.89,6.4-3.29,3-5.18-10.26-5.76-23.7-3.38-31,6-2.34,3,1.88,7.3,4.24,4.24Z" style="fill:#00776e"/><path d="M211.53,310.16c12.58,2.69,27.42.95,37.38-7.88,10.27-9.1,7.84-22.39.88-32.71-2.15-3.19-7.35-.19-5.18,3,6,8.93,8.29,19.81-1.73,26.83-8.48,5.95-19.84,7.08-29.75,4.95-3.77-.8-5.38,5-1.6,5.79Z" style="fill:#014c48"/><path d="M256.63,287.31a25.21,25.21,0,0,0,21.63-26.48c-.18-3.84-6.18-3.86-6,0,.51,10.79-6.61,19.18-17.23,20.7-3.8.54-2.18,6.33,1.6,5.78Z" style="fill:#014c48"/><path d="M222.08,390c10.24-2.38,21.18-11.94,22.5-22.73,1.24-10.14-1.83-24.64-12.54-28.42-3.65-1.29-5.22,4.51-1.6,5.78,7.58,2.68,9.41,16.4,8,23.12-1.66,7.81-10.43,14.72-17.93,16.46-3.76.88-2.17,6.66,1.59,5.79Z" style="fill:#014c48"/><path d="M269.94,396.3c9.84-3.06,19.78-8.25,24.72-17.76a30.3,30.3,0,0,0-.12-27.84c-1.75-3.44-6.92-.41-5.18,3a23.92,23.92,0,0,1-.6,23.07c-4.42,7.37-12.5,11.25-20.41,13.71-3.68,1.15-2.11,6.94,1.59,5.79Z" style="fill:#014c48"/><path d="M327.88,239.35c13,.09,27.39-.34,37.42-9.82,8.73-8.25,10.5-20.86,11-32.28.16-3.86-5.84-3.85-6,0-.4,9.78-1.65,21-9.22,28-8.8,8.25-21.89,8.14-33.17,8.06-3.86,0-3.87,6,0,6Z" style="fill:#014c48"/><path d="M369.44,224c15.11,3,36.14,4.3,42.06-13.86,1.2-3.68-4.59-5.26-5.78-1.6-4.73,14.48-23.2,12-34.69,9.68-3.77-.76-5.38,5-1.59,5.78Z" style="fill:#014c48"/><path d="M305.13,312.75c12.11,4.47,30.6,4.05,36.75-9.42,5.07-11.09,2.63-27.65-11.76-29-3.84-.37-3.81,5.63,0,6,11.16,1.08,9.75,18.1,3.95,24.22-6.51,6.87-19.49,5.35-27.35,2.45-3.62-1.34-5.19,4.46-1.59,5.79Z" style="fill:#014c48"/><path d="M342.62,356c6.34-1.15,12.79-4.39,15.49-10.58a13.4,13.4,0,0,0-3-15.36c-2.87-2.57-7.13,1.66-4.24,4.24a7.67,7.67,0,0,1,1,10c-2.35,3.66-6.86,5.16-10.91,5.89-3.8.69-2.19,6.48,1.59,5.79Z" style="fill:#014c48"/><path d="M226.24,415c-5.68-12.29-20.42-15-30.81-6.93-3.05,2.36,1.22,6.58,4.24,4.25,7.63-5.91,17.51-2.68,21.39,5.71,1.62,3.5,6.79.45,5.18-3Z" style="fill:#014c48"/><path d="M398.36,264.11c6.24-2.26,13-1.93,18.52,2,4.79,3.43,9.94,11.14,7.28,17.27-1.52,3.5,3.65,6.56,5.18,3,3.55-8.18-.37-17.71-6.77-23.41a25.53,25.53,0,0,0-25.81-4.7c-3.6,1.3-2.05,7.1,1.6,5.79Z" style="fill:#014c48"/><path d="M432.43,278.19c5.91-2.93,12.94-4.17,19.31-1.95,6.81,2.38,11,9.17,8.17,16.11-1.47,3.57,4.33,5.12,5.79,1.6,3.48-8.44-1-17.79-8.76-22-8.64-4.62-19.08-3.18-27.54,1-3.45,1.71-.42,6.89,3,5.18Z" style="fill:#014c48"/><path d="M440.63,209.29a5.74,5.74,0,0,1,1.44,11.33c-3.71,1-2.14,6.83,1.59,5.79,5.62-1.57,9.72-7,8.95-12.93s-6.16-10.1-12-10.19c-3.86-.06-3.86,5.94,0,6Z" style="fill:#014c48"/><path d="M425.9,164.16c3.66-3.39,8-7,13.15-7.46,4.56-.4,9,2.07,9.75,6.79.61,3.8,6.4,2.19,5.79-1.6-1-6.3-6.71-10.5-12.87-11.17-7.84-.84-14.62,4.16-20.06,9.2-2.84,2.63,1.41,6.86,4.24,4.24Z" style="fill:#014c48"/><path d="M380.8,289.26c6.63,0,5.76,7.8,3.28,11.61-2.11,3.25,3.08,6.26,5.18,3,2.62-4,3.83-9.11,1.91-13.67a11.21,11.21,0,0,0-10.37-7c-3.86,0-3.87,6,0,6Z" style="fill:#014c48"/><path d="M253.41,325.26c5.54,4.4,13.84,4.17,18.58-1.4,2.49-2.93-1.73-7.19-4.24-4.25s-7,3.9-10.1,1.41c-3-2.38-7.27,1.84-4.24,4.24Z" style="fill:#014c48"/><path d="M411.17,326.54c7.06,4.1,17.72,6.12,21.28-3.47,1.34-3.63-4.45-5.19-5.79-1.6-2,5.32-9.35,1.69-12.46-.11-3.34-1.95-6.36,3.23-3,5.18Z" style="fill:#014c48"/><path d="M191.44,349a7.55,7.55,0,0,0-3.56,8.6,7.46,7.46,0,0,0,7.73,5.13,3.09,3.09,0,0,0,3-3c0-1.48-1.38-3.18-3-3s-3-1.52-1.14-2.55c3.35-1.92.33-7.1-3-5.18Z" style="fill:#014c48"/><path d="M451.88,246.33c4-1,8.62-.62,11.34,2.82,2.49,3.15,1.73,7.39-1.92,9.14-3.48,1.67-.44,6.84,3,5.18,6.1-2.91,8.05-10.62,4.72-16.37-3.84-6.63-11.77-8.22-18.76-6.56-3.76.9-2.17,6.68,1.59,5.79Z" style="fill:#014c48"/><path d="M73.88,233.61c7.29-8.16,16.15-13.47,26.59-7.13,7.85,4.76,15.26,12.56,15.07,22.27a3,3,0,0,0,5.13,2.12c4.07-4.38,9.42-2,10.52,3.46.77,3.78,6.55,2.18,5.79-1.6-2-9.89-13.55-13.64-20.56-6.1l5.12,2.12c.25-12.32-9.18-22.75-19.54-28.31-12.38-6.66-23.75-.72-32.36,8.93-2.56,2.88,1.67,7.13,4.24,4.24Z"/><path d="M131.48,262.13c5.6-4.9,13.29-8.95,21-7.07a15.29,15.29,0,0,1,11.7,14.29,3,3,0,0,0,3.79,2.9,4.07,4.07,0,0,1,5.53,2.53c1.33,3.59,7.13,2,5.79-1.59-2-5.38-7.23-8.66-12.91-6.73l3.8,2.89a21.36,21.36,0,0,0-14.79-19.69c-10.13-3.33-20.55,1.63-28.11,8.22-2.91,2.55,1.35,6.78,4.25,4.25Z"/><path d="M193.42,271.07c-.5-12.79,5.49-25.65,16.56-32.48,11.43-7,26-6.28,37.13.87,2.07,1.33,4.32-.47,4.51-2.59,1.17-12.48,14.77-17.75,24.45-10.34,3.06,2.35,6.05-2.86,3-5.18-13.72-10.5-31.94-.95-33.48,15.52l4.52-2.59c-12.87-8.26-30-9-43.18-.87-12.82,7.9-20.12,22.76-19.54,37.66.15,3.84,6.15,3.86,6,0Z"/><path d="M280.33,232.19c-3.58-24.61,21.24-44.78,44.37-34.28,2.32,1.05,5.09-.68,4.41-3.39a14.1,14.1,0,0,1,8.8-16.82c3.63-1.25,2.07-7-1.59-5.79a20.25,20.25,0,0,0-13,24.21l4.41-3.39c-12.81-5.81-28.08-4.65-39.28,4.19s-15.91,23.1-13.91,36.86c.56,3.81,6.34,2.19,5.79-1.59Z"/><path d="M468.43,120.52c-21.73-9.19-46.32,2.18-52.47,25.19l4.4-1.79c-5.7-2.95-12.72-4.72-18.61-1.17a12.27,12.27,0,0,0-5.74,13.9c1.05,3.7,6.84,2.13,5.78-1.6-1-3.47,1.21-6.7,4.55-7.79,3.76-1.23,7.63.1,11,1.84a3,3,0,0,0,4.4-1.79,32.19,32.19,0,0,1,43.67-21.61c3.51,1.49,6.57-3.68,3-5.18Z"/><path d="M179.57,451.89c6.71-4.9,12.7-13.32,10.81-22.11-2-9.2-12-11.75-18.73-16.6-3.13-2.27-6.13,2.93-3,5.18,4.49,3.25,11.49,5.13,14.69,9.84,4.32,6.35-1.67,14.78-6.77,18.51-3.09,2.25-.1,7.46,3,5.18Z"/><path d="M163,422.69c2.15-3.18,6.07-4.75,8.89-7.29a29.93,29.93,0,0,0,5.62-7,36.46,36.46,0,0,0,4.75-19.59c-.56-15.32-10.24-28.37-21.8-37.63l-1.33,5c8.54-1.22,18.22-3.47,21.8-12.35a18.21,18.21,0,0,0-5.23-20.78v4.25c9.88-7.92,9.85-24.44-.07-32.31-3-2.38-7.27,1.84-4.25,4.24a15.34,15.34,0,0,1,.08,23.82,3,3,0,0,0,0,4.25,12.31,12.31,0,0,1,3.45,15.32c-3.23,6-11.34,6.91-17.37,7.77-2.15.31-3,3.69-1.33,5,10.67,8.53,20.11,20.48,20.07,34.79a29.55,29.55,0,0,1-5.45,17.45c-3.63,4.88-9.61,7-13,12-2.17,3.21,3,6.21,5.18,3Z"/></svg>