<svg id="Layer_1" data-name="Layer 1" xmlns="http://www.w3.org/2000/svg" viewBox="0 0 516.89 522.18"><path d="M26.52,250.52a18.91,18.91,0,0,1,5-6.83,6,6,0,0,1-1.76-4.47c0-1.92.89-3.5,1.16-5.33s-.78-2.57-1.71-4a10.71,10.71,0,0,1,.22-12.45,11.63,11.63,0,0,1,2.26-2.38,19.55,19.55,0,0,1-1-8.54A24.46,24.46,0,0,1,27,192.05a26.35,26.35,0,0,1,8.48-17.22,16.68,16.68,0,0,1-3.72-9.08,8.83,8.83,0,0,1-4.74-5.07c-2.08-5.36,1.15-9.46,3-14.23.88-2.31.19-4.6.8-6.95a9.68,9.68,0,0,1,3.46-5.09c.19-.16.4-.31.61-.46a2,2,0,0,1,0-.54c-.12-.82-.24-1.63-.34-2.45-.15-1.17-.31-2.35-.46-3.53A24,24,0,0,1,31.39,119a13.36,13.36,0,0,1,2.41-9c-2.63-4.64-4-10-1.26-15a12.67,12.67,0,0,1,8.25-6.44c2.32-4.73,6.14-9.7,10.44-11.92,3.68-1.9,9.07-2.22,13.6-1a18.32,18.32,0,0,1,10-12.5c4.67-2.23,10.09-2.62,15.17-2,1.62.2,3.4.41,5.17.77,3.26-2.2,6.57-4.33,10-6.29a37,37,0,0,1,2.5-4,12.21,12.21,0,0,1,7.62-11.34,20.16,20.16,0,0,1,11.88-1c2.25-6,4.9-12.3,11.85-12.56,6.35-.24,11.45,4.8,12.94,10.66.88,0,1.75.1,2.6.19a17.6,17.6,0,0,1,2.88-.67c4.92-.74,10.26-.18,14.59,2.43a22.41,22.41,0,0,1,9.59,13.12,43.32,43.32,0,0,1,3.34,5c7.24-1.06,14.6,3.44,17.37,11.32.09.26.17.53.25.8,1.19.11,2.9.43,3.12.48a16.82,16.82,0,0,1,6.93,3.54c3.13,2.6,5.47,6.27,5.74,10.2l2.95,1.76c9.56-6,21.63-1.7,28.58,6.34A48.37,48.37,0,0,1,258.7,107q.18.51.33,1l.61.36a16.07,16.07,0,0,1,8.29-.16c5.4,1.34,10.87,6.11,11.78,11.42a21.34,21.34,0,0,1,15.5-.77,21.08,21.08,0,0,1,7.86,4.45,12,12,0,0,1,4.61.86c4,1.57,5.16,4.4,7.1,7.83a24.56,24.56,0,0,0,4.66,5.25c1.89.82,3.78,1.64,5.66,2.48a8.76,8.76,0,0,1,11,2,15.66,15.66,0,0,1,2.57,4.1l1.76.84.88-.37a51.49,51.49,0,0,1,12.11-3.54c8.66-1.35,16.13-.15,22.91,5.65,5.49,4.69,11.22,10.92,11.73,18.49a14.28,14.28,0,0,1-.79,5.75,14.19,14.19,0,0,1,10.17,1.59,11.31,11.31,0,0,1,5.47,8.92c12.39-3.51,27-4.09,37.37,4.36,5.69,4.62,11.53,15.47,7.81,22.13q0,.54,0,1.08a24,24,0,0,1,4.49,1c3.88-2.63,10-1,12.07,3.49a18,18,0,0,1,1,9.64h0c4.49-1.1,9.28.32,13.14,3.24a21.79,21.79,0,0,1,8.73,17.18c.13,6-2.88,14.57-7.83,20.26-.09.2-.18.39-.28.58a40.76,40.76,0,0,1-5.25,8,8,8,0,0,1,2.59,7.38,8.57,8.57,0,0,1-3.65,5.79,13.32,13.32,0,0,1-1,2.78,58.3,58.3,0,0,1,6.48,5.77,18.48,18.48,0,0,1,4.8,16c-1.46,9-7.52,17.48-16,20.85,6.3,1.85,10,12,10.34,17.56.27,5.07-1.57,10.85-5.6,13.92a34.6,34.6,0,0,1,10.91,6,24.36,24.36,0,0,1,9.12,18.2,19.85,19.85,0,0,1-8.78,16.76,7.36,7.36,0,0,1-.62.4,31,31,0,0,1-7,6.67l-.16.11a9.8,9.8,0,0,1,3.29,4.74,6.31,6.31,0,0,1-3.18,6.86l-.13.07a9.21,9.21,0,0,1,.58,3.16c6.55,6.67-1.18,16-7.95,18.88A36,36,0,0,1,445.22,448a16.93,16.93,0,0,1-6.2,9.8c-5.3,4.12-12.58,4.3-17.46-.52l-.48.61c-1.25,7.91-5.77,15.78-14.07,17.15a18.89,18.89,0,0,1-10.8-1.8,9.56,9.56,0,0,1-4.24,6.91,16.84,16.84,0,0,1-13.89,1.2,24.9,24.9,0,0,1-3.15-.74,13.6,13.6,0,0,1-5.64,11.49c-5.88,4.36-13.59,4.46-20.29,2.1s-13.74-6.95-17.65-13.15a14.81,14.81,0,0,1-2.26-10.77c0-.15.07-.3.11-.46a22.45,22.45,0,0,1-10.81-3.18,15.3,15.3,0,0,1-7.24-12.14l-1.19-.73a6.45,6.45,0,0,1-1.23.77c-4.37,2.06-11.2,1.32-15.88,1-9.1-.53-19.36-2.26-25.42-9.77a27.26,27.26,0,0,1-5.27-11.74c-.68-.9-1.33-1.82-2-2.76a13.75,13.75,0,0,1-8.11-2.19,13.07,13.07,0,0,1-5.2-8.54,5.55,5.55,0,0,1-.82.45c-4.12,1.89-9.19,1.35-13.55.79-9.58-1.24-19.28-3.91-25.27-12.08a22.45,22.45,0,0,1-3.9-8.39c-1-1-2-2-2.89-3a27.62,27.62,0,0,1-7.19-1c-6.88-2-13.24-9.11-11.4-16.12-8.13,3.65-18.78,1.94-26.55-1.66s-17.39-11-19.86-20.12c-8.86,2.8-19.33-2.93-21.36-12.88a5.05,5.05,0,0,1-.1-.84c-.92.09-1.83.15-2.73.21a46.5,46.5,0,0,1-10.28-.23c-6.07-.88-11.59-3.23-17.15-5.7-4.88-2.17-9.73-4.62-12.39-9.51-2.4-4.42-2.61-10.67-1.09-15.59-2.48.35-4.88.86-7.51-.37A7.88,7.88,0,0,1,59.08,311a5.67,5.67,0,0,1-.48-1.44c-7.74,1.19-16,.21-22-5.23-6.16-5.67-8.74-15.57-3.81-22.79A5.77,5.77,0,0,1,34.28,280q.19-1,.48-2c-.12-.36-.22-.73-.33-1.1a19.71,19.71,0,0,1-9.59-13.62A21.87,21.87,0,0,1,26.52,250.52Z" style="fill:#00aaab;stroke:#000;stroke-linecap:round;stroke-linejoin:round;stroke-width:7px"/><path d="M303.87,290.25c5.33,6.49,11.81,11.72,16.79,18.59l5.59-9.74c-1.24,0-4.14-3.43-5.09-4.29q-3.32-3-6.45-6.25a140.82,140.82,0,0,1-11.14-12.89l-6.13,10.68c-1.22,0,.13.19.92.71,1,.68,2,1.33,3.05,2,2.28,1.53,4.52,3.1,6.73,4.73a119.93,119.93,0,0,1,11.9,9.79l11-11c-5.49-4.69-10.54-9-14.46-15.13L315.35,287l.68-.62-5.57,2.31c-1.3.13-.76-.36.59.63s2.53,1.73,3.77,2.64c2.18,1.58,4.25,3.29,6.3,5l9.82-12.73a15.13,15.13,0,0,1-5.81-5.1L314,290.28a20.71,20.71,0,0,1,6.57,4.66c6.62,7,16.45-1.86,12.66-9.77l-.47-1,1.1,4.07c.1,1-1.79,3.38.12.56a10.59,10.59,0,0,0,1.7-3.94c.68-3.11-.33-5.93-1.77-8.65l-9.12,11.86c2.08.41,2.53,1.58,3.44,3.56,1.33,2.9,1.24,1.82-.09,4.85l-3.49,8c-.75,1.74-1.56,5.11-3.38,6.08-6.3,3.36-3.76,14.89,3.81,14.06,6.12-.66,9.72-3.82,12.4-9.3s5.7-11.43,7.44-17.19c3-9.93-5.95-23.67-15.84-25.61-6.9-1.36-12.56,5.39-9.11,11.86l.15.5v-4.29l-.26,1.19,2.08-3.56c-4.06,4.78-5.51,9.13-2.63,15.09L332,283.54a33.44,33.44,0,0,0-9.78-7.28c-6.81-3.3-15.81,3.77-11.1,11.11a30.19,30.19,0,0,0,11.64,10.9c7.7,4,17.33-6.62,9.82-12.73-7.12-5.79-19.23-18-28.38-9.68a8,8,0,0,0-1.23,9.55c4.73,7.5,10.92,14.85,18.64,19.39,8.87,5.21,15.62-7.56,7.85-13.43-5.09-3.84-10-7.8-15.37-11.35-4.84-3.23-10.57-8.08-16.65-7.87-6.6.23-8.77,7.4-5,12.12A152.65,152.65,0,0,0,308.88,302c5.64,5.17,10.94,10.92,19.1,9.81,5.12-.71,5.81-7.67,2.85-10.83-6.41-6.85-14-14.24-22.9-17.71-4.3-1.69-6.39,4.14-4.06,7Z" style="fill:#00776e"/><path d="M317.54,284.28c7.3-6.86,8.65-18.79,4.87-27.72s-11.23-15.41-20.09-18.9a45.38,45.38,0,0,0-30.12-.7c-8.12,2.82-15.28,12.77-16,21.3-.29,3.3,3.33,7.12,6.7,6.7a11.74,11.74,0,0,0,9.3-5.7c1.36-2.08,2.26-5.63,4.37-7.07,4-2.71,13.66-1.9,18.45-.61A20.89,20.89,0,0,1,308.49,262c3.32,6.53,1.67,13.88,3.25,20.78.6,2.64,4,3.24,5.8,1.53Z" style="fill:#00776e"/><path d="M320.94,280.81c2.6,1.36,9.47,2.72,10.24,6,.58,2.46-4.39,7.33-6.32,8.12-5.9,2.41-7.53,11.93,0,13.69,11.84,2.75,22.72-11.74,21.57-22.72-1.26-11.92-15.81-18.32-25.49-11.4-2.09,1.49-2.63,4.93,0,6.3Z" style="fill:#00776e"/><path d="M305.83,276c11.37-6,9.88-26.24,2.91-34.9-5.23-6.49-13.24-7-20.9-5.84-9,1.4-17.92,3.18-26.87,4.76-3.9.69-6.32,5.23-5.78,8.86.64,4.26,3.82,6.51,7.93,7a96.69,96.69,0,0,1,19.3,3.88,34.82,34.82,0,0,1,7.94,3.77,21.74,21.74,0,0,1,2.86,2.2,29.3,29.3,0,0,1,2.07,2.1,3,3,0,0,1-.67-2.47l2.28-3.92-.73.73,3.93-2.29c-2.54,1-10.48-2.2-13.76-3.45A150.83,150.83,0,0,1,270.88,249c-10.29-5.33-18.67,9.1-9.05,15.48,14.16,9.4,28.38,18.81,42.15,28.76l9.6-16.42c-18-8.66-36.48-16.42-54.75-24.48-4.27-1.88-9.09-1.6-12.09,2.41-2.55,3.42-2.94,9.33.73,12.31,14.71,11.95,29.1,24.3,43.61,36.48L298,286.84c-3.95,0-8.28-3.59-11.68-5.39-4.26-2.26-8.56-4.47-12.83-6.7L247,260.92a9.78,9.78,0,0,0-14.18,10.9c1.56,7.24,6.76,12.37,11.88,17.33,5.6,5.44,11.16,10.9,17,16l-2.38-4.09.16.7,4.19-10.3-.36.2,7-.91-.41-.15,5.33,13.09.12-.29c2-4.38,1.27-9.57-3.19-12.18-3.81-2.23-10.21-1.22-12.19,3.19-1.41,3.16-2,6.58.12,9.63,2.55,3.72,5.92,4.75,10.22,4.16l.42-.06c2.75-.38,6-3.63,6.37-6.38,1.35-9.29-6.32-14.37-12.39-20.18-2.83-2.71-5.69-5.39-8.49-8.13-2.16-2.1-4.16-3.76-4.77-6.8l-14.19,10.9,29.72,16c9.36,5,20.08,13,31.06,12.84,7.78-.1,13.83-11.12,6.92-16.71-14.75-11.94-29.64-23.72-44.19-35.89l-11.36,14.72c18.89,8.66,37.71,17.63,56.88,25.67,4.3,1.81,9.65-1.59,11.22-5.5a9.57,9.57,0,0,0-3.89-11.88C299.11,268,285,258.46,270.88,249l-9.05,15.48c9.45,5,19.25,10.12,29.78,12.32,5,1,10.76,2.15,15.36-.69s6.37-8.72,4.82-13.84c-2.67-8.83-12.71-14.28-20.69-17.38-8.88-3.45-18.56-4.39-28-5.21l2.14,15.86q8.44-1.76,16.88-3.51c3.73-.77,10.33-3.47,14.1-1.91,2.83,1.18,3.85,5.05,4.6,7.69,1,3.59,3.63,9.43.62,12.47s.77,7.56,4.37,5.67Z" style="fill:#00776e"/><path d="M251.29,261.55c10.82-6.42,21.08-19,12.28-31.21-3.74-5.21-8.79-10.24-15.77-9-6.38,1.17-11.34,4.48-18.18,3.41-9.13-1.43-15.67,10.46-6.64,15.76,4.77,2.81,9.49,5.72,14.12,8.77,2.06,1.35,4.09,2.74,6.09,4.19a40.49,40.49,0,0,0,3.39,2.5c1.21.7,1.63,2.53,1.29-.25l4.5-7.83c3-1.75,2.56.89.62-.72-1.37-1.14-3.61-1.74-5.25-2.5l-11.43-5.33-22-10.24c-4.13-1.93-8.93-1.51-11.82,2.36-2.59,3.46-2.76,9,.71,12,6.33,5.59,12.56,11.29,18.81,17,2.88,2.62,5.78,5.23,8.65,7.86,1.44,1.31,2.86,2.64,4.29,4l2.84,2.65c1.74,2.09,2,1.72.76-1.12l1.33-4.92-.58,1,13.38-3.51c-20.73-10.71-41-22.13-61.19-33.87-9.37-5.45-20.52,7.94-11.9,15.42q22.69,19.69,45.06,39.79l9.84-16.91a115.92,115.92,0,0,1-26.44-14.23c-8.55-5.93-16.23-13-25.33-18.07-6.41-3.6-16.15,4.24-11,11,7.43,9.63,16.46,17.14,26.22,24.33a112.1,112.1,0,0,0,31.14,16.51c9.36,3.13,17.52-10.36,9.85-16.91q-22.87-19.51-45.49-39.36L181.6,249.49c20.05,11.87,40.06,24,61.23,33.8,4.65,2.15,10.69,1.5,13.38-3.51,6.45-12-6.63-19.84-14.42-26.66-8.55-7.5-17.15-15-25.6-22.56L205.08,245,234,258.7c8.24,3.92,18.62,10.76,27.56,4.89,3.68-2.42,4.88-6.06,4.17-10.25-1.28-7.58-8.58-11.58-14.45-15.44-6.44-4.22-12.9-8.38-19.56-12.25L225,241.41a46.56,46.56,0,0,0,14.43.22c4.54-.7,8.46-3,12.85-3.85H247.8c-.66-.8-.47-.65.57.46.56.58,1.11,1.18,1.64,1.78,1.35,2.35.39.46.21,3-.3,4.4-3.17,8.44-5.35,12.13-2.38,4,2.38,8.81,6.42,6.41Z" style="fill:#00776e"/><path d="M255.14,231l.06.19v2.43a2.77,2.77,0,0,1-2.84,2,4.27,4.27,0,0,0,1.47,0c-.9-.11,1,.3,1.23.36.73.23,1.51.44,2.21.74-.86-.37-.93-.36-.21,0a2.42,2.42,0,0,1-1-.86,4.33,4.33,0,0,1-.8-4.18q.66-1.4.06-.21a30.51,30.51,0,0,0-1.37,3.24,9.63,9.63,0,0,0,.94,8,7,7,0,0,0,7,3.33c2.49-.33,5.36-2.31,5.8-5,.16-.78.1-.68-.16.31a8.45,8.45,0,0,1,.56-1c.33-.54.66-1,1-1.57a11.52,11.52,0,0,0,1-8.18c-1.19-4.43-5.17-7.27-9.47-8.26-4.63-1.07-11-.65-13.65,3.85-2.09,3.51-1.31,7.17,1.1,10.21,3.18,4,9.8-1.19,7.07-5.45Z" style="fill:#00776e"/><path d="M290.06,245.35c-.39,2.94-.42,1,1.42,1.67,1.17.44,2.38.72,3.55,1.17a16.42,16.42,0,0,1,6.24,4c4,4.35,3.93,10.53,7.18,15.32A7,7,0,0,0,321,265.87c3.8-11-4.07-23.6-13.23-29.36-7.07-4.45-25.65-6.81-25.26,6.19,0,1.53.84,3.47,2.36,4.12l-1.11-.62c.66,3.88,5.83,2.35,6.26-.85Z" style="fill:#00776e"/><path d="M220.54,230.65c.46,8.91,13.28,8.28,16.22,1.24,3.58-8.55-.69-21.55-6-28.53-7.24-9.59-18.14-13.09-29.84-11.4-12,1.73-21.85,9-33.31,12.28l8.62,14.81c6.33-5.33,18.68-1.61,25.66.25,8.82,2.35,18.27,6.14,23.74,13.87l10.56-13.74c-20.69-5.85-41.48-11.29-62.25-16.85-4.33-1.16-7.92.9-10.42,4.25-8.15,10.9,7.43,19.08,14.71,23.64l28.76,18V231.41c.12-.09,1.7.23,1.28,0a37.73,37.73,0,0,0-3.63-1.23c-2.74-1-5.48-2.1-8.21-3.15L180,220.73q-16.44-6.31-32.9-12.53c-4.5-1.71-9.89,1.52-11.56,5.67a9.9,9.9,0,0,0,4,12.23c21.73,14.49,43,29.75,64,45.25l5.13-19c-5.5.51-11.67-3.25-16.7-5.18l-18.63-7.12-37.27-14.25c-4.64-1.77-10.22,1.59-11.93,5.86a10.21,10.21,0,0,0,4.13,12.63c25.07,16.43,49.92,33.2,74.85,49.83l8.13-19.28q-33-13.8-66-27.36c-10-4.1-17.44,10.79-10.23,17.58,19.48,18.35,43.51,31.44,66.13,45.43l10.78-18.44c-22.68-11-45.56-21.69-69.87-28.56-12-3.38-17.62,12.67-8.11,19.24,20.64,14.26,41,28.92,61.5,43.4l11-18.76q-16.2-7.29-32.48-14.42c-10.9-4.75-21.29-9.87-33.23-11.2-9.08-1-14.3,12.48-7.56,18.24,18.58,15.89,38.93,30.4,61.22,40.57,5.07,2.31,11.1,1.45,14.11-3.7a10.44,10.44,0,0,0-3.7-14.11c-19.91-11.12-39.12-23-56.51-37.87l-7.56,18.24c8.87,1,17.86,6.63,25.85,10.24,9.59,4.34,19.24,8.55,28.89,12.77,12.69,5.55,22.68-10.67,11-18.76-20.62-14.26-41.38-28.35-61.85-42.82l-8.11,19.24c22.46,6.61,43.59,16.71,64.69,26.7,12.27,5.81,22.71-11.2,10.78-18.44-21.17-12.86-44-24.65-62-41.86L139.61,267.8q33,13.8,66,27.42c4.79,2,10.69-1.74,12.45-6.11a10.65,10.65,0,0,0-4.32-13.17c-25.11-16.34-50.3-32.54-75.28-49.08l-7.8,18.49,39.08,15.15,18.61,7.21c6.47,2.5,13.18,5.77,20.29,5,10.23-1.06,13.6-12.87,5.14-19-21.2-15.23-42.75-29.92-64.34-44.59l-7.55,17.9q19.16,7.46,38.33,14.82c6.09,2.33,12.17,4.69,18.26,7s12.91,3.72,18.5-.43c5.76-4.28,7-13,0-17.08l-20.12-11.67-10-5.84-4.2-2.43c-.84-.48-1.67-1-2.5-1.48q-3.67-2.85,0,2.31L178.87,217l.62-.81-10.43,4.24c20.72,5.75,41.4,11.61,62.19,17.08,7.24,1.9,15.62-6.85,10.56-13.74-8.95-12.2-22-18.91-36.54-22.34-14.22-3.36-29.67-5-41.54,5.13-6.87,5.84.48,17.21,8.62,14.8,6.52-1.92,12.58-4.95,18.71-7.84,5.42-2.56,11.71-5.3,17.86-4.58,4.77.56,8.34,3.75,11,7.5a30.62,30.62,0,0,1,3.94,7.43,13.65,13.65,0,0,1,1,3.77l-.2,1q-.81,3.34.85,0c-1.64-2-5.17-.37-5.05,2.09Z" style="fill:#00776e"/><path d="M191.85,203c13.47-14-5.13-32-18.72-35.88-16.29-4.66-35.7,1.74-47.78,13.19-4.88,4.62-.92,12.34,5.23,12.64,7.06.35,12.82-3.47,19-6.37a29.23,29.23,0,0,1,14.44-3c10.52.66,15.89,7.58,18.85,17,1.19,3.77,6.1,5.39,9,2.38Z" style="fill:#00776e"/><path d="M148.17,181.59c6-7.93.45-17.16-9-18.44-9.89-1.35-19.73,4.65-26.44,11.39l14.9,6.17c.13-11.91-.59-29.7-12.58-36.2-6.9-3.75-14.23-1.47-20.6,2.11-6.09,3.42-12.35,5.5-18.9,7.88-9.15,3.32-8,17,2.35,17.31A38.32,38.32,0,0,0,93.39,169a79,79,0,0,0,7.23-3.2c1.45-.74,5.1-2,6-3.31-.84,1.18-1.84-3.1-.92.38.4,1.52,1,3,1.39,4.55,1.32,5.14,2.42,10.35,3.35,15.57,1.14,6.35,10.46,8.54,14.59,3.85,3-3.44,12.37-11.79,15.69-6.21l-.47-3.62-.17,1.15c-.71,5,5,7.5,8.06,3.39Z" style="fill:#00776e"/><path d="M99.08,158.06c12.28-16.33-9.15-28.83-21-36.48-8-5.22-16-5.25-25.06-3.1-9.32,2.21-18.6,8.81-16.68,19.45,1.28,7.06,10,7.5,14.5,3.82,1.37-1.11,2-2.9,3.46-3.86,1.67-1.14,4.41-1.36,6.37-1.68,4.85-.81,6.93.64,11.08,3.13s8.48,4.77,12.4,7.55c2.46,1.74,7.3,5.75,7.37,9.13.08,4.3,5.21,5.09,7.51,2Z" style="fill:#00776e"/><path d="M47.81,146.61l4-4.11c4.57-4.69,0-12.63-6.38-11-11.47,3-17.29,15.09-16.65,26.37.75,13.21,9.82,23.81,19,32.46,6.39,6,17.7.12,15.08-8.78-2.24-7.66-4.16-15.52-6.75-23.07a13.43,13.43,0,0,1-.43-1.77c-.19.57-.15.59.1.08a8.81,8.81,0,0,1,2.05-2,15.71,15.71,0,0,1,6.06-2.58,29.23,29.23,0,0,1,13.9.65,41.23,41.23,0,0,1,7.47,2.73c1.88.9,3.71,1.9,5.5,3,.77.45,1.53.93,2.28,1.42s.78.26-.26-.9V154L92.46,155,95,150.72l-.73.69,4.32-2.52c-1.09.45-1.26.51-.5.19l-3.73-.14c-1.86-.09-3.73-.2-5.59-.34-3.91-.28-7.81-.65-11.7-1.17a212.6,212.6,0,0,1-24.36-4.77,9.76,9.76,0,0,0-11.48,5.64c-1.63,4.06-.52,10.19,4,12.16,20.84,9.1,41.52,18.43,60.29,31.4v-17.4c1.33-.06,1.08-.08-.75-.05a17.3,17.3,0,0,1-2-.41c-1.8-.39-3.59-.86-5.38-1.32-4.17-1.07-8.31-2.25-12.42-3.51a242.82,242.82,0,0,1-23.58-8.53c-5-2.12-10.71-1.48-13.67,3.58-2.68,4.59-1.16,11.06,3.58,13.68q18.08,10,35.63,20.76,8.6,5.25,17.09,10.67c4.17,2.66,10.12,5.29,13.14,9.4l8.83-15.4c-4.61.49-8.26-1.78-12.3-3.75s-8.22-4-12.31-6.05Q88.2,187,75.22,180.08c-11.6-6.15-21.61,10.82-10.31,17.65q28.08,17,54.32,36.72l7.92-18.79a107.58,107.58,0,0,1-38.1-23.17l-9.8,16.84c16.4,6.63,32.74,13.41,49.08,20.18,4,1.68,9.34-1.12,11.39-4.63,2.45-4.18,1.24-8.67-1.57-12.23-13.07-16.56-27.69-32.76-36.79-52L90,175.52c4.75,1.13,8.24,4.12,11.85,7.28,4.69,4.1,9.34,8.24,14,12.38l28.66,25.49c9.77,8.69,24.16-5.49,14.44-14.43-17.11-15.72-34.4-31.23-51.66-46.78l-12,15.63c23,15.24,45.75,30.78,68.5,46.35,9.89,6.77,20-7.83,12.37-16-8.64-9.32-17.43-18.5-26.17-27.73l-12.34,16a204.31,204.31,0,0,1,32,20c4,3,10.43,1,13.15-2.62,2.93-3.93,3-9.84-.8-13.38a158.81,158.81,0,0,1-14.66-15.8l-10,17.15a45.59,45.59,0,0,1,11,5.56c8.28,5.53,20-5.68,14-14a42.85,42.85,0,0,0-9.92-10L162,198.28a48.69,48.69,0,0,1,15.82,15.43c7.06,11,24.74.82,17.64-10.32a71.6,71.6,0,0,0-23.12-22.79,10.39,10.39,0,0,0-14,3.67c-3.05,5.21-.78,10.71,3.68,14A13,13,0,0,1,164.6,201l14-14a65.61,65.61,0,0,0-15.92-7.65c-4.28-1.42-9.39.95-11.59,4.72-2.47,4.21-1.3,8.85,1.6,12.43a148,148,0,0,0,14.76,15.7l12.35-16a221.48,221.48,0,0,0-32-20c-10.21-5.24-20.43,7.36-12.34,16,8.69,9.27,17.34,18.59,26.13,27.77l12.37-16c-23-15.17-46-30.39-68.76-45.91-9.34-6.36-20.32,8-12.06,15.63,17.06,15.76,34.08,31.55,51.29,47.14l14.44-14.43-31.83-27.89c-9.5-8.33-19-19.21-31.75-22.29-9-2.19-15.08,7-11.4,14.82,9.75,20.77,25.75,38.25,39.95,56l9.81-16.87c-16.38-6.67-32.76-13.33-49.08-20.15-9.62-4-16.57,10.31-9.81,16.84a126.71,126.71,0,0,0,46.88,28.75c4.79,1.65,10.34-1.49,12.14-6,2-5.09,0-9.7-4.21-12.85q-26.34-19.55-54.39-36.61L64.91,197.73q14.67,7.86,29.55,15.32c9.51,4.75,20.45,12,31.49,10.75,6.73-.78,14-8.45,8.84-15.4-8.44-11.31-22.59-18-34.46-25.13-12.85-7.77-25.88-15.27-39-22.63L51.26,177.9a275.72,275.72,0,0,0,31.82,11.85c10.25,3.05,22.5,7.8,32.58,2.11,6.9-3.89,6.13-13.34,0-17.4-19-12.56-39.89-21.7-60.64-30.82l-7.5,17.8a234.51,234.51,0,0,0,25.64,5c8.38,1.16,17.51,2.72,26,2.21,9.76-.59,16.45-10.26,10.7-19.21-4.49-7-14.78-11.16-22.19-13.95-12.72-4.78-28.74-5.22-40.17,3-7,5-11.92,12.36-10.44,21.27s5.56,18,8.42,26.66l15.08-8.79c-5.89-5.17-12.54-10.94-14.74-18.77-1.53-5.43-.17-11.92,4.67-15.3l-9-9-2.39,5.35c-2.41,5.39,4,11.54,8.68,6.7Z" style="fill:#00776e"/><path d="M210.06,286.38c26.2,16.07,52.91,31.09,79.9,45.78,8.45,4.6,15.14-5.68,9.71-12.57-5-6.35-10.27-12.5-15.51-18.66l-7.53-8.86c-1.25-1.47-2.59-2.9-3.76-4.43a7.73,7.73,0,0,1-1.06-1.37q-1.26-3-.88.92l-13.34,1.72a337.41,337.41,0,0,1,41,38c6.12,6.71,17.46-.32,15-8.75-3.3-11.47-6.83-22.88-10.27-34.32L286.54,291c8.87,11.85,14.72,25.36,20,39.08,1.71,4.41,5.45,7.56,10.43,6.81,4.47-.67,8.47-4.53,8.25-9.33-.51-11.26-1.55-22.5-2.34-33.74L305,298.63a82.65,82.65,0,0,1,7.68,34.49h19.41a32.63,32.63,0,0,1,1.25-14.66l-16.28,4.29c1.33,1.44,1.46,2.47,1.44,4.32-.1,9.62,13.37,13.28,18.13,4.91l1.86-3.28-15.24,2c-.73-4.17-1.24-5-1.56-2.36-.22.86-.41,1.73-.55,2.61a27.94,27.94,0,0,0-.45,6.58A30,30,0,0,0,324.36,350a28.47,28.47,0,0,0,19.32,14.38l-4.16-15.75c-9.5,11.49-20.47,24.42-22,39.84-1.53,14.87,7.72,27,17,37.55l6.83-16.48c-12.11-.68-19.71,12-18.25,22.91.74,5.49,3.42,10.12,5,15.35a13.49,13.49,0,0,1,.41,1.51c.2,1.33.4,1,.58-.95,0,0,2.25-2.74,2.23-1.42,0,.61-4.65-2.81-5-3.08-9.35-8-22.36,4.55-13.67,13.67a56,56,0,0,0,19.59,13c9.08,3.8,16.28-10.06,9.44-16.22Q320.49,435.26,299.52,416l-11.81,15.3q15.54,9.35,31,18.78c9.67,5.88,20.83-8,12.24-15.87-15.44-14.06-30.55-28.41-45-43.51l-12.37,16c11.86,7,23.6,14.24,35.42,21.32,10.12,6.07,21.85-8.42,12.8-16.59-14.11-12.76-28.76-25.43-40.34-40.64L267,385.25c17,10.87,33.44,22.56,49.43,34.88,4.25,3.27,11.18,1.07,14.09-2.82,3-4.05,3.36-10.77-.85-14.34q-13.23-11.22-25.87-23.1-6.13-5.79-12.12-11.74c-2.95-2.93-6.35-5.87-7.6-9.95l-15.94,12.25q21.51,15.38,42,32c4.57,3.7,10.95,4.46,15.41,0a11,11,0,0,0,0-15.41c-7.1-6.94-14-14.06-20.71-21.4q-5-5.5-9.85-11.18c-1.72-2-5.08-5.16-5.38-7.93l-16.3,9.36a160.79,160.79,0,0,1,36.36,26.24c10.09,9.72,24.8-5.09,15.33-15.33-10.75-11.62-21.5-23.25-29.84-36.78l-6.53,16.05,1.43-.2h-5.81c2,.3,3,1.71,4.65,3.1l7.36,6.34L311,368c10.69,9.2,24.65-4.75,15.45-15.45a165,165,0,0,1-21.2-31.62l-15,15A156.13,156.13,0,0,1,320,361.7c8.47,9.38,23.53-2.67,17.29-13.35l-12.72-21.78-15,15,23,17.17c4.72,3.53,12.2.77,14.94-3.92,3.27-5.59.81-11.38-3.92-14.94l-22.91-17.26c-3.82-2.88-10.14-1.43-13.29,1.72a11.19,11.19,0,0,0-1.72,13.29l12.65,21.83,17.3-13.34A176,176,0,0,0,301.31,317c-9.66-6.36-19.8,5.85-15,15A190.3,190.3,0,0,0,311,368l15.45-15.45-19.86-17.1c-3.12-2.69-6.26-5.88-9.8-8-4.55-2.76-8.7-3.12-13.93-2.4-7.05,1-9.85,10.66-6.53,16.05,9.31,15.1,21.28,28.19,33.37,41.08L325,366.8a189.22,189.22,0,0,0-40.75-29.62c-6.58-3.53-17.2.72-16.3,9.35,1.3,12.62,9.71,21.22,17.76,30.34q11.72,13.28,24.43,25.58L325.58,387q-22.74-18.3-46.48-35.35c-7.82-5.61-18.54,3.67-15.94,12.26,3.62,12,13.8,20.37,22.54,28.73q13.88,13.29,28.53,25.74l13.24-17.16c-16.19-12-32.84-23.37-49.79-34.27-8.46-5.44-21,5.88-14.46,14.47,12.71,16.8,27.89,31,43.66,44.91l12.81-16.59c-11.92-6.93-23.91-13.72-35.78-20.71-10.09-5.95-20.38,7.69-12.38,16,14.44,15,29.4,29.68,45.15,43.36l12.25-15.87q-15.71-9-31.38-18.16c-9.35-5.45-20.23,7.76-11.81,15.31q21.21,19,42.19,38.32l11.76-15.24a41.46,41.46,0,0,1-13.4-8.95l-13.67,13.67c5.41,4.46,11.23,8.72,18.59,8.6,6.58-.11,13.13-4,15.49-10.26,2.59-6.85,0-13.42-2.58-19.81a31.4,31.4,0,0,1-2-7.39c-.31-2.08,2.31.36-.83.18,9,.51,11.85-10.58,6.82-16.48-5.27-6.2-12.66-14.17-11.57-23,1.23-10.06,9.86-20.13,16.31-27.41,4.43-5,3.17-14.13-4.16-15.76-4.31-1-8-4.13-8.72-8.72-.47-3.11,1.07-6.18,1.23-9.29A14.75,14.75,0,0,0,337,316.93c-4.3-4.57-12.19-3.3-15.25,2l-1.9,3.26L338,327.07A25.16,25.16,0,0,0,330.83,309c-5.18-5.58-14.15-2.41-16.27,4.3a46,46,0,0,0-1.88,19.84c.68,5.19,4,9.7,9.7,9.7a9.82,9.82,0,0,0,9.71-9.7,105.65,105.65,0,0,0-10.48-44.21c-4.05-8.52-18.63-4.48-17.93,4.86.84,11.24,1.45,22.52,2.57,33.74l17.72-4.8c-6.11-14.26-12.12-28.61-21.58-41-2.77-3.64-6.93-5.75-11.46-3.76-4,1.78-6.7,6.38-5.32,10.83,3.54,11.41,7,22.85,10.64,34.22l15-8.75A392.25,392.25,0,0,0,269.6,276.9c-4.12-3.18-10.47-3.59-13.34,1.72-5.79,10.67,3.17,19.23,9.73,26.82,7.38,8.55,14.66,17.21,22.35,25.47l9.7-12.57A822.69,822.69,0,0,1,216.11,276c-6.69-3.91-12.63,6.33-6.05,10.36Z" style="fill:#00776e"/><path d="M218.65,295.31c22.72,9.8,39,29.52,61,40.55,7.93,4,17.65-6.57,10.07-13-19.89-17-38.62-34.93-55.47-55l-11,14.24c23.84,16.69,44.45,37.28,64.84,57.91l14.13-14.13c-19.94-19.53-40-38.88-59.44-58.94l-14.3,14.3q16,15.7,30.92,32.5,7.45,8.38,14.61,17,3.28,4,6.51,8c1.17,1.45,2.34,2.92,3.49,4.39.58.73,1.16,1.47,1.73,2.21.53,1,.39.52-.44-1.44l1.41-5.21-.62.87,14.15-3.71c-16.26-8.24-31.6-18.32-47.21-27.72L205.14,279.3c-10-6-20.77,7.91-12.47,16.16,25.18,25,54.07,45.56,83.09,65.83l10.83-18.54c-15.49-8.84-31-17.65-46.72-26.05q-11.58-6.18-23.3-12.11c-8.19-4.13-16.67-9.23-26.17-8.55-8,.58-15,11.6-7.35,17.75a950.57,950.57,0,0,0,93.85,67.13l10.8-18.47Q243.6,338,199.33,313.9c-12-6.54-22,10.77-10.64,18.19q47,30.87,93.6,62.43l11-18.8c-26.3-12.38-52.83-24.3-79.31-36.3-12.57-5.7-22.07,10.38-10.81,18.49,24,17.29,49.68,32.08,75.37,46.71l11-18.77c-22.58-11.36-45.52-22.34-69.65-30-11.85-3.79-17.79,12.94-8.14,19.32,22.92,15.16,47.21,27.95,71.6,40.54l11.05-18.91c-14.27-6.5-29-12-43.85-17.08-11.87-4-17.83,13.05-8.18,19.41,16.06,10.58,31.72,21.78,47.68,32.52l11.07-18.94c-7.76-3.42-15.52-6.8-23.41-9.9-4.86-1.91-10.75,1.7-12.54,6.15a10.68,10.68,0,0,0,4.35,13.28C280.62,429,291.29,436.56,302,444l10.83-18.54c-5.05-2.29-10.15-4.49-15.25-6.66s-11.1-1.54-14.18,3.72c-3,5.06-1,11.08,3.72,14.17,8.35,5.53,19.59,10.81,29.83,10.78,6,0,11.41-3,14.1-8.38,1.48-3,.32-8.25,3.09-10.12,4.79-3.24,6.91-9.45,3.85-14.69-2.79-4.76-9.86-7.11-14.69-3.85a25.68,25.68,0,0,0-9,9.72c-2,4-1.63,8.32-3,12.08l2.7-4.64q5.19-1.23,1.61-1.11a4.19,4.19,0,0,0-1.89-.47,40.39,40.39,0,0,1-5.72-1.69,50.82,50.82,0,0,1-10.4-5.52l-10.46,17.89C292,439.2,297,441.65,302,444c12.37,5.87,22.63-11,10.83-18.54-11-7-22.06-14-32.6-21.64L269.49,422.2c6.77,3.31,13.63,6.37,20.53,9.41,5.42,2.39,11.78,1.58,15-3.94s1-11.69-3.94-15c-15.94-10.74-32.2-21-48-31.92l-8.18,19.41c13,4.71,25.74,10,38.45,15.51,5.43,2.34,11.74,1.61,15-3.93,2.84-4.85,1.39-12.33-3.93-15-24.56-12.24-49.23-24.46-72-39.89l-8.15,19.32c22.33,7.41,43.24,18.06,64.29,28.43,5.27,2.6,11.77,1.42,14.88-3.9a11,11,0,0,0-3.9-14.87C263.69,371.43,237.81,357,214,339.42l-10.81,18.49c26.33,12.3,52.63,24.69,79.13,36.61,5.36,2.41,11.71,1.54,14.9-3.91,3.09-5.29,1-11.68-3.91-14.89q-47.14-30.64-93.95-61.82l-10.64,18.19q44,24.54,88.21,48.83c12.09,6.64,22.53-11.23,10.8-18.47a839.14,839.14,0,0,1-89.95-63.36l-7.35,17.74c7.06-.47,14.69,5.45,20.71,8.64q10.75,5.67,21.37,11.57,21.71,12,43.28,24.25c12.18,6.86,22.14-10.81,10.83-18.54-27.68-18.92-55.65-37.94-79.37-61.84l-12.47,16.16,47.66,29.14c15.55,9.51,31,19.41,47.35,27.48A10.68,10.68,0,0,0,303.91,350c6.07-8.77-1.9-17.09-7.16-23.59q-8.52-10.53-17.44-20.74c-11.69-13.36-23.94-26.24-36.57-38.72-9.27-9.17-23.32,4.91-14.3,14.3,19.31,20.12,38.95,40,59.61,58.77,9.49,8.61,23.52-5.22,14.13-14.13-22.17-21.06-44.43-42.23-69.81-59.44-9-6.09-17.38,6.87-11,14.24a386.84,386.84,0,0,0,58.22,55.19L288,321.52c-22.89-9.89-41.57-27.64-65.51-35.29-5.26-1.68-9.06,6.82-3.83,9.08Z" style="fill:#00776e"/><path d="M300.71,447.24c2.11,1.19,3.47,3.27,5.91,4.33l1.79-13.67c-12.06,2.11-23.87-1.21-31.25-11.51-7.49-10.46-11-23.22-18.54-33.64l-14,10.82c9.23,9.23,17.88,19,27.2,28.17,8.18,8,17.75,14.71,29.57,15.05,7.35.21,12.53-10.36,6.38-15.41a16.79,16.79,0,0,0-6.18-3.53c-6.08-1.82-11.53,4.15-10,10a11.84,11.84,0,0,0,2,4.44l7.79-13.58c-8.36-.49-14.75-7.38-20.25-13-8-8.2-16.1-16.38-23.89-24.8-6.8-7.34-19.72,2.31-14,10.81,8.76,13.09,13,28.93,23.89,40.58,11.8,12.58,31.39,17.17,47.07,9.23,7.63-3.86,2.31-16-5.76-13.67-1.73.5-3.51.59-5.21,1.18l3.76.49-1.37-.67c-5.53-2.68-10.36,5.25-4.88,8.34Z" style="fill:#00776e"/><path d="M248.08,414a26.49,26.49,0,0,0-1,5.94l14.65-2a34.07,34.07,0,0,0-8.29-16.55c-5-5.86-16,.36-13.26,7.73l2.68-4.39-2.36-.31-2.29-.32c-2.22-.33-4.43-.72-6.61-1.24-3.39-.81-6.94-1.85-9.59-4.23-3.24-2.91-4.94-7.59-6.87-11.4q-3.81-7.5-7.69-15L192.8,383.57a331.75,331.75,0,0,0,44.69,31.75,9.82,9.82,0,0,0,13.21-3.46c2.87-4.91.75-10.11-3.46-13.21-15.07-11.1-30.48-22.57-41.86-37.63l-10.75,14c8.74,1.74,16.49,8.77,23.7,13.7,8.17,5.59,16.33,11.2,24.26,17.14,9,6.77,19.88-7.86,11.95-15.49-10.2-9.8-20.46-19.53-30.19-29.8s-18.69-21.19-28.75-31.11c-6.87-6.78-19,2-13.62,10.51,7.81,12.37,17.7,23.33,27.65,34a397.35,397.35,0,0,0,31,30.33l11.95-15.49c-8.75-5.85-17.37-11.88-26.13-17.72-8.28-5.52-16.78-12.34-26.72-14.45-7.25-1.53-16.08,6.76-10.74,14,13.26,18,30.31,32,48.54,44.7l9.75-16.67A267.66,267.66,0,0,1,206,370.33c-8-6.68-19.82,1.55-14.7,11.34,4,7.58,7.59,15.58,12.19,22.79a34.21,34.21,0,0,0,18.37,14.3c6.6,2.3,15.8,4.26,22.7,2.94,7.42-1.42,14.24-8.91,10.93-16.82l-13.26,7.72a22.62,22.62,0,0,1,5.13,9.29c2.7,9.28,17.65,5,14.38-4a26.13,26.13,0,0,0-2.72-5.38c-2.73-4.18-9.63-3.77-11,1.43Z" style="fill:#00776e"/><path d="M185.45,377.06c1.06,1.2.17,4.13.25,5.63a15.18,15.18,0,0,0,2,6.93c2.87,4.82,7.83,6.58,13.16,5.54,3.85-.75,5.63-4.5,6.05-7.94,1.8-14.8-13.24-21.65-23.25-28.71a98.31,98.31,0,0,1-25.53-26.85l-13.61,10.51c12.23,9.95,24.44,20,36.46,30.19l11.42-14.8c-9.28-7.1-18.6-14.11-27.58-21.59-7.81-6.5-16.59-13-21.32-22.17l-10.84,14.11c22.34,7.75,39.67,25.24,61.22,34.67,4.89,2.14,10.63,1.44,13.54-3.55a10.06,10.06,0,0,0-3.55-13.55,392.69,392.69,0,0,1-59-45.52l-12,15.54c14,8,28,16.16,42,24.24,12.07,7,27.37,17.67,40.1,5.95,8-7.41-2.69-21.9-11.87-15.39-2.27,1.61-5.49-.54-8.08-2-5.93-3.29-11.77-6.76-17.66-10.14-11.49-6.59-23-13.14-34.47-19.78-9.67-5.6-20.09,7.57-12,15.54a330.69,330.69,0,0,0,63,48.63l7.63-18.09c-22.63-9.26-40.46-27-63.74-35.1-8.45-2.95-14.38,7.18-10.85,14.1,5.5,10.77,15.19,18.48,24.31,26.07,10.21,8.5,20.66,16.8,31.66,24.27,4.21,2.86,10.44.8,12.89-3.38,2.82-4.83.69-9.81-3.38-12.89-12-9.07-23.84-18.34-35.63-27.65-3.39-2.68-7.74-3.58-11.38-.68-3.21,2.56-4.65,7.51-2.23,11.18A117.46,117.46,0,0,0,166.76,367a132.12,132.12,0,0,0,14.35,10.19c3.84,2.36,9.26,4.88,9.29,10l6-7.94c3-1,1.82,1.36,1.31-1.63a13.78,13.78,0,0,0-1.39-3.29,14.54,14.54,0,0,0-4.62-5.47c-4.91-3.78-10,4-6.3,8.17Z" style="fill:#00776e"/><path d="M171.68,367.23l1.84,2.06a1.74,1.74,0,0,0,2.73-2.1l-1.4-2.4a2,2,0,1,0-3.17,2.44Z" style="fill:#00776e"/><path d="M176.34,376.2c.78.11,1.4.14,1.89.82l-.61-4.65-.19.47,6.78-5.16a17.23,17.23,0,0,1-3.45-.43l4.56,3.51-.37-.49.77,5.91c-.38,1-.33.95.14-.22a5.88,5.88,0,0,0,.67-3,9.19,9.19,0,0,0-.62-4c-1.09-2.79-3.22-4.41-5.59-6.08-3.62-2.55-8.51-6.91-13.24-6.2-6,.9-7.79,7.53-4.07,12,2.9,3.48,7.48,5.31,10.22,8.84L170.94,372l.08.94,1.06-3.92c-1.88,4.09-2,8.62,2,11.53,3.24,2.36,8.3,2.21,12,.91,9.49-3.38,3.95-17.16-5.42-12.86l-.27.12,4.65-.61c-2.94-1-5.7-.75-8.7-.27-4.09.66-4.15,7.71,0,8.32Z" style="fill:#00776e"/><path d="M181,375a9.73,9.73,0,0,0,1,12.11c3.66,3.79,11.42,5.36,14.33-.18a6,6,0,0,0-2.08-7.95,7.65,7.65,0,0,0-4.65-1.11c-1.56,0,1.13.34-.06,0s1,.71,0,0c1.28.91.34.22.05-.06a4.35,4.35,0,0,1-.55-.5l.39.54c-.13,0-.49-.79-.53-1,.26.63.31.69.14.16.06.62.07.66,0,.13a4.45,4.45,0,0,0-3.2-4.21,4.58,4.58,0,0,0-4.92,2Z" style="fill:#00776e"/><path d="M169.52,375.65q6.81-5.38,1.61-6.25l-1.13-.48a48.18,48.18,0,0,1-4.84-2.51,70.92,70.92,0,0,1-7.57-5.08,49.09,49.09,0,0,1-12.39-13.81c-6.93-11.54-10.34-24.4-19.69-34.5L113,325.59a647.09,647.09,0,0,0,53.46,45l9.24-15.81c-21.54-16.05-43.12-32.27-60-53.37l-4.12,15.61q-2.9-.89-.13.47l3.35,2.12,5,3.18c3.9,2.48,7.81,4.93,11.69,7.43,7.78,5,15.57,10,23.25,15.09s18.93-5.38,13.15-13.14c-15.14-20.36-39.6-32.59-52.33-54.77l-13.23,13.23A232.29,232.29,0,0,1,143.92,318c4.15,3.44,10.06,4.07,14.12,0,3.6-3.6,4.11-10.58,0-14.12-16-13.8-32.46-27-45.64-43.71l-7.31,17.65c1.78,0,2-.15.76-.41a24.44,24.44,0,0,1,2.78,1.68c1.55,1,3,2.2,4.51,3.3l10.42,7.66L145.19,306c9.56,7.05,21.47-8.56,12.68-16.44q-13.63-12.25-26.37-25.46-6-6.27-11.89-12.73c-2.4-2.65-8.59-7.61-8.74-11.54l-10.55,10.55c2.75,0,4.86,1.36,7.25,2.66,3.79,2.06,7.54,4.19,11.32,6.28q10.87,6,21.72,12.13c10.35,5.83,21.46-8,12.8-16.58q-19.17-19-38.51-37.83l1.67,12.87.36-.83-3.81,3.81.73-.45-5.36,1.45c1.34-.06,1.3-.18-.11-.35q-2.49-.7.54.81c1.48,1.13,3.3,2.08,4.88,3.08l8.94,5.64q9.35,5.9,18.69,11.79c10.49,6.61,20.46-7.9,12.75-16.52a233.89,233.89,0,0,1-21.68-28.45l-14.22,14.22c18.22,8.54,36.49,18.85,55.78,24.66,10,3,14.79-10.7,6.79-16.11-16-10.82-34.7-18.12-52.08-26.5-8.75-4.22-20.2,4.79-14.22,14.22a261.85,261.85,0,0,0,24.75,32.84l12.75-16.53L125.31,219.6c-4-2.52-7.84-5.57-12.47-6.66-5.49-1.29-12.19.76-14.62,6.21-2,4.35-2,9.32,1.66,12.87q19.23,18.94,38.6,37.74l12.79-16.58q-12.65-7-25.25-14c-8.09-4.52-16.09-9.91-25.7-9.93-5.55,0-10.74,4.84-10.54,10.54.5,14.4,13.7,25.46,22.94,35.27,9.64,10.23,19.83,19.94,30.35,29.26l12.68-16.44-24.9-18.14c-7.36-5.36-15.87-13.87-25.76-12.6-9.24,1.18-13.19,10.28-7.31,17.65,13.73,17.23,30.81,31.37,48.16,44.78L158,303.88A304.56,304.56,0,0,0,112,274c-8.45-4.42-18.14,4.58-13.23,13.23,13.18,23.18,37.41,36.31,53.94,56.65l11.64-15.09C154.79,323,145.3,317,135.84,311c-8-5.09-19.16-15.62-29.3-11.92-7,2.57-8.66,9.94-4.13,15.62,17.83,22.31,40.84,39.57,64,56,4,2.86,10.18.72,12.52-3.28,2.71-4.63.74-9.63-3.28-12.53A504.24,504.24,0,0,1,125.51,313c-8.34-7.86-20.36,4.19-12.56,12.57,6.07,6.52,9.24,15.2,13.23,23a70,70,0,0,0,16.91,22.08,58.57,58.57,0,0,0,24.23,12.53c5,1.15,10.53.74,13.61-3.9,2.52-3.79,1.76-8.35-1.17-11.59-4.89-5.41-14.48,1.76-10.24,7.9Z" style="fill:#00776e"/><path d="M135.08,337.59a11.17,11.17,0,0,1-3.64-3.63c-1.68-2.65-4.59-3.12-7.32-1.92-4.39,1.93-5.43,7.42-5.13,11.76.37,5.35,3.1,9.13,7.46,12.06l6.4-15.19c-9.21-1.54-7.92-14.36-9-21.33-1.24-7.59-14.17-7.64-15.37,0-2.57,16.38,3.36,35.66,22.22,37.65,8.53.9,10.84-11.58,4.19-15.48-1.48-.87-1.25-2-1.63-3.55a9.17,9.17,0,0,0-2.61-5.08L126.82,342a11.75,11.75,0,0,1,4.67,1.73c4,2.35,7.42-3.66,3.59-6.15Z" style="fill:#00776e"/><path d="M115.12,330.4a32.53,32.53,0,0,1-20.35-7.12c-1.42-1.14-5.41-4.54-5.59-6.28-.15-1.41,1.08-4.3,1.42-5.76.58-2.49,1.13-5,1.64-7.47,2.48-12.13-14.28-16.66-18.44-5.09a55.43,55.43,0,0,0-3.2,16.72c-.19,5.29,0,12.47,2.7,17.18,3.54,6.1,9.44,6.43,15.67,5.74s12.75-1.36,19.12-2.14c11.06-1.36,12.89-14.73,2.57-19a106,106,0,0,1-31.83-21L67.65,310.66c12.6,5.53,25.27,11,37.6,17.12,11.18,5.55,19.3-9.19,9.61-16.44-14.38-10.75-28-22-40.43-35L62.59,291.66c18,9.39,35.88,19,53.75,28.62,11.76,6.33,20.95-10.14,10.32-17.66C117.3,296,108,289.25,98.94,282.24Q92.4,277.19,86,271.92c-2.79-2.29-8-5.28-9.15-8.88L64.16,275.76a162.4,162.4,0,0,1,38.17,19.45L113,277c-16.46-10.61-33.51-22-45.49-37.77l-6.33,15.54c2.35-.92,4.06.14,6.31,1.17,3.61,1.63,7.13,3.5,10.64,5.35Q88.65,266.8,98.81,273a10.79,10.79,0,0,0,14.55-3.82c3.2-5.47.77-11.06-3.81-14.55A221.2,221.2,0,0,1,70.86,216.3l-2.17,16.79c-1.6,1.14-2.74-.19.41,1.66,2.56,1.5,5.1,3.05,7.66,4.58q7.65,4.57,15.29,9.21a10.8,10.8,0,0,0,14.55-3.82c3.16-5.4.82-11.13-3.82-14.54A183.54,183.54,0,0,1,71.26,200.3L61,217.92c12.14,4.4,22.89,11.86,33.53,19,10,6.72,21.66-8.51,12.84-16.63A141.4,141.4,0,0,1,86.19,196l-12,15.6a105.88,105.88,0,0,1,16.37,8.5c5.49,3.43,11.38,6,16.81,9.61,8,5.31,15.31-6,9.71-12.59-5-5.81-10.11-11.54-16.62-15.64a136.69,136.69,0,0,0-20.63-10.35c-8.58-3.57-16.83,8.33-12,15.59A152.15,152.15,0,0,0,92.4,235.3l12.84-16.64c-12.33-8.14-24.76-15.81-38.63-21.07-4.3-1.62-9.7,1.09-11.9,4.85-2.52,4.31-1.34,9.1,1.65,12.77a184.71,184.71,0,0,0,35.69,33.33l10.73-18.36c-7.39-4.39-14.71-8.89-22.08-13.32-6.9-4.13-15.44-7.4-22.79-2.23-6.13,4.31-6.65,11.08-2.17,16.79A226.69,226.69,0,0,0,98.81,273l10.74-18.37Q97,247.13,83.85,240.57c-8.63-4.31-18.44-10-28.3-6.24-5.66,2.18-10.8,9.54-6.33,15.54,14.24,19.08,33.05,32.89,53.11,45.34C114,302.42,124.3,284.37,113,277a199.9,199.9,0,0,0-43.33-21.15c-7.35-2.58-15.08,5.51-12.73,12.73,4,12.24,16.46,19.91,26.12,27.5,10.81,8.51,21.84,16.63,33.29,24.24l10.32-17.66c-18.11-9.19-36.22-18.4-54.21-27.82-9.76-5.12-19.61,7.12-11.84,15.34,13.33,14.07,28.19,27.3,44.64,37.64l7.33-17.4c-12-4.8-23.82-10.29-35.61-15.65-4.19-1.91-9-1.55-11.91,2.37a9.24,9.24,0,0,0,.72,12.12,133.71,133.71,0,0,0,37.42,25.64l4.89-18.05c-4.15.46-8.29,1-12.43,1.5-2.5.3-8.36,2.05-10.76,1.27l5.72,4.4c-1.49-2-1-7-.86-9.44a38.08,38.08,0,0,1,2.48-10.77L73.8,298.68c-1.37,6.73-4.26,15.25-2.63,22.09,1.44,6.09,6.77,11.5,11.55,15.21a36.38,36.38,0,0,0,34,6c6.18-2,5.31-11.72-1.57-11.6Z" style="fill:#00776e"/><path d="M67.87,309c0-4,0-8,.17-12,.17-4.19-.79-8.07-1.6-12.17-1-5.17-9-7.59-12.44-3.29a44.89,44.89,0,0,0-8,16.1l9.54-5.41c-2.5-.39-5.3-.34-6.09-2.15l1.15,4.26q-2.24,3.06-.43.81c.6-.6,1.21-1.18,1.84-1.74a22.29,22.29,0,0,0,4-4.69,19.49,19.49,0,0,0,2.21-11.87,91.6,91.6,0,0,0-2.72-12.54c-1.06-4.23-1.91-8.41-4.72-11.87-6.36-7.83-18.83-6.08-21.14,4.33-2,9.14,3,18.87,8.35,25.82,6.59,8.52,20.17-2.42,14.76-11.39l-5.13-8.51-2-3.41c-.55-.91-2.07-5.27-2.2-2.16-.07,2-.21,1,1-.07a18.89,18.89,0,0,0,2.34-3,32,32,0,0,0,3.74-7.23,34.14,34.14,0,0,0-2.68-29.35c-5.64-9.56-19.22-3-17.24,7.26a299.43,299.43,0,0,0,13.27,47.57c2.79,7.5,5.51,17.36,15.2,17.7,8.27.3,14.27-6.87,14.52-14.71C73.71,267.84,71,260,69,253c-2.13-7.39-4.54-14.69-6.51-22.13-1.86-7.06-3.45-14.21-3.64-21.54-.13-5.33-.18-12.88,3.86-17l-4.1,2.39,1-.44H54.71l1.31.44-4.08-2.38c4,4,15.48,18.05,6.48,22.54L63,213.62c1.74-.2,2,1.56.43-1.29-.49-.91-.93-1.84-1.33-2.8-1.23-3-2.19-6.07-3.27-9.1l-7.06-20c-3.51-9.9-17-7.91-18,2.43a104.88,104.88,0,0,0,3.57,37.72c3.31,11.71,20.72,6.79,18.15-5-1.31-6-5.46-11.28-6.41-17.29-.72-4.55,2.58-8.54,5.79-11.33,6.46-5.63-.4-18.22-8.67-14.89a25.63,25.63,0,0,0-16.56,22c-1,10.11,5.52,17.2,7.7,26.48l18.15-5a87.58,87.58,0,0,1-3.45-32.71l-17.94,2.43,8.48,23.55c2.54,7,5.06,15,11,19.89,6.91,5.68,15.79,2.33,20.83-4.08,4.59-5.82,5.91-13.37,4.76-20.58-1.88-11.76-18-39-31.2-23.17-10.07,12.13-8.92,30.19-6.3,44.71,1.52,8.4,4.12,16.56,6.62,24.71,1.3,4.24,2.6,8.49,3.75,12.78.61,2.28,1.18,4.57,1.68,6.87a24.25,24.25,0,0,0,.54,2.59,5.86,5.86,0,0,1,.21,1.32q.18,3.93,5.91-3l4.18,2.44c-2.34-2-3.51-8.61-4.56-11.58q-2.37-6.74-4.4-13.57c-2.8-9.42-5.1-19-7-28.62l-17.24,7.26a16,16,0,0,1,2.23,10.57c-.59,4.34-3.21,7-5.6,10.41-7.77,11.11,2.83,23.07,8.41,32.72l16.23-9.48a23.94,23.94,0,0,1-3.41-5.84c-.4-1-.52-2.19-.89-3.24-.64-1.87.71-1.77-.53-.06l-3.41,3.4.93-.44-4.8,1.3.93.07L36.72,265c-2-1.14-.5-1.6-.74-.14-.2,1.21.77,3.17,1.07,4.42.69,2.83,1.55,5.67,2.07,8.53a9.25,9.25,0,0,1,.3,2.09c0-.17,1.4-1.26-.55.31A16.34,16.34,0,0,0,34,287.06c-4.26,12.88,8.1,20.85,19.44,20.3,4.47-.22,7.35-3.39,7.75-7.75.3-3.34,2.55-6.57,4.49-9.13L52.08,288.7a50,50,0,0,0,3.16,10.76c1.65,3.5,3.3,7,4.81,10.55,1.62,3.84,7.87,3.83,7.82-1.06Z" style="fill:#00776e"/><path d="M459.18,260c-2.59,1.09-3.33,2.34-2.24,3.75a20.08,20.08,0,0,1,1.05,2l6.78-8.81a8.69,8.69,0,0,1-4-2.23,5.84,5.84,0,0,1-1.22-1.53c-.59-1.48-.76-1.47-.5,0l-4.19,4.19c-1.29.51-.74-.26.67.93a9.12,9.12,0,0,1,2,2.51l6.78-8.82a5.3,5.3,0,0,1-2.26-.74,4.19,4.19,0,0,1-1.47-1.6c-5.45-.26.73,4.44.65,4.15l.6-4.62-.33.68,5.18-3c1.69.79,1.75.57.21-.65L466,245a8.11,8.11,0,0,1-1.17-2.85l-1,2.53c.9.91,6.79-3.66,6.71-3.72,1.27.87-.16,6.16-.88,7.31a7.79,7.79,0,0,1-7.75,3.4c-7.55-1.23-10.8,10.34-3.19,11.58s15.12-.82,20-7.06c4.52-5.81,5.68-14.53,1.95-21.07a12.12,12.12,0,0,0-9.14-6.38c-3.71-.33-6.08,1.49-9,3.37-2.65,1.67-5.81,1.91-7.84,4.58-2.28,3-2.05,6.74-.94,10.14,1.85,5.71,8.94,15.41,16,11.26,7.73-4.52.31-13.55-4.76-16.36-6.28-3.48-15.39-.68-16.22,7.13-.77,7.29,5.75,13.26,12.39,14.73,5,1.09,9.58-4.14,6.77-8.82-3.5-5.83-16.44-15.63-20.42-4.76-3.07,8.39,7.2,16.44,14.06,18.49,5.29,1.58,9-4.33,6.77-8.81-2.36-4.69-6.11-9.16-11.86-8.91-5.41.23-8.74,4.12-9.31,9.21-.86,7.66,11.15,7.6,12,0Z" style="fill:#014c48"/><path d="M452,270.9a78.11,78.11,0,0,1,9.66,1l-2.57-6.33-.48.75,2.6-2q2.55,1.8,2.25-.11,0-1,.09-2a21.48,21.48,0,0,1,.59-3.28,24,24,0,0,1,2.82-6.7,15.91,15.91,0,0,1,4-4.69c1-.78,2.69-.86,1.65-1.88.76.75-.47,3.52-.7,4.25a53.58,53.58,0,0,1-7.67,15.91c-3.52,4.71-8.34,6.83-12.82,10.35-4.07,3.21-.68,10.57,4.25,10.25,12.43-.82,20.8-14.09,25.07-24.45,2.34-5.7,5.42-12.69,3.75-18.94-1.41-5.28-6-9.3-11.6-9-11.13.61-18.15,13-19.41,22.75-.59,4.51-.93,10.34,2.1,14.09s8.9,3.45,11-.92c1.06-2.22.4-5.88-2.58-6.33A99.44,99.44,0,0,0,452,262.46c-5.44-.16-5.4,8.19,0,8.44Z" style="fill:#014c48"/><path d="M459.41,282.06c2.58.79,4.73,2.25,7.24,3.2l-3.55-8.72c-2.66,3.77-7.63,4-11.72,4.76-4.62.92-5,7.48-1.26,9.68,8.31,5,18.93-.72,23.23-8.45a6,6,0,0,0-5.13-8.93c-3.42-.05-6.7,1.5-9.47,3.41a2.8,2.8,0,0,0,.66,5.05Z" style="fill:#014c48"/><path d="M466,249.19c4.63-2.12,10.18-5.93,9.17-11.84-.95-5.58-6.6-7.5-11.51-6.76-6.31,1-4.9,11.92,1.52,11.24l4.76-.49c4.84-.51,8.23-6.29,4.21-10.17-5.39-5.2-13.51-5.54-19.91-1.89-7.34,4.18-10.49,12.28-13.64,19.64a6.67,6.67,0,0,0,1,7.56A4.87,4.87,0,0,0,446,258.3c3.06-.25,4.87-1.82,6-4.58,1.47-3.57,7.22-19.53,13.73-14.13l2.63-10-4.7,1,4.41,10.46a6.14,6.14,0,0,0-5,3.2,2.86,2.86,0,0,0,2.89,4.94Z" style="fill:#014c48"/><path d="M454.39,248.72c-.06-17.11-21.29-23.89-35.62-20.63-8.29,1.89-13.76,9-17,16.45-3.06,7-6.17,18.57,1.59,23.44,2.11,1.33,5.9,1.11,7.55-1a10.11,10.11,0,0,0,2.63-7.62,22,22,0,0,1,.92-6.83c1.17-3.78,3.84-9.94,8-11.28,4.45-1.46,11.42-.16,15.71,1.33,4.51,1.56,9.18,4,12.18,7.8,1.35,1.68,4.09.23,4.09-1.69Z" style="fill:#014c48"/><path d="M419.16,244.82a51.39,51.39,0,0,1,6.94-4.13c2.73-1.17,4.66-1.86,7-3.85h-10.2c8.32,6.52,14.86,13.72,19.46,23.31L452.53,250q-13.92-8.4-27.84-16.82c-7.29-4.41-15.59,6-9.2,11.92l15.06,14q3.58,3.33,7.12,6.7c.82.78,4.39,3.91,4.42,4.37l12.2-7c-12-7.59-24.11-15-36.22-22.45-8.14-5-17.11,6.56-10.21,13.24,10.93,10.59,21.88,21.16,32.71,31.87L449,271.24c-6.33-1.78-11.81-5.35-17.32-8.83l-18.76-11.85c-8.71-5.5-17.44,6.71-10.72,13.89,4.45,4.75,8.91,9.49,13.32,14.28q3,3.22,6,6.47c1.41,1.53,5.4,5.23,5.65,6.3v-4.82l-.37,1.29,13.35-5.44q-15-9.51-30.08-18.86A9.18,9.18,0,0,0,398.17,266c-2.95,3.94-2.23,8.4.72,12.1q8.61,10.78,17.21,21.59l11.21-14.54q-13.63-6.93-27.3-13.78c-7.6-3.8-18.53,4.51-12.75,12.74,6.56,9.34,13.29,19,21.28,27.14,6.92,7,20.11-2.39,14.06-10.85-6.22-8.71-13.11-16.9-19.25-25.69l-12.74,12.74q13.65,6.88,27.36,13.69c9.73,4.83,17.78-6.41,11.22-14.54q-8.67-10.74-17.28-21.53l-11.16,14.47q15.08,9.36,30.2,18.65a9.19,9.19,0,0,0,13.36-5.43c2.53-9.44-5.67-15.6-11.48-21.69q-9.1-9.54-18.1-19.17L404,265.83c12.67,8,25.66,18.45,40.39,22.16,8.15,2.05,15-8.41,8.45-14.52-11.1-10.42-22.07-21-33.07-31.5l-10.22,13.24c12.15,7.35,24.3,14.69,36.55,21.89,4.82,2.83,13-.69,12.2-7-1-8.52-6.44-12.62-12.51-18-6.58-5.86-13.06-11.83-19.58-17.74L417,246.26q14,8.27,28,16.56c6.76,4,13.33-3.77,10.18-10.18a68.18,68.18,0,0,0-23.57-27.13,7.3,7.3,0,0,0-8.74,1.13c-2.08,2.14-2.73,4.17-4.09,6.75a56.07,56.07,0,0,1-4.52,6.55c-2.11,2.95,2,6.69,4.88,4.88Z" style="fill:#014c48"/><path d="M409.07,267.79c-3.13-5.53-5.18-12.44-10.27-16.62-5.27-4.34-13.5-1.72-13.72,5.65-.2,6.53,3.34,14.57,5.63,20.59,1.22,3.22,2.58,6.4,4,9.55,1.56,3.46,2.35,6.8,5.87,8.78a5.86,5.86,0,0,0,5.87,0l.72-.45c3-1.88,3.88-4.93,3.36-8.26-.9-5.69-4.5-10.84-6.59-16.17-1-2.61-2-5.26-2.85-7.93-.38-1.19-.75-2.38-1.1-3.58q-.39-1.35-.75-2.7c-.37-1.64-.41-1.19-.14,1.32l-3.22,4.19.7-.3-5.39.71c.76.23,3.51,3.17,4.38,4a27.28,27.28,0,0,1,5.24,6.06c3.05,5.35,11.29.54,8.26-4.83Z" style="fill:#014c48"/><path d="M397.84,274.59c-6-5.16-10.39-10.65-18-13.8-7.36-3-15.64-5.14-23.5-3s-6.74,16,2,14.93c3-.35,5.9-.76,8.85-1.15,2.67-.34,3.42-.79,5.43,1.09,3.57,3.35,6.07,7.45,8.63,11.59,4.57,7.38,18,2.65,14.65-6.18a42.55,42.55,0,0,0-14.68-19.27c-7.65-5.65-16.34-2.79-24.9-1l5.86,13.89c4-1.79,10.92,1,14.8,2.14,4.93,1.47,11.39,2.79,15.43,6.16,3.76,3.15,9.22-2.21,5.43-5.43Z" style="fill:#014c48"/><path d="M368.45,268.44a7.61,7.61,0,0,0-11.13-.25c-3.95,4.05-3.51,12.37-3.59,17.56-.14,9.9,15.34,9.91,15.38,0,0-7.31-4.88-14.32-12.21-15.86a13.89,13.89,0,0,0-16.29,10.62c-1.62,8.05,5.71,16.16,10.73,21.66,4.76,5.21,12.23,12.87,19.81,12.48,6-.31,9-6.1,6.51-11.36-1.59-3.42-4.61-5-7.52-7.18a66.07,66.07,0,0,1-7.37-6.52C361,287.74,359,284,357,282.51c-.88-1.8-1.36-.87-1.45,2.77a3.28,3.28,0,0,1-1.94.24c.08-.44.28,1.69.43,2.28l14.82-4.09a51.9,51.9,0,0,1-1.83-7.06,23.08,23.08,0,0,0-.33-2.68,7.7,7.7,0,0,1,0-1.27q.38-1.84-1.87.46c3,1.7,5.92-2.21,3.63-4.72Z" style="fill:#014c48"/><path d="M363.82,297.71c-4.44-4.87-11.93-5.11-17.1-1.28-6.41,4.74-8.76,12.59-7.74,20.3,2.26,17.18,19.85,24.93,34.28,29.72,8.31,2.76,15.43-9.12,8.7-15-8.68-7.53-17.4-15.12-22.89-25.39l-12,12c15.31,7.69,30.39,15.85,45.6,23.75,9.34,4.85,18.35-6.65,11.19-14.51q-17.19-18.88-34.48-37.67l-11.27,14.6q18.22,11.37,36.41,22.81c9,5.68,18.85-7.26,11.32-14.68A189,189,0,0,1,374,270.8l-14.79,11.42c14.87,11.8,28.15,25.35,41.36,38.94,8.6,8.85,21-4.15,13.33-13.32-11.21-13.47-22.18-27.11-29.08-43.38L370,275.89q22.93,28.42,45.85,56.86c5.94,7.36,18.85-.57,15.84-9.22L418.93,287l-17.35,7.31L426,333.57c6,9.7,18.94,2.95,17.39-7.33q-3.35-22.19-6.71-44.36l-17.39,7.33,17.64,35c4.27,8.47,18,4.41,17.73-4.8q-.58-18.09-1.2-36.18L435.75,288l12.34,28.61c3.84,8.89,17.69,4,17.58-4.76l-.36-28.05-18.41,2.49,5,19.16c2.19,8.49,16.32,9.3,18,0l1.95-10.81-17,2.22c2.41,3.83,5,7.94,5.3,12.56.16,2.14-.43,6.2-2.84,7.14l9.18,15.77c8.31-8.52,12.83-18.87,14.14-30.62l-18.76,2.54c1.53,3.74,3.73,7.17.62,9.6s-7.21,3.58-10.78,4.69c-8.51,2.63-7.51,17.25,2.2,16.29,8.2-.8,16.72-2.4,22.9-8.34,7.77-7.47,7.26-18,3.48-27.32-4.12-10.13-17.51-8.43-18.76,2.54A30.49,30.49,0,0,1,453.08,319c-6,6.26-.09,19.5,9.18,15.76,9-3.61,14.81-10.8,16.14-20.49s-2.54-18.79-7.54-26.79c-3.91-6.28-15.49-6.06-17,2.22l-2,10.8h18L465,281.32c-2.6-10.24-18.5-8.1-18.41,2.5l.23,28.05,17.58-4.76-12.23-28.68c-3.79-8.88-18-4.08-17.7,4.8q.56,18.09,1.16,36.18l17.73-4.8-17.64-35c-2.11-4.18-7.81-5.69-11.88-3.89-4.67,2-6.25,6.38-5.51,11.22q3.36,22.19,6.71,44.36L442.41,324,418,284.74c-5.46-8.76-21-3.23-17.35,7.32l12.78,36.51,15.83-9.22q-23-28.39-45.91-56.8c-2.91-3.61-9.05-3.4-12.38-.74-4,3.17-4.33,7.71-2.43,12.17,7.52,17.67,19.86,32.55,32,47.18l13.33-13.32c-13.21-13.59-26.49-27.15-41.37-38.95-3.68-2.92-8.42-3.88-12.37-.74a9.48,9.48,0,0,0-2.43,12.16,203.64,203.64,0,0,0,34.94,45.29L404,310.92q-18.24-11.32-36.45-22.73c-9.22-5.77-18.23,7-11.28,14.61q17.25,18.82,34.58,37.58L402,325.88c-15.35-7.66-30.84-15.06-46.09-22.92a8.83,8.83,0,0,0-12,12c6.07,11.64,15.66,20.61,25.36,29.21l8.71-15c-7-2.36-15.58-4.79-20.11-11.06-1.54-2.14-3.13-5.46-2.9-8.16.15-1.86,2.34-5.1,4.34-4.59a4.63,4.63,0,0,0,4.47-7.67Z" style="fill:#014c48"/><path d="M430.06,329.22c1.82-.85,8.53,5.51,10.08,6.55,3.47,2.34,7,4.69,10.22,7.32,4.91,4,6.31,9.16,3.07,14.75-5.48,9.42,6.78,17.91,14.52,11.21a22.64,22.64,0,0,0,5.85-26.37c-3.91-8.58-12-13.12-21.19-13.41-9.61-.31-11.47,14.21-2.26,16.66,5.11,1.37,9.44,5.69,4.52,10l14.53,11.2c6.83-12,3.5-27.89-7.93-35.85-5.6-3.89-12.88-5.44-19.35-7.33-5.2-1.53-10.93-3.14-15,1.4a2.45,2.45,0,0,0,2.95,3.83Z" style="fill:#014c48"/><path d="M451.81,372.78c4.49,3,9,5.68,13.34,8.92,2,1.52,6.16,4.25,5.81,7.37-.28,2.44-5,4.2-7.1,5.3-4.2,2.24-8.3,4.63-11.54,8.18-7.33,8.05,1.82,19.78,11.48,14.88a25.2,25.2,0,0,0,13.34-20.33c.78-8.62-3.49-15.7-9.29-21.71-5.26-5.44-9.46-10.67-12-17.89-2.87-8.09-4.32-16.59-5.74-25l-17.48,7.37a139,139,0,0,1,17.68,51.23l14.34-8.23c-4.52-1.93-6.65-7.53-9.09-11.54q-5.25-8.62-10.27-17.38-9.81-17.12-18.7-34.71c-2.32-4.57-8.76-5.88-13-3.41-4.73,2.77-5.64,8.35-3.41,13q14.7,30.65,26.41,62.57L454,384.05l-40.45-61.91c-6.85-10.48-22.36-1.37-16.75,9.79l34.71,69L447,389c-16.91-19.9-31.51-41.51-46.05-63.15-7.15-10.64-22.28-1.51-17,9.93,8.7,18.85,17.31,37.73,26,56.6l15.61-12.05c-12.91-14.76-24.18-30.76-35.48-46.76-7.56-10.71-22.44-1.65-17.33,10.12l21.3,49,17.33-10.13c-10.11-15.18-20.17-30.4-30.33-45.54-6.3-9.38-20.83-3.6-18.29,7.71a120.76,120.76,0,0,0,14.95,36.59c6.64,10.83,23.76.91,17.08-10A100.93,100.93,0,0,1,382,339.44l-18.29,7.71c10,15.23,20.18,30.38,30.28,45.57,3,4.5,8.86,6.44,13.73,3.6,5.13-3,5.76-8.74,3.6-13.73l-21.3-49-17.33,10.12c12.27,17.38,24.69,34.71,38.75,50.7,3.24,3.68,9.41,3.67,13.05.77,4.1-3.26,4.7-8.19,2.56-12.81q-13.06-28.26-26.13-56.5l-17,9.93c15.44,23.05,31,46.1,49.08,67.19,7.63,8.9,20.36-2.43,15.51-12l-35-68.86-16.75,9.79,40.77,61.72c2.6,3.94,7.41,5.86,11.88,3.89,4-1.76,7.18-6.7,5.5-11.22q-12.68-34.15-28.35-67.1l-16.4,9.59q9.76,19.31,20.59,38.05Q436,376,441.6,385c3.45,5.6,7.11,11.59,13.4,14.29,5.68,2.44,15.38-.17,14.34-8.23a162.93,162.93,0,0,0-20.23-60.88,9.55,9.55,0,0,0-11.94-3.92c-4.63,2-6.34,6.44-5.53,11.28,2.3,13.72,5,28.21,13,39.95a62.89,62.89,0,0,0,6.46,8c2.13,2.23,5.34,4.51,6.65,7.4,1.57,3.45-.43,6.59-3.49,8.15L465.72,416c3.64-4,9.06-5.74,13.4-8.89,6-4.34,10.38-10.63,10.09-18.32s-5.3-14.87-11.6-19.18c-6.55-4.47-14.72-4.06-22.26-5.18-5-.73-8.13,5.37-3.54,8.4Z" style="fill:#014c48"/><path d="M361.16,339.76c-2.64-6.77-6-14.83-15-12.95-7.57,1.59-9.73,10.69-6.25,16.79,3.92,6.87,11.6,8.8,18.86,9.71,3.73.47,6.85.82,10,2.94,3,2,5.77,4.45,8.66,6.64,6.18,4.7,15.35-4.59,10.78-10.77-5.16-7-11.36-12.85-20.08-14.81-4-.89-8-.46-12-1.09l-2.44-.57q-3.63-2.52-5.09,5c.86,1.13,4,2.41,5.2,3.36,3,2.4,9.15.3,7.36-4.29Z" style="fill:#014c48"/><path d="M368.75,362.53a7.45,7.45,0,0,1,2-3.31L359.2,352.5c-1.79,6-7.37,10.06-11.13,14.86-5.21,6.65-7,14.19-7.73,22.47-.67,7.89-.79,15.68,4,22.39,4.69,6.54,11.79,11.18,18.7,15.08,7.37,4.15,16.05-2.7,14.05-10.8-1.76-7.15-.81-14.45.52-21.61,1.49-8,3.11-16,4.68-24,2.34-12-14.7-16.93-18.44-5.08-.84,2.64-3.38,4.48-5.27,6.4a33.65,33.65,0,0,0-7.76,11,18.8,18.8,0,0,0-.6,13.09c1,3.12,3.81,5.69,4.25,8.88l11.77-11.76c-1.72-.45-4.16-.74-5.65-1.77-.51-.36-.46.47-.3.75,0,0,.05-6.16-.06-6.53-2-7.24-11.19-10.68-17.17-5.92-5.61,4.47-4.78,12.82-1.53,18.48,3.44,6,9.61,9.53,16.48,7.89,6.32-1.5,7.89-9.6,3.7-14a13.48,13.48,0,0,0-3.68-3.2c-.75-.34.52-1.12-.11.79l-6.61,6.61.86-.27-7.29-.95.88.43-3.39-3.4.55.86-1.29-4.78c.17,6.1.25,11,4.69,15.81,3.9,4.25,9.39,6.23,14.83,7.66,7.74,2,12.74-4.76,11.77-11.76-.44-3.11-2.06-5.58-3.6-8.23.31.53-1.09-2.14-1-.89-.06-1.31,1.4-2.66,2.19-3.58,4.68-5.43,9.55-9.38,11.81-16.51l-18.44-5.08c-3.52,18-9.71,37.49-5.2,55.79l14.05-10.8c-4.36-2.46-11-5.65-13.78-10.1-2.3-3.75-1.17-11.64-.59-15.78,1.55-11.15,12.61-17.54,14.15-28.73,1.38-9.95-13.19-11.83-13.55-1.83-.11,3,.94,5.34,1.57,8.19.88,4,7.49,4.17,8.22,0Z" style="fill:#014c48"/><path d="M358.52,419.12c7,7.34,14.91,13.61,22.74,20.06,6.22,5.13,16.32-1.28,11.73-9.05-3.07-5.2-7.56-9.66-11.1-14.57a147.81,147.81,0,0,1-9.79-15.64l-12,12c11.42,7.63,23.29,14.86,34.27,23.1,7.92,6,17.8-5.41,13.12-13.11-8-13.24-17.81-25.64-26.75-38.28l-15.54,12c13.16,12,26.32,23.92,39.32,36.05,8.14,7.6,22.54-2.28,16-12.33q-6-9.18-12.13-18.24l-5.58-8.25c-1.11-1.65-2.26-3.28-3.34-4.95-.91-1.41-1.41-4.48-1.85-1.15l-18.71,2.44a263.67,263.67,0,0,0,43.87,45.27c3.61,2.9,8.2,4.09,12.45,1.6,3.57-2.09,6.44-7.47,4.72-11.59-5.62-13.42-11.23-26.84-15.41-40.78l-17.2,10q13.8,15.53,27.63,31c3,3.35,8.63,3.8,12.39,1.6,4.12-2.41,5.53-7,4.69-11.54l-3.15-16.95-1.4-7.54c-.27-1.45-.23-3.41-.87-4.71-.81-1.64.73-1.9-1,.92L442,390.12l.82-.49L429.07,386a250.53,250.53,0,0,1,17.76,32.28c4,8.79,19.74,4.68,18.65-5.05l-2.89-25.74-18.56,5a71.09,71.09,0,0,1,6.75,19.11c2.29,11,19.76,8.46,19.47-2.64l-.34-13.49-19.42,2.62a56,56,0,0,0,8.89,22.49l5.88-14.46A14.17,14.17,0,0,0,455,418.05a20.91,20.91,0,0,0,.18,7.48c.17.86.42,1.71.66,2.56.93,3.2,0,1.14.39.59l3.53-3.53c-3.25,2.28-10.18,1.05-13.93.21A35.4,35.4,0,0,1,431.79,419l-6.93,16.76c13.59-1,27.3-1.57,40.76-3.83,10.47-1.76,7.59-17.88-2.44-18.05-12.77-.22-25.59,1.3-38.32,2.25-7.45.55-14.26,11-6.94,16.75,10.64,8.37,23.4,13.42,37.12,12.87,7.12-.28,15.11-1.46,19-8.25,2-3.56,2.13-7.75,1.44-11.68-.21-1.25-.59-2.45-.86-3.68-.13-.82-.21-1-.23-.42q.36-4.68-3.9,3.43c5.79-1.7,9.49-9,5.88-14.47a42.54,42.54,0,0,1-6.82-17.8c-1.71-11.11-19.66-8.33-19.43,2.63l.3,13.49,19.47-2.63a90.48,90.48,0,0,0-8.67-23.89c-4.39-8.36-19.63-4.92-18.55,5l2.79,25.74,18.64-5.05a250.1,250.1,0,0,0-17.65-32.35,10.25,10.25,0,0,0-13.78-3.61c-8.67,5.13-6.34,14.25-4.88,22.49l4.52,25.48,17.08-9.94q-13.72-15.58-27.53-31.11c-6.88-7.77-20.05.43-17.19,10,4.42,14.81,10.43,29,16.48,43.22l16.13-12.45a233.12,233.12,0,0,1-40.73-41.06c-2.54-3.34-5.75-5.56-10.19-4.89-3.58.54-7.95,3.35-8.51,7.33-1.44,10.35,3.95,17,9.42,25.21,5.17,7.73,10.34,15.45,15.64,23.09l16-12.33c-13.35-11.77-26.53-23.72-39.72-35.66-3.64-3.29-9-3.92-13-.77-3.57,2.84-5.45,8.68-2.55,12.76,9.46,13.32,18.41,27.28,28.77,39.91l11.62-15C392,411.87,380.58,404,369,396.77c-7.54-4.71-16.37,4.57-12,12,6.52,11.11,14.8,24.46,25.83,31.57l5.75-13.65c-9-3.27-17.08-8.77-24.66-14.5-4.1-3.09-8.68,3.44-5.34,6.92Z" style="fill:#014c48"/><path d="M413.06,444a43.38,43.38,0,0,1,18.8,7.44l-3.81-9.38q3.19-2.31,1.76-2.09a.46.46,0,0,1-.47-.18c-.35-.59-2.91-1.81-3.43-2.16-2.7-1.82-5.39-3.61-8.22-5.25a147.44,147.44,0,0,0-19.29-9.18L396,440.87a29,29,0,0,1,15.61,5.05l-1.81-14.06c1.23-1.1.25-.09-.83-.13-2.2-.09-4.42.15-6.63.09a69.77,69.77,0,0,1-11.7-1.33c-11.37-2.26-15.45,13.16-4.74,17.22,7,2.65,15.13,4.64,21.66,8.31l-3.2-3.19.43.84-1.21-4.49a3.94,3.94,0,0,1-1.86,4c1.09-.62.4.17-.4-.33a24.39,24.39,0,0,1-3.23-2.18c-2.38-2.08-4.22-4.7-6.5-6.87a31.84,31.84,0,0,0-10.38-6.55c-8.21-3.4-13.93,8.69-8.3,14.26,6.18,6.12,10.56,14,18.68,18s18.2,3.23,24.52-3.94c5-5.71,8.43-17.33,2.24-23.52-3.38-3.38-9.4-4.58-13.76-6.24l-14-5.3-4.74,17.22c11.24,2.25,27.18,5.13,36.56-3.19,4.54-4,2.72-11.07-1.81-14.06A46.64,46.64,0,0,0,396,422.87a9,9,0,0,0-8.84,7.8c-.56,4.76,2.17,8.17,6.45,9.88,9.55,3.82,17.62,9.95,26.81,14.31s20.3,2,23.63-8.4a8.4,8.4,0,0,0-3.81-9.37A31.29,31.29,0,0,0,412,435.77c-3.35,1.55-2.68,7.64,1.08,8.22Z" style="fill:#014c48"/><path d="M368.68,468.73a22.36,22.36,0,0,1,7.63,2.1c1.1.46,5.08,1.69,5.62,2.49l-1.11-4.12,0,1.18,2.44-5.9.33-.26,4.27-1.16c-4.89.55-10.92-.94-15.69-2.07-5.62-1.33-10.56-4.2-16-5.95-6.43-2.06-12.06,5.68-8.68,11.29,4.34,7.21,12,10.27,20,11.93,6.59,1.39,15.56,3.27,22.21,1.52a9.93,9.93,0,0,0,2.48-18.38c-7.16-4-15.73-2-23.38-1.76-5.84.18-5.86,9,0,9.09Z" style="fill:#014c48"/><path d="M350.23,464.82c10,3,20.27,4.85,30.23,8.08,9.19,3,14.66-10.65,6.5-15.41-8.87-5.17-18.94-8.67-28.1-13.41l-2.12,16.27c3.82-.77,8.32.41,12.15.89,4.29.54,8.57,1.09,12.86,1.57,9.22,1,13.39-14.13,4.83-17.84-8.13-3.53-16.35-6.85-24.55-10.21l-2.55,18.82c6.5,0,13,.08,19.49.15,8.92.1,14-14.12,4.88-18q-7.47-3.15-15-6.18l-2.56,18.89,8.86-.86c10.34-1,13.34-15.41,2.53-18.7-7.55-2.29-15.07-5-22.73-6.91-7.34-1.84-16.75-2.19-22.35,3.87-6.52,7.05-.17,15.72,4.35,21.82A85.43,85.43,0,0,0,352.72,464c9.86,7.78,22.45-4.16,14-14-2.82-3.26-5.47-7.19-6.28-11.51-.92-4.95.53-10.06-.23-15.14l-19.09,5.26c3.28,8.52,6.84,17,15,21.92,4.41,2.66,11.45-.69,10.93-6.28-.7-7.59-4.15-13.87-6.82-20.9-4.59-12.08-20.9-7.28-19.09,5.26.38,2.63-.82,5.74-.7,8.47a35.17,35.17,0,0,0,1.8,9.85c2.21,6.46,6,11.95,10.53,17l14-14c-7.37-5.7-14.84-12.9-18.81-21.49l1.32,4.9v-.79l-2.84,6.86c-1.19,1.2,1.41.57,2.71.82,2.51.48,5,1.36,7.45,2.09q8.07,2.38,16.13,4.77l2.53-18.7-8.86.66c-4.26.32-8.09,2.77-9.27,7.07-1,3.74.57,9.21,4.42,10.86,5,2.12,9.93,4.22,14.93,6.26l2.57-19c-6.5,0-13,0-19.49,0a9.56,9.56,0,0,0-9.41,8.31c-.61,5.13,2.33,8.62,6.86,10.52,7.41,3.11,14.8,6.27,22.28,9.22l2.54-18.8c-9.6-.75-20.27-2.64-29.75-.48-7.17,1.64-9,12.94-2.12,16.27,9.75,4.73,20.1,10.61,30.58,13.45l2.24-16.56c-10.44.27-20.77-.84-31.21-.82-5.38,0-6.38,7.78-1.26,9.3Z" style="fill:#014c48"/><path d="M340.49,439.1c-1.26,6.15.38,12.83.08,19.12l13.13-7.53a14.89,14.89,0,0,1-3-3.27c-6.59-9.49-20.19-1.41-15.39,9,2.65,5.75,5.27,11.52,8.07,17.19l8.23-14.34c-4.07-.4-7.49-1.15-11.48.19a14.11,14.11,0,0,0-9.2,9.45c-2.36,8.58,4.42,14.8,11.38,18.08,7.72,3.62,16,8.91,24.28,3.65,7.13-4.53,12.35-13.63,12.36-22,0-9.19-12.57-12.53-17.21-4.66-1.21,2-2.17,4.17-3.35,6.22a23.94,23.94,0,0,1-1.48,2.23c-.5.66-2,1.23-.9,1h5.33c-2.61-.4-5-1.68-7.39-2.72-1.12-.49-2.28-.94-3.39-1.47a13.32,13.32,0,0,1-1.77-.89q-3-1.95,1.34,4.59l-2.5,4.28c-.83.93-1.62,0,0,.72a14.88,14.88,0,0,0,4,.41c7.59.52,11.39-8.38,8.24-14.35-2.95-5.58-6.07-11.06-9.15-16.56l-15.39,9a41.7,41.7,0,0,0,9.55,9.34c6.47,4.57,14.63-3,12.82-9.85-1.85-7-4.28-15.09-10.27-19.63-2.37-1.79-6.39.08-6.95,2.83Z" style="fill:#014c48"/><path d="M383.72,200.17c-13.43-1.26-30.71,5.61-34,20.09l5.79,1.59.1-.5c.76-3.77-5-5.39-5.79-1.6l-.1.51c-.75,3.75,4.94,5.38,5.79,1.59,2.67-11.95,17.36-16.69,28.16-15.68,3.85.36,3.82-5.64,0-6Z" style="fill:#00776e"/><path d="M360.32,206a36.58,36.58,0,0,0-41.75-7.6c-3.49,1.63-.45,6.8,3,5.18a30.44,30.44,0,0,1,34.48,6.66c2.68,2.79,6.92-1.45,4.24-4.24Z" style="fill:#00776e"/><path d="M331.91,154.83A21.53,21.53,0,0,0,311.16,177c.07,3.86,6.07,3.87,6,0a15.44,15.44,0,0,1,14.75-16.14c3.84-.21,3.87-6.21,0-6Z" style="fill:#00776e"/><path d="M313.91,164.75c-12.31-4.68-27.26-7-37.21,3.67-2.63,2.83,1.6,7.08,4.24,4.25,8.45-9.06,21.16-6,31.37-2.13,3.61,1.37,5.18-4.43,1.6-5.79Z" style="fill:#00776e"/><path d="M285.61,206.92A25.79,25.79,0,0,0,249,198.3c-3.23,2.09-.23,7.29,3,5.18,9.88-6.4,22.31-3.7,28.36,6.47,2,3.32,7.16.3,5.18-3Z" style="fill:#00776e"/><path d="M251.15,172.08c-.68-7.83-3.73-18.81-11.71-22.23-8.46-3.62-18.88-4.21-27.23-.22-3.48,1.66-.44,6.83,3,5.18,6.23-3,13.86-2.23,20.25,0,6.63,2.31,9.1,10.88,9.66,17.27.33,3.82,6.33,3.85,6,0Z" style="fill:#00776e"/><path d="M262.13,119.53a20.14,20.14,0,0,0-21.52,20.15c-.05,3.86,5.95,3.87,6,0,.12-8.64,7-14.69,15.52-14.15,3.85.25,3.84-5.75,0-6Z" style="fill:#00776e"/><path d="M212,122.83a29.13,29.13,0,0,0-39.16-4.22c-3.1,2.25-.1,7.45,3,5.18,10.28-7.48,23.42-6.22,31.9,3.28,2.57,2.89,6.81-1.37,4.24-4.24Z" style="fill:#00776e"/><path d="M166.43,149.89a24.31,24.31,0,0,0-29.81-11.2c-3.56,1.38-2,7.18,1.6,5.78a18.4,18.4,0,0,1,23,8.45c1.81,3.41,7,.38,5.18-3Z" style="fill:#00776e"/><path d="M167.49,66.29c-14.17.58-16.4,15.84-14.91,27,.5,3.77,6.51,3.82,6,0-1-7.3-1.6-20.57,8.91-21,3.85-.15,3.87-6.15,0-6Z" style="fill:#00776e"/><path d="M154.66,81.33a42.85,42.85,0,0,0-43.34,3.87c-3.1,2.24-.1,7.45,3,5.18a36.91,36.91,0,0,1,37.28-3.87c3.48,1.62,6.53-3.55,3-5.18Z" style="fill:#00776e"/><path d="M100.55,108.72c2.42-6.53-2.27-13-7.32-16.8-5.65-4.22-12.76-5.09-19-1.77-3.42,1.8-.39,7,3,5.18,4.16-2.19,8.65-1.36,12.35,1.35,3.18,2.33,6.74,6.26,5.19,10.44-1.34,3.63,4.46,5.19,5.79,1.6Z" style="fill:#00776e"/><path d="M426.94,202.42a17.17,17.17,0,0,0-18.56-2c-6.93,3.32-10.78,10.54-12.47,17.73l5.49-.71-.78-1.59c-1.69-3.47-6.86-.43-5.18,3l.77,1.59c1.13,2.31,4.92,1.7,5.49-.72,2-8.59,11.28-20.82,21-13,3,2.39,7.26-1.83,4.24-4.24Z" style="fill:#00776e"/><path d="M355,241.36a24.49,24.49,0,0,0-31.35-7c-3.4,1.85-.37,7,3,5.18a18.36,18.36,0,0,1,23.14,4.89c2.29,3.05,7.5.06,5.18-3Z" style="fill:#00776e"/><path d="M303.8,305.21c-10,2-21.59.63-30-5.66-9.61-7.22-7-17.94-1-26.63,2.21-3.18-3-6.18-5.18-3-7.1,10.2-9.73,23.51.45,32.72,9.88,8.94,24.62,10.9,37.27,8.39,3.78-.75,2.18-6.54-1.6-5.79Z" style="fill:#014c48"/><path d="M262.24,281.72c-10.61-1.68-17.55-10.2-16.88-21,.24-3.85-5.76-3.84-6,0a25.24,25.24,0,0,0,21.28,26.77c3.78.6,5.41-5.18,1.6-5.79Z" style="fill:#014c48"/><path d="M295.26,384.91c-7.47-1.85-16.14-9-17.65-16.76-1.32-6.81.73-20.39,8.37-23,3.64-1.23,2.08-7-1.6-5.79-10.74,3.61-14,18.14-12.92,28.27,1.19,10.81,12,20.49,22.2,23,3.75.93,5.35-4.85,1.6-5.78Z" style="fill:#014c48"/><path d="M247.31,390.5c-7.87-2.58-15.89-6.6-20.19-14a24,24,0,0,1-.21-23.08c1.8-3.41-3.38-6.45-5.18-3a30.34,30.34,0,0,0-.49,27.84c4.8,9.58,14.69,14.89,24.47,18.1,3.68,1.2,5.26-4.59,1.6-5.79Z" style="fill:#014c48"/><path d="M190.11,232.48c-11.28-.09-24.36-.19-33-8.58-7.44-7.21-8.5-18.4-8.76-28.19-.1-3.85-6.1-3.87-6,0,.3,11.44,1.9,24,10.52,32.43,9.88,9.62,24.32,10.24,37.28,10.34,3.87,0,3.87-6,0-6Z" style="fill:#014c48"/><path d="M147.19,216.73c-11.56,2.14-30,4.33-34.5-10.24-1.14-3.68-6.94-2.11-5.79,1.59,5.65,18.24,26.76,17.24,41.88,14.44,3.79-.71,2.19-6.49-1.59-5.79Z" style="fill:#014c48"/><path d="M210.18,306.41c-7.87,2.77-20.94,4.09-27.3-2.9-5.72-6.29-6.79-23.21,4.38-24.13,3.82-.31,3.86-6.31,0-6-14.39,1.18-17,17.79-12.12,28.9,6,13.55,24.46,14.21,36.63,9.92,3.62-1.28,2.06-7.08-1.59-5.79Z" style="fill:#014c48"/><path d="M175.24,349.17c-4.05-.8-8.53-2.38-10.81-6.09a7.68,7.68,0,0,1,1.24-10c2.92-2.54-1.33-6.77-4.24-4.25-4.36,3.79-5.35,10.1-3.14,15.33,2.63,6.22,9,9.54,15.35,10.78,3.77.74,5.39-5,1.6-5.78Z" style="fill:#014c48"/><path d="M294.25,418.7c4-8.33,13.94-11.33,21.48-5.32,3,2.38,7.26-1.83,4.24-4.24-10.28-8.2-25.05-5.64-30.9,6.53-1.67,3.47,3.51,6.52,5.18,3Z" style="fill:#014c48"/><path d="M120.87,256.42a25.48,25.48,0,0,0-25.31,3.87c-6.32,5.25-11.3,15-7.92,23.09,1.46,3.51,7.27,2,5.79-1.6-2.66-6.39,1.73-13.91,6.95-17.67,5.6-4,12.6-4.29,18.89-1.91,3.62,1.37,5.18-4.43,1.6-5.78Z" style="fill:#014c48"/><path d="M88,270.61c-8.39-4.33-18.84-5.89-27.52-1.38-7.86,4.08-12.4,13.35-9,21.84,1.4,3.55,7.21,2,5.78-1.59-2.77-7,1.64-13.68,8.47-16,6.4-2.13,13.41-.75,19.27,2.27,3.43,1.76,6.46-3.41,3-5.18Z" style="fill:#014c48"/><path d="M77.82,200.75c-5.83,0-11.24,4.13-12.09,10.05s3.22,11.38,8.8,13c3.71,1.1,5.3-4.69,1.6-5.79a5.74,5.74,0,0,1,1.69-11.3c3.86,0,3.87-6,0-6Z" style="fill:#014c48"/><path d="M97.45,157.64c-5.37-5.13-12.09-10.21-19.94-9.46-6.18.59-11.89,4.72-13,11-.67,3.77,5.12,5.4,5.79,1.59.83-4.7,5.33-7.07,9.88-6.59,5.18.55,9.41,4.23,13,7.68,2.8,2.66,7-1.57,4.25-4.24Z" style="fill:#014c48"/><path d="M136.46,281.6A11.2,11.2,0,0,0,126,288.45c-2,4.55-.81,9.65,1.75,13.7,2,3.26,7.24.26,5.18-3-2.45-3.89-3.09-11.64,3.52-11.53,3.86.07,3.87-5.93,0-6Z" style="fill:#014c48"/><path d="M259.65,320.75A7.54,7.54,0,0,1,249,319.6c-2.46-3-6.68,1.28-4.24,4.24a13.35,13.35,0,0,0,18,2.09c3-2.33,0-7.54-3-5.18Z" style="fill:#014c48"/><path d="M102.5,319.22c-3.17,1.79-10.54,5.23-12.44-.14-1.27-3.61-7.07-2.05-5.78,1.6,3.41,9.65,14.17,7.7,21.25,3.72,3.36-1.89.34-7.08-3-5.18Z" style="fill:#014c48"/><path d="M321.8,355.28a1.47,1.47,0,0,1,.73,1.86c-.39.74-1.29.74-2,.65-1.61-.2-3,1.53-3,3a3.07,3.07,0,0,0,3,3,7.46,7.46,0,0,0,7.77-5.05,7.55,7.55,0,0,0-3.48-8.64c-3.33-2-6.35,3.21-3,5.18Z" style="fill:#014c48"/><path d="M67.61,237.85c-6.94-1.77-14.94-.26-18.84,6.32-3.38,5.74-1.53,13.42,4.55,16.43,3.44,1.71,6.49-3.46,3-5.18-3.62-1.8-4.25-6.1-1.72-9.18,2.81-3.39,7.44-3.61,11.4-2.61,3.74,1,5.34-4.83,1.59-5.78Z" style="fill:#014c48"/><path d="M448.4,232.3c-8.49-9.8-19.75-15.84-32.24-9.36-10.46,5.42-20,15.72-19.92,28.05l5.12-2.12c-6.91-7.67-18.48-4-20.62,5.87-.82,3.76,5,5.37,5.78,1.59,1.2-5.49,6.61-7.64,10.6-3.22,1.77,2,5.13.39,5.12-2.12,0-9.71,7.54-17.39,15.44-22,10.51-6.17,19.33-.67,26.47,7.58,2.53,2.93,6.76-1.33,4.25-4.24Z"/><path d="M390.38,260c-7.46-6.72-17.81-11.78-28-8.6a21.36,21.36,0,0,0-15,19.51l3.8-2.9c-5.67-2-10.92,1.26-13,6.59-1.39,3.61,4.4,5.17,5.78,1.6,1-2.5,3.25-3.24,5.6-2.4,1.92.68,3.73-1.08,3.8-2.89a15.3,15.3,0,0,1,11.95-14.09c7.67-1.79,15.33,2.47,20.83,7.42,2.87,2.58,7.12-1.65,4.24-4.24Z"/><path d="M330,272.23c.8-14.67-6.11-29.34-18.43-37.54-13.07-8.71-30.61-8.28-43.77-.1l4.51,2.59c-1.29-16.52-19.44-26.22-33.28-16-3.06,2.28-.07,7.49,3,5.18,9.82-7.29,23.28-1.7,24.25,10.77.17,2.16,2.45,3.87,4.52,2.59,11.45-7.11,26.35-7.49,37.72.1,10.6,7.07,16.14,19.84,15.45,32.36-.21,3.86,5.79,3.85,6,0Z"/><path d="M243.49,233.66c2.21-13.71-2.44-28.16-13.4-37s-26.31-10.35-39.22-4.72l4.41,3.39a20.25,20.25,0,0,0-12.69-24.37c-3.64-1.3-5.21,4.49-1.6,5.79,6.88,2.46,10.36,10.08,8.5,17-.74,2.75,2.12,4.39,4.41,3.39,23.32-10.17,47.74,10.49,43.81,35-.61,3.78,5.17,5.4,5.78,1.59Z"/><path d="M53.56,123.09c18.61-7.58,39.11,2.42,44,22a3,3,0,0,0,4.41,1.79c3.34-1.66,7.34-3,11-1.63,3.3,1.23,5.44,4.35,4.38,7.88-1.11,3.7,4.68,5.29,5.79,1.59a12.25,12.25,0,0,0-5.59-13.95c-5.86-3.62-12.88-1.94-18.63.93l4.41,1.79A38.2,38.2,0,0,0,52,117.3c-3.53,1.44-2,7.25,1.59,5.79Z"/><path d="M338.28,448c-5.33-4-10.92-12.64-6.11-19,3.28-4.36,10.15-6.13,14.52-9.2,3.14-2.2.15-7.41-3-5.18-6.78,4.75-16.87,7.15-18.94,16.34-2,8.78,3.88,17.25,10.53,22.25,3.08,2.32,6.08-2.89,3-5.19Z"/><path d="M357.46,421.26c-3.33-5.08-9.3-7.22-12.83-12.18a29.84,29.84,0,0,1-5.17-17.55c.17-14.29,9.84-26.1,20.62-34.47,1.7-1.33.78-4.68-1.33-5-6.1-1-14-2-17.23-8.05-2.8-5.31-.81-11.75,3.73-15.26a3,3,0,0,0,0-4.25c-6.95-5.73-7.57-17.62-.12-23.35,3-2.32,0-7.53-3-5.18-10.25,7.89-11.36,24.3-1.09,32.78v-4.25a18.19,18.19,0,0,0-5.5,20.71c3.47,8.91,13.14,11.3,21.65,12.64l-1.33-5c-11.71,9.09-21.53,22-22.32,37.31a36.66,36.66,0,0,0,4.16,19.05,29.75,29.75,0,0,0,5.84,7.68c2.79,2.6,6.65,4.19,8.77,7.43s7.31.21,5.18-3Z"/></svg>