<svg xmlns="http://www.w3.org/2000/svg" viewBox="0 0 310.66 319.19"><g style="isolation:isolate"><g id="Layer_1" data-name="Layer 1"><path d="M239.61,236.07c0,25.78-37.73,46.67-84.28,46.67S71,261.85,71,236.07V83.12H239.61Z" style="fill:#00a88e;stroke:#000;stroke-linecap:round;stroke-linejoin:round;stroke-width:7px"/><ellipse cx="155.33" cy="83.12" rx="84.28" ry="46.67" style="fill:#007b7b;stroke:#000;stroke-linecap:round;stroke-linejoin:round;stroke-width:7px"/><ellipse cx="155.33" cy="83.12" rx="68.86" ry="30.39" style="fill:#052460;stroke:#000;stroke-linecap:round;stroke-linejoin:round;stroke-width:5px"/><path d="M239.61,133.12c0,25.78-37.73,46.67-84.28,46.67S71,158.9,71,133.12" style="fill:none;stroke:#000;stroke-linecap:round;stroke-linejoin:round;stroke-width:5px"/><path d="M239.61,183.12c0,25.78-37.73,46.67-84.28,46.67S71,208.9,71,183.12" style="fill:none;stroke:#000;stroke-linecap:round;stroke-linejoin:round;stroke-width:5px"/><rect x="119.08" y="165.36" width="77.99" height="77.99" transform="translate(190.79 -51.92) rotate(45)" style="fill:#fbb040;stroke:#000;stroke-linecap:round;stroke-linejoin:round;stroke-width:5px"/><path d="M158.22,218.74c-1.24-.11-2.48-.21-3.72-.35a2,2,0,0,1-.72-.28l-4.15-2.32a1.74,1.74,0,0,1-.92-1.52,8.74,8.74,0,0,0-.34-1.66.84.84,0,0,0-.8-.63c-.6-.09-1.21-.19-1.82-.23a3,3,0,0,1-2.4-1.49c-1-1.55-2.15-3-3.24-4.53-.73-1-1.45-2-2.19-3a.67.67,0,0,1,0-.89c.55-.76,1.09-1.54,1.63-2.31a2.57,2.57,0,0,0,.44-1.87c-.26-2.11-.49-4.23-.77-6.34-.17-1.26-.4-2.51-.58-3.77a12.67,12.67,0,0,1,.06-4.87,8,8,0,0,1,1.42-2.87,19,19,0,0,1,3.79-3.7,24.91,24.91,0,0,1,5.76-3.18,23.19,23.19,0,0,1,8.69-1.74,22.75,22.75,0,0,1,7.16,1.34,25.32,25.32,0,0,1,7.56,4.18,16,16,0,0,1,3.17,3.3,8.7,8.7,0,0,1,1.44,6.38c-.3,2.33-.66,4.65-1,7-.19,1.45-.32,2.91-.48,4.37l0,.47a1.85,1.85,0,0,0,.55,1.47,8.17,8.17,0,0,1,1.6,2.31.53.53,0,0,1,0,.6c-.2.3-.38.62-.6.91l-2.65,3.62c-.85,1.17-1.7,2.35-2.53,3.54a2.54,2.54,0,0,1-1.93,1.11c-.68.07-1.36.14-2,.25a1,1,0,0,0-.87.84c-.15.7-.27,1.4-.45,2.09a.92.92,0,0,1-.35.54c-1.52.92-3.07,1.8-4.59,2.72a3.85,3.85,0,0,1-1.87.42c-.73,0-.69,0-1.42,0C159.17,218.74,158.23,218.69,158.22,218.74Zm10.51-22.57c-.37,0-.75.06-1.12.13a17.44,17.44,0,0,0-5.68,2.29,2.16,2.16,0,0,0-1.21,2,4.85,4.85,0,0,0,1.95,3.69,8.6,8.6,0,0,0,3.84,1.73,23.89,23.89,0,0,0,2.89.4,2,2,0,0,0,2.08-1.21,10.19,10.19,0,0,0,.91-5.7,4.13,4.13,0,0,0-1-2.28A3.54,3.54,0,0,0,168.73,196.17Zm-21.32.14a3.74,3.74,0,0,0-1.92.38,3.43,3.43,0,0,0-1.74,2.8,11,11,0,0,0,.73,5.3,2.07,2.07,0,0,0,1.08,1.38,3.65,3.65,0,0,0,1.38.27,11.88,11.88,0,0,0,5.16-1.31,6.07,6.07,0,0,0,3-2.92,2.87,2.87,0,0,0-1.31-4,14.08,14.08,0,0,0-2.84-1.18A10.86,10.86,0,0,0,147.41,196.31Zm10.63,9a1.45,1.45,0,0,0-.16.21c-.48.86-1,1.72-1.45,2.58s-1,1.76-1.47,2.64a.34.34,0,0,0,.11.52c.31.22.62.45.92.7a.4.4,0,0,0,.52,0c.36-.22.73-.42,1.09-.63a1,1,0,0,1,1,0c.37.22.75.43,1.11.66a.42.42,0,0,0,.53,0c.29-.2.58-.4.88-.58a.31.31,0,0,0,.13-.5c-.8-1.47-1.58-3-2.4-4.42A13.22,13.22,0,0,0,158,205.32Z"/><path d="M176.53,230.51a11.2,11.2,0,0,1-1.24-.52,6.32,6.32,0,0,1-2-1.86,15.68,15.68,0,0,0-6.16-5.26,4.11,4.11,0,0,1-.51-.27c-.34-.22-.34-.31,0-.54a5,5,0,0,1,.45-.3,3.25,3.25,0,0,0,1.62-2.24c.16-.71.38-1.4.56-2.1.07-.31.21-.36.49-.23,1.19.53,2.38,1.12,3.61,1.57a25.35,25.35,0,0,0,3.62,1c1.19.24,2.43.28,3.64.45a10.2,10.2,0,0,1,1.55.34,2.49,2.49,0,0,1,1.68,2c.06.24.09.49.13.74a.26.26,0,0,1-.25.33,6.24,6.24,0,0,0-4.45,3.32c-.35.65-.67,1.33-1,2a2.57,2.57,0,0,1-1.36,1.41l-.33.07Z"/><path d="M139.41,230.39a1.44,1.44,0,0,1-1.16-.77c-.39-.69-.75-1.39-1.08-2.11a6.81,6.81,0,0,0-2.25-2.84,6.27,6.27,0,0,0-2.38-1c-.34-.06-.45-.2-.36-.52a9.09,9.09,0,0,1,.46-1.48,2.55,2.55,0,0,1,2-1.32c.72-.12,1.46-.21,2.19-.26a20.12,20.12,0,0,0,4.14-.76,23.31,23.31,0,0,0,4-1.59c.47-.23,1-.41,1.47-.61.24-.1.33,0,.39.23.22.81.46,1.61.66,2.43a3,3,0,0,0,1.38,1.85l.66.43c.27.19.28.3,0,.46-.5.29-1,.56-1.53.82a14.51,14.51,0,0,0-4.72,4.13,19.54,19.54,0,0,1-2.07,2.2A2.61,2.61,0,0,1,139.41,230.39Z"/><path d="M130.06,195.89c1.14,0,.91-.09,1.19,1a18.41,18.41,0,0,0,1.21,3.7,3.35,3.35,0,0,0,1.7,1.79,5.62,5.62,0,0,1,2.44,2.14c1,1.37,2,2.73,3,4.1L141.4,211a.78.78,0,0,1,.11.2.92.92,0,0,1,0,.29.71.71,0,0,1-.25,0l-1-.31c-1.18-.39-2.36-.8-3.55-1.17a17.9,17.9,0,0,0-4.76-.79c-2-.07-3.92-.1-5.89-.14-.48,0-.54-.06-.58-.54a3.13,3.13,0,0,1,.6-1.92c.26-.4.55-.78.81-1.18,1-1.52,1.06-2.72-.09-4.51a4.46,4.46,0,0,1-.78-1.9,2.7,2.7,0,0,1,1.8-2.76A5.14,5.14,0,0,1,130.06,195.89Z"/><path d="M174.61,211.53a5.21,5.21,0,0,1,.28-.52c.38-.58.78-1.15,1.18-1.71.71-1,1.42-2,2.15-3,.61-.85,1.2-1.71,1.88-2.5a5.07,5.07,0,0,1,1.35-1.07,6.66,6.66,0,0,0,3.18-4.42c.18-.69.27-1.4.41-2.1,0-.11.16-.28.25-.28a6.53,6.53,0,0,1,3.84.9,2.21,2.21,0,0,1,.92,2.53,5.35,5.35,0,0,1-.82,1.74,4.39,4.39,0,0,0-.76,1.87,3.38,3.38,0,0,0,.64,2.31c.38.61.79,1.2,1.15,1.81a2.52,2.52,0,0,1,.37,1.56c0,.43-.1.48-.53.49-1.95.05-3.9.08-5.85.14a22,22,0,0,0-6.16,1.17c-1,.32-2,.66-3,1-.15,0-.3.13-.45.19Z"/><path d="M156.36,222.44h-.92a.42.42,0,0,1-.47-.34,4.93,4.93,0,0,1,0-2.26c0-.08.2-.19.3-.2.72,0,1.43,0,2.15,0a.37.37,0,0,1,.28.22,5.07,5.07,0,0,1,0,2.26.39.39,0,0,1-.43.33c-.32,0-.64,0-1,0Z"/><path d="M159.74,222.43c-.3,0-.61,0-.91,0a.41.41,0,0,1-.49-.4c0-.7,0-1.41,0-2.1a.45.45,0,0,1,.31-.27c.72,0,1.43,0,2.15,0a.4.4,0,0,1,.27.25c.07.6.12,1.2.14,1.8s-.19.77-.77.77h-.75Z"/><path d="M161.81,220.76c0-.34,0-.68,0-1a.52.52,0,0,1,.2-.37c.59-.28,1.19-.52,1.78-.78.25-.12.35-.05.36.22,0,.64,0,1.27,0,1.91a.53.53,0,0,1-.22.36c-.56.32-1.14.61-1.71.91-.32.16-.41.1-.42-.24v-1Z"/><path d="M154.34,220.77v1c0,.21-.08.29-.29.19l-1.9-.91a.48.48,0,0,1-.17-.3c0-.63,0-1.27,0-1.9,0-.29.12-.34.36-.23l1.71.73a.4.4,0,0,1,.28.41c0,.33,0,.66,0,1Z"/><path d="M164.85,219.12c0-.32,0-.64,0-1a.63.63,0,0,1,.25-.41c.55-.32,1.12-.59,1.69-.87a.25.25,0,0,1,.24,0s.05.14,0,.21c-.11.52-.23,1-.35,1.55a2.75,2.75,0,0,1-1.62,1.73c-.19.09-.27,0-.27-.21v-1Z"/><path d="M149,216.81a3.32,3.32,0,0,1,.33.09c.57.3,1.14.6,1.7.92a.51.51,0,0,1,.21.35c0,.65.05,1.31.07,2,0,.29-.09.33-.36.22a2.8,2.8,0,0,1-1.67-2.27C149.23,217.69,149.13,217.3,149,216.81Z"/><path d="M152,218.87s.27,9.19,1.64,12,.91-2,.72-5.4c-.13-2.56,0-4.92,0-5.69S152,218.87,152,218.87Z"/><path d="M164.13,218.87s-.27,9.19-1.64,12-.91-2-.73-5.4c.14-2.56,0-4.92,0-5.69S164.13,218.87,164.13,218.87Z"/><path d="M156,133.12V282.74s-84.28-4.15-84.28-46.67L74.05,94.14S104.65,131.3,156,133.12Z" style="fill:#a7a9ac;mix-blend-mode:multiply"/><path d="M154.44,54.46l.74,58.31s63.59-1.58,66.45-28S154.44,54.46,154.44,54.46Z" style="fill:#a7a9ac;mix-blend-mode:multiply"/></g></g></svg>