<svg xmlns="http://www.w3.org/2000/svg" xmlns:xlink="http://www.w3.org/1999/xlink" viewBox="0 0 310.66 403.94"><defs><linearGradient id="linear-gradient" x1="155.22" y1="388.84" x2="155.22" y2="223.63" gradientUnits="userSpaceOnUse"><stop offset="0" stop-color="#ef4136"/><stop offset="1" stop-color="#02193f"/></linearGradient><linearGradient id="linear-gradient-2" x1="156.93" y1="249.54" x2="154.7" y2="145.35" xlink:href="#linear-gradient"/></defs><g style="isolation:isolate"><g id="Layer_1" data-name="Layer 1"><path d="M239.51,322.85c0,25.77-37.74,46.66-84.29,46.66s-84.28-20.89-84.28-46.66v-153H239.51Z" style="stroke:#000;stroke-linecap:round;stroke-linejoin:round;stroke-width:7px;fill:url(#linear-gradient)"/><ellipse cx="155.22" cy="169.9" rx="84.28" ry="46.67" style="fill:#27aae1;stroke:#000;stroke-linecap:round;stroke-linejoin:round;stroke-width:7px"/><ellipse cx="155.22" cy="169.9" rx="68.86" ry="30.39" style="stroke:#000;stroke-linecap:round;stroke-linejoin:round;stroke-width:5px;fill:url(#linear-gradient-2)"/><path d="M239.51,219.9c0,25.77-37.74,46.67-84.29,46.67s-84.28-20.9-84.28-46.67" style="fill:none;stroke:#000;stroke-linecap:round;stroke-linejoin:round;stroke-width:5px"/><path d="M239.51,269.9c0,25.77-37.74,46.67-84.29,46.67s-84.28-20.9-84.28-46.67" style="fill:none;stroke:#000;stroke-linecap:round;stroke-linejoin:round;stroke-width:5px"/><path d="M155.87,219.9V369.51s-84.29-4.14-84.29-46.66L74,180.91S104.54,218.07,155.87,219.9Z" style="fill:#a7a9ac;mix-blend-mode:multiply"/><path d="M155.34,141.24l.73,57.3s64.59-1.58,67.46-28S155.34,141.24,155.34,141.24Z" style="fill:#a7a9ac;mix-blend-mode:multiply"/><path d="M87.53,171.17s7.23-4,10.79-4.09,9.05-3.75,9.49-2.12,5.32,8.44,5.91,10.3,0,7.44,0,7.44l-4.75,8S89,185.31,87.53,171.17Z" style="fill:#be1e2d;stroke:#000;stroke-linecap:round;stroke-linejoin:round;stroke-width:5px"/><path d="M195.4,192.77s-13.36-6.53-15.22-8-7-3.27-9.67-5.88S151,167.82,148.92,166.33s-8.18-3.53-11.9-7.44-17.68-5.95-17.68-5.95c-3.35,2.41-3.53,6-7.43,8.28s-1.36,3-3.66,5.37a11.21,11.21,0,0,0-2.82,5.32,72.31,72.31,0,0,0,5.54,5c2.61,2,10,6.88,12.84,8.74s8.18,3.72,10.6,5.4,13.77,7.46,13.77,7.46l3.52,1.71s21.41,0,33.59-3C194.51,195,195.4,192.77,195.4,192.77Z" style="fill:#be1e2d;stroke:#000;stroke-linecap:round;stroke-linejoin:round;stroke-width:5px"/><path d="M200.27,168.38s6.45.49,9.12,1.51,2.58,3.45,4.84,3.51,7.67,3.19,7.67,3.19-6,10.53-16.23,13.35-12.51,4.58-12.51,4.58L180,183.08Z" style="fill:#be1e2d;stroke:#000;stroke-linecap:round;stroke-linejoin:round;stroke-width:5px"/><path d="M109,190.73l5.86-11Z" style="fill:none;stroke:#000;stroke-linecap:round;stroke-linejoin:round;stroke-width:5px"/><path d="M136.83,156.84s3.16-8.93,4.65-10.23,2.9-5.33,3.31-6.76a30.83,30.83,0,0,1,3-6.08c.81-1.11,2.3-2.6,2.67-3.72s5.46-12.28,5.46-12.28a37.08,37.08,0,0,1,3.08-5.33c1.88-2.67,2.07-4.34,3.93-4.9s3,1.19,7.63,1.8,2.61,2.29,7.16,3,4.74,1.67,7.16,2.23,1.3,1.38,0,4.5-5,9.45-5,9.45-2.84,7.26-4.28,9.68-2.18,4.71-4.53,9-3.47,6.67-5,9.64-4.5,11-4.5,11L159,171.89l13.6-9.65s4.47-3.16,6.89-4.65a90.72,90.72,0,0,1,8.37-4.65,46.28,46.28,0,0,1,5.21,1.3,9.91,9.91,0,0,1,4.83,3.72c1.12,1.49,2.6,1.67,3.9,2.42s1.28,3.84,1.28,3.84a13.36,13.36,0,0,1-2.76,4.16c-1.67,1.52-4.65,4.46-6,5.77s-11.16,10.6-11.16,10.6" style="fill:#be1e2d;stroke:#000;stroke-linecap:round;stroke-linejoin:round;stroke-width:5px"/><path d="M109,190.73a35.89,35.89,0,0,0,14.33,6.1c8.78,1.7,24,3.3,26.18,3.36s-34.65-20.49-34.65-20.49Z" style="fill:#be1e2d;stroke:#000;stroke-linecap:round;stroke-linejoin:round;stroke-width:5px"/><g style="mix-blend-mode:multiply"><path d="M109.42,170.85c1.62,1.53,3.25,3.05,4.91,4.53,1.47,1.33,3,2.92,4.82,3.66,1.45.58,2.15-1.4,1.37-2.35-1.16-1.41-3.08-2.35-4.55-3.43a61.18,61.18,0,0,1-4.89-4.06c-1.11-1-2.76.61-1.66,1.65Z" style="fill:#a7a9ac"/><path d="M110.1,164.06c-.37,2.13-.87,4.87.1,6.92.82,1.74,1.85,1.8,3.45,2.69,2.58,1.43,4.4,3.89,7,5.31s5.69,2.44,8.37,4.06c5.57,3.36,10.48,6.7,16.62,9,5.34,2,9.65,6.15,15.36,6.9,2,.27,2.27-2.86.46-3.4-4.42-1.32-7.81-5-12.11-6.79a80.75,80.75,0,0,1-15.23-7.87c-4.07-2.73-9.11-4.36-12.9-7.37-1.69-1.35-3.1-3.11-5.1-4.05-.59-.28-1.47-.28-2-.63-1.3-.89-1.13-2.5-1.31-4.35-.14-1.44-2.47-2.06-2.76-.37Z" style="fill:#a7a9ac"/><path d="M115.42,171.6c-1.36-2.68-3.87-3.51-6.72-2.72a2.27,2.27,0,0,0-1,3.77,100.92,100.92,0,0,0,23,15.64c8.27,4.17,17.29,8.65,26.48,10.06,1.69.26,3-2,1.25-3-7.74-4.37-16.35-7.16-24.3-11.23a142.21,142.21,0,0,1-23.23-14.7l-1,3.78,2.64.58a1.84,1.84,0,0,0,2.88-2.22Z" style="fill:#a7a9ac"/><path d="M156,196.17a9.08,9.08,0,0,0-1.24-.72,7.78,7.78,0,0,0-1.26-.33,15.59,15.59,0,0,0-3-.37l1.94,1.11-.28-.37a2,2,0,0,0-3.36,0l-.25.37a2.27,2.27,0,0,0,2,3.39,15.5,15.5,0,0,0,3-.31,7.68,7.68,0,0,0,1.26-.29A11.61,11.61,0,0,0,156,198a1,1,0,0,0,0-1.78Z" style="fill:#a7a9ac"/><path d="M140,179.35c8.33,6.08,17.5,11.17,25.53,17.65l1-3.77a30.53,30.53,0,0,1-4,.86c-2,.35-2,3.6,0,4a8.45,8.45,0,0,0,5.24-.49c1.61-.59,2.47-3.23.54-4.11-9.55-4.34-18.36-10.3-27.69-15.09a.57.57,0,0,0-.57,1Z" style="fill:#a7a9ac"/><path d="M165.32,195.16c1.86-.22,2.6-1.54,3.28-3.18l-3.08,1.25a35.52,35.52,0,0,0,5.87,2.33c2.09.75,4.18,1.63,6.32,2.21l1.11-4a38,38,0,0,0-6.49-.22c-2.12.07-4.43,0-6.43.76-1.57.61-2.1,3.41,0,3.76a28.78,28.78,0,0,0,5.94-.07c2.14-.09,4.29,0,6.43-.13a2.1,2.1,0,0,0,1-3.89c-3.56-2.12-8.61-4.25-12.75-4.62-1.49-.14-2.21,1.44-2,2.65.13.81-.05,1.64,0,2.45,0,.36.3.78.73.73Z" style="fill:#a7a9ac"/><path d="M162.19,172.94c2.84,2.45,7.42,5.8,11.35,4.74,2-.53,3.37-2,4.82-3.39a79.9,79.9,0,0,1,8.25-6.87.16.16,0,0,0-.17-.28,56.54,56.54,0,0,1-12,5c-4.06,1-7.43-.77-11.35-1.29-1.06-.14-1.65,1.46-.88,2.12Z" style="fill:#a7a9ac"/><path d="M189.32,165.77l.93-.56a.42.42,0,0,0-.42-.73l-.93.56a.42.42,0,0,0,.42.73Z" style="fill:#a7a9ac"/><path d="M191.16,164.66a.19.19,0,0,0,0-.38.19.19,0,0,0,0,.38Z" style="fill:#a7a9ac"/><path d="M192.47,163.1c-7.28,2.71-12.75,9.09-18.21,14.37a1.87,1.87,0,0,0,0,2.61c1.05,1.11,2.05,2.71,3.65,3a1.93,1.93,0,0,0,1.48-3.51c-.82-.62-1.73-1.42-2.52-2.06v2.61c5.18-5.22,10-11.63,16.09-15.82.54-.38.23-1.43-.49-1.16Z" style="fill:#a7a9ac"/><path d="M171.63,177.78a28.27,28.27,0,0,0,8.86,5.78,2,2,0,0,0,2.34-.3c6-6.31,12.4-12.25,18.47-18.51a1.74,1.74,0,0,0-2.46-2.45c-6.33,6-12.36,12.28-18.74,18.22l2.34-.3c-3.14-1.58-6.29-3.31-9.56-4.59-1.25-.49-2.09,1.3-1.25,2.15Z" style="fill:#a7a9ac"/><path d="M202,171.8l.61,0-.33-2.45c-3,1.22-5.14,3.93-7.44,6.19-2.87,2.8-5.72,5.62-8.59,8.42a2.57,2.57,0,0,0,0,3.61,24,24,0,0,0,7,4.61c2.22.83,4.1-2.48,2.33-4s-3.85-2.71-5.68-4.22v3.61c2.72-3,5.44-5.9,8.11-8.89,2.14-2.4,4.82-4.7,5.84-7.79.51-1.55-1.85-2.14-2.41-.67l-.19.52a.82.82,0,0,0,.79,1Z" style="fill:#a7a9ac"/><path d="M195.46,189.35c-3.43-6.23,8.08-13.81,12-17.28,1.48-1.3-.43-3.65-2.08-2.69-4.92,2.88-22.3,16.31-12,22a1.51,1.51,0,0,0,2.06-2.05Z" style="fill:#a7a9ac"/><path d="M202.43,181.12a50.93,50.93,0,0,0,5-2.49c1.43-.88,3.27-2.64,4.92-3a2.25,2.25,0,0,0,1.34-3.29,5.9,5.9,0,0,0-1.49-1.5c-2.22-1.6-4.43,1.76-2.79,3.61a4.32,4.32,0,0,0,1.22,1l-.81-3.06c-.78,1.54-3.29,2.89-4.63,3.89s-2.6,2.26-3.94,3.35c-.9.73.25,1.94,1.16,1.51Z" style="fill:#a7a9ac"/><path d="M144.09,162.6c4-7.38,10.3-12.8,14.71-19.85l-1.94-1.14a131.86,131.86,0,0,0-8.51,21.8l3-1.22a17.86,17.86,0,0,1-3.07-2.33l.56,2.09c.87-3.31,4-7,5.87-9.86,1.14-1.69-1.47-3.72-2.83-2.19-2.47,2.76-6.47,6.9-7.14,10.67-.49,2.78,2.62,3.85,4.56,5.13a2,2,0,0,0,3-1.21c1.83-7.48,4.19-14.73,6.65-22,.41-1.19-1.54-2-2-.87-3.28,7.48-10.37,12.84-14.39,20-.59,1,1.05,2,1.62.95Z" style="fill:#a7a9ac"/><path d="M155.88,168.29c12.67-14.38,20.45-33.35,28.22-50.64.9-2-2-3.78-3-1.75-4.29,8.75-8,17.78-12.39,26.46-4.34,8.48-10.76,15.75-14.87,24.36-.58,1.24,1,2.74,2,1.57Z" style="fill:#a7a9ac"/><path d="M160.79,160.36c-3.16.53-3,4.88-5.33,6.35a1.87,1.87,0,0,0,1.89,3.23,7.63,7.63,0,0,0,3.12-3.69c.34-.73.57-1.51.91-2.24a15.76,15.76,0,0,0,1-2.09,1.29,1.29,0,0,0-1.56-1.56Z" style="fill:#a7a9ac"/><path d="M114.28,190.37c1-1.78,1.63-3.28,3.39-4.46l-3-1.21c.39,2-.8,3.73-1.46,5.49-.73,1.95,2.06,3.37,3.4,2a31.33,31.33,0,0,0,5.14-6.07c1.07-1.94-1.71-4.35-3.2-2.47a36.62,36.62,0,0,1-4.82,5.66l3.2,2.47c1.5-2.35,2.42-5.41,1.65-8.14a2.06,2.06,0,0,0-3.39-.9c-2.11,1.64-3.7,4.64-3.2,7.36a1.26,1.26,0,0,0,2.27.29Z" style="fill:#a7a9ac"/><path d="M126.62,195.36a9.23,9.23,0,0,0,1.29-1.36c.18-.28.68-1.6,1-1.67l-1.53-.2c.07,0,0,.43-.22.65-1.34,1.46,0,4.55,2.14,3.66,1.48-.6,3.23-.26,4.67-1a3.89,3.89,0,0,0,2-3.4c.1-2.74-4.45-2.36-3.82.51.5-.69.46-.91-.14-.65a4.62,4.62,0,0,1-.63.11,8.74,8.74,0,0,1-2.08.24l1,3.67c1.75-1.84,2.14-5.3-.06-7a2.2,2.2,0,0,0-2.58-.33c-2.14,1.32-1,4-2.16,5.9a.75.75,0,0,0,1.18.91Z" style="fill:#a7a9ac"/><path d="M101.21,183.45c0-1,1.39-1.42,1.75-2.26.2-.49.07-.56.25-.75a4.44,4.44,0,0,1,1-.52c1.4-.66,2.79-1.09,3.53-2.59l-2.63.69.28.13-.87-1.13c.12.35-1.88,2.82-2.18,3.24-.85,1.16-1.78,2.25-2.66,3.39-1.23,1.61.8,3.48,2.41,3.14,3.94-.85,6.55-5.23,8.68-8.31,1.46-2.11-2-4.14-3.44-2s-3.56,5.75-6.37,6.21l2.08,3.57a37.31,37.31,0,0,0,4.15-6.33c.91-1.68,2-4-.14-5.2a1.94,1.94,0,0,0-2.62.69c-.31.53-1.33.73-1.85,1a3.48,3.48,0,0,0-1.9,1.85c-.38.89-.34,1.85-.77,2.73a4.06,4.06,0,0,0-.78,2.48,1,1,0,0,0,2.06,0Z" style="fill:#a7a9ac"/><path d="M104.85,184.06a5.48,5.48,0,0,0,.51,2.45,2.08,2.08,0,0,0,2,1.51c1.78-.18,2.58-1.27,3.46-2.7s2-2.71,2.25-4.25a2.11,2.11,0,0,0-3.49-2,9.73,9.73,0,0,0-2,3c-.33.62-.7,1.77-1.27,2.18l2.49.32a6.31,6.31,0,0,0-2.42-1.61,1.22,1.22,0,0,0-1.52,1.15Z" style="fill:#a7a9ac"/><path d="M107.53,182.09a2.51,2.51,0,0,1-1.1,1.19s-.52.12-.32.08l-.31,0a4.93,4.93,0,0,0-1.84.49,2.09,2.09,0,0,0-.95,2.35,2.16,2.16,0,0,0,2,1.53c1.43.14,2.62-1,3.38-2.06a8.34,8.34,0,0,0,1.44-2.63,1.27,1.27,0,0,0-2.31-1Z" style="fill:#a7a9ac"/><path d="M92,179.15c2.27-.81,4.54-1.62,6.79-2.49,1.88-.73,4.1-1.19,5.53-2.67a1.31,1.31,0,0,0-.92-2.2c-2.15-.1-4.35,1.26-6.32,2.06s-4.14,1.75-6.2,2.64c-1.5.66-.43,3.21,1.12,2.66Z" style="fill:#a7a9ac"/><path d="M163.44,125.08a.24.24,0,0,0,0-.47.24.24,0,0,0,0,.47Z" style="fill:#a7a9ac"/><path d="M164,123.77a47.78,47.78,0,0,0,4-5.41c.55-1,1-1.94,1.47-2.94A3.54,3.54,0,0,1,172,113a1.44,1.44,0,0,0,.63-2.39c-2.13-1.74-4.43-.09-5.35,2.15-1.42,3.51-1.88,7.37-3.49,10.83-.06.14.11.31.22.17Z" style="fill:#a7a9ac"/><path d="M173.46,117.3a5.8,5.8,0,0,1,.95-1.44,4.36,4.36,0,0,1,.55-.41,3.8,3.8,0,0,0,1-1,1.65,1.65,0,0,0-.25-2,1.69,1.69,0,0,0-2-.25,4.85,4.85,0,0,0-1.58,2,15.84,15.84,0,0,0-1,2.06c-.52,1.34,1.66,2.23,2.32,1Z" style="fill:#a7a9ac"/></g><path d="M97.86,155.4c-3-6.6,1.06-16.13,4.68-21.72,3.29-5.08,7-9.63,9.43-15.27,4-9.36,5.45-23,.4-32.25-1.15-2.1-5-1.27-4.72,1.28.65,6.46,2.18,12.32,1.12,18.9a45,45,0,0,1-6.92,17.59c-3.13,4.77-6.72,9.28-8.34,14.85-1.77,6.15,0,11.48.68,17.61a2,2,0,1,0,3.67-1Z" style="fill:#f15a29"/><path d="M109.73,88.92c4,1.75,6.1,4.82,7.27,9,1,3.47-.27,6.93.66,10.3a2.56,2.56,0,0,0,4.63.6c4.11-6.65-3.08-23.48-11.87-22.41-1.15.14-2.08,1.92-.69,2.53Z" style="fill:#f15a29"/><path d="M124,107c.37-8.55-.46-17.23.3-25.75.82-9,5-15.36,11.6-21.25,1.42-1.27-.39-3.25-1.93-2.5-18.39,9-15.78,32.62-14.84,49.5a2.44,2.44,0,0,0,4.87,0Z" style="fill:#f15a29"/><path d="M133.37,58.3C126.64,64.05,126,75,129.92,82.48c4.22,8.1,12.8,9.43,21.13,7.38,8.83-2.18,15.39-8.87,15.73-18.2.2-5.52-1.71-10.94-3.69-16-2.53-6.49-4.19-12-4.23-19a2.18,2.18,0,0,0-4-1.09c-8.57,14.12,12.78,31.24,1.43,44-4.23,4.74-14.83,8.63-19.81,3.23-6-6.48-4.25-15.71-1-22.83a1.36,1.36,0,0,0-2.13-1.65Z" style="fill:#f15a29"/><path d="M156,36.47c-2,10.83,5.83,23.79,12.15,32,3.81,4.94,9.32,8.92,12.56,14.22,3.8,6.22,1.42,12.59.78,19.24-.39,4,5.27,4.88,7.16,1.94,3.46-5.34,3.87-12.63,2.22-18.72s-5.81-10.43-10.29-14.66A67.1,67.1,0,0,1,168,54.56c-3.31-5.89-4.77-12.94-8.42-18.55-.83-1.26-3.2-1.27-3.52.46Z" style="fill:#f15a29"/><path d="M182.82,101.63a16.18,16.18,0,0,1-2,1.47l4.62,2.65c.59-5.33-2.89-13.6-6.72-17.43A14.67,14.67,0,0,0,172,84.79c-1.46-.41-3.05-.56-4.47-1.11s-2.35-1.36-3.81-1.67A3,3,0,0,0,160,85.7c1,5.1,7.21,5,11.11,6.55,5.31,2.06,6.57,10.36,8.57,15,.93,2.2,4.25,1.81,5.3,0a6.64,6.64,0,0,0,1.17-4.28,2,2,0,0,0-3.36-1.39Z" style="fill:#f15a29"/><path d="M162.2,81.64c-3.42,10.73-16.71,7.27-22.61,15.42-2.74,3.78-3.21,8.72-3.76,13.23-.7,5.69-1.73,11.91-.73,17.59.65,3.69,5.61,2.29,6-.81.68-5.52-.05-11.2.58-16.78.34-3,.6-7.11,2.36-9.74,1.53-2.29,4.12-3.23,6.62-4,7.81-2.47,13.7-5.56,14.87-14.44.26-2-2.76-2.18-3.31-.45Z" style="fill:#f15a29"/><path d="M137.49,103.26c-2.42,5.57-4.66,11.23-4.16,17.43.39,4.76,7.41,14.39,3.27,18.09L142,140.2a112.92,112.92,0,0,0-6.49-16.51A29,29,0,0,0,132,118c-1.62-2-4.17-3.18-4.88-5.67-1.53-5.32,1.38-12.84,2-18.22.84-6.85-1.13-14.45.75-21l-6.24-.84c-.64,7.88-2.1,16-1.69,23.9.37,7.19,2.89,13.51,5.45,20.13,1.93,5,10.86,4.93,10.2-1.38a74.24,74.24,0,0,1,.26-18.12c.74-5.58.6-10.46-2-15.54-3.13-6.11-11.18-1.51-10.26,4.32A123,123,0,0,1,127,104.22c0,5,7.34,7.4,9.79,2.65a34,34,0,0,1,4-6.71c1.66-1.93,3.72-2.8,5.84-4.09,3.79-2.29,8-3.18,12.06-5,8.51-3.91,11.79-12.12,13.37-20.81h-7.62a27.26,27.26,0,0,1,.17,10.42,4.45,4.45,0,0,0,4.23,5.55c3.05.09,5.17,1.39,5.9,4.47,1.27,5.28,10.19,4.3,9.68-1.31a25.63,25.63,0,0,0-7.8-16.69c-4.69-4.55-12,2.77-7.16,7.16a14.64,14.64,0,0,1,5.11,9.53l9.67-1.31c-2.13-7.35-9-11.9-16.57-10.47l5.56,4.23A47.76,47.76,0,0,0,172,68.12c-1.14-4.65-7.29-3.1-7.77,1-.5,4.36-1.09,10-4.63,13.15-3.26,2.84-8.5,3.57-12.64,4.19s-7.4,1.18-10.84,3.87c-3.76,3-6.19,7-8.42,11.19l9.78,2.65A174.27,174.27,0,0,0,136.6,84l-10.47,2.84c1.83,4.11.4,9.49.09,13.8a50.94,50.94,0,0,0,1.16,15.57l9.49-4c-3.37-5.92-6.34-12.12-7-19s-.15-14.07.09-21c.13-3.56-5.41-4.35-6.23-.85-1.61,6.84-1.29,13.5-2.17,20.39s-3.38,13.58-3,20.57c.31,6.16,3.65,6.84,7.46,10.62,4.75,4.7,7.45,12.9,9.77,19,.82,2.12,3.59,3.34,5.37,1.42,3.94-4.24,3.53-9.57,1.22-14.55-1.8-3.89-3.92-7-4.1-11.44s.74-8.82,1.63-13.07c.28-1.36-1.77-2.46-2.4-1Z" style="fill:#f15a29"/><path d="M180.42,90a51.12,51.12,0,0,1-.83,11.91c-.59,2.85-.82,5.6,1.59,7.67,1.25,1.08,3.58,1.52,4.77,0,4.65-5.91,5.77-15.18-.28-20.64a3.11,3.11,0,0,0-4.86,3.75c2.1,4.3,2.68,8.69-.16,12.81l4.62-1.21c.56.43.93-7.31.87-7.92A21.07,21.07,0,0,0,184.08,89c-.85-1.79-3.71-.88-3.66,1Z" style="fill:#f15a29"/><path d="M129.18,71.29c-.19,6.41.62,13.63,6.57,17.5,4.68,3,13.34,3.79,16.94-1.22a1.79,1.79,0,0,0-.64-2.44c-3.31-1.92-7.08-.27-10.66-1-5.12-1.09-9.62-7-8.8-12.35.38-2.5-3.33-3-3.41-.46Z" style="fill:#f15a29"/><path d="M133.06,127.3c-1-4.94-5.26-10.38-10.66-10.76s-9.1,5.85-11.77,9.77c-4,5.92-5.95,12.75-9.45,19-3,5.39-5.46,10.89-3.36,17.07L103.5,160c-3.37-6.87-1.84-14.57,1.77-21s9.3-10.88,13.79-16.61c3.72-4.74,4.11-10.88,4-16.72-.08-5.23-.73-11.76-6.14-13.94a2.59,2.59,0,0,0-3.17,1.8c-.49,2.88.53,5.24.72,8.12a45,45,0,0,1-.7,9.9c-1.07,6.54-7.87,11.41-11.65,16.7-7.29,10.18-10.86,23.55-4,34.91,1.75,2.91,6.91,1,5.67-2.39-1.87-5.17,1.11-9.45,3.5-13.85,2-3.6,3.18-7.4,4.84-11.14s4.79-8.7,8.33-11.06,6.92,2.67,9.75,4.82c1.46,1.11,3.12-.71,2.83-2.17Z" style="fill:#f15a29"/><path d="M193.74,140.8c-1.51-5.16-2.23-12.55-.81-17.73,1.52-5.54,4.49-8.85,8.06-13.13.92-1.1-.6-2.68-1.59-1.59-2.14,2.34-3.71,5.1-5.65,7.61-1.78,2.28-3.42,4.14-4.24,7-.91,3.13-.86,6.4-.95,9.62-.1,3.54-.54,6.77,1,10,1.12,2.37,4.93.69,4.2-1.77Z" style="fill:#f15a29"/><path d="M205.58,91.54a.19.19,0,0,0,0-.37.19.19,0,1,0,0,.37Z" style="fill:#f15a29"/><path d="M191.8,123.75c2.45-7,7.69-11.41,12.2-17.08,3.21-4,5.51-9.43,3.71-14.53-.35-1-1.94-1.18-2.17,0-1.54,7.58-6,12.06-10.51,18-3,3.92-5.64,8.29-5.17,13.37a1,1,0,0,0,1.94.26Z" style="fill:#f15a29"/><path d="M206.46,86c-2.75,8.42,5,17.18,8.54,24.11,5.39,10.66,3.49,23-.64,33.73l2.41.33c.28-3.48,2.06-6.53,2.41-10a19.09,19.09,0,0,0-.93-8.45c-2.12-5.64-8.23-8.35-5.58-15.25,1.49-3.88-3.29-6.21-6.3-4.84-14.6,6.63-20.62,21.22-18.39,36.8.47,3.29,5.91,3.15,6.51,0,1.17-6.14.73-12.52,3.41-18.34a19.63,19.63,0,0,1,11.78-10.62l-4.85-6.3c-3,5.47-3.12,12,1,17,2.15,2.61,5.57,3.65,7.31,6.62a17.7,17.7,0,0,1,1.24,13.07c-.44,1.3,1.64,2.2,2.24.94,5.06-10.51,9.64-20.3,5.61-32.07-1.78-5.22-5-9.6-7.76-14.33-1.63-2.85-3-5.77-4.48-8.71-.65-1.32-1.38-3.23-2.75-4a.53.53,0,0,0-.76.31Z" style="fill:#f15a29"/><path d="M202.67,114.31c4.88-2.66,11.53-5.27,9.85-12.07l-6.69,3.9c1.42,1.12,1.08,3.09,1.54,4.67.58,2,1.8,3.58,2.71,5.4,1.95,3.91.77,8.46,3,12.31a3.56,3.56,0,0,0,6.43-.84c1.48-4.63.22-11.46-2.21-15.69s-2.44-9.27-6.61-12.14c-3.69-2.53-6.88,2.23-5.48,5.48,0,0-4.74,5.32-5.08,5.67a2.11,2.11,0,0,0,2.55,3.31Z" style="fill:#f15a29"/><path d="M212.85,102.74c-.37-1.28.39-1.91.74-3.09a4.15,4.15,0,0,0-1-4.15,3.76,3.76,0,0,0-5,0,3.14,3.14,0,0,0,.42,5,2.67,2.67,0,0,0,2.65,0l.33-.17c-1.32.43-2.19.15-2.63-.84-.15,0-.22.53-.27.81a6.92,6.92,0,0,0,.31,3.66,2.42,2.42,0,0,0,2.88,1.64,2.38,2.38,0,0,0,1.64-2.89Z" style="fill:#f15a29"/><path d="M214.28,163.08c5.36-3.92,10.83-8.09,12.83-14.79l-6-.8c0,2.36-.07,4.73,0,7.09.07,1.53,1,5.07.3,6.5l2-1.55c1.41-.35-.74-.42-1.25-.53a14,14,0,0,0-3.23-.29,13.68,13.68,0,0,0-5.75,1.47c-3.26,1.58-1,7.19,2.49,5.91a9.84,9.84,0,0,1,3.73-.84c1.28,0,2.22.68,3.43.91a4.21,4.21,0,0,0,4.72-2.22c1.08-2.12.78-4.71.63-7-.2-3.18-.68-6.29-1.06-9.45s-5.09-4.42-6-.81a19.28,19.28,0,0,1-4,7.4c-.86,1.08-1.8,2.09-2.65,3.17s-1.51,2.56-2.35,3.85.8,2.85,2,2Z" style="fill:#f15a29"/><path d="M222.32,160.56a8.22,8.22,0,0,1,1.36-3,2.86,2.86,0,1,0-5.23-2.2,8.46,8.46,0,0,0-.21,3c.11.77.09,1.49.14,2.26a2,2,0,0,0,3.94,0Z" style="fill:#f15a29"/><path d="M198,63.46c0-1,.63-2.07.75-3.07a13.67,13.67,0,0,1,.6-2.81l-.72,1.23c.26-.23.51-.46.75-.71l-5.53-2.29a6.06,6.06,0,0,0,.57,2.51,9.84,9.84,0,0,1,.9,1.6c.13.61-.43,1.33-.86,1.88a3.39,3.39,0,0,0,0,4.64,3.31,3.31,0,0,0,4.64,0c1.49-1.69,2.93-3.6,3.1-5.94a6.06,6.06,0,0,0-.62-3.18,8.94,8.94,0,0,0-.75-1.17c-.2-.27-.6-1.26-.5-.34a3.34,3.34,0,0,0-3.24-3.24,3.29,3.29,0,0,0-3.24,3.24,38.48,38.48,0,0,1-.72,3.92c-.22,1.71.54,2.7.91,4.27.54,2.22,4,1.73,4-.54Z" style="fill:#f15a29"/><path d="M137.08,32.53c-.14.35-.29.7-.4,1.06a3.69,3.69,0,0,0,.08,1.92,2,2,0,0,0,3.6.47,3.67,3.67,0,0,0,.59-1.82c0-.37-.06-.75-.1-1.12a1.92,1.92,0,0,0-3.77-.51Z" style="fill:#f15a29"/><path d="M119.41,93.82c.56-2.86-1.64-4.8-3.12-7.06a20.37,20.37,0,0,0-5.54-5.64c-2.13-1.48-4.5,1.34-3.38,3.38a38,38,0,0,1,3,7.29c.72,2.39.82,4.88,1.61,7.25A1.61,1.61,0,0,0,115,99c2.22-5.44-.36-12.43-3.4-17l-2.79,3.63a9.29,9.29,0,0,1,4.76,4.74c.86,1.9.66,3.58,2.71,4.71a2.12,2.12,0,0,0,3.09-1.26Z" style="fill:#f15a29"/><path d="M112.45,87.64a3.1,3.1,0,0,0-.23-2.12l-.38-.48q.15.17,0,0c-.18-.29-.38-.54-.58-.82.14.2-.05-.07-.08-.12a6.16,6.16,0,0,1-.33-.55,4,4,0,0,1-.4-1l-3.77,1.59c.7,1.06,1.6,2.7,3.14,2s1-2.4.63-3.62c-.62-2.19-4.13-1.82-4,.55a10,10,0,0,0,.82,3.61c.55,1.27,1.76,2.64,3.28,2.45.8-.11,1.8-.55,2-1.48Z" style="fill:#f15a29"/><path d="M96.13,135.13c-3.77,4.12-6.18,9.36-5.25,15.06,1,6,8.91,11.59,7.88,17.78-.39,2.31,2.66,4,4,1.68,4.15-7.13-.13-13.3.93-21,.25-1.86-1.88-3.66-3.45-2-6,6.37,2.28,14.25-1.25,20.78l4,1.68c.72-5.25-.66-8.36-3.43-12.87-3.87-6.29-3.79-12.48-.9-19.2.65-1.53-1.17-3.39-2.51-1.93Z" style="fill:#f15a29"/><path d="M129.75,129.63c-.5,3,1.2,5.77,1.95,8.62,1.3,5,.47,8.7-.54,13.57-.51,2.45,2.8,4.06,4.15,1.75,3.23-5.49,7.9-11.22,7.54-17.93-.15-2.9-1.21-5.57-2.14-8.28-1.39-4-2-8.33-3.5-12.33a2.26,2.26,0,0,0-4.42.6c-.61,5.64,1.72,10.94,3.91,16,.71,1.67,1.83,3.68,1.79,5.53s-1.6,4.26-2.59,5.9c-1.61,2.68-3,5.46-4.51,8.19l4.15,1.75c1.89-5.74,2.07-21.21-5-23.81a.61.61,0,0,0-.75.42Z" style="fill:#f15a29"/><path d="M115.49,126.89a7.33,7.33,0,0,1,5.85-1.46c2.25.33,4,2.1,5.58,3.76,3.18,3.39,3.15,7.46,5,11.43,1.14,2.5,4.54,1,4.72-1.27.55-7.17-4-13.4-9.69-17.13-4-2.62-12-2.54-14.23,2.51a1.79,1.79,0,0,0,2.8,2.16Z" style="fill:#f15a29"/><path d="M145.49,93.87l.19.08-.77-.33a4.33,4.33,0,0,0,4.89-.81l.38-.39A3.11,3.11,0,0,0,148,87.14h-.72a3.71,3.71,0,0,0-1.44.34,3.83,3.83,0,0,0-2.4,2.51l.32-.78-.08.2a2.94,2.94,0,0,0-.42,1.53,2.28,2.28,0,0,0,.27,1.18,2.24,2.24,0,0,0,.63,1,2.94,2.94,0,0,0,1.34.78Z" style="fill:#f15a29"/><path d="M147.66,97c9.17-2.45,25.5-6.77,30.38,5A4.44,4.44,0,0,0,182.1,105a3.84,3.84,0,0,0,3-1.23,4.28,4.28,0,0,0,.66-5.11c-3.29-6.28-9.58-10.09-16.52-11.05-8.72-1.2-15.77,2-22.58,7a1.32,1.32,0,0,0,1,2.4Z" style="fill:#f15a29"/><path d="M98.15,151.49a7,7,0,0,1-.66-2.29c0-.32.1-.64.1-1a5,5,0,0,0-.33-1.49c-.37-1.2-2.3-1.7-2.91-.38a4.57,4.57,0,0,0-.53,1.69,6.67,6.67,0,0,0,.25,1.6,16,16,0,0,0,.83,3.2,1.77,1.77,0,1,0,3.25-1.37Z" style="fill:#fbb040"/><path d="M97.85,147.35c.11-1,.24-2.1.32-3.16.07-.88-1.42-1.1-1.56-.21-.18,1.12-.31,2.25-.45,3.37s1.57,1.08,1.69,0Z" style="fill:#fbb040"/><path d="M96.15,149.71c-.88-5.29,3.64-9.11,6.84-12.51a30.88,30.88,0,0,0,6.57-9.42L107,126.69c-3,5.9-6.81,11.55-9.46,17.59-2.06,4.7-1.15,8.4,1.57,12.48l1.15-.67a17.41,17.41,0,0,1-2.34-7.8,1.5,1.5,0,0,0-3,0c-.34,3.84,0,8.52,4.76,8.8a.68.68,0,0,0,.65-.84c-1.73-10,4.65-19.76,9.12-28.13.72-1.35-1.16-3-2.23-1.71-2.06,2.54-3.75,5.33-6,7.75a69.21,69.21,0,0,0-5.36,5.74c-2.48,3.44-3,6.68-.69,10.22a.54.54,0,0,0,1-.41Z" style="fill:#fbb040"/><path d="M118.6,115.48a15.77,15.77,0,0,1,10,3.94c.86.73,2.43.06,2-1.19l.24-2-2.27.29c2.86,3.38,4.46,6.28,4.43,10.79a1.29,1.29,0,0,0,2.53.34c3.43-11-3.6-22.38,4.93-32.24a1.43,1.43,0,0,0-2-2,19.56,19.56,0,0,0-5.94,12.21c-.83,6.5,3.3,15.21.68,21.06l2.39.65c.41-4.91-1.76-9.27-5-12.83a1.46,1.46,0,0,0-2.28.29,3.82,3.82,0,0,0,0,4.41l1.91-1.48a13.51,13.51,0,0,0-11.89-3.46c-.73.12-.52,1.22.16,1.25Z" style="fill:#fbb040"/><path d="M138.94,92.83c-3.57,1.21-7,1.25-10.13-1.22-1-.76-2.75-.39-2.66,1.1.32,5.33-1.55,8.8-4.87,12.75-2.16,2.58-2.41,5.41-4.1,8.29a1.52,1.52,0,0,0,1.3,2.26c3.81-.21,5.53.83,8.75,2.56a24,24,0,0,0,4.64,1.53,1.68,1.68,0,0,0,2.09-1.6,8.59,8.59,0,0,0-1.88-6.06c-2.1-2.37-5.46-1.75-8-3.7v3.4c4.66-4.25,8.57-9.09,8-15.73l-3.27,2.49a30,30,0,0,0,5.09.42l-2.19-3.82c-3.17,5.52-3.83,11.52-4,17.79l5-1.36a9.34,9.34,0,0,1-1-5.79c.2-1.81-1.81-2.78-3.28-2.5a10.23,10.23,0,0,0-4.11,1.71c-2.67,1.81-.22,6.13,2.56,4.37a4.8,4.8,0,0,1,2.93-1.08l-3.19-3.19a14.42,14.42,0,0,0,1.41,9.19c1.24,2.45,5,1.2,5-1.35.05-5.3.32-10.53,3-15.23a2.57,2.57,0,0,0-2.2-3.82,14.45,14.45,0,0,1-3.71-.33c-1.53-.27-3.4.69-3.27,2.5.37,5.34-2.6,8.83-6.22,12.33a2.45,2.45,0,0,0,.49,3.78c2.88,2.15,9.43,1.72,9.44,6l2.09-1.59c-2.61-.68-4.42-3.28-7-4.11s-5.11-.28-7.63.26l1.46,2.51c1.55-1.28,1.94-2.41,2.73-4.2,1.1-2.5,2.67-4.37,4.15-6.64a18.66,18.66,0,0,0,2.84-12l-2.34,1.34c3.87,2.9,8.74,3.49,12.92.92,1.1-.67.4-2.58-.9-2.14Z" style="fill:#fbb040"/><path d="M118.24,115.15c1.33.77,2.68.78,4.17,1.12a11.1,11.1,0,0,1,5.65,3.13c2.71,2.8,3.24,6.81,5.55,9.82.27.35,1,.41,1.07-.14.82-4.45-1.59-9.82-4.92-12.78-2.63-2.33-8.8-4.93-11.58-1.63a.31.31,0,0,0,.06.48Z" style="fill:#fbb040"/><path d="M132.37,125.18a7.89,7.89,0,0,0,1.16,2.77c.24.32.76,0,.76-.31a7.74,7.74,0,0,0-.83-2.76c-.27-.64-1.3-.41-1.09.3Z" style="fill:#fbb040"/><path d="M134.09,130.24l0,.74c0,.21.34.21.33,0l0-.74a.14.14,0,0,0-.28,0Z" style="fill:#fbb040"/><path d="M134.55,134.47l-.08.1a.2.2,0,0,0,0,.21.19.19,0,0,0,.17.11.18.18,0,0,0,.16-.09.2.2,0,0,0,0-.23l-.08-.1a.07.07,0,0,0-.1,0Z" style="fill:#fbb040"/><path d="M135,133.41c2.7-6.35-.91-15.35-5-20.36-1.14-1.41-3.47.42-2.5,1.93a40.36,40.36,0,0,1,4.8,9.18c1,3,1,6.17,2,9.16.1.28.59.43.73.09Z" style="fill:#fbb040"/><path d="M161.68,84.93c7.17-4.28,7.13-14,5.46-21.11l-2.66,1.12a39.43,39.43,0,0,0,8.28,9.51c5,4.06,4.68,9.58,6.86,15.12l2.88-1.22c-4.39-9.14-13.13-8.5-21.65-5.66l1.1,2.62c5.71-3.16,10.71-7.65,9.33-14.74L167.16,73c2.28,2.62,6.59,4.92,6.3,8.85L177.82,80c-2.74-2.93-7.4-4.94-11-2.53a2.23,2.23,0,0,0,1.11,4.11c2.5.28,4.39,0,6.33,2,1.61,1.68,4.22.31,4.35-1.8.36-5.81-4.47-8.47-7.91-12.33-1.64-1.84-4.86.09-4.12,2.39,1.57,4.93-2.37,8.32-6,11a1.43,1.43,0,0,0,1.1,2.61c5.26-1.24,15.64-3,18,4.12.64,1.91,3.7,1.08,3-.84-1.54-4.48-1.1-9.89-4.09-13.8-1.16-1.52-2.65-2.2-4.18-3.26-3.14-2.17-5.25-5.08-7.4-8.19a1.46,1.46,0,0,0-2.66,1.12c.93,3.59,1.64,7.62.79,11.32-.71,3.1-2.61,5-5,7.06-1.07.93.31,2.66,1.51,2Z" style="fill:#fbb040"/><path d="M125,79.28c.78-3.36,1-6.85,1.82-10.22l-1.22-.51a9.7,9.7,0,0,0-1.39,4.31c-.07,1.15,0,4.48,1,5.26.25.79.37.6.36-.56a5.74,5.74,0,0,0-.7.78,5.49,5.49,0,0,0-1,1.82,6.42,6.42,0,0,0-.13,4.28l2.69-1.13c-.93-2-.54-4.27-1-6.38a1.09,1.09,0,0,0-2.08,0c-.57,2.39.23,4.7.31,7.12,0,1.9,3,1.9,2.94,0s.43-2.73,1.48-4.26a2.48,2.48,0,0,0,.63-2c-.12-1.17-1.06-2.25-1.39-3.37a16.32,16.32,0,0,1-.47-5.57c0-.72-.89-.83-1.24-.34-2.19,3-3.42,7-2,10.73a.73.73,0,0,0,1.4,0Z" style="fill:#fbb040"/><path d="M196.78,117.57c3.89-6.24,11.78-8.22,12.9-16.32l-3-.4a25.64,25.64,0,0,0,3,9c2.13,4.06,6.54,9.68,3.22,14.26h2c-1.06-2.35-2.8-4.28-4-6.58a31.45,31.45,0,0,1-2.7-8.36,1.85,1.85,0,0,0-2.23-1.26,13.49,13.49,0,0,0-10.23,8c-.76,1.71,1.74,3.22,2.55,1.49a9.45,9.45,0,0,1,8.16-5.91l-1.75-1.33c.8,5.56,3.34,12.72,8.57,15.57a1.18,1.18,0,0,0,1.72-.7,16.48,16.48,0,0,0,.29-10.87c-1.57-4.8-5-8.53-5.74-13.66-.21-1.43-2.69-1.44-2.9,0-1,6.64-8.32,10.5-11.26,16.38a.73.73,0,0,0,1.26.74Z" style="fill:#fbb040"/><path d="M210.1,110.37a4.28,4.28,0,0,1-1-3.59l-3.47.45,3.45,8.17c1,2.3,1.54,5.09,3.23,6.95a1.22,1.22,0,0,0,1.91-.24c1.14-2.49-.17-4.63-1.17-7l-4.14-9.8c-.8-1.91-3.4-.69-3.54,1a7.68,7.68,0,0,0,2.49,6.36,1.6,1.6,0,0,0,2.26-2.26Z" style="fill:#fbb040"/><path d="M206.63,101c-2.62,3.23-5.63,6.07-8.24,9.26a14.86,14.86,0,0,0-3.71,8.61.66.66,0,0,0,1.22.33c1.8-3.71,3.42-6.93,6.32-9.95,2.22-2.3,4.29-4.64,5.27-7.74.15-.47-.53-.91-.86-.51Z" style="fill:#fbb040"/><path d="M197,115.39a15.51,15.51,0,0,0-3.7,8.86c0,.58.74.69,1,.28,2.13-3.18,3.47-7.91,6.46-10.36,2.73-2.24,6.09-1.69,9.11-3,1-.43.67-2-.3-2.27-3.26-.78-7.64,1-10.14,3.08-3.58,3-5.3,7.67-6.12,12.13l1.05.29a30.61,30.61,0,0,1,3.84-8.08c.5-.71-.67-1.63-1.21-.93Z" style="fill:#fbb040"/><path d="M216.86,162.24c1.12-1,2.25-2,3.37-3,.88-.79,2.07-2,2.1-3.28a.64.64,0,0,0-.8-.61c-1.1.32-2.05,1.58-2.78,2.4a12.41,12.41,0,0,1-3.34,2.64c-1.47.81.12,3.08,1.45,1.88Z" style="fill:#fbb040"/><path d="M220.93,156.12l.08,2.19,0,.73.53-.27c-.08-.07-.7.15-.82.17a12.56,12.56,0,0,0-3.88,1.28l1.76,2.28a5.63,5.63,0,0,0,2-2.53,1,1,0,0,0-.93-1.21,5.24,5.24,0,0,0-2.82,1.46,1.45,1.45,0,1,0,1.76,2.28,2.15,2.15,0,0,1,1.2-.6,12.79,12.79,0,0,1,1.35.25,2.88,2.88,0,0,0,2.37-.8c1.62-1.7-.24-4-1.09-5.64a.83.83,0,0,0-1.53.41Z" style="fill:#fbb040"/><path d="M216.12,160.77a3.29,3.29,0,0,0-.79-.3,1.44,1.44,0,0,0-1.79,1.37c-.29,2.21,2.44,2.65,3.89,1.74.94-.6,1.71-1.46,2.64-2.08s2-.82,2.89-1.38a1.11,1.11,0,0,0,0-1.9,4.1,4.1,0,0,0-3.84.23,11.36,11.36,0,0,0-1.88,1.09c-.25.18-.5.36-.73.55l-.54.49c-.31.17-.24.36.21.54v1.43a3.7,3.7,0,0,0,.32-.86.83.83,0,0,0-.38-.92Z" style="fill:#fbb040"/><path d="M215,162.29a17.87,17.87,0,0,0,4.94-4.09,56.54,56.54,0,0,0,3.3-5.64l-2.64-.71a20.49,20.49,0,0,0,0,5,7.21,7.21,0,0,0,.42,1.85,4.48,4.48,0,0,0,.42.85c.25.5.33.57.24.23-1,1.53,1.43,3.48,2.58,2a3.11,3.11,0,0,0,.26-3.74c-.94-1.85-.93-4.09-1.12-6.14a1.42,1.42,0,0,0-2.78-.38,18.14,18.14,0,0,1-3.12,5.62c-1.2,1.41-2.86,2.28-3.94,3.79-.6.85.57,1.94,1.41,1.41Z" style="fill:#fbb040"/></g></g></svg>