<svg xmlns="http://www.w3.org/2000/svg" viewBox="0 0 310.66 319.19"><g style="isolation:isolate"><g id="Layer_1" data-name="Layer 1"><path d="M239.51,236.18c0,25.77-37.74,46.67-84.29,46.67S70.94,262,70.94,236.18V83.23H239.51Z" style="fill:#012251;stroke:#000;stroke-linecap:round;stroke-linejoin:round;stroke-width:7px"/><ellipse cx="155.22" cy="83.23" rx="84.28" ry="46.67" style="fill:#007b7b;stroke:#000;stroke-linecap:round;stroke-linejoin:round;stroke-width:7px"/><ellipse cx="155.22" cy="83.23" rx="68.86" ry="30.39" style="fill:#052460;stroke:#000;stroke-linecap:round;stroke-linejoin:round;stroke-width:5px"/><path d="M239.51,133.23c0,25.77-37.74,46.67-84.29,46.67S70.94,159,70.94,133.23" style="fill:none;stroke:#000;stroke-linecap:round;stroke-linejoin:round;stroke-width:5px"/><path d="M239.51,183.23c0,25.77-37.74,46.67-84.29,46.67S70.94,209,70.94,183.23" style="fill:none;stroke:#000;stroke-linecap:round;stroke-linejoin:round;stroke-width:5px"/><path d="M200.83,201.46a45,45,0,1,1-45-45A44.9,44.9,0,0,1,200.83,201.46Zm-3.83-.08a41.13,41.13,0,1,0-41.14,41.21A41,41,0,0,0,197,201.38Z"/><path d="M197,201.38a41.13,41.13,0,1,1-41.22-41.07A41,41,0,0,1,197,201.38Zm-79.08-1.5.17,0c0,.34,0,.69-.06,1a.71.71,0,0,0,.85.82c.3,0,.61,0,.91,0H141.5c.73,0,.79-.17.9-.88a20.51,20.51,0,0,1,.81-3.92,16.44,16.44,0,0,1,2-3.59,10.58,10.58,0,0,1,3.26-3c.61-.38.73-.6.38-1.25s-.84-1.5-1.27-2.24l-2.41-4.17-2.91-5.13c-1-1.78-2-3.54-3-5.31-.56-1-1.09-1.93-1.65-2.89a.71.71,0,0,0-1.11-.24c-.29.18-.57.38-.85.58-1.39,1-2.84,1.89-4.13,3a33.28,33.28,0,0,0-7.51,8.7c-.94,1.61-1.82,3.26-2.68,4.91a28.5,28.5,0,0,0-2.42,7.23C118.42,195.58,118.22,197.74,117.92,199.88ZM182,201.71v0h10.94c.61,0,.94-.29.89-.85-.18-2-.32-4-.6-6.06a34,34,0,0,0-.89-3.68,20.65,20.65,0,0,0-.77-2.46,43.34,43.34,0,0,0-1.9-4.23,45.94,45.94,0,0,0-3-5,36.49,36.49,0,0,0-5.56-6.16,39.83,39.83,0,0,0-6-4.37c-.27-.17-.47-.14-.63.11-.26.4-.52.8-.76,1.21-.84,1.43-1.69,2.87-2.51,4.31-.95,1.64-1.87,3.29-2.8,4.93q-1.56,2.72-3.13,5.41c-.65,1.14-1.32,2.27-2,3.41a4.11,4.11,0,0,0-.54,1.24c-.09.6.57.63.89.93,0,0,0,0,0,0a38.37,38.37,0,0,1,3,3,13.45,13.45,0,0,1,1.73,3,14.75,14.75,0,0,1,1,4.47.79.79,0,0,0,.88.78c.42,0,.84-.06,1.26-.06Zm-26.28,37.93c1.76-.17,3.28-.35,4.8-.46a34.69,34.69,0,0,0,6.47-1.31,12.92,12.92,0,0,0,2-.7c1.73-.76,3.44-1.57,5.16-2.36a.72.72,0,0,0,.37-1.12c-.43-.74-.88-1.46-1.31-2.21-.79-1.37-1.56-2.76-2.35-4.13-.65-1.13-1.31-2.25-2-3.37s-1.18-2-1.76-3.08-1.24-2.2-1.87-3.29-1.33-2.07-1.84-3.17-1-.94-1.86-.56a11.56,11.56,0,0,1-1.91.77,13.75,13.75,0,0,1-7.34,0c-.8-.24-1.56-.6-2.35-.89-.4-.15-.83-.41-1.19.07-.18.25-.35.51-.5.77-1.14,2-2.26,4-3.41,6s-2.36,4-3.53,6c-1.35,2.35-2.68,4.71-4,7.06a.66.66,0,0,0,.29,1c.66.35,1.31.73,2,1,1.48.61,3,1.25,4.48,1.75a33.33,33.33,0,0,0,4.87,1.3C151.23,239.25,153.57,239.41,155.69,239.64Zm.2-29a9.06,9.06,0,1,0-.32-18.12,9.06,9.06,0,0,0,.32,18.12Z" style="fill:#fbb040"/><path d="M117.92,199.88c.3-2.14.5-4.3.94-6.41a28.5,28.5,0,0,1,2.42-7.23c.86-1.65,1.74-3.3,2.68-4.91a33.28,33.28,0,0,1,7.51-8.7c1.29-1.09,2.74-2,4.13-3,.28-.2.56-.4.85-.58a.71.71,0,0,1,1.11.24c.56,1,1.09,1.93,1.65,2.89,1,1.77,2,3.53,3,5.31l2.91,5.13,2.41,4.17c.43.74.87,1.48,1.27,2.24s.23.87-.38,1.25a10.58,10.58,0,0,0-3.26,3,16.44,16.44,0,0,0-2,3.59,20.51,20.51,0,0,0-.81,3.92c-.11.71-.17.87-.9.88H119.79c-.3,0-.61,0-.91,0a.71.71,0,0,1-.85-.82c0-.34,0-.69.06-1Z"/><path d="M182,201.71H171.6c-.42,0-.84.05-1.26.06a.79.79,0,0,1-.88-.78,14.75,14.75,0,0,0-1-4.47,13.45,13.45,0,0,0-1.73-3,38.37,38.37,0,0,0-3-3s0,0,0,0c-.32-.3-1-.33-.89-.93a4.11,4.11,0,0,1,.54-1.24c.65-1.14,1.32-2.27,2-3.41q1.58-2.7,3.13-5.41c.93-1.64,1.85-3.29,2.8-4.93.82-1.44,1.67-2.88,2.51-4.31.24-.41.5-.81.76-1.21.16-.25.36-.28.63-.11a39.83,39.83,0,0,1,6,4.37,36.49,36.49,0,0,1,5.56,6.16,45.94,45.94,0,0,1,3,5,43.34,43.34,0,0,1,1.9,4.23,20.65,20.65,0,0,1,.77,2.46,34,34,0,0,1,.89,3.68c.28,2,.42,4,.6,6.06,0,.56-.28.85-.89.85H182Z"/><path d="M155.69,239.64c-2.12-.23-4.46-.39-6.76-.78a33.33,33.33,0,0,1-4.87-1.3c-1.52-.5-3-1.14-4.48-1.75-.69-.29-1.34-.67-2-1a.66.66,0,0,1-.29-1c1.35-2.35,2.68-4.71,4-7.06,1.17-2,2.37-4,3.53-6s2.27-4,3.41-6c.15-.26.32-.52.5-.77.36-.48.79-.22,1.19-.07.79.29,1.55.65,2.35.89a13.75,13.75,0,0,0,7.34,0,11.56,11.56,0,0,0,1.91-.77c.82-.38,1.34-.59,1.86.56s1.22,2.11,1.84,3.17,1.24,2.19,1.87,3.29,1.17,2,1.76,3.08,1.31,2.24,2,3.37c.79,1.37,1.56,2.76,2.35,4.13.43.75.88,1.47,1.31,2.21a.72.72,0,0,1-.37,1.12c-1.72.79-3.43,1.6-5.16,2.36a12.92,12.92,0,0,1-2,.7,34.69,34.69,0,0,1-6.47,1.31C159,239.29,157.45,239.47,155.69,239.64Z"/><path d="M155.89,210.66A9.06,9.06,0,1,1,165,202,9,9,0,0,1,155.89,210.66Z"/><path d="M155.87,133.23V282.85s-84.29-4.15-84.29-46.67L74,94.24S104.54,131.4,155.87,133.23Z" style="fill:#a7a9ac;mix-blend-mode:multiply"/><path d="M155.34,54.57l-1.27,55.3s64.59,1.42,67.46-25S155.34,54.57,155.34,54.57Z" style="fill:#a7a9ac;mix-blend-mode:multiply"/></g></g></svg>