<svg id="Layer_1" data-name="Layer 1" xmlns="http://www.w3.org/2000/svg" viewBox="0 0 626.66 399.79"><polygon points="24.84 206.38 311.17 372.98 601.6 206.38 311.31 38.76 24.84 206.38" style="fill:#00776e"/><path d="M147,212.05a186.84,186.84,0,0,0-15.88-22.39q-4.47-5.26-9.26-10.23c-2.88-3-5.94-7.86-10.26-8.33-1.94-.22-3.19,2-2.78,3.65.59,2.39,2.21,3.21,4.05,4.69s3.57,2.91,5.29,4.45q4.92,4.44,9.56,9.17a257.74,257.74,0,0,1,18,20c.59.75,1.8-.21,1.31-1Z" style="fill:#014c48"/><path d="M152.42,200.14a109.87,109.87,0,0,1-4.28-14,102.3,102.3,0,0,1-2.67-14.32c-.52-4.7-.91-9.43-1-14.15,0-2.46,0-4.92.15-7.38.1-2.27.69-4.63-.77-6.56a2.63,2.63,0,0,0-4-.52c-2,1.86-1.75,4.52-1.83,7.08s0,4.92.08,7.38a91.3,91.3,0,0,0,1.88,14.9,108.08,108.08,0,0,0,4.28,14.64,113.3,113.3,0,0,0,6.56,13.64c.46.87,2,.26,1.62-.68Z" style="fill:#014c48"/><path d="M160.82,209.35c.28-5.51,1.9-10.73,3.82-15.88a50.54,50.54,0,0,1,3.27-7.19c1.34-2.37,3.1-4.45,4.18-6.95,1.33-3.07-2.2-6.49-4.92-3.79-4,3.94-6,10.74-7.27,16.1-1.34,5.86-1,11.78-.36,17.71a.64.64,0,0,0,1.28,0Z" style="fill:#014c48"/><path d="M129.78,190.39c-.34-1.77-2.26-2.51-3.88-2.92-2.09-.53-5-1-7.09-.38a8.68,8.68,0,0,0-5.22,4.66,11.43,11.43,0,0,0-1.19,3.15c-.25,1.49.07,3.09-.33,4.57-.31,1.16,1.51,2,2,.85.69-1.57,2.14-2.65,3.2-3.95a22.58,22.58,0,0,1,3.5-3.41c1.29-1,2.49-2.11,4.21-2.06,1.54,0,2.66.93,4.17.55a.87.87,0,0,0,.6-1.06Z" style="fill:#014c48"/><path d="M126.3,183.87c-.3-.82.37-1.71.57-2.47s.22-1.49.38-2.24a18.39,18.39,0,0,1,2.56-5.48c.88-1.4-1-2.65-2.17-1.68-2.18,1.85-4.48,4.33-5.46,7.1s.45,4.52,2.49,6a1.12,1.12,0,0,0,1.63-1.26Z" style="fill:#014c48"/><path d="M141.06,165.18a7.86,7.86,0,0,0-3.49-5.77,5.07,5.07,0,0,0-3.47-.4,38,38,0,0,1-4.88.56c-1.58.09-2.15,2.65-.39,2.94,2,.34,3.88.9,5.86,1.39a9.86,9.86,0,0,1,2.54.74c.82.44,1.5,1,2.37,1.38.61.26,1.53,0,1.46-.84Z" style="fill:#014c48"/><path d="M146.25,183a2.65,2.65,0,0,0,2.15-1.26,3.84,3.84,0,0,1,1.2-1A5.28,5.28,0,0,0,152,178c.11-.37,0-.86.2-1.18-.48.92-.12.67.33.46,1.45-.69.7-3-.8-2.94-.29,0-1.74,0-.73.2-.76-.17-1-.52-1.89-.5a4.59,4.59,0,0,0-3.87,2.62c-.89,1.81-2.19,6.1,1.06,6.31Z" style="fill:#014c48"/><path d="M162.82,197.38c1.59.11,3.22-.66,4.81-.9,2-.29,3.52-1.25,5.57-1.21,2.58,0,2.91-3.59.59-4.35s-5.67-1.43-8-.12c-1.9,1.07-4.17,3-4.15,5.39a1.21,1.21,0,0,0,1.19,1.19Z" style="fill:#014c48"/><path d="M161.77,214c1.21-.84,1.64-2.09,2.34-3.33a23.78,23.78,0,0,1,2.8-4.22c1-1.08-.27-2.93-1.61-2.09a10.13,10.13,0,0,0-4.16,4.53c-.67,1.63-1.15,3.59.12,5a.44.44,0,0,0,.51.07Z" style="fill:#014c48"/><path d="M140.27,214.66a30.83,30.83,0,0,0-4-3.69,25.64,25.64,0,0,0-4.73-2.67c-1.41-.59-2.41,1.49-1.43,2.45a25.05,25.05,0,0,0,4.07,3.11,30.41,30.41,0,0,0,4.95,2.23c.89.38,1.92-.65,1.11-1.43Z" style="fill:#014c48"/><path d="M153,210.93c.09-.33.2-.66.28-1a6.23,6.23,0,0,0,.1-1.36,1.72,1.72,0,0,0-3.44,0,5.67,5.67,0,0,0,.1,1.36c.09.33.19.66.28,1a1.41,1.41,0,0,0,2.68,0Z" style="fill:#014c48"/><path d="M167.25,218.87c1.23-1,2.31-2.18,3.64-3.06a34.05,34.05,0,0,0,4.07-2.63,1.84,1.84,0,0,0-1.29-3.12c-3.72.32-7.5,4.11-8.32,7.71a1.15,1.15,0,0,0,1.9,1.1Z" style="fill:#014c48"/><path d="M109.82,171c-2.61-2.58-5.28-6.75-9.26-7.2-3.45-.38-5.85,2.3-7.11,5.19-1.06,2.44-2.69,6.21,1,7,2,.44,4.49,0,6.55-.28a18.14,18.14,0,0,0,6.79-1.83,1.15,1.15,0,0,0-.57-2.12c-2.59-.05-5.13.69-7.66,1.16-.87.17-3.85,1.11-4.46.64-1.21-1,0-3.58.43-4.55,1.92-4,5.75-4.17,8.85-1.35,1.58,1.44,2.77,3.27,4.53,4.5.71.5,1.5-.59.91-1.17Z" style="fill:#fd1a16"/><path d="M106.76,172.13c-3.4,1.58-7.39,3.69-9.12,7.23-1.28,2.62-1.06,6,1.37,7.85,7.37,5.69,10.21-8.71,10.47-13l-1.68,1.27c2.86.45,5.48,1,7.43-1.44,1.77-2.18,3.63-5.16,3.25-8.1a3.16,3.16,0,0,0-4.47-2.73c-2.92,1.16-4.92,4.22-6.59,6.71-1,1.55,1.67,3.12,2.49,1.45a12.24,12.24,0,0,1,2.91-3.79c.35-.31,1.42-1.47,1.92-1.32s.19,1.11-.1,1.91a13.39,13.39,0,0,1-2.06,3.83,2,2,0,0,1-2.13,1c-.77,0-1.52-.11-2.3-.09a1.35,1.35,0,0,0-1.32,1.33,28,28,0,0,1-1.31,7.14c-.83,2.53-4.12,7.13-6,2.36s4.6-8.3,8.1-10.08c1-.52.13-2-.89-1.53Z" style="fill:#fd1a16"/><path d="M138.41,144.65c-3.8-1.66-8.19.59-12.19-1.36-3.38-1.64,1.88-1,3-.87,2.32.36,4.5,1.23,6.79,1.71,1.68.35,3-2.09,1.24-2.94-2.61-1.27-17.35-5.73-16.23,1.06.46,2.78,3.66,3.74,6,4.12,3.57.58,7.7.93,11.16-.35.53-.19.83-1.08.18-1.37Z" style="fill:#fd1a16"/><path d="M137.76,142.64c-1.07-3.65-1-10.18,2.18-13,2.51-2.21,2.94,1.31,2.68,2.93a24.82,24.82,0,0,1-.84,3.32c-.69,2.15-2,4-2.22,6.28a1.31,1.31,0,0,0,2,1.13c3.78-2.92,8.16-18.88-.65-18.26-3.62.25-6,4.73-6.69,7.82a12,12,0,0,0,2.37,10.45c.46.59,1.4-.05,1.21-.7Z" style="fill:#fd1a16"/><path d="M142.85,142.78c1.73-1.38,4-1.55,6.07-1.77,1-.1,5-1,5.72-.45,2.3,1.76-3.18,2.64-4.23,2.77a36.58,36.58,0,0,1-6.45.11c-2-.13-2,3.1,0,3.15,3.69.11,8.18.08,11.56-1.65,1.94-1,4.42-3.36,3-5.66-1.57-2.46-5.29-1.42-7.61-1.11-3.4.46-6.82.7-9.27,3.36a.88.88,0,0,0,1.25,1.25Z" style="fill:#fd1a16"/><path d="M137.36,144.93c-3.31.67-8.43,7.09-5.2,10.27,3.65,3.59,7.67-4.21,8.61-6.72l-2.69.36c2.31,3.73,8.2,7.24,12.64,4.88a3.47,3.47,0,0,0,1.38-4.67c-1.15-2.44-4.79-3.86-7.24-4.19-1.82-.25-3.21,2.12-1.35,3.19,1.17.67,2.42,1.2,3.58,1.88a7.56,7.56,0,0,1,1.49,1c.48-.67.18-.74-.91-.22-2.95-.4-5.18-.75-7-3.38a1.49,1.49,0,0,0-2.55,0,11.06,11.06,0,0,1-2.13,3.23l-1,.82q-1.63.67.45.84c.13-.05,1.05-2.5,1.23-2.77.66-1,1.51-1.68,2.13-2.67a1.29,1.29,0,0,0-1.44-1.87Z" style="fill:#fd1a16"/><path d="M169.65,176.27c1.28-1.11,2.82-2.64,4.62-2.8,1.43-.13.91.2.06,1.12a26.13,26.13,0,0,1-2.07,1.86,1.39,1.39,0,0,0,1,2.35,16.62,16.62,0,0,1,5,.76c.82.27,5,1.52,5,2.47-.05,1.51-4.17,1.11-4.94.86-2-.67-3.32-2.27-4.57-3.87-1-1.21-2.61-.3-3.06.81.66,1,1,1.07.91.31a7.07,7.07,0,0,1,.31-1.76,2.08,2.08,0,0,0-3.59-2.1c-1.35,2.07-2.05,6.25.63,7.64,2.49,1.3,4.45-1.1,5.27-3.12l-2.69,1.09c2.6,2,5.56,4,8.86,4.39,2.19.3,5.14-.31,5.73-2.82.54-2.27-1.68-3.48-3.3-4.5a21.19,21.19,0,0,0-9.6-2.92l1,2.36c1.13-1.27,5.19-5.33,2.52-6.9s-6.94,2-8,4.06a.58.58,0,0,0,.91.71Z" style="fill:#fd1a16"/><path d="M141.32,139.63c-.28-3.29,1.09-7.11,2.4-10.1l-5.23-2.21a41.17,41.17,0,0,0-2.8,11.83c0,.45-.47,2.33-.15,2.71,1-.48,1.14-.7.47-.65a10.38,10.38,0,0,1-2-.22c-2.36-.33-4.55-1.1-6.86-1.63-2.89-.65-5.11,3.69-2.13,5a23.73,23.73,0,0,0,6.73,2,18.42,18.42,0,0,0,3.93.1,14.28,14.28,0,0,1,2.74-.4c.78.35,1.51,2.72,2.2,3.47a5.89,5.89,0,0,0,4.26,2,3,3,0,0,0,2.1-5.06c-1.09-1-2.92-2.07-3.55-3.43l.27,2c-.37.32-.35.42.05.31a10.43,10.43,0,0,1,1.48,0c1,0,1.94,0,2.91-.09,2.13-.1,4.25-.31,6.37-.52,4.56-.45,3.67-7.19-.84-6.21a70.67,70.67,0,0,1-8.44,1.25c-1.84.18-3.74.24-5.22,1.5-3.69,3.15.55,7,2.78,9.38l2.88-5c.13.47.05.39-.25-.23l-.32-.53a18.65,18.65,0,0,0-1.24-1.68,6.17,6.17,0,0,0-3.54-2.31c-1.77-.43-3.38-.08-5.17,0a17.71,17.71,0,0,1-7.34-1.32l-2.13,5c3.14.55,6.17,1,9.27,1.77,2,.49,4.18.59,5.64-1.2s1-4.9,1.26-7.18a44.29,44.29,0,0,1,2.16-9.22c1.18-3.49-4.41-5-5.52-1.53-1.25,4-2.11,8.75-1,12.82.56,2.05,4,1.73,3.81-.51Z" style="fill:#fd1a16"/><path d="M105.48,172.05c.48-1.32-.28-2.28-1-3.32a10.42,10.42,0,0,0-3-2.87,2.8,2.8,0,0,0-2.81,0,7.81,7.81,0,0,0-3.68,5.22,2.93,2.93,0,0,0,2,3.55,37.82,37.82,0,0,0,3.81.63c1.22.14,2.38-.2,3.58-.14,2,.09,2.92-2.14,2.13-3.71a13.28,13.28,0,0,0-3.12-4,2.7,2.7,0,1,0-3.29,4.26,8.05,8.05,0,0,1,2.15,2.28l2.13-3.71a28.86,28.86,0,0,1-3.07-.63c-.94-.13-1.86-.29-2.79-.49l2,3.54a4,4,0,0,1,1.49-2.38l-2.71.71c1.23.47,2.5.79,3.68,1.37.71.35,2.15.8,2.53-.26Z" style="fill:#fd1a16"/><path d="M110.43,172.05a39.74,39.74,0,0,0,5.32-2.51l-2.32-3a11,11,0,0,1-6.24,4.09l2.81,1.15c-1.54-2.21-3.29-4.57-5.65-5.95a2.75,2.75,0,0,0-3.32,4.31c1.62,1.63,3.51,2.91,5.07,4.65a2.42,2.42,0,0,0,2.41.63,13.67,13.67,0,0,0,7.93-6.56c1.09-2.23-2.33-4.16-3.3-1.93a13.86,13.86,0,0,1-3.06,4.52c-.24.23,0,.73.35.6Z" style="fill:#fd1a16"/><path d="M106,174.74c-3.69.84-6.3,4.44-7.42,7.86a2.88,2.88,0,0,0,.74,2.79c1.91,2.06,4.92,1.39,6.66-.51a6,6,0,0,0,1.5-3.58,11.11,11.11,0,0,0,0-1.73,8.74,8.74,0,0,1-.16-1.67,2.68,2.68,0,0,0-4.87-2.05,6.48,6.48,0,0,0-1.15,4c0,.26-.12,1.11,0,1.29-.6-.79,2.69.52,1.44-.21l1.42,2.47c.06-2.63,1.45-4.45,3.11-6.35a1.37,1.37,0,0,0-1.33-2.27Z" style="fill:#fd1a16"/><path d="M174,180c1.7.88,3.89,1.55,5.06,3.16l1.87-3.26a4.83,4.83,0,0,1-4.57-4.81c-.07-2.34-3.16-3.94-4.88-2a12.83,12.83,0,0,0-2.65,4.49l4.09-1.67a28.46,28.46,0,0,0-9.84-3.08c-2.81-.34-3.6,3.35-2.11,5.08a11.71,11.71,0,0,0,7.8,3.9c3.1.42,3.64-4.61.72-5.39a8.51,8.51,0,0,1-4.31-2.72l-2.1,5.08a16.78,16.78,0,0,1,7,1.95,2.85,2.85,0,0,0,4.1-1.67,4.5,4.5,0,0,1,1.31-1.93l-4.87-2a9.21,9.21,0,0,0,10.86,9.07c2.25-.44,1.87-3.55,0-4.18-2.49-.84-4.85-1.69-7.42-.69a.39.39,0,0,0-.09.71Z" style="fill:#fd1a16"/><path d="M102.86,173.22a1.64,1.64,0,0,0-.84-.8l-.27-.1c-.35-.19-.38-.11-.11.24s.24.45.11-.13a.73.73,0,0,0-.21-.45,3.32,3.32,0,0,1-.41-1.43,5,5,0,0,1,.21-1l.11-.39c.12-.37.1-.35,0,.06l-1,.57c-.45-.1-.53-.09-.24.05l.48.29a5.51,5.51,0,0,1,.73.54,11.81,11.81,0,0,1,1.54,1.62l1-3.93a6.82,6.82,0,0,0-3.51,1.42c-1.86,1.68.62,5,2.71,3.52l.62-.44c1.19-.85,1.36-3.27-.46-3.55l-.69-.1-.6,4.4a11.51,11.51,0,0,0,3.19-.72,2.37,2.37,0,0,0,1-3.93,12.73,12.73,0,0,0-4.3-3.22,3.26,3.26,0,0,0-4.75,2.46c-.42,1.86-.64,4.27,1,5.67a2.61,2.61,0,0,0,2.57.65c.58-.2,1.29-.84,1.89-.87a.28.28,0,0,0,.24-.42Z" style="fill:#910311"/><path d="M108.67,171.38c1.77-.24,3.18-1.83,5-1.89l-1.69-1.7c-.16,1.58-2.29.91-3.32,1.15a2.57,2.57,0,0,0,.33,5.11c3.35.25,8.32-3.41,6.15-7.11a1.74,1.74,0,0,0-2.32-.61c-1.86.91-4.66,1.81-5.12,4.13a.76.76,0,0,0,.93.92Z" style="fill:#910311"/><path d="M102.18,176.56a2.91,2.91,0,0,1,.41,3,2.1,2.1,0,1,0,3.85,1.62,15.3,15.3,0,0,0,1.35-6.69,1.88,1.88,0,0,0-1.61-1.82,1.84,1.84,0,0,0-2,1.33,14.71,14.71,0,0,1-1.55,5.56l3.85,1.62a5.84,5.84,0,0,0-2.22-6.65c-1.18-.88-2.9.86-2,2.05Z" style="fill:#910311"/><path d="M138.19,140.76a16.89,16.89,0,0,1,.43-3.19,5.27,5.27,0,0,1,.66-1.4c.12-.16.33-.28.41-.44.26-.49.82.06-.21-.27l-1.1-.64.22.27L138,134a13.22,13.22,0,0,1-.17,3.25c-.07,1.27-.16,2.53-.25,3.8-.22,3.29,5.06,3.33,5.16,0,0-1.48.06-3,.12-4.43a12.17,12.17,0,0,0,0-4c-.8-2.54-3.67-2.59-5.54-1.29-3,2.06-4.65,8.22-.51,10,.52.22,1.37.12,1.47-.59Z" style="fill:#910311"/><path d="M142.63,143.36c1.71,0,3.35.19,5.07.08,1-.06,3.72-.71,4.66-.24l-.92-1.6,0,.39.55-1.32c-.43.37-3.09,0-3.69,0-1.39-.06-2.77-.2-4.14-.37-3.11-.4-3.3,5.08,0,5,2.2-.06,12.81.17,10.82-4.37-.75-1.72-3.23-1.62-4.75-1.4a33.05,33.05,0,0,0-7.84,2.24.84.84,0,0,0,.22,1.64Z" style="fill:#910311"/><path d="M172.46,177.47l-1.33.35a1.34,1.34,0,0,0,1.33-.35l.17-.16c.18-.18,0,0,0,0s.61-.45.66-.51-.25.17-.07.05l.2-.13.21-.12c.09-.05.07,0-.06,0a1.17,1.17,0,0,1-.41.1l-1-.26.08,0-.7-.7,0,.07-.26-1v.1a2,2,0,0,0,1.45,1.89A2,2,0,0,0,175,176l0,0a2,2,0,0,0-.31-2.4,2.13,2.13,0,0,0-2.56-.37,3.13,3.13,0,0,0-1,.8,4.2,4.2,0,0,0-.84,1.35,5.87,5.87,0,0,0-.21,1.17,1.38,1.38,0,0,0,2.34,1Z" style="fill:#910311"/><path d="M172.08,178.7a16.56,16.56,0,0,0,3,1.67c.53.29,1.06.6,1.57.93.26.17.51.34.75.52s.28.2-.07-.24v-1l-.07.23.5-.86-.18.15.88-.51c-.35.12-1.33-.33-1.73-.5a17.08,17.08,0,0,1-2.19-1.27c-2.37-1.43-5.22,2.05-3,3.92a9,9,0,0,0,5.26,2.11c1.57.1,3.77-.18,4.27-2,.54-2-1.19-2.84-2.69-3.42-1.68-.66-3.73-1.59-5.55-1.36-.74.09-1.41,1-.69,1.65Z" style="fill:#910311"/><path d="M105.45,170.33A4.65,4.65,0,0,0,103,171.9c-.68.66-1.53,1.41-1.45,2.44.17,2.39,3.43,1.84,4.78,1s3.73-2.84,2.58-4.8-4.92-1.33-4.65,1.13a1.68,1.68,0,0,0,2.5,1.44L107,173c.2-.13.18-.13-.07,0a.69.69,0,0,1-.86-.2c.42.28.5.36.23.22l-.43-.75c.08-.25,0-.27-.08-.06l-.21.22a7,7,0,0,1-.67.66,3,3,0,0,1-.73.49c-.44.18-.81-.15-.5.41.09.42.21.45.34.1.12-.16.24-.31.37-.46s.44-.52.64-.78a4.43,4.43,0,0,0,1-1.69c.07-.33-.16-.8-.58-.75Z" style="fill:#6464e2"/><path d="M141.64,140.39a6,6,0,0,0-6.58-.54,2.54,2.54,0,0,0-.95,3c.46,1.18,1.71,1.61,2.8,2.05,1.9.77,5.58,2.21,7.37.64,2.17-1.9-.19-4.77-2.08-5.7a2.18,2.18,0,1,0-1.69,4,1.63,1.63,0,0,1,.43.23c.36.44.39.37.08-.22l.6-1.45c.59-.19.68-.29.26-.29l-.49-.07c-.42-.07-.84-.15-1.25-.24a18.37,18.37,0,0,0-2.46-.68l-.49-.16.17,1.62a8.3,8.3,0,0,0,1.28-.26,21.56,21.56,0,0,0,2.55-.2,1,1,0,0,0,.45-1.71Z" style="fill:#6464e2"/><path d="M172.84,175.78a6.26,6.26,0,0,0-4.18-.72,2.44,2.44,0,0,0-.75,4.26,5.92,5.92,0,0,0,4.76,1.29,2.43,2.43,0,0,0,1.78-1.8,2.31,2.31,0,0,0-1.6-2.7,1.94,1.94,0,1,0-1,3.74l.13.05-.85-.5.09.11-.5-.85,0-.2.26-1,.08-.12.84-.5c-.32.13.13.09-.33,0a2,2,0,0,1-.55-.09c-.17,0-.36-.14-.53-.17-.44-.06-.11-.66-.32.61-.18,1.08-.33.71,0,.67s.47-.1.7-.14a13.49,13.49,0,0,1,1.54-.19c.87-.05,1.44-1.38.49-1.81Z" style="fill:#6464e2"/><path d="M278.33,121.42l0-4.33a.31.31,0,0,0-.61,0l0,4.33a.34.34,0,0,0,.67,0Z" style="fill:#014c48"/><path d="M276.78,105.46c-1.76-9.65-3.41-19.79-8.19-28.5-4.24-7.72-11.44-14.13-12.74-23.19-.28-1.88-3.54-1.46-3.34.45.91,8.89,6.79,15.18,11.34,22.46a104.36,104.36,0,0,1,12.29,28.95c.1.42.72.24.64-.17Z" style="fill:#014c48"/><path d="M282.31,38.06c-2.29,5.57-1.37,11.9-.91,17.73a115.54,115.54,0,0,1-.47,20.79c-1.37,13.79-4.57,27.25-3.36,41.19a2.87,2.87,0,1,0,5.66-.77c-1.9-13.15-.62-26.62.22-39.8a118.76,118.76,0,0,0-.09-19.69c-.66-6.59-1.72-12.74-.7-19.35a.18.18,0,0,0-.35-.1Z" style="fill:#014c48"/><path d="M281.1,118.07c2.51-7.2,4.92-14.16,8.61-20.87a85.08,85.08,0,0,1,5.79-9.08c2.19-3,5.1-5.68,6.9-8.91,1.14-2-1.27-4.9-3.4-3.4-3.1,2.17-5.37,5.64-7.45,8.76a83.16,83.16,0,0,0-6.08,10.77c-3.28,6.94-5.88,14.76-6.4,22.46-.08,1.22,1.66,1.31,2,.27Z" style="fill:#014c48"/><path d="M246.93,160.45c0-3.86-2-8.16-3.15-11.81-1.38-4.17-3-8.3-4.49-12.43a73.76,73.76,0,0,0-3.95-9.61c-1.36-2.51-3.41-6.25-6.44-6.79-1.42-.25-3.33,1-2.65,2.65,1.14,2.84,4.13,4.59,5.89,7.15a52.39,52.39,0,0,1,4.86,9.3c1.58,3.74,3.08,7.54,4.73,11.26,1.5,3.34,2.73,7.52,5.14,10.3a0,0,0,0,0,.06,0Z" style="fill:#014c48"/><path d="M245.22,157.71l.68,1.67c.17.73,1.4.78,1.53,0,.67-4,.77-8.23,1.1-12.31.36-4.49,1.15-8.91,1.72-13.38.44-3.51-5.82-3.66-5.59,0,.27,4.25.77,8.48.88,12.74s-.1,8.53.33,12.74l1.2-.69-1.38-1.14c-.23-.26-.65.08-.47.37Z" style="fill:#014c48"/><path d="M248.72,159.09a16.12,16.12,0,0,1,.42,2.2c.21,1.38,2.06,1.28,2.71.35,1.5-2.17,1.74-5.14,2.94-7.52a18,18,0,0,1,5.74-6.57c3.09-2.17.09-7.3-3-5.08a22.18,22.18,0,0,0-7.46,8.91c-1.34,3-2.66,7.25-.81,10.26l2-2a14.28,14.28,0,0,1-2-1,.4.4,0,0,0-.58.45Z" style="fill:#014c48"/><path d="M320.32,169.13c-.32-4.59-1.92-11.33-6.12-13.94-2.16-1.34-4.38,1.26-3.32,3.32.95,1.85,2.69,3.23,3.77,5.05a20.32,20.32,0,0,1,2.34,6c.41,1.84,3.47,1.47,3.33-.46Z" style="fill:#014c48"/><path d="M325.32,161.69c0-1.41.48-2.88.48-4.34,0-1.1,0-2.19,0-3.29a67.81,67.81,0,0,1,.45-8.06c.72-5.14,2.91-9.89,3.79-14.94.38-2.19-2.45-4.61-4.21-2.45-3.67,4.49-4.9,11-5.35,16.61a39.68,39.68,0,0,0,.11,8.44,27.08,27.08,0,0,0,1,4.81c.47,1.45,1.4,2.32,2.05,3.67.39.81,1.64.39,1.64-.45Z" style="fill:#014c48"/><path d="M282,44.34A9.05,9.05,0,0,0,284.31,38c-.13-1.31-1-2.41-1.41-3.63s-.56-1.14.45-1.62a4.28,4.28,0,0,1,3.11.52l-1.2-1.57c-.05-.39-1.37,1.8-1.5,2l-1.6,2.91c-1.6,2.91,2.81,5.5,4.45,2.6,1.31-2.32,4.92-6.41,3.58-9.25s-6.71-3-9.32-2.17c-3.41,1.11-4.17,4.35-2.93,7.45a7.91,7.91,0,0,0,1,1.89c.38.49,1.59,1.13,1.81,1.61s-.37,2.35-.42,3a4.34,4.34,0,0,0,.29,2.18.8.8,0,0,0,1.32.35Z" style="fill:#014c48"/><path d="M285.28,32.15v1l-.54.93-.36.29-.53.22H282.7l.05,0-1-.59a2.75,2.75,0,0,0,1.19.69l-.56-.24.08.06-.48-.37a1.06,1.06,0,0,1,.15.15l-.37-.47a2.4,2.4,0,0,1,.16.27l-.23-.55a1.76,1.76,0,0,1,.11.41l-.08-.61a2,2,0,0,1,0,.42l.08-.59a1.67,1.67,0,0,1-.08.3l.22-.53,0,.1a2.39,2.39,0,0,0-.23,1.7,2.31,2.31,0,0,0,1,1.33,2.28,2.28,0,0,0,3-.8c1-1.51.66-4.05-1-4.94a2.45,2.45,0,0,0-2.87.37,2.39,2.39,0,0,0-.41,2.89,2.21,2.21,0,0,0,2.5,1,2.12,2.12,0,0,0,1.21-.93,2,2,0,0,0,.2-1.57Z" style="fill:#1b14a3"/><path d="M288.35,96.34A23.4,23.4,0,0,1,298,94.05c3.2-.19,3.17-5.26,0-5a20.37,20.37,0,0,0-6.22,1.64,19.46,19.46,0,0,0-5.05,3.49c-1.23,1,.33,2.86,1.65,2.14Z" style="fill:#014c48"/><path d="M277,101c-1.73.81-1.86,2.65-1.67,4.35.14,1.22.53,2.38.7,3.59.2,1.43.23,2.87.57,4.27.52,2.17,3.44,1.86,4.09,0a10.43,10.43,0,0,0,0-6,10.92,10.92,0,0,0-1-2.67c-.23-.4-.84-1.22-.68-1.5a1.5,1.5,0,0,0-2-2Z" style="fill:#014c48"/><path d="M271.71,85.27c-3.85-2.78-6.9-6.79-12.1-6.86a21.14,21.14,0,0,0-7.4,1.29c-2.12.9-3.64,2.73-5.66,3.89s-.73,4.79,1.7,4a16.39,16.39,0,0,1,4.81-.47c2.13-.1,3.93-1.28,5.9-2s3.41-1.25,5.4-.44a48.17,48.17,0,0,1,6,2.87c1.54.91,2.77-1.35,1.38-2.35Z" style="fill:#014c48"/><path d="M268.56,76.29c-1-1.53.84-4.31,1.43-5.69.78-1.8,2.24-3.22,2.68-5.17.37-1.66-1.14-3.66-3-3a11.4,11.4,0,0,0-6.53,7.77c-.56,3.39,1.54,5.64,4,7.44.83.59,1.88-.56,1.37-1.37Z" style="fill:#014c48"/><path d="M241,139.65c-.56-3.06-2.38-5.63-5.8-5.83-2.57-.14-5.39,1.6-7.13,3.38a2.25,2.25,0,0,0,2.72,3.52c1.37-.71,2.27.2,3.64.56a14.29,14.29,0,0,0,2.6.3c.14,0,.34.09.49.1s1.39.36.77.06a1.87,1.87,0,0,0,2.71-2.09Z" style="fill:#014c48"/><path d="M247.1,157.82a2.88,2.88,0,0,0-.61,1c-.06.17-.11.35-.16.53a1.86,1.86,0,0,0,.85,2.09,1.89,1.89,0,0,0,2.25-.29c.1-.1.2-.2.31-.29l-.4.31c.3-.22.57-.46.86-.69l-.42.32.12-.09a2.33,2.33,0,0,0,.95-1.23,2,2,0,0,0-.37-1.8,2,2,0,0,0-1.35-.77,2.09,2.09,0,0,0-1.73.56,3.32,3.32,0,0,0-1.07,1.88h3.57c-.05-.18-.09-.36-.14-.53a2.93,2.93,0,0,0-.59-1,1.5,1.5,0,0,0-1-.43,1.46,1.46,0,0,0-1,.43Z" style="fill:#014c48"/><path d="M248.53,143.12a6.48,6.48,0,0,1,3.34-1.88c1.26-.22,3.29-.92,4.1-2a2,2,0,0,0,.3-2.27c-1.22-2.65-5.41-2.19-7.22-.59-1.55,1.39-3.11,3.54-3,5.7a1.45,1.45,0,0,0,2.44,1Z" style="fill:#014c48"/><path d="M323,143.46c2.69-5.41-.83-10.39-4.9-13.85-3.11-2.64-7.51,1.58-4.54,4.55,1.47,1.48,2,3.07,2.88,4.9a25.32,25.32,0,0,0,3.19,4.84,2.16,2.16,0,0,0,3.37-.44Z" style="fill:#014c48"/><path d="M324.79,146.67c2.88.07,5.87-2.61,8.09-4.29,1.23-.94,1.31-1.65,2-2.94,1.13-2.08,3.07-3,5.14-3.89,1.12-.47.32-2.42-.85-2a33.31,33.31,0,0,0-3.93,1.82c-1.74.91-3.79.59-5.37,1.65a22.47,22.47,0,0,0-3.77,3.78c-1.23,1.36-2.39,2.26-2.67,4.09a1.42,1.42,0,0,0,1.35,1.77Z" style="fill:#014c48"/><path d="M341.72,149.72l-.36,1.09a2.46,2.46,0,0,0,.25,1.89,2.53,2.53,0,0,0,1.47,1.13,2.5,2.5,0,0,0,1.89-.25,2.72,2.72,0,0,0,1.13-1.47l.36-1.08a2.45,2.45,0,0,0-1.72-3,2.45,2.45,0,0,0-1.89.24,2.72,2.72,0,0,0-1.13,1.47Z" style="fill:#014c48"/><path d="M281.6,148.6l-.09.18a1.31,1.31,0,0,0-.12.27,1.09,1.09,0,0,0-.15.56,1.18,1.18,0,0,0,0,.59c0,.1,0,.2,0,.3a3.82,3.82,0,0,0,.24.55l0,0a2.18,2.18,0,0,0,.77.77,2.13,2.13,0,0,0,2.18,0,2.18,2.18,0,0,0,.77-.77l0,0v0l.23-.52v0l.08-.59-.08-.58a2.58,2.58,0,0,0-.23-.54l-.09-.18a2.11,2.11,0,0,0-1.81-1,2.14,2.14,0,0,0-1.81,1Z" style="fill:#014c48"/><path d="M280.54,123.55c1.4-.46,2.36-1.75,3.37-2.76.51-.52,1.1-1,1.58-1.51a4.06,4.06,0,0,0,1-3.63,2.81,2.81,0,0,0-2.72-2.07c-2.67,0-3.69,2.35-4.5,4.49-.58,1.51-1,3.31-.28,4.84a1.4,1.4,0,0,0,1.58.64Z" style="fill:#014c48"/><path d="M290.88,120.37l.09.58.11.28a1,1,0,0,0,.3.32,1.13,1.13,0,0,0,.7.25,1.33,1.33,0,0,0,.58-.16,1.12,1.12,0,0,0,.53-.69l.09-.58a1.23,1.23,0,0,0,0-.66,1.22,1.22,0,0,0-.32-.55,1.26,1.26,0,0,0-.88-.37,1.28,1.28,0,0,0-.88.37,1.22,1.22,0,0,0-.32.55,1.23,1.23,0,0,0,0,.66Z" style="fill:#014c48"/><path d="M280.27,128.7v.74a2.23,2.23,0,0,0,.58,1.5,2.07,2.07,0,0,0,1,.57,1.75,1.75,0,0,0,1.74-.46l.2-.25a2.14,2.14,0,0,0,.35-.69,2,2,0,0,0-.26-1.64l-.45-.62a1.84,1.84,0,0,0-.81-.7,1.61,1.61,0,0,0-1.1-.08,1.72,1.72,0,0,0-1.25,1.63Z" style="fill:#014c48"/><path d="M225.21,120.68c-1.55,2-4.08,8.51-7.77,6.17-2.21-1.41.52-2.65,1.72-3.23q2.52-1.22,5.07-2.35c1.82-.83.53-3.81-1.36-3.22-2.79.87-7.27,1.63-9.28,3.94a5.46,5.46,0,0,0,.66,7.53,6.38,6.38,0,0,0,7.48.49c3-1.8,4.22-5,5.84-7.95.88-1.58-1.32-2.74-2.36-1.38Z" style="fill:#fd1a16"/><path d="M225.45,119.7c-.82-1.83-3.35-4.17-3.24-6.33-.42-1.14-.24-1.28.55-.41a2.54,2.54,0,0,1,1.26,1.5,21.41,21.41,0,0,1,2,4.56c.57,1.54,3.27,2,3.6,0s2.83-10.43,5.77-8.51c1.25.82.92,1,.26,2.28a9.22,9.22,0,0,1-1.64,2.19c-1,1-2.15,1.54-2.86,2.85a1.56,1.56,0,0,0,1.34,2.32c4.71-.14,10.25-9.82,5.5-13.13-6.13-4.26-11.13,6.7-12,11h3.6c-1.06-3.15-5.77-14.27-10.61-8.69-3.2,3.69,1.86,10.84,6,11.09a.49.49,0,0,0,.42-.73Z" style="fill:#fd1a16"/><path d="M232.74,120.17a5.42,5.42,0,0,1,4.69,3.21l1-2.4c-2.73,1.12-5-.42-7.27-1.83a2.14,2.14,0,0,0-3.1,1.26,4,4,0,0,0-.29,1.36c0,.18-.05.36-.07.55-.16.61.18.51,1-.32l1,1.27-.2.11c1.15-2.47-2.4-4.66-3.72-2.17-1.16,2.19-.15,5,2.61,5.05,3,.09,3.13-2.56,3.76-4.72L229,122.8c3.2,1.51,6.79,2.76,10.28,1.34a1.67,1.67,0,0,0,1-2.41,6.39,6.39,0,0,0-7.74-3.23.86.86,0,0,0,.23,1.67Z" style="fill:#fd1a16"/><path d="M300.34,73.78a6.61,6.61,0,0,1,.75-6.07c.85-1.24,3.43-3.48,5.12-3.62,4.36-.37-2.18,7.39-3.41,8.44s-.1,2.75,1.21,2.91,6.58.54,6.1,2.35c-.34,1.33-1,.71-2.34,0a13.31,13.31,0,0,1-2.92-2.09,2,2,0,0,0-3.07.4c-.57.82-.74,1.48-1.39,2,1.55-1.17,1.14-3.71-1-3.78-1.16,0-2.2,0-3.05-1l-.89,3.36,2.11-.77c2.39-.88,1.37-4.74-1.07-3.86l-2.11.75a2,2,0,0,0-.89,3.36c1.55,1.77,3.65,2.11,5.9,2.2l-1-3.79c-2.47,1.88-3.29,5.69-.24,7.58a4.48,4.48,0,0,0,4.32.15c1.95-1,1.83-2.52,2.73-4.21l-2.67.7c2.62,2,9.83,6.11,12,1.18,2.52-5.84-6.66-7-10-7.86l.76,2.85c2.39-2.22,9.24-14.83,1.31-13.81-5.83.74-12,8.07-7.31,13.3.43.48,1.36,0,1.12-.65Z" style="fill:#fd1a16"/><path d="M256.57,51.26c-1.27-3-2.7-8.68-7.38-6.49-4.3,2-1.18,7.64.15,10.53L250.69,52c-4.19,1.37-10.94,9.83-4.86,13.15,5.67,3.09,11.11-4.62,10.84-9.53l-2.82,2.15c3.3.48,7.47.1,9.49-3,2.22-3.41-1.55-4.59-4.12-5.42-2.38-.77-3.42,3-1,3.74l1.74.54c0-.77-.26-.9-.81-.38-1.51-.09-2.37.82-4.08.24A2.24,2.24,0,0,0,252.3,55c-.34,1.91-1.24,4.23-3.18,5.08-1.18.51-.17-.34.28-1.05a9,9,0,0,1,3-2.94,2.29,2.29,0,0,0,.81-3.09A15.82,15.82,0,0,1,252,51.1c-.41-.77-1.7-2.25-.4-2.34s2.37,2.67,3.05,3.6a1.09,1.09,0,0,0,1.88-1.1Z" style="fill:#fd1a16"/><path d="M250.86,56.93a5.19,5.19,0,0,0-3.23,2.48c-1.3,2.37,2,4.11,3.52,2.06a11.12,11.12,0,0,1,5.16-4c2.05-.83,3.76-2.16,3.8-4.54a3,3,0,0,0-3.72-2.84c-.4.07-.55-.54-.39-.11-1.73-4.54-8.46-1.63-6.1,2.57a6.83,6.83,0,0,0,8,3.22l-3.32-1.36h0V52.93c.09-.48.11-.11-.41.09s-.78.33-1.16.51a12,12,0,0,0-2.44,1.62,9.53,9.53,0,0,0-3.16,4.75l4,.54.29-.41c1.87-.75,1.17-3.73-.86-3.1Z" style="fill:#fd1a16"/><path d="M303.54,74.1c.08-2.17,1.2-4.61,3.28-5.54,3.33-1.49.42-6.72-2.92-5-3.87,2-6.88,6.64-5,11,1.47,3.3,6.35,6.4,10,5.36a2.85,2.85,0,0,0,1.25-4.71c-1.39-1.49-4-1.42-5.22-3s1.55-3.13,2.44-4.12l-4.82-2.81a14.94,14.94,0,0,0-.59,9,.79.79,0,0,0,1.55-.21Z" style="fill:#fd1a16"/><path d="M224.85,115.57c-3.23,2.4-6.28,4.93-9.29,7.61-2.36,2.1.17,5.62,2.92,5,4.22-1,8.28-4,9.38-8.39.92-3.67-.56-7.35-4.18-8.68-2.73-1-4.43,2.74-2.68,4.62,5.14,5.48,11.9,1.37,16.4-2.6l-4.08-4.08c-3.88,3.84-6.16,9.39-.94,13.21,2.83,2.08,6.52-2.64,3.78-4.91-1.47-1.21.38-3.19,1.24-4.22,2.33-2.81-1.42-6.76-4.08-4.08-2,2-5.67,5.7-8.42,2.77l-2.68,4.62c1.18.43-.49,3.2-.76,3.53a7.46,7.46,0,0,1-4.58,2.43l2.92,5c2.82-2.54,5.52-5.12,8.1-7.9,1.86-2-.65-5.73-3.05-4Z" style="fill:#fd1a16"/><path d="M225.84,121.41a2.79,2.79,0,0,0,.27,2.15,2.54,2.54,0,0,0,.95,1,2.8,2.8,0,0,0,1.45.34,2.54,2.54,0,0,0,2.16-1.18,2.75,2.75,0,0,0-1.68-4,2.31,2.31,0,0,0-1.73.22,2.34,2.34,0,0,0-1,1.35,2.28,2.28,0,0,0,.23,1.73l.35.45a2.26,2.26,0,0,0,1,.58l.05,0-.54-.23.08,0-.45-.35.07.07-.35-.46a.54.54,0,0,1,.07.13l-.23-.54a.74.74,0,0,1,0,.14l-.08-.6a.33.33,0,0,1,0,.1l.08-.61a.35.35,0,0,1,0,.14l1.59-1.59a.35.35,0,0,1-.14,0l.6-.08h-.14l.61.08a1.66,1.66,0,0,1-.21-.06,6.31,6.31,0,0,0-.76-.09l.59.08a.83.83,0,0,1-.21-.06l.5.22-.15-.09.41.32a.8.8,0,0,1-.13-.13l.31.4,0,0a2.27,2.27,0,0,0-.69-.69,1.91,1.91,0,0,0-1.22-.22,1.94,1.94,0,0,0-1.59,1.37Z" style="fill:#910311"/><path d="M224.37,117.07a14.69,14.69,0,0,0-.6-2.67,5.31,5.31,0,0,0-.29-1.37c0,.21,0,.17,0-.12-.08.31-.06.32,0,0l-.71,1.2-.21.19-1.36.37.3,0-1.35-.37c.53.24,0-.15.39.23-.17-.19,0,.1.08.16.27.44.49.92.78,1.36a4.37,4.37,0,0,0,3.52,2.16,2.25,2.25,0,0,0,2.08-1.4,2.36,2.36,0,0,0-.47-2.49c-.18-.21-.59-.93-.82-1.29s-.56-1-.89-1.44c-1.28-1.76-3.37-3.2-5.47-1.7-1.81,1.3-1.55,3.52-.71,5.29.62,1.31,2.28,3.07,3.78,3.3a1.55,1.55,0,0,0,1.92-1.47Z" style="fill:#910311"/><path d="M228.89,116.2c-.2.16.26-.06.38-.11a5.13,5.13,0,0,0,.66-.34c.57-.35,1.12-.76,1.68-1.13a13.68,13.68,0,0,1,1.61-1c.21-.1.42-.19.64-.27l.59-.21c.35-.08.26-.14-.28-.19l-.82-.82.16.31-.32-1.17c0-.86-.22-.27-.7,0s-.94.55-1.43.79a5.24,5.24,0,0,0-2.74,2.21,2.81,2.81,0,0,0,2.39,4.16c2.49.14,4.47-2.34,5.87-4.13a4.63,4.63,0,0,0,1.23-3.06,3,3,0,0,0-2.14-2.69c-2-.56-4.22.95-5.69,2.2a8.23,8.23,0,0,0-1.88,2.27,6.73,6.73,0,0,0-.53,2.34.8.8,0,0,0,1.32.77Z" style="fill:#910311"/><path d="M229.19,118.76a3.94,3.94,0,0,0,1.42,2.69,8.67,8.67,0,0,0,1.12.85,3.37,3.37,0,0,0,2.68.46,2.73,2.73,0,0,0,2-2,2.91,2.91,0,0,0-.72-2.74,4.28,4.28,0,0,0-2.51-1.14,4.7,4.7,0,0,0-2.4-.2,2.19,2.19,0,0,0-1.56,2.05Z" style="fill:#910311"/><path d="M255.28,54.83a9.34,9.34,0,0,1,2-.15,2.2,2.2,0,0,0,.5.06c.19.06.15,0-.13-.13l-.15-.2L259,51.67c-1.28.31-2.56.63-3.86.86a2.52,2.52,0,0,0,.67,4.94,9.37,9.37,0,0,0,5.36-2.07c1.2-1,.61-2.77-.45-3.5a3.64,3.64,0,0,0-3.21-.32,3.32,3.32,0,0,0-1.36.84,4.17,4.17,0,0,1-1.39,1.25c-.71.33-.16,1.26.49,1.16Z" style="fill:#910311"/><path d="M253.48,53c-.45-.29.17.3.05.12s0,.31,0,0c0,.16-.08.47,0,.12a5.63,5.63,0,0,0,.13-.93c0-.4,0,.13,0,.24a5.67,5.67,0,0,1,.16-1.06c0-.5,0-.09,0,.16l.06-.18a1.73,1.73,0,0,1-.83,1l-1.58.43h.22L250,52.51c-.18-.09-.25-.34-.41-.43.17.1.33.43.45.58l.8,1.05a3.49,3.49,0,0,0,1.91,1.46,3.22,3.22,0,0,0,2.45-.32c1.3-.84,2.23-2.94,1.14-4.36s-2.1-3.28-3.91-3.75c-2.67-.68-4.67,1.72-4.75,4.18A4.06,4.06,0,0,0,250.44,55a5.28,5.28,0,0,0,2.79-.12,1,1,0,0,0,.25-1.88Z" style="fill:#910311"/><path d="M301.14,71.32a4.52,4.52,0,0,0,1.34-1.08c.14-.17.5-.58.51-.58a2.36,2.36,0,0,1,.48-.29c-.25.13,0,0,.14,0l.68-.29c-.2.09-.2.1,0,0s.19-.06,0,0a1.32,1.32,0,0,1-1.22-.4l-.76-1.3c-.09-.22.24-.8,0-.24-.18.34-.28.75-.43,1.1-.23.56-.55,1.18-.84,1.75a3.24,3.24,0,0,0,1.13,4.32c1.33.77,3.65.44,4.32-1.14.75-1.77,1.75-3.81,1.83-5.79a3.92,3.92,0,0,0-4.23-4.08,5.52,5.52,0,0,0-4.52,2.92c-.92,1.67-1.26,3.56.27,4.94a1.1,1.1,0,0,0,1.32.17Z" style="fill:#910311"/><path d="M303.68,75.61c.37,1.13,1.22,1.36,2.09,2,.11.08.38.35.61.58s.26.3.08.08c.26.32.49.66.75,1l1.22-4.63c-.33.07-.34.08,0,0h-.26c-.34,0-.35,0,0,0a2.54,2.54,0,0,1-.37-.1c-.2-.07-.17,0,.09,0a2.1,2.1,0,0,0-1.08-.35c-.48-.06-.52-.07-.12,0a4,4,0,0,1-.46-.13c-2.13-.71-4,1.89-2.88,3.74a4.49,4.49,0,0,0,3,2.29A6.79,6.79,0,0,0,309.9,80c1.84-.63,2.88-3.16,1.22-4.63a8.08,8.08,0,0,0-3.89-1.87,3.83,3.83,0,0,0-2.48.1,1.8,1.8,0,0,0-1.07,2.06Z" style="fill:#910311"/><path d="M301.69,75a5.38,5.38,0,0,0-2.89,2.22,2.33,2.33,0,0,0,2.62,3.41,8.24,8.24,0,0,0,2.18-1.09,3.11,3.11,0,0,0,1.47-1.79,3.26,3.26,0,0,0-.05-1.64,1.81,1.81,0,0,0-1.29-1.3,6.87,6.87,0,0,0-1-.14,2.92,2.92,0,0,0-2.05,1,2.55,2.55,0,0,1-.3.26c-.29.26-.13,0,.05,0a4.11,4.11,0,0,0-.8.53l3.49,2c0-.2,0-.39,0-.58,0-.39-.11.39,0,0,0-.14.08-.28.11-.41-.1.35.09-.16.14-.24A1.47,1.47,0,0,0,301.69,75Z" style="fill:#910311"/><path d="M227.64,114.39a7.25,7.25,0,0,0-4.7,2.52c-1.34,1.5-2.2,3.91-.51,5.55s4.28.62,5.92-.49a9.15,9.15,0,0,0,2-1.76,3.59,3.59,0,0,0,.88-3.25,2.05,2.05,0,0,0-2.53-1.44,4,4,0,0,0-1.65,1,10.78,10.78,0,0,1-1,1,3.12,3.12,0,0,1-1.64.71l1.27.34.77,1.33,0,.19s-.15.23.07-.11a4.53,4.53,0,0,1,.62-.82,18.67,18.67,0,0,1,1.89-1.54c1.27-1,.24-3.41-1.35-3.26Z" style="fill:#6464e2"/><path d="M253.59,52.59c-.72.09-1.27-.34-2-.12a3.36,3.36,0,0,0-1.72,1.1,2.9,2.9,0,0,0,.1,3.7c1.31,1.36,3.3.69,4.69-.15a4.16,4.16,0,0,0,2.26-4.43,1.92,1.92,0,0,0-1.82-1.38,5.27,5.27,0,0,0-2.84.6c-1.91,1-.58,4,1.45,3.43a5.43,5.43,0,0,1,1.39-.27l-1.82-1.38c0-.14.22-.26,0,0a2.85,2.85,0,0,1-.53.51,5.52,5.52,0,0,1-.66.4,2.64,2.64,0,0,0-.38.18l-.26.09a.37.37,0,0,1,.33.09,1.47,1.47,0,0,1,.15-.61,3.19,3.19,0,0,1,.72-.6c.37-.3.5-.67,1-.82.19-.05.16-.38,0-.36Z" style="fill:#6464e2"/><path d="M304.55,73.28a2.61,2.61,0,0,0-1.92-3.74c-2.06-.39-3.61,1.64-3.5,3.55A4.91,4.91,0,0,0,303,77.34a2.9,2.9,0,0,0,3.27-2,4.41,4.41,0,0,0-.46-3.38,2.2,2.2,0,0,0-3-.79,2.23,2.23,0,0,0-.79,3c.1.26.14.33.13.22l0,0c1.5-.59,1.92-1,1.25-1.17-.13,0-.16,0-.1,0a2.79,2.79,0,0,1-.58-.44c.1.13,0-.27,0-.1s-.51-.29.08-.1c.08,0-.61.12-.46.1s-.09.26,0-.24a1.19,1.19,0,0,0,2.16.91Z" style="fill:#6464e2"/><path d="M515.6,217.2c1.71-3.73,2.43-8,3.92-11.9a92.9,92.9,0,0,1,6.09-12.78,95.71,95.71,0,0,1,16.72-21.38c2.25-2.17-1.26-5.68-3.43-3.43a96.69,96.69,0,0,0-16.52,22.92A98,98,0,0,0,517,203.14c-1.46,4.15-3.42,9.06-3.45,13.51,0,1,1.58,1.58,2.06.55Z" style="fill:#014c48"/><path d="M507.88,205.14c1.5-5.39-.51-11.62-2.23-16.76A72.63,72.63,0,0,0,497.71,172c-2.44-3.77-7.8.18-4.95,3.83a68.19,68.19,0,0,1,8.56,14.34c2.17,4.88,3,10.46,5.82,15a.41.41,0,0,0,.74-.09Z" style="fill:#014c48"/><path d="M495,174.84a5.69,5.69,0,0,0-1.21-1.19c-.24-.19-.68-.44-.74-.79s.08-.38.26-.69,1.13-1.11.4-.9h-1.4c.42.09.88.55,1.3.74,0,0,.36.26.42.24s-.06-1.1.77-1.41a2.52,2.52,0,0,0-1.78,2.34,2.44,2.44,0,0,0,1.78,2.34,3.75,3.75,0,0,0,3.95-5.47c-1-2.07-4.38-4.52-6.76-3.79-2.56.78-4.4,4.59-4,7.08a5.14,5.14,0,0,0,6,4,1.75,1.75,0,0,0,1-2.55Z" style="fill:#014c48"/><path d="M515.37,179.41c1.32,1.25,3,2.83,3.63,4.58a28.76,28.76,0,0,1,1.11,5.29c.51,4.22,6.8,3,5.56-.75a10.75,10.75,0,0,0-4.19-6c-2-1.38-3.56-2.78-6-3.4a.16.16,0,0,0-.15.27Z" style="fill:#014c48"/><path d="M536.85,196.8c-2.11-2.67-6.5-1.57-9.41-1.53-3.39,0-8.89,0-9.72,4.24a2.71,2.71,0,0,0,1.2,3c2.69,1.66,5.18,0,7.36-1.74,1-.8,1.74-2,2.78-2.72,1.83-1.3,3.32-1.11,5.44-.43a16.34,16.34,0,0,0,1.54.62.84.84,0,0,0,.81-1.4Z" style="fill:#014c48"/><path d="M538.42,167.25c-1.74-1.38-3.85-2.13-5.42-3.76-2.53-2.62-2.82-6.73.6-8.69,3.58-2.06,4.4,2.49,5.29,5.08a68.28,68.28,0,0,1,2.27,8.56c.51,2.41,4.5,1.33,3.69-1-.9-2.64-1.87-5.25-2.76-7.89-.72-2.1-1.32-4.53-2.58-6.4-2.17-3.22-6-2.42-8.67-.31-6.87,5.34.44,14.72,7.24,15.24a.48.48,0,0,0,.34-.82Z" style="fill:#fd1a16"/><path d="M543.64,168.08c.71-2,1.72-5.41,3.73-6.59,2.24-1.3,5.23.95,7.08,2.09,1.49.93,1.44,1-.15,1.62a15.48,15.48,0,0,1-3.56.64c-2.24.26-4.55-.08-6.73.48-1.89.49-1.63,3,0,3.59,2.28.84,4.93.37,7.29,0a19,19,0,0,0,6.24-1.69c3.26-1.79,2.47-4.91-.11-6.78s-7.59-4.88-10.76-3.26-4.82,6.35-4.72,9.65a.86.86,0,0,0,1.69.23Z" style="fill:#fd1a16"/><path d="M546.68,173c1.38,2.53,2.73,5.08,4,7.69l.59-2.27a4.25,4.25,0,0,1-5.91-.9c-1.57-2-1.43-4.76-.95-7.12s-3-3.26-3.51-1S537,172.78,535,173.1c-1.69.67-2.26.43-1.72-.7,0-.79.37-1.15,1.23-1.09,1.29-.69,3.46-.81,4.86-1,2.57-.32,2.65-4.37,0-4.1-3.13.33-7.74.59-10.13,3a4.58,4.58,0,0,0,.55,6.74c4.46,3.86,12.75-.86,14.55-5.55l-3.51-1c-1.42,4-.84,8.89,2.69,11.61a7.67,7.67,0,0,0,9.7,0,1.68,1.68,0,0,0,.25-2c-1.57-2.41-3.13-4.83-4.77-7.21a1.18,1.18,0,0,0-2,1.2Z" style="fill:#fd1a16"/><path d="M538.12,164.76c.27-3.06-.89-6.13-.69-9.21a2.47,2.47,0,0,0-3.68-2.12c-2.86,1.72-3.76,5.89-2.92,8.95a9,9,0,0,0,6.79,6.42c3.18.7,6-3.28,3.34-5.75-2.05-1.9-2.79-4.25-3.56-6.87s-5.07-3-5.66,0c-.89,4.44,1.06,8.72,4.36,11.73l3.34-5.74a3.66,3.66,0,0,1-2.75-1.85c-.69-1.49.21-2.73.65-4.12l-4.47.58c1.43,2.68,1.6,5.92,3.09,8.57a1.17,1.17,0,0,0,2.16-.59Z" style="fill:#fd1a16"/><path d="M540.1,168a10.91,10.91,0,0,0-6.9.61c-1.86.74-3.07,4-.65,5,3.68,1.55,6.9,0,10-2.21a71.35,71.35,0,0,1,10.57-6.69l-4.32-3.32-.16.25c-2.6,1.08-2.71,5.94.74,5.51a5.62,5.62,0,0,0,5.09-4.2c.81-2.63-2.14-4.37-4.32-3.32a53.58,53.58,0,0,0-8.36,4.92c-2.49,1.81-4.53,4.26-7.83,4l1.93,4.65a14.83,14.83,0,0,1,4.25-2.3c1.26-.48,1.54-2.49,0-2.86Z" style="fill:#fd1a16"/><path d="M545.61,172.48a14.68,14.68,0,0,0-3.86,6.37c-.89,3.4,3.13,5.35,5.59,3.26,3.29-2.81,2.48-6.73,2.18-10.53-.19-2.32.07-2.29,2.22-2.79a10.78,10.78,0,0,0,4.82-2.2c3.09-2.58-1.67-7.48-4.46-4.46-1,1.05-3.09.83-4.42,1.31a7.23,7.23,0,0,0-4.16,3.51,9.23,9.23,0,0,0-.79,5.48c.18,1.43,1.11,3.86-.12,4.95l5.59,1.47a14.06,14.06,0,0,1-.56-5.19c.17-1.08-1.12-2.16-2-1.18Z" style="fill:#fd1a16"/><path d="M535.22,154.94c1.16,2.88,1,6.55,1.4,9.61a2.62,2.62,0,0,0,1.83,2.41,2.24,2.24,0,0,0,2.43-.64,2.49,2.49,0,0,0,.64-2.43c-1-3.28-1.87-8.44-5.77-9.49-.29-.07-.66.22-.53.54Z" style="fill:#910311"/><path d="M542,165.9a11.66,11.66,0,0,0,4.42-1.58c.82-.46,1.48-1,2.51-.75a4.62,4.62,0,0,1,2.64,2.11l-.23-1.81c.06-.43-3.79-1.22-4.31-1.4-3.28-1.13-4.83,4.45-1.43,5.2,2.46.54,6,1.4,8.38.14a3.58,3.58,0,0,0,.73-5.84c-1.74-1.7-4.48-3.34-7-2.78-3,.67-3.46,4.34-6.18,5.57-.7.32-.15,1.23.48,1.14Z" style="fill:#910311"/><path d="M545,171.2a10,10,0,0,0,.58,2.92c.16.5.29,1,.46,1.49.09.24.18.49.29.73.07.49.17.5.28,0h2.75c-.41-.34-.09.21-.25-.38a4.68,4.68,0,0,1-.06-.84,10.72,10.72,0,0,0-.49-2.62,8.94,8.94,0,0,0-3.44-4.5c-2.57-1.87-5.14,2.47-2.51,4.28,1.51,1,1.93,2.42,2.23,4.12A3.47,3.47,0,0,0,548,179.7c1.08.13,1.9-1,2-1.95a8.64,8.64,0,0,0-4-7.08.62.62,0,0,0-.93.53Z" style="fill:#910311"/><path d="M545.25,166.11a10.41,10.41,0,0,0-3.28-1.68,5.42,5.42,0,0,0-3.14-.08c-2.66.9-2.34,4.25-.26,5.6A10.58,10.58,0,0,0,542,171.2c1.26.29,2.83.72,4.06.19a2.93,2.93,0,0,0,1.7-3.41,3.91,3.91,0,0,0-.92-1.54,4.41,4.41,0,0,0-.52-.45,1.55,1.55,0,0,0-.37-.26c-.27-.17-.16-.06.33.32-1-2.09-4.46-1.09-4.37,1.18a3.61,3.61,0,0,0,.6,1.94,3.49,3.49,0,0,0,.66.77l.52.4c-.18-.17-.19-.16,0,0l-.63-1.08,0,.17v-1.29l0,.19.62-1.06-.22.21,1.06-.62a5.84,5.84,0,0,1-1.9-.09c-.46,0-.94-.08-1.4-.15s-.66-.33-.78.27,0,.36.53.34a7.53,7.53,0,0,1,1.16.07,17.81,17.81,0,0,1,2.54.32.84.84,0,0,0,.64-1.53Z" style="fill:#6464e2"/><path d="M406.2,185.49c-.5-6.37-.28-12.69-1.15-19.05-.92-6.68-2.05-13.34-3.62-19.9A210.31,210.31,0,0,0,388.91,109a3.14,3.14,0,0,0-2.76-1.58,2.68,2.68,0,0,0-2.25.94,3.14,3.14,0,0,0-.82,3.1,315.56,315.56,0,0,1,12.81,36.08c1.66,6,3.22,12,4.51,18.05,1.4,6.55,3.38,13.26,4.13,19.91.11,1,1.75,1.08,1.67,0Z" style="fill:#014c48"/><path d="M418.76,158.58c.87-5.09.67-10.36.92-15.51.26-5.46.46-10.93.77-16.39s.7-10.92,1.12-16.37,1.26-10.89,1.32-16.34c0-3.1-4.94-3.94-5.55-.75a125.83,125.83,0,0,0-1.45,16q-.48,8.44-.53,16.91c0,5.47,0,10.94.28,16.4.29,5.31.29,10.86,1.56,16.05.18.74,1.43.81,1.56,0Z" style="fill:#014c48"/><path d="M421.8,176.3c1.83-2.46,2.81-5.38,4-8.16s2.57-5.58,4-8.31c2.79-5.5,6.29-10.57,9.22-16,1.59-2.94-2.55-5.25-4.42-2.59-3.68,5.23-6.36,11.51-8.89,17.35-2.28,5.28-5.43,11.42-5.51,17.25a.87.87,0,0,0,1.6.43Z" style="fill:#014c48"/><path d="M430.2,185c2.62-1.26,4.24-5.19,6.09-7.35,2.37-2.77,5.22-4.65,8-6.92,2.41-2-.68-5.73-3.26-4.23-3.34,2-6.11,5.26-8.32,8.39-1.72,2.42-4.59,6.62-3.48,9.72a.66.66,0,0,0,1,.39Z" style="fill:#014c48"/><path d="M378.1,139.1c1,2.87,4.88,4.27,7.38,5.5,2.76,1.35,7,4.59,10,3.24a2.18,2.18,0,0,0,1.1-1.92l0-.41a2.88,2.88,0,0,0-1.43-2.49,28,28,0,0,0-8.27-2,24.53,24.53,0,0,1-4.26-.67c-1.46-.42-2.76-1.19-4.26-1.48-.13,0-.28.08-.23.23Z" style="fill:#014c48"/><path d="M404.5,126.12a22.15,22.15,0,0,1-2.24,2.08c-.75.75-1.45,1.54-2.15,2.33a35.33,35.33,0,0,0-4.17,4.89c-3,4.91,5.9,8.62,7.17,3,.46-2,.44-4.08.93-6.08.42-1.71.7-4.06,1.58-5.59.43-.74-.64-1.33-1.12-.66Z" style="fill:#014c48"/><path d="M407.24,109.75c.2,1.56.85,3,1.07,4.52s.11,3.3.43,4.89a12.93,12.93,0,0,0,6.08,8c3.1,1.93,6-1.76,4.65-4.64a18.39,18.39,0,0,0-5.43-6.95,23.79,23.79,0,0,1-3-2.19c-1.16-1.16-1.58-2.68-2.41-4.07-.36-.59-1.52-.4-1.41.39Z" style="fill:#014c48"/><path d="M425.56,132.45a10.82,10.82,0,0,0-4.16,2.15c-.62.46-1.21,1-1.82,1.43-.21.14-.15.15.18,0l-.85.11a5.82,5.82,0,0,0-1.48.78,3.48,3.48,0,0,0-.36,5.73c2.06,1.59,4.61.45,5.46-1.8a4.68,4.68,0,0,0,.36-1.21,1.54,1.54,0,0,0,0-.85c-.11-.46-.1-.55,0-.26l-.35,1.29c1-2.12,3.35-3.36,4.61-5.27.75-1.15-.48-2.31-1.62-2.11Z" style="fill:#014c48"/><path d="M409.22,157.23a12.05,12.05,0,0,0,.16,1.89,1.65,1.65,0,1,0,3-1.27,11.24,11.24,0,0,0-1.25-1.42,1.14,1.14,0,0,0-1.92.8Z" style="fill:#014c48"/><path d="M392.62,169.29a4.39,4.39,0,0,0,.11.81l.22.6a1.49,1.49,0,0,0,1,1,1.38,1.38,0,0,0,1.27-.26,1.46,1.46,0,0,0-.14-2.41l-.58-.32a3.66,3.66,0,0,0-.78-.29.89.89,0,0,0-1.12.85Z" style="fill:#014c48"/><path d="M395.72,179l0,.62a1.11,1.11,0,0,0,.53.93,1.14,1.14,0,0,0,.83.1,1.08,1.08,0,0,0,.64-1.57l-.34-.54a.91.91,0,0,0-1-.42,1,1,0,0,0-.41.23.91.91,0,0,0-.26.65Z" style="fill:#014c48"/><path d="M429.12,171.84a2.87,2.87,0,0,0-2,2,1.31,1.31,0,0,0,1.09,1.63,1.2,1.2,0,0,0,1-.26,1.37,1.37,0,0,0,.52-1c-.05.39,0,.2,0,.1a.85.85,0,0,0,.06-.17c0,.08-.14.28,0,.09a1.3,1.3,0,0,0,.1-.15s-.18.2-.06.09.2-.16,0,0l.05,0,.19-.1a1.21,1.21,0,0,0,.55-.72,1.31,1.31,0,0,0-.06-.78,1.2,1.2,0,0,0-1.42-.69Z" style="fill:#014c48"/><path d="M373.67,170.26l.84,2.13a1.7,1.7,0,1,0,3.11-1.31l-1.18-2a1.52,1.52,0,0,0-1.89-.62,1.5,1.5,0,0,0-.88,1.79Z" style="fill:#014c48"/><path d="M395,187.33l.44.81a1.65,1.65,0,0,0,1,.76,1.64,1.64,0,0,0,2-1.15l.06-.44a1.65,1.65,0,0,0-.23-.83l-.39-.84a1.68,1.68,0,0,0-1-.77,1.68,1.68,0,0,0-1.89,2.46Z" style="fill:#014c48"/><path d="M447.41,183.22a2.37,2.37,0,0,0-1.32.07l-.44.2.45-.19a2,2,0,0,1-.47.12l.55-.07a3.55,3.55,0,0,0-1.14.29l-.24.11.51-.21-.25.09a2.12,2.12,0,0,0-1.46,2.57,2.15,2.15,0,0,0,1,1.25,2.36,2.36,0,0,0,1.61.21,2.85,2.85,0,0,0,2-1.41,4.29,4.29,0,0,0,.37-.85,1.85,1.85,0,0,0-.18-1.38,1.56,1.56,0,0,0-.91-.8Z" style="fill:#014c48"/><path d="M463.41,172.89c-.32.12-.65.23-1,.36a5.68,5.68,0,0,0-1.12.64A1.36,1.36,0,1,0,463,176a5.6,5.6,0,0,0,.92-.9c.21-.27.41-.55.61-.82a1,1,0,0,0-1.09-1.42Z" style="fill:#014c48"/><path d="M383.48,109c-2.22,5.42-9,13.07-15.67,11.41-1.49-.37-3.17-1.77-3.18-3.46s1.81-2.68,3.24-3.33a34.94,34.94,0,0,1,11.41-2.85c2.37-.2,2.38-3.92,0-3.71-5.12.47-11.5,1.62-15.6,5-3.33,2.76-2.91,7.51.51,10,3.89,2.87,9.15,1.12,12.79-1.3a22.75,22.75,0,0,0,8.72-11.18c.52-1.41-1.67-1.95-2.22-.62Z" style="fill:#fd1a16"/><path d="M382,107c-2.74-.64-5.66-1.36-7.94-3.1-1.74-1.33-3.5-4.55-1.4-6.36,1.83-1.57,4.76-.35,6.24,1.07,2,1.9,3,4.68,4,7.2,1,2.68,5.38,1.57,4.39-1.21-1.49-4.17-3.26-8.85-7.26-11.24-3.42-2-8.33-2.21-11.3.75s-2.47,7.67-.13,10.86c3.08,4.19,8.23,4.64,13,4.65A1.34,1.34,0,0,0,382,107Z" style="fill:#fd1a16"/><path d="M389.55,101a31.16,31.16,0,0,1,9.24-10.56l-2.42-1c1.43,7.25-5.72,10.22-10.49,13.58-1.38,1-1.8,3.37,0,4.25,4.16,2,8.22,4.29,12.25,6.55l1.19-4.39a51.12,51.12,0,0,1-13.69-1.86c-3.58-1-5.08,4.84-1.52,5.49a66.87,66.87,0,0,0,15.21,1.08c2.26-.1,3.32-3.2,1.19-4.39-4-2.26-8.13-4.43-12.15-6.73v4.25c6.74-3.28,13.39-10.76,11.19-18.71a1.67,1.67,0,0,0-2.76-.73,42.74,42.74,0,0,0-9,12.14c-.57,1.14,1.11,2.14,1.71,1Z" style="fill:#fd1a16"/><path d="M419.11,91.62c-3.4.43-10.15,3-11.44-2.05-.62-2.45,1.42-3.63,3.6-3s3.69,2.76,5,4.46a2.42,2.42,0,1,0,3.82-2.94c-2.52-3.26-5.55-6.46-10-6.53a6.88,6.88,0,0,0-7.18,6.83C402.89,97,415.41,98.61,419.33,92c.09-.15,0-.42-.22-.39Z" style="fill:#fd1a16"/><path d="M420.37,90.2a15.54,15.54,0,0,1,5.47-12.31c.32-.25,1-.88,1.39-.93s.18.27-.05.93a34.41,34.41,0,0,1-1.49,3.8,31.63,31.63,0,0,1-4.53,6.9,2.44,2.44,0,0,0,2.35,4c3.9-.84,7.54-1.1,11.28.15.25.31.54.29.86-.07a8,8,0,0,1-1.38-.09,21.49,21.49,0,0,1-3-.58,27.47,27.47,0,0,1-6.09-2.4,2.48,2.48,0,0,0-3.6,2.76c.2,1.14,1.27,7.53-1.42,7.18l1.77.73c-.43-.4.42-3.88.65-4.82.46-1.87.77-2.76,0-4.55a2.18,2.18,0,0,0-3-.78c-2.69,1.59-2.72,5.49-2.79,8.34-.07,2.49.26,5.76,3.34,6.09,2.66.28,4.92-2.1,5.93-4.32,1.33-2.93.81-6.12.22-9.17l-3.6,2.77c3.39,1.73,18.55,7.6,17.26-1.22-1.11-7.53-12.82-5.92-17.76-4.69l2.35,4a35.64,35.64,0,0,0,6.89-12.46c.88-3.14,0-8-4.4-7.28-3.24.54-6.24,4.4-7.63,7.14-1.86,3.67-1.84,7.14-.71,11,.26.87,1.7.75,1.64-.22Z" style="fill:#fd1a16"/><path d="M414.45,91.13c-.39-.13-.56-.64-1-.81s-2.62,0-2.63-.37l-1.52,2c2.61-.93,3.3.64,5.27,1.89a4.55,4.55,0,0,0,5.68-.69c1.69-1.6,2.56-4.15,3.49-6.23,1.1-2.47,2.59-5.08,3.13-7.73s-3-4.42-4.54-1.91c-1.38,2.32-2.16,5-3.43,7.4-.48.9-1,1.81-1.49,2.69a10.08,10.08,0,0,1-.94,1.49c1.15.22,1.29,0,.42-.55-2.17-3.07-7.38-2-9.61.18A2.13,2.13,0,0,0,407,91a4.14,4.14,0,0,0,3.65,2.31,5.25,5.25,0,0,0,2.84-.62c.4-.27.66-1,1-1.21a.19.19,0,0,0,0-.34Z" style="fill:#fd1a16"/><path d="M383.26,103.16c-.62.16-2.53-4.53-2.84-5a7.83,7.83,0,0,0-5.05-3.93,3.23,3.23,0,0,0-3.54,1.44c-3.3,5.87,6.62,11.18,10.94,12.65l-1.66-4.07c-1.91,3.45-5.13,4.29-8.61,5.42-2.67.87-5.54,2.3-6.25,5.3a4.12,4.12,0,0,0,4.92,5.14c1.77-.37,3.6-1.6,5.21-2.36,2.16-1,4.33-2,6.48-3.1l-3.5-4.54a16.9,16.9,0,0,1-13.11,4.61c-3-.17-3.71,3.37-2.19,5.28a5.85,5.85,0,0,0,6.52,1.84c2.45-.89,3.53-3,3.84-5.46.41-3.25-5.15-4-5.75-.78.32.7.24.71-.23,0l-2.19,5.29a25,25,0,0,0,17.19-6.71c2.59-2.35-.7-5.84-3.5-4.54-1.71.79-3.4,1.61-5.1,2.41-1.35.65-3.75,2.39-5.25,2.29l2.05.85c.9.77,0,.75,1.3,0a9.25,9.25,0,0,1,1.69-.62,37.81,37.81,0,0,0,3.85-1.29,18.21,18.21,0,0,0,7-5.74c1-1.33,1.18-3.44-.56-4.36a34.89,34.89,0,0,1-4.15-2.57A18,18,0,0,1,379,99.17c-.88-.82-.89-1.77-1.72-.36l-2.71,1.55c.93.06,1.92,1.73,2.48,2.36a11.71,11.71,0,0,0,2.94,2.64c1.72.91,4.42,1.43,4.69-1.14a1.11,1.11,0,0,0-1.39-1.06Z" style="fill:#fd1a16"/><path d="M390.34,101.68c1.64-.37,3.21-1.79,4.51-2.8s2.71-2.47,4.11-3.66l-4.39-3.39a18.33,18.33,0,0,1-3,3.83c-2,2.26.5,5.86,3.29,4.27a12.22,12.22,0,0,0,4.49-5.28,2.78,2.78,0,1,0-5.11-2.15,15.6,15.6,0,0,1-2.38,3.81c-.92,1.19-2.26,2.21-3,3.53a1.27,1.27,0,0,0,1.41,1.84Z" style="fill:#fd1a16"/><path d="M412.42,86.56c-2.14-.26-4.18-1-6.32-1.28-1.88-.26-3.72,1.9-2,3.49a4.91,4.91,0,0,0,4.15,1.46c3.4-.45,2.77-5.37-.64-4.67a1.83,1.83,0,0,1-1-.07l-.5,3.82a20.57,20.57,0,0,1,6.32-.87c1.22.11,1.17-1.73,0-1.88Z" style="fill:#fd1a16"/><path d="M376.63,103.15h.13l.67.51c-.35-.79-1.21-.64-1.85-.94,0,0-.44-.3-.31-.19l-.27-.26c.05.08.05.06,0,0s-.08-.12,0,.07l-1.12,2.76a3.58,3.58,0,0,0,1.88-2.57,2.18,2.18,0,0,0-2.64-2.64,3.53,3.53,0,0,0-2.58,1.87,2.46,2.46,0,0,0,.87,3.34,7.29,7.29,0,0,0,3.37,1c1,0,2.91-.43,2.78-1.82l-.33.79.13-.11a1,1,0,0,0-.75-1.76Z" style="fill:#fd1a16"/><path d="M423.9,87.22l0,.11c0-.07,0-.07,0,0s0,0,0,0-.1.16,0,0a.61.61,0,0,0,.09-.18L424,87c0-.15,0,0,0,0l.05-.07c-.07.08-.08.1,0,.06s0,0,0,0a.7.7,0,0,0,.3-.74.69.69,0,0,0-.63-.48,1.32,1.32,0,0,0-1.14.59,1.43,1.43,0,0,0,0,1.35.75.75,0,0,0,.94.31.78.78,0,0,0,.44-.89Z" style="fill:#fd1a16"/><path d="M377.47,107.12a9.33,9.33,0,0,1-1.8-2.85c-.23-.63-1.53-3.13-1.1-3.84.69-1.13,3,3.71,3.37,4.36l1-3.92c-.44.29.52.85.55.09.15-3.34-4.87-3.91-5.75-.77-1.3,4.63,4.12,8.68,8.08,5.63,1.2-.93,1.93-2.47,1-3.92-1.5-2.4-3.58-5.94-6.51-6.79a5.55,5.55,0,0,0-6.52,3c-1.15,2.65.24,6.57,2.13,8.64,1.21,1.32,4.23,2.85,5.57.91a.47.47,0,0,0-.08-.57Z" style="fill:#910311"/><path d="M388.07,104.48a24.16,24.16,0,0,0,4.55-4.08,36.05,36.05,0,0,0,4.17-5l-3.55-1.5a17.84,17.84,0,0,1-7.4,8.42c-3,1.81,0,6.7,2.71,4.65A23.07,23.07,0,0,0,397,95c.6-2-1.83-3-3.25-1.89a19.15,19.15,0,0,0-6.63,10.68c-.09.52.44,1.07,1,.74Z" style="fill:#910311"/><path d="M385.79,107.36a9.29,9.29,0,0,0,2,1.9,14.84,14.84,0,0,0,1.32.79c.47.26,1,1,.72,0l.25-1.85-.13.18,2.74-1.11c-2.29-.55-4.84-1.52-7.2-1.51A2.54,2.54,0,0,0,383,108a2.59,2.59,0,0,0,1.82,2.78c2,.83,4.48.87,6.58,1.2a2.5,2.5,0,0,0,2.73-1.11c2.22-4-4.52-5.6-7.24-5.33-.8.08-1.68,1-1.06,1.85Z" style="fill:#910311"/><path d="M419.32,89a68,68,0,0,1,5.78-7.36c.76-.86,1.55-1,.39-1.74s-.71-.14-1.21.77A4.79,4.79,0,0,1,422,82.72c-1.86.73-3,2.52-2.17,4.51a3.33,3.33,0,0,0,4.75,1.6,11.34,11.34,0,0,0,4.79-6.39c.7-2.43.95-6-2.09-6.86s-4.81,1.65-6.28,3.74a23.29,23.29,0,0,0-2.34,3.93,25.74,25.74,0,0,0-1.3,4.87,1.1,1.1,0,0,0,2,.84Z" style="fill:#910311"/><path d="M419.65,87.45c-2.68-1.22-4.68-3.6-7.7-4.2a5.44,5.44,0,0,0-6.45,3.81c-.66,2.82,1.25,5.33,3.7,6.45,3.08,1.41,6.38.62,9.44-.44,4-1.41,2.3-7.87-1.78-6.45a16.86,16.86,0,0,1-3.46,1c-.58.07-1.13-.1-1.68-.07l-.37-.17c-.7,1.34-.72,1.89,0,1.63l1.34.13c.57.12,1.14.32,1.7.47a36.05,36.05,0,0,1,4,.86c1.73.66,3-2.24,1.27-3Z" style="fill:#910311"/><path d="M421.57,91.34c-1.53.83-2.06,2.75-2.14,4.38-.09,2,2.19,3,3.8,2.18a19.62,19.62,0,0,0,2.07-1.44,6.36,6.36,0,0,0,1.46-1.22,7.37,7.37,0,0,0,.72-1.43,2.41,2.41,0,0,0-2.71-3.53c-.38.09-.77.16-1.15.27A4.21,4.21,0,0,0,421.69,92a13,13,0,0,0-1.91,2.47h4.35s-.35-.62-.18-.24a2.91,2.91,0,0,1-.18-.64c0,.29,0-.38,0-.37,0-.14-.09-.73-.08-.64a1.43,1.43,0,0,0-2.12-1.22Z" style="fill:#910311"/><path d="M428.08,93.07a17.47,17.47,0,0,0,4.78,1.84c1.88.41,4-.68,4-2.81s-1.79-3.06-3.5-3.62-4.08-1.1-5.93-.44a3,3,0,0,0-2.1,2.75,2.88,2.88,0,0,0,2.1,2.75,18.75,18.75,0,0,0,3.43.19,8.91,8.91,0,0,1,1,.07c.3,0,.59.1.88.17l-.19-.1-.74-1.77,0,.25.34-1.23-.13.23.86-.86c.44-.09.49-.11.13-.06l-.71.07-1.42.14a13.22,13.22,0,0,0-2.64.57,1,1,0,0,0-.24,1.86Z" style="fill:#910311"/><path d="M384.28,103a11.25,11.25,0,0,0-9.14,4.31,2.34,2.34,0,0,0,1,3.86,13.58,13.58,0,0,0,9-.17c2.51-1,4.93-3.69,3.72-6.56a2.91,2.91,0,0,0-3.47-2,2.84,2.84,0,0,0-2,3.47c-.07-.19.2-.3-.21,0a4.56,4.56,0,0,1-1.83.61,12.36,12.36,0,0,1-4.07.15l1.38,3.39a10.6,10.6,0,0,1,5.9-4.34,1.42,1.42,0,0,0-.38-2.77Z" style="fill:#6464e2"/><path d="M425.79,86.59c-2.74-2-10.46-2.86-10.49,2.27,0,5.38,9.53,4.52,12.87,4.38a2.69,2.69,0,0,0,1.88-4.53l-.78-.86c-2.33-2.56-6.3,1.37-3.81,3.81l.83.81,1.88-4.54c-1.23.13-2.45.22-3.69.26a34.89,34.89,0,0,0-4.09,0c-.58.09-.9-.41-.76.39s.67.27,1.31.23a16.77,16.77,0,0,1,3.72.47,1.47,1.47,0,0,0,1.13-2.68Z" style="fill:#6464e2"/><path d="M348.86,310.66c5-12.65,9.59-25.55,15.11-38a150.45,150.45,0,0,1,9-17.46c3.56-5.81,7.86-10.95,11.79-16.48,2.29-3.23-2.94-7.3-5.53-4.26-8.6,10.12-14.33,23.63-19.36,35.81a284,284,0,0,0-12.72,39.91.91.91,0,0,0,1.75.49Z" style="fill:#014c48"/><path d="M339.81,292.5c1.22-3.88,1.06-8.19,1.34-12.22q.44-6.37,1.05-12.72c.86-9,2.09-17.88,3.68-26.76,1.5-8.34,3.18-16.66,4.95-25q1.41-6.56,3-13.07c1-4.12,2.49-8.27,2.68-12.53.11-2.64-3.9-3.83-5.1-1.38-1.87,3.83-2.5,8.16-3.39,12.31q-1.41,6.57-2.63,13.17c-1.58,8.59-2.79,17.2-3.74,25.88s-1.71,17.32-2.37,26q-.51,6.69-.83,13.39c-.2,4.21-.77,8.75.23,12.89a.59.59,0,0,0,1.13,0Z" style="fill:#014c48"/><path d="M364.87,298c2.17-1.76,4.79-3.09,7.05-4.75,1.85-1.36,3.63-2.81,5.48-4.17,3.92-2.86,7.7-5.88,11.58-8.8,2.4-1.81.25-5.86-2.44-4.16a78,78,0,0,0-12.1,9.12,75,75,0,0,0-5.32,5.38c-1.85,2.15-3.15,4.54-4.89,6.74a.45.45,0,0,0,.64.64Z" style="fill:#014c48"/><path d="M291.05,292.24c-5.7-16.47-16.15-30.43-24.26-45.62-1.53-2.87-5.58-1.33-5.76,1.56-.26,4.12,3,7.57,5.2,10.75q3.9,5.61,7.58,11.37c4.91,7.66,9.51,15.54,14.69,23,.84,1.22,3.11.52,2.55-1.08Z" style="fill:#014c48"/><path d="M272.46,292c-3.71-9.23-8.7-18-13.49-26.74-4.47-8.13-9.18-15.76-16.57-21.57-7.59-6-16-11-24-16.32q-6.18-4.11-12.38-8.2c-4.21-2.76-8.5-6.4-13.33-7.93-2.71-.86-4.23,2.57-2.59,4.46,3,3.52,7.67,5.79,11.52,8.34,4.12,2.73,8.26,5.43,12.41,8.14,7.89,5.16,16.09,10,23.66,15.68s12.59,13.12,17.46,21.2,9.79,16.43,15.63,23.92c.61.78,2.05-.07,1.68-1Z" style="fill:#014c48"/><path d="M220,253.07c2.39-.09,4.62,1,6.9,1.53,2.08.48,4.18.9,6.27,1.38,4.33,1,8.16,2.24,12.61,2.34,3.37.08,4.77-4.82,1.74-6.43a31.87,31.87,0,0,0-14.64-3.52,23.13,23.13,0,0,0-7.22.76c-2.09.72-3.83,2.37-5.82,3.33a.33.33,0,0,0,.16.61Z" style="fill:#014c48"/><path d="M247.74,274.56c1.85.61,3.92-1.11,5.65-1.66a9.22,9.22,0,0,1,2.59-.76c1.37.06,2,.67,3.47.17,2-.69,3.06-4.09.67-5.12-1.89-.81-2.61-.5-4.46,0a27.78,27.78,0,0,0-4.19,1.1c-2.12,1-5.06,2.6-4.68,5.27a1.37,1.37,0,0,0,1,1Z" style="fill:#014c48"/><path d="M257.77,287.33c.32.52.51,1.11.84,1.62a20.9,20.9,0,0,0,1.31,1.67,1.92,1.92,0,1,0,2.33-3,16.55,16.55,0,0,0-1.89-.93c-.56-.2-1.15-.28-1.71-.49s-1.22.6-.88,1.15Z" style="fill:#014c48"/><path d="M257.05,291.16l.76.79a.91.91,0,0,0,1.48-.29.89.89,0,0,0-.05-.81,1,1,0,0,0-.79-.46l-1-.12a.51.51,0,0,0-.48.32.55.55,0,0,0,.11.57Z" style="fill:#014c48"/><path d="M261.87,271.13c0,.21-.7.5-.14.16a5.86,5.86,0,0,0,.95-.68,8.09,8.09,0,0,0,1.4-1.87,7.17,7.17,0,0,0,1.14-4.81,2.71,2.71,0,0,0-2-2,5.32,5.32,0,0,0-5.84,4.17,5.22,5.22,0,0,0,.37,3.84,4.7,4.7,0,0,0,.8,1,4.35,4.35,0,0,0,.41.34c.48.31.52.38.12.2.34,1.51,2.93,1.22,2.75-.37Z" style="fill:#014c48"/><path d="M292.8,284.4l-.07.1c.22-.28.24-.3.06-.07a1.15,1.15,0,0,0-.28.52,2.87,2.87,0,0,0,.06,1.27c0,.13,0,.08,0-.16l.07.48a3.06,3.06,0,0,0,.1.38,3.17,3.17,0,0,0,.72,1.19,1.6,1.6,0,0,0,1.61.42,1.72,1.72,0,0,0,1.16-1.15,2.73,2.73,0,0,0-.85-2.92,1.85,1.85,0,0,0-1.79-.58,1.29,1.29,0,0,0-.77.52Z" style="fill:#014c48"/><path d="M301.26,281.76a13.59,13.59,0,0,1-.28,4.45,24.78,24.78,0,0,0-1.1,3.82,1.18,1.18,0,0,0,2,.82c2.09-2.24,1.73-6.56,1.11-9.32-.21-.95-1.81-.77-1.73.23Z" style="fill:#014c48"/><path d="M283.33,298.25l.55,1.16a1.61,1.61,0,0,0,1,.74,1.63,1.63,0,0,0,1.58-2.72l-1-.8a1.38,1.38,0,0,0-.94-.39,1.39,1.39,0,0,0-.81.28,1.33,1.33,0,0,0-.48.7,1.54,1.54,0,0,0,.14,1Z" style="fill:#014c48"/><path d="M329.09,299.38l-.42,1.25a1.92,1.92,0,0,0,.2,1.5,1.94,1.94,0,0,0,2.86.55,2,2,0,0,0,.77-1.53l.11-1.29a1.82,1.82,0,0,0-.52-1.27,1.84,1.84,0,0,0-1-.49,1.81,1.81,0,0,0-2,1.28Z" style="fill:#014c48"/><path d="M367.77,306.79c-.21.14-.43.27-.65.4l-.42.22c.18-.09-.05,0-.13,0s-.42.16-.64.25c.24-.09.1,0-.06,0s-.54.18-.82.25a2.31,2.31,0,0,0-1.2,3.63,2.26,2.26,0,0,0,1.81.91,2.45,2.45,0,0,0,2-1.15,8.55,8.55,0,0,0,1.5-3.5c.15-.74-.66-1.55-1.39-1.06Z" style="fill:#014c48"/><path d="M377,308.37l-1.12.35a4.93,4.93,0,0,0-.76.28,2.21,2.21,0,0,0-.74.62,1.61,1.61,0,0,0-.25,1.89,1.59,1.59,0,0,0,1.77.72,4.2,4.2,0,0,0,.93-.45,4,4,0,0,0,.7-.82l.72-1a1.11,1.11,0,0,0-1.25-1.62Z" style="fill:#014c48"/><path d="M351.47,262.12c.12,2.41,1.28,4,2,6.26a23.4,23.4,0,0,1,1.09,7c0,5.76,9.39,5.53,8.79,0-.34-3.06-1.46-6.11-4.37-7.6S353.67,265.1,352,262a.26.26,0,0,0-.48.13Z" style="fill:#014c48"/><path d="M379.62,264.55c-2.87-1.19-7.5,0-10.29,1.11a19.79,19.79,0,0,0-4,2.55c-1.82,1.28-3.85,1.85-5.78,2.92-5,2.76-.61,9.74,4.41,7.53,3.19-1.41,5.11-4.16,7.18-6.82,1.23-1.56,2.49-3.27,4.37-4,1.43-.6,3-.67,4.41-1.27,1-.41.47-1.66-.26-2Z" style="fill:#014c48"/><path d="M332.63,219c3.16,3.35,3.42,6.33,4.26,10.52.61,3,1.9,6.52,4.39,8.46s7.57.3,6.21-3.61c-1.16-3.32-2.53-6.85-5.42-9s-6.18-4.14-9-6.73a.29.29,0,0,0-.41.41Z" style="fill:#014c48"/><path d="M339.83,267a.26.26,0,0,0,0-.52.26.26,0,0,0,0,.52Z" style="fill:#014c48"/><path d="M338.34,265.29a6.07,6.07,0,0,0-1.24,1.48,5,5,0,0,0-.57,2.33,2.22,2.22,0,0,0,1.94,2.21,2.25,2.25,0,0,0,2.47-1.61,3.66,3.66,0,0,1,.17-.58c-.13.32-.15.37-.05.14a2.56,2.56,0,0,0,.28-.71c0-.09.05-.19.08-.28s.07-.19-.05.11c0-.07.24-.45.29-.52a2.12,2.12,0,0,0-.54-2.73,2.15,2.15,0,0,0-2.78.16Z" style="fill:#014c48"/><path d="M331.81,274a12.49,12.49,0,0,1,.58,1.86,1,1,0,0,0,1.37.66,1,1,0,0,0,.48-1.43,12.41,12.41,0,0,1-.95-1.71.81.81,0,0,0-1.48.62Z" style="fill:#014c48"/><path d="M187.61,218c.53,3.71,1.21,8.28-1.49,11.37-2.3,2.63-7,3.17-9.14,0-4.35-6.6,5.67-11.06,10.36-12.26,2.6-.67,1.5-4.6-1.11-4-5.14,1.14-10.57,3.29-13.21,8.18-2.24,4.16-2,9.72,2.06,12.67a9.53,9.53,0,0,0,12.52-1c4.31-4.3,3.61-10.08,2.4-15.54-.35-1.59-2.61-.87-2.39.66Z" style="fill:#fd1a16"/><path d="M187,212.3c-.94-1-6.33-6.92-4-7.5,2.71-.68,6.11,4.4,7,6.25s4.46,1.1,4.19-1.13c-.49-4,.93-11.16,5.56-12.59,4.33-1.33.9,4.4-.18,5.9a21.73,21.73,0,0,1-6.2,5.37,2.25,2.25,0,0,0,2.27,3.88,22.28,22.28,0,0,0,9.64-10.73c1.46-3.33,1.94-8.31-2.56-9.46-4.13-1-8.38,2.37-10.59,5.48a15.6,15.6,0,0,0-2.36,12.75l4.11-1.74c-2.1-4.33-8.91-11.41-14.31-7.92-2.51,1.63-2.48,4.82-1.35,7.31,1.35,3,4.37,4.74,7.11,6.28A1.38,1.38,0,0,0,187,212.3Z" style="fill:#fd1a16"/><path d="M194.51,212.49a21.41,21.41,0,0,1,6.61.86c1.48.47,5.14,2.39,2.11,3.55-3.31,1.27-8.65-1.33-11.51-2.74-2.68-1.33-5,2.77-2.33,4,4.47,2,16.67,5.77,19.42-.89,1.21-2.94-.63-5.59-3.2-7-3.63-2-8-1.33-11.64.21-1,.43-.45,2,.54,2Z" style="fill:#fd1a16"/><path d="M349.78,191.41c-2-1.39-4-.77-6.3-.28-3.94.86-8.45.67-12.05-1.39-1.65-.94-1.63-.86-.93-2.94.75-2.26.89-2,3-2.05a30.43,30.43,0,0,1,5.14.26,40.9,40.9,0,0,1,10.71,3.18c2.29,1,4.34-2.28,2-3.43a33.53,33.53,0,0,0-16.05-3.27c-3.42.13-8.77.27-9.27,4.7-.45,4,3.38,6.31,6.62,7.45a16.78,16.78,0,0,0,7.65.93c3.2-.39,6-2,9.24-2.19a.53.53,0,0,0,.27-1Z" style="fill:#fd1a16"/><path d="M351.8,188c-1.35-5-3.6-14.51,2.78-17.14,1-.4,2.84-.95,3.65.09.66.84-.27,4.09-.48,5a30.84,30.84,0,0,1-3.95,8.87c-1.52,2.5,1.84,4.79,3.89,3a16.43,16.43,0,0,1,17.53-2.51c5,2.45-2.65,4.16-5,4.38A26,26,0,0,1,359,188.05c-2.45-.88-4.76,2.86-2.63,4.51a9.82,9.82,0,0,1,2.52,3.31l.24,1.13,1.1-.11c-.7-.5-1.72-.74-2.48-1.19-2.67-1.57-4.41-4.2-7.07-5.72a2.33,2.33,0,0,0-3.39,2.61c1.11,4.57,9.69,11.35,14.66,9.26,6-2.5.93-11.09-2.31-13.53l-2.08,4.94a30,30,0,0,0,18.14.63c4.27-1.27,9.09-5.66,5.67-10.32-2.72-3.69-8.83-4.89-13.12-4.82a21.92,21.92,0,0,0-14.08,5.52l3.89,3c3.68-6,10.59-24.34-3.4-21.91a11.48,11.48,0,0,0-9.11,9.07c-1.28,5.64,1,10.3,4.65,14.44.64.73,1.81,0,1.58-.92Z" style="fill:#fd1a16"/><path d="M381.42,233.29c-1.81-1.65-3.51-3.44-5.26-5.16-2.15-2.11-3.36-4.12-.36-6.41.54-.41,1.74-1.55,2.47-1.57.56-.6.87-.4.93.57a21,21,0,0,1,.85,2.1,44,44,0,0,1,1.95,7.42,2.22,2.22,0,0,0,3.68,1c1.89-2.08,2.78-4.87,4.88-6.77a10,10,0,0,1,9.69-2.21c1.36.41,4.26,1.69,4.74,3.18.91,2.82-1.6,4-3.72,4.68A47.38,47.38,0,0,1,389,231.72a2.18,2.18,0,0,0-1.53,3.67c1.17,1.4,4.39,7.49.82,8.5s-5-4.1-3.68-6.45a2.82,2.82,0,0,0-3.14-4.08c-2.52.43-6.86,2.25-9.3,1.44L373.7,236l-.41-.56-.88,3.34a5.92,5.92,0,0,1,3.84-1.37c3,0,3-4.52,0-4.62a10.08,10.08,0,0,0-6.3,1.78,2.53,2.53,0,0,0-.88,3.34c.87,2,2.72,2.41,4.72,2.31a77.23,77.23,0,0,0,9.18-1.46l-3.14-4.08c-2.93,6.38,1.05,14.48,8.78,13.69,8.44-.87,5.62-11.59,1.93-16L389,236c5.43-.16,12.86-.4,17.45-3.74,3.95-2.88,3.86-7.71.4-10.91a14.72,14.72,0,0,0-13.8-3.1,14.93,14.93,0,0,0-5.93,3.43c-2,1.86-2.78,4.43-4.57,6.38l3.68,1c-.67-3.79-1.6-10.16-4.61-12.91-2.67-2.43-6.59.44-8.82,2.18-2.64,2-4.85,5-3.15,8.45,2,4,7.08,5.75,10.57,8a1,1,0,0,0,1.18-1.53Z" style="fill:#fd1a16"/><path d="M186.86,221.12a6,6,0,0,0,.44-1.5,2.23,2.23,0,0,0-3.23-2.49c-4.39,2.15-7.74,6.33-9.73,10.7a3.81,3.81,0,0,0,1.33,5.08c7.3,4.26,11.14-4,13.28-9.47,2.46-6.32,5.19-14.39-.58-19.81-3.18-3-8.91.93-6.28,4.85,2.45,3.62,6.59,6.67,10.84,3.83,1.88-1.25,3.2-3.53,4.48-5.32,1.68-2.32,3.26-4.71,4.8-7.11,2.52-3.94-3.55-7.31-6.18-3.62-2.36,3.31-4.27,7.87-3.76,12a6.39,6.39,0,0,0,2.19,4.16c.78.68,3,1.21,3.44,2l1.38-5.26a3,3,0,0,1-2.94-.53c-4.06-2.53-8,3.07-4.94,6.41,3.87,4.25,10.28,7.15,14.93,2.23,3.6-3.8-2.05-9.49-5.75-5.76-.71.72-3-1.81-3.42-2.24l-4.94,6.4a11.21,11.21,0,0,0,10.94.13,3.89,3.89,0,0,0,1.38-5.26,7.28,7.28,0,0,0-2.22-2.43c-.55-.36-1.94-.65-2.3-1.14-1.19-1.56,1.22-5.6,2.19-7.14L196,196.26c-1.31,2.32-2.7,4.56-4.21,6.76a16.84,16.84,0,0,1-2.1,3q-.81.84.27.18c-.36-.56-.69-1.13-1-1.72l-6.27,4.85c2.7,2.37.22,6.46-.78,9.2-.43,1.2-2.2,8.08-3.41,7.63l2.59,4.57c1-4,3-6.94,5.62-10.1l-3.68-1a5.71,5.71,0,0,0,.48,1.5,1.74,1.74,0,0,0,3.32,0Z" style="fill:#fd1a16"/><path d="M356.34,184c-7.86,1.37-16.14-.29-24-.6-4.63-.18-5.43,6.74-1.08,8,5.75,1.63,12.55,2.39,18.34.47,3.87-1.29,3.48-7.76-1-7.48-5.31.33-9.95.68-15.16-.82l-1.08,8A43.5,43.5,0,0,0,344.68,190c4.28-1,8.05-2.75,12.16-4.16a.94.94,0,0,0-.5-1.82Z" style="fill:#fd1a16"/><path d="M350.76,187.22a53.07,53.07,0,0,0,2.51-6.33c.46-1.2,1-2.38,1.5-3.56l.66-1.54q1.47-1.62-.54-.69l-2.6-2.6c.38,2.35-1.11,4.81-1.67,7a13.08,13.08,0,0,0-.1,6.94c.62,2.14,2,3.85,3.16,5.71s1.42,3.56,3.26,4.88a3,3,0,0,0,3.59-.46c3.51-4.28-1.14-7.73-2.51-11.77-.8-2.37.26-4.52.94-6.82a16,16,0,0,0,.5-7.49,3.61,3.61,0,0,0-2.6-2.6c-8.91-1.79-10.27,13-9,18.91a1.61,1.61,0,0,0,2.91.38Z" style="fill:#fd1a16"/><path d="M357.16,190.21c5-1.33,10.82-.69,15.88.14v-7.28a202.52,202.52,0,0,1-21.14,4.18c-3.27.45-2.53,6.15.79,5.82,7.49-.75,14.91-1.57,22.36-2.72,4.55-.71,2.85-7-1-7.42-6.76-.74-12.16,1.57-17.85,5a1.27,1.27,0,0,0,1,2.32Z" style="fill:#fd1a16"/><path d="M385,230.44c-2.13-1.74-4-3.74-4.34-6.59l-7.11,3c2.84,3.45,8,10.28,13.17,7.41,2.15-1.21,3.28-3.42,5.66-4.39a11.18,11.18,0,0,1,7.59-.17l-2.32-5.72c-.58,1.12-4.8.43-6.17.74a9.1,9.1,0,0,0-5.45,3.7c-3.06,4.4-2,9.56-.34,14.28l3.91-5.13,1.86,1.24c-.88-5.15-9-3-7.9,2.18a5.84,5.84,0,0,0,6,4.68c2.42-.05,4.87-2.58,3.91-5.13-.71-1.86-1.85-4.23-1.44-6.27s1.75-1.9,3.61-1.95c3.51-.1,7-1,8.69-4.41a4,4,0,0,0-2.33-5.72,19.51,19.51,0,0,0-14,1.23,18.62,18.62,0,0,0-3,1.73c-.53.4-1,.82-1.57,1.24-1,.77-.95.91.29.44,1.3,0,1.35-.34.18-1-.55-.5-1.09-1-1.61-1.55-1-1.06-2-2.19-2.95-3.34-2.69-3.32-8.07.27-7,4.05,1.44,4.93,5.71,9.12,11.07,9,1.62-.05,2.9-2.32,1.45-3.5Z" style="fill:#fd1a16"/><path d="M186.35,214.78c-3.32-.13-14.19,4.18-10.84,8.94,1.33,1.9,4.86,3.38,6.73,1.54,1.1-1.08,1.66-2.58,2.82-3.65a14.3,14.3,0,0,1,4.44-2.5,2.74,2.74,0,0,0-1.46-5.27,12.78,12.78,0,0,0-6.13,3.09,14.39,14.39,0,0,0-2.2,2.35c-.5.66-.92,2.05-1.42,2.48l1.84-.76a4.33,4.33,0,0,1-1.65-.75l1.07,1.39c-.25-1,2.79-2.95,3.41-3.36a25,25,0,0,0,3.78-2.55.56.56,0,0,0-.39-.95Z" style="fill:#910311"/><path d="M188,210.74c-.48-.64-1.16-.86-1.59-1.58-.27-.43-.55-.87-.79-1.32-.15-.26-.32-1-.5-1.1.16.08-.78,1.25-1,.84a8.87,8.87,0,0,0,1.23.94c.94.8,1.85,1.62,2.74,2.47,2.86,2.72,6.71-2,3.36-4.34-1.89-1.31-3.82-3.38-6.13-3.85a4,4,0,0,0-5,4,6,6,0,0,0,4.22,5.07,4,4,0,0,0,2.87-.06c.3-.17.89-.67.57-1.09Z" style="fill:#910311"/><path d="M191.7,208.08c1.77-2.65,3.09-6.38,6.33-7.57a19.56,19.56,0,0,0,2-.29c-1.17-1.61-1.78-1.84-1.83-.66a6.67,6.67,0,0,1-.62,1.06c-.48.64-2.38,2.78-3.28,2.74l2.29.95-.3-.26.83,1.43c-.18.9-.14,1.08.13.53a10.19,10.19,0,0,0,.52-.91,17.48,17.48,0,0,1,1.15-1.7c1.71-2.24-1.67-5.59-3.92-3.91-1.93,1.44-4,3.07-4.31,5.6a4,4,0,0,0,4.18,4.75c2.23-.11,4.43-2.24,5.83-3.84a11.11,11.11,0,0,0,3.06-6.35c.38-5.54-5.27-5.51-8.95-3.43-4,2.27-6.61,7.18-4.86,11.64a1,1,0,0,0,1.73.22Z" style="fill:#910311"/><path d="M345.49,184.56c-3-1.13-9.3-2.89-11.92-.36a2,2,0,0,0,.86,3.26,8.66,8.66,0,0,1,4.32,3.09,2.59,2.59,0,0,0,2.55.67c2.69-.69,5.4-1.22,8.05-2.06s2.39-5.5-.7-5.18a35.14,35.14,0,0,0-8.74,2.2l2.54.68a11.7,11.7,0,0,0-7.5-3.23l1.68,2.93c.18-.27,4,0,4.29,0,1.45,0,2.87,0,4.32-.1a1,1,0,0,0,.25-1.86Z" style="fill:#910311"/><path d="M350.41,183.23c.73-1.89.81-4,1.44-6a12.67,12.67,0,0,1,1.64-3.24,5.94,5.94,0,0,1,1.12-1.37l.93-.55c-.58-.13-.74,0-.49.44a9.12,9.12,0,0,1,.08,3.17c-.2,1-1.18,1.93-1.31,2.76-.57.48-.24.71,1,.7.84.72,1.26.75,1.28.08a8.94,8.94,0,0,0,.46-1.33,17.14,17.14,0,0,1,2-3c2.47-3.22-2.92-7.34-5.62-4.34-2.9,3.23-6.49,12.6.06,14.33,6.29,1.67,8.31-8,7.35-12.26-.5-2.19-1.71-5-4.18-5.43s-4.88,1.39-6.37,3.31c-2.39,3.08-5.44,11.12-.06,13.06a.57.57,0,0,0,.68-.39Z" style="fill:#910311"/><path d="M359,184.64c4.82.53,9.06-1.65,13.65,1.06l.26-.79a9.74,9.74,0,0,1-2.42.65,11.64,11.64,0,0,1-3.77-.09,33.75,33.75,0,0,1-6.13-1.91v6.24a40.94,40.94,0,0,1,9.77-.11c4.38.44,4.42-6.54,0-6.9a39.93,39.93,0,0,0-11.49.77c-3.26.68-2.9,5.37,0,6.24,4.07,1.23,8.36,2.33,12.61,1.35,2.86-.66,6.7-2.74,6-6.25s-5.14-4.66-8-4.91c-3.73-.34-8.39.72-10.92,3.65a.6.6,0,0,0,.42,1Z" style="fill:#910311"/><path d="M377.26,226.45a1.67,1.67,0,0,1-1.27-2.3,3.76,3.76,0,0,1,1-1.14c.19-.16.38-.3.58-.44s.78-.31.44-.33l-1.5-.41c-.63-.37-.18-.1.09.41a10,10,0,0,1,.47,1.06,11.62,11.62,0,0,1,.63,2.4l3.95-3c-1.79-.25-3.6-.6-5.41-.7l.84,6.24.75-.13c3-.5,2.81-5.21,0-5.83l-.75-.17a3.26,3.26,0,0,0-3.91,2.22,3.2,3.2,0,0,0,2.22,3.91c1.79.32,3.62.43,5.43.6,2.21.21,3.33-2.16,3-4-.44-2.52-1.46-5.73-3.42-7.53-2.52-2.32-5.76-.26-7.68,1.76-1.76,1.85-2.81,5.3-.81,7.39a5.22,5.22,0,0,0,5.54,1.56.82.82,0,0,0-.21-1.6Z" style="fill:#910311"/><path d="M387.7,227.6c1.44-1.44,5.43-2.56,7.39-2.43,1.76.12,5.13,1.41,6.05,3.12l-.29-2.2.86-.89q-.93.15-1.86.27l-3.54.48a31,31,0,0,1-5.66.59l2.41,1-.41-.43V232c1.56-1.24,3.51-1.66,5.26-2.55,2.22-1.13,1.75-4.9-.71-5.42-3.6-.75-6.68.84-9.41,3.11a3.46,3.46,0,0,0,0,4.86c1.86,1.62,3.44,1.45,5.7,1,2.85-.59,5.7-1.25,8.53-1.92,3.52-.83,6.17-3.72,3-7-2.75-2.87-7.77-4.77-11.7-4-2.89.56-9,3.33-7.66,7.06a1.23,1.23,0,0,0,2,.53Z" style="fill:#910311"/><path d="M191,206.47c-2.29.47-4.39,3.1-5.16,5.19-1,2.81.91,5.53,4,5.08,2.69-.4,4.46-2.51,5.8-4.71.78-1.29,1.32-2.72.5-4.15a3.76,3.76,0,0,0-3.73-1.65,2.54,2.54,0,0,0-2.48,2.47,2.49,2.49,0,0,0,2.48,2.48,2.11,2.11,0,0,1,.5,0c.3,0,.23,0-.21,0l-.88-.88.15.26-.34-1.24c.14-.31.11-.26-.1.15l-.4.68a9.61,9.61,0,0,1-.78,1.11,4.36,4.36,0,0,1-.63.66c-.15.09-.29.19-.43.29-.79.13-.57.48.68,1.08,0-.05.27-.85.32-.94.18-.36.39-.71.6-1.06.54-.91,1.35-1.61,1.86-2.51a1.54,1.54,0,0,0-1.72-2.24Z" style="fill:#6464e2"/><path d="M358.87,182.84a13.69,13.69,0,0,0-10.17-1.72,3.57,3.57,0,0,0-2.76,3.62c.13,2.32,2.27,3.14,4.13,3.9,2.79,1.14,8.54,3.37,11.09.85a4.29,4.29,0,0,0,.68-5.16c-1.21-2.07-3.54-2.25-5.64-1.72a2.78,2.78,0,0,0,0,5.33,4.43,4.43,0,0,1,1.16.4l-1.36-.79a2.5,2.5,0,0,1,.73.72l-.83-1.43v0l.44-1.64-.26.35,1.93-1.49c-.93.3-2.76-.38-3.65-.6-.67-.16-1.34-.35-2-.56l-1-.34c-.85-.44-.87-.32-.07.37l.39,1.46c-.23,1.77-.48,1.3,1,1.06.6-.09,1.19-.16,1.79-.19,1.24-.06,2.49,0,3.72,0a1.31,1.31,0,0,0,.66-2.43Z" style="fill:#6464e2"/><path d="M389.64,228c-.53-.62-.66-1.21-1.39-1.67a8,8,0,0,0-1.93-.82,10.77,10.77,0,0,0-4.85-.31,3.87,3.87,0,0,0-3.33,3.32c-.22,2,1.14,3.4,2.69,4.38,2.76,1.74,6.79,3.42,9.7,1.08a5.36,5.36,0,0,0,2-4.23,4.63,4.63,0,0,0-3.29-4.26,3.39,3.39,0,0,0-4,2,3.47,3.47,0,0,0,1.4,4.27l.26.19-1.24-1.24c.32.49.3.29-.07-.61l.51-1.2c.62-.76,1.12-.23-.06-.57a8.29,8.29,0,0,1-2.26-.91l.41,1.53,0-.37-.41,1.5c-.12.28.47-.13.77-.22a9.74,9.74,0,0,1,1.85-.35c.52-.05,1.07,0,1.57-.13a11.21,11.21,0,0,1,1.36-.42.56.56,0,0,0,.39-.94Z" style="fill:#6464e2"/><path d="M93.46,219.25l2.48-8.86c1-3.72-4.75-5.31-5.79-1.59l-2.47,8.86c-1,3.72,4.75,5.31,5.78,1.59Z" style="fill:#014c48"/><path d="M139.78,244.93a15.92,15.92,0,0,0-4-14.58c-2.66-2.82-6.9,1.43-4.25,4.24a9.61,9.61,0,0,1,2.48,8.74c-.83,3.77,5,5.38,5.78,1.6Z" style="fill:#014c48"/><path d="M125.34,224.84l1.13-2.78a3,3,0,0,0-.3-2.31,3,3,0,0,0-4.1-1.08,3.5,3.5,0,0,0-1.38,1.8l-1.14,2.78a3,3,0,0,0,.3,2.31,3,3,0,0,0,4.11,1.08,3.59,3.59,0,0,0,1.38-1.8Z" style="fill:#014c48"/><path d="M275.63,190.58a15.91,15.91,0,0,0-5.1-11.31c-2.84-2.61-7.1,1.63-4.24,4.24a9.84,9.84,0,0,1,3.34,7.07c.13,3.85,6.13,3.87,6,0Z" style="fill:#014c48"/><path d="M262.81,201.75v-1.68a3.1,3.1,0,0,0-.88-2.12,3,3,0,0,0-5.12,2.12v1.68a3.09,3.09,0,0,0,.88,2.12,3,3,0,0,0,5.12-2.12Z" style="fill:#014c48"/><path d="M297.88,219.85a3,3,0,0,0,.22-.7c-.19.43-.22.5-.08.21.05-.11.11-.21.17-.32l.2-.31c.18-.26.14-.2-.14.17.08,0,.43-.46.51-.53a3,3,0,0,0-4.24-4.24,8.59,8.59,0,0,0-2.43,4.12,3,3,0,0,0,5.79,1.6Z" style="fill:#014c48"/><path d="M324.6,330.45a28.61,28.61,0,0,0-7.5-14.09c-2.68-2.79-6.92,1.45-4.24,4.24A22.79,22.79,0,0,1,318.81,332c.79,3.78,6.57,2.18,5.79-1.59Z" style="fill:#014c48"/><path d="M331.54,326.21c0-.22,0-.44,0-.66,0,.25,0,.19.05-.19s.17-.64.28-1c-.11.31.24-.49.24-.49a5.43,5.43,0,0,1,.35-.57l.13-.19a3.1,3.1,0,0,0,0-4.24,3,3,0,0,0-4.25,0,12,12,0,0,0-2.84,7.3,3,3,0,0,0,6,0Z" style="fill:#014c48"/><path d="M339.91,335.51c.12-.24.24-.46.37-.69l.24-.36c.28-.43-.35.39-.1.13s.34-.38.53-.56l.26-.23c.46-.42-.57.41-.06.05a3.27,3.27,0,0,0,1.38-1.8,3,3,0,0,0-4.41-3.38,10,10,0,0,0-3.39,3.81,3.26,3.26,0,0,0-.3,2.31,3,3,0,0,0,5.48.72Z" style="fill:#014c48"/><path d="M430,244.53l-3.26-7.85a3.1,3.1,0,0,0-3.69-2.1c-1.41.39-2.72,2.19-2.09,3.69l3.25,7.86a3.1,3.1,0,0,0,3.69,2.09c1.41-.39,2.72-2.18,2.1-3.69Z" style="fill:#014c48"/><path d="M437.23,221.92c-.2-.35.11.29.13.34-.18-.48.05.61,0,.31,0-.12,0-.47,0,.06-.1.7,0,0,0,0s-.37.7-.14.34-.23.25-.22.26.51-.45,0,0-.07.08.06,0a3,3,0,0,0,1.07-4.1,3.08,3.08,0,0,0-4.1-1.08c-2.57,1.19-3.29,4.59-2,6.94a3,3,0,0,0,4.1,1.08,3.07,3.07,0,0,0,1.08-4.11Z" style="fill:#014c48"/><path d="M471,254.21a24.32,24.32,0,0,0-.62-8.06c-.89-3.75-6.68-2.16-5.78,1.6a19.48,19.48,0,0,1,.4,6.46,3,3,0,0,0,3,3,3.06,3.06,0,0,0,3-3Z" style="fill:#014c48"/><path d="M493.6,234.74c-.27-.3.15.19.19.25-.29-.44.19.51.11.22s.08.72,0,.35.22-.22-.07.26a1,1,0,0,0,.08-.29s-.3.67-.11.3-.38.43-.14.19-.65.42-.18.16a3,3,0,0,0,1.08-4.1,3.06,3.06,0,0,0-4.1-1.08,5.17,5.17,0,0,0-1.14,8,3,3,0,0,0,4.24,0,3.06,3.06,0,0,0,0-4.24Z" style="fill:#014c48"/><path d="M210.39,283.45q.2.49,0,0c-.08-.34-.08-.32,0,.05,0-.19.11-.87,0-.21,0-.14.29-.82,0-.25a3.83,3.83,0,0,1,.25-.44c-.22.27-.21.27,0,0a3,3,0,0,0-4.24-4.24,7.06,7.06,0,0,0-1.18,8.09,3,3,0,0,0,4.11,1.08,3.08,3.08,0,0,0,1.07-4.1Z" style="fill:#014c48"/><path d="M200.78,266.24,198.6,259c-1.1-3.69-6.89-2.12-5.78,1.59l2.17,7.28c1.11,3.69,6.9,2.11,5.79-1.6Z" style="fill:#014c48"/><path d="M213.05,155.73a2,2,0,0,1-.05-.26l.1.8a2.91,2.91,0,0,1,0-.66l-.11.79a3.55,3.55,0,0,1,.17-.64l-.3.72a2.92,2.92,0,0,1,.33-.57l-.47.6.09-.1a3.15,3.15,0,0,0,.88-2.12,3.08,3.08,0,0,0-.88-2.12,3,3,0,0,0-4.24,0,5.59,5.59,0,0,0-1.29,5.16,3,3,0,0,0,5.78-1.6Z" style="fill:#014c48"/><path d="M195.27,149.84v-1.12a3,3,0,0,0-5.12-2.12,3.12,3.12,0,0,0-.88,2.12v1.12a3,3,0,0,0,3,3,3,3,0,0,0,2.12-.88,3.12,3.12,0,0,0,.88-2.12Z" style="fill:#014c48"/><path d="M337,91.79c0-.23,0-.45,0-.68s0-.31,0-.46c-.06.38-.07.46,0,.23s.09-.45.16-.67a3,3,0,0,1,.1-.32c-.16.36-.18.39,0,.08a3.06,3.06,0,0,0-1.08-4.1,3,3,0,0,0-4.1,1.07,9.29,9.29,0,0,0-1,4.85,3.08,3.08,0,0,0,3,3c1.5-.07,3.17-1.33,3-3Z" style="fill:#014c48"/><path d="M323.65,62.77v-.56a2.37,2.37,0,0,0-.26-1.15,2.22,2.22,0,0,0-.62-1,2.34,2.34,0,0,0-1-.62,2.29,2.29,0,0,0-1.15-.26l-.8.11a3,3,0,0,0-1.33.77l-.47.61a2.94,2.94,0,0,0-.4,1.51v.56a2.26,2.26,0,0,0,.25,1.15,2.22,2.22,0,0,0,.62,1,2.34,2.34,0,0,0,1,.62,2.3,2.3,0,0,0,1.16.26l.79-.11a3,3,0,0,0,1.33-.77l.47-.61a3.05,3.05,0,0,0,.41-1.51Z" style="fill:#014c48"/><path d="M234.34,100.72V99.05a3.06,3.06,0,0,0-.88-2.12,3,3,0,0,0-2.12-.88,3.06,3.06,0,0,0-3,3v1.67a3.1,3.1,0,0,0,.88,2.12,3,3,0,0,0,5.12-2.12Z" style="fill:#014c48"/><path d="M478.25,151.51V150.4a3.1,3.1,0,0,0-.88-2.12,3,3,0,0,0-4.24,0,3.08,3.08,0,0,0-.88,2.12v1.11a3.06,3.06,0,0,0,.88,2.12,3,3,0,0,0,4.24,0,3.08,3.08,0,0,0,.88-2.12Z" style="fill:#014c48"/><path d="M415.18,284.91v-1.12a3,3,0,0,0-5.12-2.12,3.12,3.12,0,0,0-.88,2.12v1.12A3,3,0,0,0,414.3,287a3.12,3.12,0,0,0,.88-2.12Z" style="fill:#014c48"/><path d="M547.46,217.37v-.55a2.3,2.3,0,0,0-.26-1.16,2.34,2.34,0,0,0-.62-1,2.22,2.22,0,0,0-1-.62,2.26,2.26,0,0,0-1.15-.25l-.8.1a3,3,0,0,0-1.32.77l-.47.61a3,3,0,0,0-.41,1.52v.55a2.2,2.2,0,0,0,.26,1.16,2.16,2.16,0,0,0,.62,1,2.27,2.27,0,0,0,1,.63,2.32,2.32,0,0,0,1.16.25l.8-.1a3,3,0,0,0,1.32-.78l.47-.6a3,3,0,0,0,.41-1.52Z" style="fill:#014c48"/><path d="M270.47,331.46l.57-2.78a3,3,0,0,0-5.79-1.6l-.57,2.79a3,3,0,0,0,5.79,1.59Z" style="fill:#014c48"/><path d="M227.65,214.58V214a2.4,2.4,0,0,0-.26-1.15,2.68,2.68,0,0,0-1.59-1.59,2.4,2.4,0,0,0-1.15-.26l-.8.11a3,3,0,0,0-1.33.77l-.47.61a3,3,0,0,0-.4,1.51v.56a2.29,2.29,0,0,0,.25,1.16,2.7,2.7,0,0,0,1.59,1.58,2.2,2.2,0,0,0,1.16.26l.79-.1a3,3,0,0,0,1.33-.78l.47-.6a3.12,3.12,0,0,0,.41-1.52Z" style="fill:#014c48"/></svg>