<svg id="Layer_1" data-name="Layer 1" xmlns="http://www.w3.org/2000/svg" viewBox="0 0 626.66 399.79"><polygon points="24.84 200.51 311.17 367.11 601.6 200.51 311.31 32.89 24.84 200.51" style="fill:#00776e"/><path d="M179.36,230.26a197.79,197.79,0,0,0,9.88,24.7c2.07,4.29,4.64,8.45,6.22,13,1,2.93.52,6.55,2.51,9a3,3,0,0,0,3.64.46l.35-.17a3,3,0,0,0,1.37-3.39l-.09-.28c-1.23-3.64-7-2.08-5.79,1.59l.1.29,1.38-3.39-.35.17,3.64.47c0,.06-.29-4.13-.44-4.67a37,37,0,0,0-1.47-4.05c-1.61-3.84-3.67-7.48-5.5-11.22a185.48,185.48,0,0,1-9.67-24.07c-1.19-3.65-7-2.09-5.78,1.6Z" style="fill:#014c48"/><path d="M198.93,248.66l6.86,27.54c.85,3.4,5.71,2.49,5.89-.8l.07-1.22c.21-3.85-5.79-3.84-6,0l-.07,1.22,5.9-.79-6.86-27.54c-.93-3.75-6.72-2.16-5.79,1.59Z" style="fill:#014c48"/><path d="M219.88,226.52a200.86,200.86,0,0,0-6.48,49.34c0,3.86,6,3.86,6,0a193.84,193.84,0,0,1,6.27-47.75c1-3.74-4.81-5.33-5.79-1.59Z" style="fill:#014c48"/><path d="M319.2,310.62q-3.61-13.11-7.63-26.11-2-6.5-4.12-13L305.62,266c-.41-1.23-.83-2.45-1.24-3.68-.44-2.15-.68-2.47-.74-1l-3.39,1.38.35.12-2.09-2.1.08.42,2.09-3.69-.25.07c-3.7,1.08-2.12,6.87,1.6,5.79l.25-.07a3.08,3.08,0,0,0,2.09-3.69l-.08-.42a3,3,0,0,0-2.09-2.1l-.35-.12a3,3,0,0,0-3.39,1.38c-1.64,3,.37,6.29,1.37,9.28q2.48,7.36,4.8,14.78,4.67,14.83,8.78,29.83c1,3.72,6.82,2.14,5.79-1.6Z" style="fill:#014c48"/><path d="M327.51,311.16c2.49-7.23.21-14.79,2.16-22.05a45.11,45.11,0,0,1,4.72-10.6c.86-1.49,1.78-2.95,2.76-4.36.83-1.21,1.71-2.39,2.63-3.52,1.56-1.44,1.51-1.71-.16-.84l-3-3,.05.39,2.2-2.9-.28.05c-3.81.59-2.19,6.37,1.59,5.78l.29,0a3,3,0,0,0,2.2-2.89l-.05-.39c-.17-1.48-1.23-3.18-3-3-3,.3-4.45,3-6.14,5.24a65.13,65.13,0,0,0-7.7,13.31,33.42,33.42,0,0,0-2.87,11.58c-.27,5.31.59,10.5-1.18,15.64-1.26,3.66,4.53,5.23,5.78,1.6Z" style="fill:#014c48"/><path d="M333.27,317.31c2.78-3.63,4.38-7.95,7.34-11.5a39.61,39.61,0,0,1,10-8.51c3.29-2,.28-7.2-3-5.18a45,45,0,0,0-11.21,9.45c-3.32,3.94-5.2,8.67-8.28,12.72-2.34,3.06,2.87,6.06,5.18,3Z" style="fill:#014c48"/><path d="M304.29,321.63A44.11,44.11,0,0,0,296,310.86c-2.81-2.65-7.06,1.58-4.25,4.25a38.07,38.07,0,0,1,7.35,9.54c1.86,3.39,7,.37,5.19-3Z" style="fill:#014c48"/><path d="M239.59,167.89a141.51,141.51,0,0,0-10.22-35.95c-1.53-3.53-6.7-.48-5.18,3a136.13,136.13,0,0,1,9.62,34.51c.54,3.81,6.33,2.19,5.78-1.59Z" style="fill:#014c48"/><path d="M246.14,178.49a118.21,118.21,0,0,1,8-27.88c1.5-3.51-3.66-6.57-5.19-3a124.88,124.88,0,0,0-8.63,29.32c-.62,3.77,5.16,5.4,5.78,1.59Z" style="fill:#014c48"/><path d="M256.71,161.93a63.7,63.7,0,0,1,8.17-11.33c2.59-2.85-1.64-7.11-4.24-4.24a70.08,70.08,0,0,0-9.11,12.54c-1.9,3.36,3.28,6.39,5.18,3Z" style="fill:#014c48"/><path d="M132.55,195.13a114.89,114.89,0,0,0-16.91-24.29c-2.6-2.86-6.83,1.39-4.24,4.25a108.56,108.56,0,0,1,16,23.07c1.78,3.43,7,.4,5.18-3Z" style="fill:#014c48"/><path d="M135.55,181.88a96.75,96.75,0,0,1-1.12-19.9c.17-3.86-5.83-3.85-6,0a105.3,105.3,0,0,0,1.33,21.5c.62,3.8,6.4,2.19,5.79-1.6Z" style="fill:#014c48"/><path d="M141.53,204.7a118,118,0,0,1,9.84-28.2c1.72-3.44-3.46-6.48-5.18-3a124.18,124.18,0,0,0-10.44,29.63c-.81,3.77,5,5.38,5.78,1.6Z" style="fill:#014c48"/><path d="M126.16,215.07a36.32,36.32,0,0,0-5.77-8.25c-2.63-2.84-6.86,1.41-4.24,4.24a30.88,30.88,0,0,1,4.83,7c1.74,3.45,6.92.42,5.18-3Z" style="fill:#014c48"/><path d="M346.79,133.82a205,205,0,0,1-6.57-21.09c-1-3.74-6.74-2.16-5.79,1.59a204.41,204.41,0,0,0,6.57,21.1c1.33,3.58,7.13,2,5.79-1.6Z" style="fill:#014c48"/><path d="M358.51,136.88c.14-2.92.38-5.83.8-8.73a3.11,3.11,0,0,0-2.1-3.69c-1.41-.39-3.46.48-3.69,2.1-.49,3.43-.85,6.86-1,10.32-.17,3.86,5.83,3.85,6,0Z" style="fill:#014c48"/><path d="M373.49,139.91a55,55,0,0,1,13-28.48c2.53-2.9-1.7-7.16-4.24-4.24a60.59,60.59,0,0,0-14.56,31.12c-.56,3.78,5.22,5.41,5.79,1.6Z" style="fill:#014c48"/><path d="M349.26,187.65A66.71,66.71,0,0,0,346,173.08c-1-3-6.15-2.77-5.89.8l.11,1.51c.28,3.83,6.28,3.86,6,0l-.11-1.51-5.89.8a59.45,59.45,0,0,1,3,13c.42,3.79,6.43,3.84,6,0Z" style="fill:#014c48"/><path d="M358.58,185.16a6.18,6.18,0,0,1,.4-4.49,3.08,3.08,0,0,0-1.08-4.11,3,3,0,0,0-4.1,1.08,12.64,12.64,0,0,0-1,9.11c1,3.73,6.79,2.15,5.79-1.59Z" style="fill:#014c48"/><path d="M257,93.07l-3.7-13.86c-1-3.72-6.79-2.14-5.79,1.6l3.71,13.85c1,3.73,6.79,2.15,5.78-1.59Z" style="fill:#014c48"/><path d="M264.72,94.46a52.32,52.32,0,0,1,1.39-9.31c.91-3.75-4.88-5.35-5.79-1.59a61.64,61.64,0,0,0-1.6,10.9c-.23,3.86,5.77,3.84,6,0Z" style="fill:#014c48"/><path d="M272.49,93.59a8.41,8.41,0,0,1,2-3.72,3.07,3.07,0,0,0,0-4.25,3,3,0,0,0-4.24,0A14.88,14.88,0,0,0,266.7,92a3,3,0,0,0,5.79,1.6Z" style="fill:#014c48"/><path d="M307.92,77.43a62.85,62.85,0,0,0-4.73-15.07c-1.58-3.51-6.76-.47-5.18,3A56.52,56.52,0,0,1,302.13,79c.67,3.79,6.45,2.18,5.79-1.6Z" style="fill:#014c48"/><path d="M458.65,218.52a34.94,34.94,0,0,0,1.83-15.44c-.62-5.42-3.21-10.48-3.14-16,.06-3.86-5.94-3.86-6,0-.06,4.5,1.42,8.49,2.49,12.8a29.47,29.47,0,0,1-1,17c-1.26,3.66,4.54,5.23,5.78,1.6Z" style="fill:#014c48"/><path d="M465.79,220.9a25.62,25.62,0,0,1,6.81-10.5c2.81-2.66-1.44-6.9-4.25-4.24A32.14,32.14,0,0,0,460,219.31c-1.25,3.66,4.55,5.23,5.79,1.59Z" style="fill:#014c48"/><path d="M475.64,221.21a19.73,19.73,0,0,1,7-5.89c3.42-1.79.39-7-3-5.18a26,26,0,0,0-9.12,8,3,3,0,0,0,1.07,4.1,3.06,3.06,0,0,0,4.11-1.07Z" style="fill:#014c48"/><path d="M415.79,234a233.39,233.39,0,0,0-16.44-20.42c-2.6-2.87-6.83,1.39-4.24,4.25a218.22,218.22,0,0,1,15.5,19.2c2.23,3.11,7.44.12,5.18-3Z" style="fill:#014c48"/><path d="M422.58,233.21a36.23,36.23,0,0,1-1.85-9.27c-.24-3.84-6.24-3.87-6,0a42.81,42.81,0,0,0,2.06,10.87c1.21,3.64,7,2.08,5.79-1.6Z" style="fill:#014c48"/><path d="M432.76,160.32a19.59,19.59,0,0,0-.63-6.94c-1-3.73-6.8-2.15-5.79,1.59a14.85,14.85,0,0,1,.42,5.35,3,3,0,0,0,3,3,3.06,3.06,0,0,0,3-3Z" style="fill:#014c48"/><path d="M454.92,258.77l1.18-3.88a3,3,0,0,0-2.09-3.7,3.07,3.07,0,0,0-3.69,2.1l-1.19,3.88a3,3,0,0,0,2.09,3.69,3.07,3.07,0,0,0,3.7-2.09Z" style="fill:#014c48"/><path d="M529.89,209.44V207.2a3,3,0,1,0-6,0v2.24a3,3,0,0,0,6,0Z" style="fill:#014c48"/><path d="M252.83,299.28l3.35-3.35a3,3,0,0,0-4.25-4.24L248.58,295a3,3,0,0,0,4.25,4.24Z" style="fill:#014c48"/><path d="M273.15,222.83V220.6a3,3,0,0,0-6,0v2.23a3,3,0,1,0,6,0Z" style="fill:#014c48"/><path d="M303.84,212.79v-.56a2.2,2.2,0,0,0-.26-1.16,2.72,2.72,0,0,0-1.58-1.58,2.2,2.2,0,0,0-1.16-.26l-.79.11a2.94,2.94,0,0,0-1.33.77l-.47.6a3,3,0,0,0-.41,1.52v.56a2.89,2.89,0,0,0,1.85,2.74,2.26,2.26,0,0,0,1.15.26l.8-.11a2.94,2.94,0,0,0,1.32-.77l.47-.61a3,3,0,0,0,.41-1.51Z" style="fill:#014c48"/><path d="M371.53,309.18l.55-1.11a3.37,3.37,0,0,0,.31-2.31,3,3,0,0,0-3.69-2.1,3,3,0,0,0-1.8,1.38l-.55,1.12a2.21,2.21,0,0,0-.36,1.11,2.33,2.33,0,0,0,.05,1.2,3.05,3.05,0,0,0,1.38,1.79,3,3,0,0,0,2.31.3,3,3,0,0,0,1.8-1.38Z" style="fill:#014c48"/><path d="M143.85,248.31l2.23-1.68a3.29,3.29,0,0,0,1.38-1.79,3.06,3.06,0,0,0-.31-2.31,3,3,0,0,0-1.79-1.38,2.91,2.91,0,0,0-2.31.3l-2.23,1.68a3.24,3.24,0,0,0-1.38,1.79,3,3,0,0,0,2.09,3.69,2.94,2.94,0,0,0,2.32-.3Z" style="fill:#014c48"/><path d="M166.67,206.47l1.11-1.68a3.1,3.1,0,0,0,.3-2.31,3,3,0,0,0-3.69-2.09,3.28,3.28,0,0,0-1.8,1.37l-1.1,1.68a3,3,0,0,0,1.07,4.11,3,3,0,0,0,2.32.3,3.31,3.31,0,0,0,1.79-1.38Z" style="fill:#014c48"/><path d="M79.67,199.81l1.66-3.35a3,3,0,1,0-5.18-3l-1.67,3.35a3,3,0,0,0,5.19,3Z" style="fill:#014c48"/><path d="M188.93,126.06l1.15,1.66a3.21,3.21,0,0,0,1.79,1.38,3,3,0,0,0,3.69-2.1,3,3,0,0,0-.3-2.31L194.12,123a3.23,3.23,0,0,0-1.8-1.38A3.1,3.1,0,0,0,190,122a3,3,0,0,0-1.08,4.1Z" style="fill:#014c48"/><path d="M306.58,130.48a2.33,2.33,0,0,1-.13-.52l.11.79a2.44,2.44,0,0,1,0-.54l-.1.8a3,3,0,0,1,.13-.52l-.3.71a3.1,3.1,0,0,1,.26-.47l-.47.61a1.73,1.73,0,0,1,.17-.21,3,3,0,1,0-4.24-4.24,5.27,5.27,0,0,0-1.22,5.19,3.2,3.2,0,0,0,1.38,1.79,3.1,3.1,0,0,0,2.31.3,3,3,0,0,0,2.1-3.69Z" style="fill:#014c48"/><path d="M333.38,75.28l1.67,1.12A3,3,0,0,0,339.46,73a3.32,3.32,0,0,0-1.38-1.79L336.4,70.1a3.1,3.1,0,0,0-2.31-.3,3.05,3.05,0,0,0-1.79,1.38,3,3,0,0,0-.3,2.31,3.28,3.28,0,0,0,1.38,1.79Z" style="fill:#014c48"/><path d="M477.08,150a2.45,2.45,0,0,1,.08.39l-.1-.8a4.69,4.69,0,0,1,0,.53l.1-.8a2.81,2.81,0,0,1-.16.65l.3-.72a2.53,2.53,0,0,1-.34.57l.47-.6-.08.1a3.17,3.17,0,0,0-.88,2.12,3,3,0,0,0,5.12,2.12,5.54,5.54,0,0,0,1.28-5.16,3,3,0,1,0-5.79,1.6Z" style="fill:#014c48"/><path d="M371.94,177.07v-.35c0-3.86-6-3.87-6,0v.35c0,3.86,6,3.86,6,0v-.35c0-3.86-6-3.87-6,0v.35c0,3.86,6,3.86,6,0Z" style="fill:#014c48"/><path d="M357.67,220.36l-.56,2.79a3,3,0,0,0,5.79,1.6l.56-2.79a3,3,0,0,0-5.79-1.6Z" style="fill:#014c48"/></svg>