<svg id="Layer_1" data-name="Layer 1" xmlns="http://www.w3.org/2000/svg" viewBox="0 0 461.22 403.94"><path d="M26.89,214.4v18.49S45,245.34,55.14,248.38C70,252.85,111.48,281.19,118,283.93c14.67,6.14,50.23,27.8,50.23,27.8l30.88,17-.56-17-72.22-53.94Z" style="fill:#2e3192;stroke:#000;stroke-linecap:round;stroke-linejoin:round;stroke-width:7px"/><path d="M199.14,328.75s114.61-63,131-72.63,34.23-21.88,37.95-21.88,48.75-28.65,48.75-28.65l17.3-12V173.69s-114,63.16-148.28,75.44-57.67,37.21-59.53,37.21-27.17,18.23-27.17,18.23Z" style="fill:#295ca5;stroke:#000;stroke-linecap:round;stroke-linejoin:round;stroke-width:7px"/><path d="M26.89,214.4A215.94,215.94,0,0,0,66.7,235.13c22.7,8.87,38.7,20.09,48.58,30.31,12.67,13.09,35.15,17.69,45.33,26.17,5.17,4.31,38,20.12,38,20.12S203,308.79,230.51,292c7.34-4.51,29.53-19.81,37.49-24.65,11.89-7.22,17-4,28.65-11,4-2.39,11.1-10.4,14.94-12.65,3.31-1.94,11.71-2.39,14.83-4.2,20-11.59,36.62-26.42,41.67-27.8,12.09-3.32,25.11-13.51,33.12-18.13s32.91-19.87,32.91-19.87S370,135.74,365.33,133s-34.11-15.87-39.8-22.57S267.7,75.39,267.7,75.39s-37.84,22.47-54.58,32-48.32,29.56-69.73,39.59c-4.8,2.25-45.18,29.19-48.53,29.4-1.59.1-20.63,11.44-33.74,19.72C46.59,205.23,26.89,214.4,26.89,214.4Z" style="fill:#5f84ce;stroke:#000;stroke-linecap:round;stroke-linejoin:round;stroke-width:7px"/><path d="M88,211.75a22.72,22.72,0,0,1,3-.59,19.73,19.73,0,0,0,3.29-1.46c2.22-1.16,4.38-2.45,6.58-3.64,2-1.1,4-2.65,3.81-5.24a4.33,4.33,0,0,0-4.29-4c-4.48-.25-9.39,2.68-12.78,5.34-2.16,1.71-3.84,4.26-3.25,7.13A5.73,5.73,0,0,0,90.09,214c4.06.05,6.15-6.15,2.18-8l.73,1v2.39c.23-.94,3-3.32,4.06-4.17.64-.53,1.31-.87,2-1.33,1.74-.25,1.39-1.22-1-2.93-.28.5-.57,1-.87,1.48a12.7,12.7,0,0,1-5.63,4.17,16.59,16.59,0,0,0-2.82,1.35c-1,.66-1.22,1.31-2.07,2.12s.26,2.29,1.36,1.77Z" style="fill:#416eb5"/><path d="M124.52,211.4a3.41,3.41,0,0,0,2.36-3.36,2.49,2.49,0,0,0-1.79-2.35,6.39,6.39,0,0,0-4.88,1,8.1,8.1,0,0,0-3.15,4.19,3.19,3.19,0,0,0,1.44,3.52c2.61,1.91,7.08.28,8.35-2.57a3.71,3.71,0,0,0-.94-4.69c-1.29-1-3.65-1.14-4.77.29a8.41,8.41,0,0,0-.86,1.22,5.46,5.46,0,0,0-.42.73c0-.31.58-.49.79-.57-.72.26.63,0,1,.2l1.44,3.53c0-.25.09-.48.15-.72s.1-.17,0,0c.13-.2.24-.42.38-.62-.23.33-.1.12.09-.07s.51-.39.08-.11l.52-.32c.18-.08.15-.07-.08,0l.63-.27c.49-.23-.31.08.27-.11l-2.76-1.12a1.21,1.21,0,0,1,.18-1.32,2.12,2.12,0,0,0-.32,2.5,2.08,2.08,0,0,0,2.33,1Z" style="fill:#416eb5"/><path d="M265.49,184.41c-6.91,2.11-11.94,6.27-16.07,12.14a4,4,0,0,0,2.4,5.9c4.23.81,7.65-.29,11.45-2.17,3.28-1.63,7.91-3.29,10.15-6.31s2-7.72-1.54-9.77a5.5,5.5,0,0,0-8.27,3.41,4.08,4.08,0,0,0,5.92,4.55q-1.69-5.62-4.49-3.39l-1.05.62-3.7,2.14c-2.31,1.34-4.67,2.77-7.4,3l3.47,6a28.54,28.54,0,0,1,11-11.73c2.32-1.4.83-5.28-1.88-4.46Z" style="fill:#416eb5"/><path d="M244.24,221.49a11.94,11.94,0,0,0-7.63,5.52c-1,1.6-.14,4.43,1.93,4.74a11,11,0,0,0,11.79-6.2c.9-2,.44-4.32-1.77-5.25a3.72,3.72,0,0,0-5,2.4,4.94,4.94,0,0,1-4.17,2.71l3.11,4.08a6.36,6.36,0,0,1,3.64-3.46c2.7-1.17.7-5.1-1.91-4.54Z" style="fill:#416eb5"/><path d="M265.7,103.05c-3.54.2-7.07,3.27-9.76,5.39s-3.31,6.25.48,7.61c3.09,1.12,6.6-1.17,9.24-2.57s7.86-3.52,7.36-7.32c-.27-2-1.52-3.71-3.71-3.71a3.75,3.75,0,0,0-3.7,3.71v.32l.51-1.88c.45-.28.29-.15-.48.38-.46.34-.93.67-1.4,1-.71.48-1.43.94-2.16,1.39s-1.46.88-2.21,1.29c-1.95,1.08-2.25.45-1,2.92q.36,3,1.56,1.32l1.25-1.13c.63-.56,1.27-1.1,1.92-1.64,1.43-1.17,3.06-2.22,3.92-3.9.67-1.34-.13-3.27-1.82-3.17Z" style="fill:#416eb5"/><path d="M285.19,103.7a6.14,6.14,0,0,0-1-.4,4,4,0,0,0-1.57-.09,4.31,4.31,0,0,0-2.37,1.2,3.23,3.23,0,0,0-.95,2.29,3.38,3.38,0,0,0,.69,2,3.18,3.18,0,0,0,1.69,1.16,3.29,3.29,0,0,0,2.49-.33,1.59,1.59,0,0,1,.29-.15l-.77.32c.44-.16.86-.36,1.29-.55l-.76.32.23-.07a3.23,3.23,0,0,0,1.37-.8,3.07,3.07,0,0,0,.85-1.78,3,3,0,0,0-.21-1.6,2.84,2.84,0,0,0-1.27-1.48Z" style="fill:#416eb5"/><path d="M340.53,184a20,20,0,0,0-8.19,4.13c-2.38,2-5.52,5.67-2,8.37,2.43,1.87,6.4.7,8.92-.4,2.9-1.27,6.73-3.49,6.56-7.12a3.51,3.51,0,0,0-4.39-3.34c-2.24.56-2.93,2.4-4.66,3.62-.72.5-2.73,1.48-3.43,1.24l2.05,1.57-.23-.32.34,2.63c.08-.54,2.08-2.15,2.82-2.71a19.86,19.86,0,0,1,4.4-2.53c3-1.28.82-5.88-2.17-5.14Z" style="fill:#416eb5"/><path d="M169,257.7c-4.62-3.74-10.54,1.35-13.09,5.29-2,3.08,1.29,6.64,4.54,5.89,3.7-.85,8.54-2.82,10.69-6.11,1.76-2.69-1.19-6.79-4.34-5.64a36.5,36.5,0,0,0-4.47,2.52,19,19,0,0,1-4,1.49l4.53,5.9a7.42,7.42,0,0,1,2.66-2.76c1.52-.9,3.06-1.57,3.93-3.23a2.79,2.79,0,0,0-.43-3.35Z" style="fill:#416eb5"/><path d="M190.48,267.34l-2,.88a3.47,3.47,0,0,0-1,5.16,3.31,3.31,0,0,0,2.29,1.32,2.6,2.6,0,0,0,1.41-.06,3.62,3.62,0,0,0,1.55-.9l1.66-1.32a3.16,3.16,0,0,0,.94-2.29,3.31,3.31,0,0,0-.69-2A3.12,3.12,0,0,0,193,267l-.86-.11a3.21,3.21,0,0,0-1.63.44Z" style="fill:#416eb5"/><path d="M182.48,149.43a27.68,27.68,0,0,0-6.44,3c-2.07,1.34-3.65,3.12-5.54,4.65-2.17,1.77-.76,5.21,1.56,5.92,6.24,1.9,19-2.59,17.24-10.77-.58-2.65-4.62-3.93-6.42-1.69-1.38,1.71-1.84,3-3.92,4-2.25,1.08-4.53,1.14-6.9,1.67l4.35,4.36c.94-3.35,4.73-5.95,7.66-7.36,2.1-1,.62-4.49-1.59-3.77Z" style="fill:#416eb5"/><path d="M209.14,136l-.86.54a2.59,2.59,0,0,0-1.28,2.23,2.7,2.7,0,0,0,.76,1.82,1.88,1.88,0,0,0,.83.53,1.9,1.9,0,0,0,1,.23,2.63,2.63,0,0,0,2.23-1.28l.54-.86.24-.56a1.88,1.88,0,0,0,0-.94,1.21,1.21,0,0,0-.16-.59,1.78,1.78,0,0,0-.49-.75,2.76,2.76,0,0,0-1-.61,1.87,1.87,0,0,0-.94,0,1.82,1.82,0,0,0-.87.28Z" style="fill:#416eb5"/><path d="M341.28,136a9.62,9.62,0,0,0-5.14,3.78c-1.3,1.8.43,4.52,2.54,4.42a11.8,11.8,0,0,0,6.39-2,3.23,3.23,0,1,0-3.92-5.08l-.45.41c.24-.18.21-.16-.1.05s-.52.32-.79.46c-.7.36.36-.05-.41.15a3,3,0,0,1-.59.14c.28,0,.23-.05-.13,0l2.54,4.43c.43-.62-.31.21.25-.29,0,0,.68-.59.27-.28a6.81,6.81,0,0,1,.73-.45c.51-.28-.25.07.35-.13a3,3,0,0,0,2-3.57,2.93,2.93,0,0,0-3.57-2Z" style="fill:#416eb5"/><path d="M356.18,204.23a4.79,4.79,0,0,0-5,.3,6.12,6.12,0,0,0-2.94,3.89,3.46,3.46,0,0,0,2.37,4.16,4.57,4.57,0,0,0,3.49-.38,3.17,3.17,0,0,0,1.52-3.17,3.11,3.11,0,0,0-2.29-2.65,2,2,0,0,1-.34-.06c-.24-.06-.17,0,.23.07l1.22,4.64c.16-.3.36-.56.54-.85,0,0,.24-.48.3-.47-.11,0-.46.66,0,.1.24-.3-.49.3-.15.1.16-.09.33-.18.48-.28a5.63,5.63,0,0,0,.81-.65c.53-.69.65-.85.37-.47-.17.21-.17.22,0,0a2.77,2.77,0,0,0-.55-4.31Z" style="fill:#416eb5"/><path d="M294,243.29l.41-.63-.4.52a10.68,10.68,0,0,1,.89-.89,2.25,2.25,0,0,0-2.18-3.76,10.42,10.42,0,0,1-1.21.35l.68-.09-.74.06a3.08,3.08,0,0,0-2.55,1.46,3,3,0,1,0,5.1,3Z" style="fill:#416eb5"/><path d="M268.87,150.34l.06,0-.45.19a.35.35,0,0,1,.11,0l-.57.08h.12l-.63-.08a2.68,2.68,0,0,0,1.35,0,5.27,5.27,0,0,0,.75-.33l-.6.25a6.5,6.5,0,0,0,.66-.27,1.93,1.93,0,0,0,.71-.65,3,3,0,0,0,.5-.95l-.25.59a.94.94,0,0,1,.12-.22l-.36.46.11-.1-.44.33.09-.06a2.1,2.1,0,0,0,.42-3.24,3,3,0,0,0-1.37-.78,2.67,2.67,0,0,0-3.09,1.34,3,3,0,0,0-.35,1.27,2.6,2.6,0,0,0,.33,1.26,3.9,3.9,0,0,0,.42.56,2,2,0,0,0,2.36.41Z" style="fill:#416eb5"/><path d="M200.21,196.63a6.71,6.71,0,0,0,2.22-.67,3.33,3.33,0,0,0,1.43-1.77c.09-.2.17-.4.25-.6a2.06,2.06,0,0,0-.21-1.59,2.29,2.29,0,0,0-1.23-.95,3.57,3.57,0,0,0-2.74-.09,6.91,6.91,0,0,0-1.67,1,2.71,2.71,0,0,0-1.17,1.51,2.6,2.6,0,0,0,.13,1.65,2.56,2.56,0,0,0,3,1.46Z" style="fill:#416eb5"/></svg>