<svg id="Layer_1" data-name="Layer 1" xmlns="http://www.w3.org/2000/svg" viewBox="0 0 461.22 403.94"><path d="M26.89,214.4v18.49S45,245.34,55.14,248.38C70,252.85,111.48,281.19,118,283.93c14.67,6.14,50.23,27.8,50.23,27.8l30.88,17-.56-17-72.22-53.94Z" style="fill:#2e3192;stroke:#000;stroke-linecap:round;stroke-linejoin:round;stroke-width:7px"/><path d="M199.14,328.75s114.61-63,131-72.63,34.23-21.88,37.95-21.88,48.75-28.65,48.75-28.65l17.3-12V173.69s-114,63.16-148.28,75.44-57.67,37.21-59.53,37.21-27.17,18.23-27.17,18.23Z" style="fill:#295ca5;stroke:#000;stroke-linecap:round;stroke-linejoin:round;stroke-width:7px"/><path d="M26.89,214.4S57.4,236.25,80.1,245.13s24.13,17.44,35.18,20.31c17.63,4.58,38.62,26.61,45.33,26.17s38,20.12,38,20.12,21.18-13.23,48.66-30.07c7.34-4.5,22.08-9.84,30-14.67,11.89-7.22,17.2-14,28.88-21,4-2.39,10.44-1.55,14.29-3.81,3.3-1.94,4.05-7,7.17-8.8,20-11.59,42.47-20.11,47.52-21.49,12.09-3.32,29.05-20.7,37.05-25.33s21.93-12.9,21.93-12.9S344.63,120.78,340,118.07s-34.37-17.78-40.06-24.48-32.19-18.2-32.19-18.2-47.91,28.25-64.65,37.74-62,34-63.63,39.07-57.49,34.19-60.83,34.39S26.89,214.4,26.89,214.4Z" style="fill:#5f84ce;stroke:#000;stroke-linecap:round;stroke-linejoin:round;stroke-width:7px"/><path d="M103.64,203.06c2.45-1.14,4.92-2.26,7.34-3.46,1.21-.6,2.41-1.23,3.62-1.83.51-.26,1-.51,1.56-.76-.88-.54-1.06-.29-.51.73.06,1.18.33,1.29.8.32l-1,.33c-1.33.1-2.88.9-4.19,1.22a25.18,25.18,0,0,1-7.69.59l.9,6.68c4.78-1.81,9.84-3.33,14.42-5.62,3.19-1.59.9-6.32-2.35-5.57-4.7,1.1-9.31,3.07-13.88,4.63a3.42,3.42,0,0,0,.91,6.68c4.42.41,8.71-1.15,12.73-2.85,3.84-1.62,6.13-3.43,4.3-7.77-1.09-2.59-2.48-4.8-5.45-3.43-4.4,2-8.59,5.48-12.62,8.17a1.13,1.13,0,0,0,1.14,1.94Z" style="fill:#416eb5"/><path d="M132.17,206.22a6.71,6.71,0,0,0,2.24-1.3l-.72.42a3,3,0,0,1,.45-.12h-.24c-.73-.29-.44,0,.27.16a6.21,6.21,0,0,0,.85.12c.33,0,.28,0-.15,0-1-.46-1.91-1.62-1.2-2.76.61-.53.75-.68.42-.47s-.16.1.11,0q-.39.1-.78.18a6.74,6.74,0,0,0-2.18.85,3.08,3.08,0,0,0-1.38,3.39,3,3,0,0,0,3.69,2.09,3.49,3.49,0,0,0,.94-.43c-.33.14-.32.16,0,.05a6.86,6.86,0,0,0,.79-.14c2.19-.4,4.33-2.09,4.32-4.49a4,4,0,0,0-4.27-3.92,3.42,3.42,0,0,0-3,1.68,10.91,10.91,0,0,0-.69,1.86l.42-.72a3.5,3.5,0,0,1-1,.95,1.46,1.46,0,0,0,1.12,2.66Z" style="fill:#416eb5"/><path d="M199.1,164.06c3.29-1.15,6.35-2.75,9.9-2.13l-1.8-4.41a10.64,10.64,0,0,1-3.9,3.39c-.82.46-1.67.86-2.53,1.24l-1.3.55c-1.1.35-.84.5.79.46l1.61,2.1-.05-.32-.36,2.71q-.48.6.45-.3l1.09-1.1a6.46,6.46,0,0,0,1.65-2.54,2.85,2.85,0,0,0-2-3.51c-1.92-.52-4.16,1.05-5.61,2.13s-2.5,2.66-2,4.64c1.2,4.65,6.37,2.66,9.17,1.11,3.3-1.83,6.34-4.15,8.16-7.53,1.16-2.16-.8-5.3-3.4-4.41-3.95,1.35-8.28,2.59-11.22,5.65-.89.93,0,2.74,1.32,2.27Z" style="fill:#416eb5"/><path d="M217.64,153l2.78-1.29,1.26-.59.51-.23c.62-.15.44-.42-.55-.81v-1.31c.11-.47.58-.38,0-.31a10.86,10.86,0,0,0-1.11.33,12.53,12.53,0,0,1-2,.44,3,3,0,0,0-2.86,2.86,2.88,2.88,0,0,0,2.86,2.86,11.47,11.47,0,0,0,5.78-1.94c1.55-1.11,2.77-2.91,1.84-4.84-2.28-4.76-7.68.15-10.18,1.92a1.69,1.69,0,0,0,1.7,2.91Z" style="fill:#416eb5"/><path d="M257.63,161.41c.53-.1,1-.3,1.56-.38s-.33,0,.41,0c.39,0,1,.21.11-.17l-.88-.88.1.16-.34-1.27c.09-.51.1-.53,0,0a2.3,2.3,0,0,0-.05.45c0,.37,0,.13.19-.73l1-.78.22,0h-.18c.33.06-.48-.13-.45-.13-1.69-.39-3.37-.44-4.67.88a3,3,0,0,0-.63,3.33,3.14,3.14,0,0,0,2.78,1.87,2.21,2.21,0,0,0,1.11-.08l.14,0c-.35,0,.63.07.74.08a6.57,6.57,0,0,0,2.21-.21,4.09,4.09,0,0,0,3-4.07c-.12-4.07-5.72-3.52-8-1.79a2.12,2.12,0,0,0,1.62,3.85Z" style="fill:#416eb5"/><path d="M347.7,154.6c-2.87,1.54-5.65,3.1-8.43,4.83-1.76,1.09-3.7,1.85-4.27,4a2.5,2.5,0,0,0,.66,2.48c3.07,2.52,7.91.28,11.22-.86s9.7-2.77,11.57-6.12-.73-6.18-4-6.47c-3.63-.32-8,1.61-9,5.26a2.74,2.74,0,0,0,3.34,3.34c1.25-.33,3.34-1.21,4.11-2.31q1.71-.66-.08-2.87l-1.12.65c-.92.14-2.05,1.07-2.89,1.46a54.08,54.08,0,0,1-11.54,3.89l2,.26-.55-.24L340,164.1s4.43-3,4.86-3.33c1.61-1.21,3.05-2.58,4.58-3.89,1.3-1.11-.36-3-1.76-2.28Z" style="fill:#416eb5"/><path d="M258.34,243.76c3-1.46,6.87-4.09,10.35-4a2.62,2.62,0,0,0,2.5-3.28,10.77,10.77,0,0,0-.74-2.06,2.59,2.59,0,0,0-2.95-1.2,36.08,36.08,0,0,0-6.9,2.92c-2.05,1.24-4.53,2.81-5.18,5.22-.48,1.74,1.3,4,3.22,3.23s3-2.48,4.7-3.75a12.94,12.94,0,0,1,5.55-2.59l-3.21-1.82a10.78,10.78,0,0,0,.77,2.05l.4-3.14c-2.28,2.91-6.82,4.23-10.07,5.74-1.8.83-.24,3.53,1.56,2.67Z" style="fill:#416eb5"/><path d="M247.47,254.79l.44.09-1.08-.82a2.86,2.86,0,0,0,3.44,1.17A11.94,11.94,0,0,0,253,254a2.71,2.71,0,0,0,1-3.66c-.72-1.11-2.46-1.84-3.66-1-1.38,1-3.78,1.59-3.66,3.74l.52-1.28h0c-1,.7-1.06,2.62.38,2.91Z" style="fill:#416eb5"/><path d="M180.64,277.84a29.37,29.37,0,0,1,4.63-1.75,8.06,8.06,0,0,0,3.81-1.79c1.92-1.94,1.77-5.37-1.09-6.35-2.38-.81-5.2.42-7.21,1.73a15.25,15.25,0,0,0-5.31,5.93,3.41,3.41,0,0,0,2.89,5c2.65.31,5.68-.87,6.39-3.64a2.9,2.9,0,0,0-2.76-3.62c-1.29-.1-2.37.56-3.63.57l3.23,4.23a8.47,8.47,0,0,1,1.61-2.75c.88-1,2-1.39,3-2.23a2.17,2.17,0,0,1,.6-.22c-.38-2.18-.94-2.81-1.68-1.92a8.51,8.51,0,0,0-1.47,1.58,17.14,17.14,0,0,1-4.13,3.25c-1.27.72-.15,2.56,1.14,1.94Z" style="fill:#416eb5"/><path d="M187.66,290.69a3,3,0,0,0,3.73-1.51,3.21,3.21,0,0,0,.35-1.33l-.09-.69a2,2,0,0,0-.47-.9,2.63,2.63,0,0,0-1.05-.81,1.35,1.35,0,0,0-.66-.17,2,2,0,0,0-1.05,0,2.84,2.84,0,0,0-1.51.79,6.24,6.24,0,0,0-.5.65,2.46,2.46,0,0,0-.38,1.1,1.83,1.83,0,0,0-.05.4l.09.7s0,.06,0,.1a1,1,0,0,0,.23.6l.35.45a2.26,2.26,0,0,0,1,.58Z" style="fill:#416eb5"/><path d="M249.33,113.24a11.7,11.7,0,0,0,4.15-1,11,11,0,0,0,3.39-2.5c1.27-1.31,2.45-2.8,2-4.74a4,4,0,0,0-2.83-2.94c-3-.82-5.57,1.55-7.83,3.09-2.67,1.82-5,3.87-4.31,7.4a3.06,3.06,0,0,0,2.9,2.2,5.84,5.84,0,0,0,4.85-1.42c1.82-1.64.28-4.43-1.89-4.56-.72,0-1.46.19-2.16.08l2.09,2.1c-.19.82-.06.93.37.34a8.73,8.73,0,0,1,.74-.5c.51-.34,1-.67,1.55-1s1.05-.62,1.59-.92l1.08-.58a1.18,1.18,0,0,1-1.26-.08l-1.18-1.19-.13-.26V105c-.13.69-1.5,2.15-2,3-.72,1.15-1.32,2.36-2,3.49a1.13,1.13,0,0,0,1,1.7Z" style="fill:#416eb5"/><path d="M262.51,119.52a3.51,3.51,0,0,0-2.11-.88,2.77,2.77,0,0,0-2.73,1.61,2.73,2.73,0,0,0-.25,1.92,2.48,2.48,0,0,0,3.05,1.73l.6-.25a2.45,2.45,0,0,0,.89-.89l.05-.07-.39.51a4,4,0,0,0,.63-.75,6.36,6.36,0,0,0,.33-.86l-.24.56a2.11,2.11,0,0,1,.16-.3l-.32.42a1.31,1.31,0,0,1,.23-.24l-.37.29.12-.08a1.75,1.75,0,0,0,.35-2.72Z" style="fill:#416eb5"/><path d="M137.78,260.14l.45-.25.19-.1c.17-.09.17-.09,0,0l-1.6-.42a2.64,2.64,0,0,0,.81.55,2.93,2.93,0,0,0,1.85,0,2.34,2.34,0,1,0-2.28-3.91,3,3,0,0,0-.88,1.59,2.35,2.35,0,0,0,.08,1l.42-1.6q.24-.12,0,0l-.18.12-.43.28a1.55,1.55,0,0,0,1.56,2.67Z" style="fill:#416eb5"/><path d="M146.06,251.68l.86-.35a5,5,0,0,0,.82-.36c.15-.09.28-.21.42-.31a2.38,2.38,0,0,0,1-1.32,2.24,2.24,0,0,0-.22-1.7,2.21,2.21,0,0,0-1.31-1,2.15,2.15,0,0,0-1.7.22,5.71,5.71,0,0,0-1.09.92l-.61.77a2.1,2.1,0,0,0-.52,1.08,1.86,1.86,0,0,0,.22,1.2,2.17,2.17,0,0,0,.68.67,1.86,1.86,0,0,0,1.44.19Z" style="fill:#416eb5"/><path d="M370.13,193.72a5.17,5.17,0,0,0,2,.58,4.07,4.07,0,0,0,1.51-.3,4.59,4.59,0,0,0,1.82-1.1,9,9,0,0,0,.94-1.2,2.74,2.74,0,0,0-3.07-4,21.41,21.41,0,0,0-2,.76c-.1,0-.48.21,0,0,.65-.28-.4.13-.65.3a6.91,6.91,0,0,0-1,.89c-1.07,1.06-1,3.37.52,4.05Z" style="fill:#416eb5"/><path d="M365.08,199.22l1-.39a4.38,4.38,0,0,0,1-.5,2.31,2.31,0,0,0,.72-.83,3.47,3.47,0,0,0,.32-.92,2.39,2.39,0,0,0-.11-1.47A2.14,2.14,0,0,0,367,194l-.53-.23a2.76,2.76,0,0,0-2.5.15c-.3.17-.59.37-.89.55a2.6,2.6,0,0,0-1.06,3.22,2.41,2.41,0,0,0,1.06,1.23,2.45,2.45,0,0,0,2,.26Z" style="fill:#416eb5"/><path d="M59.53,222.35l.16-.12-1,.14a.81.81,0,0,0,.37.09,1.2,1.2,0,0,0,.65,0l.39-.17a1.1,1.1,0,0,0,.46-.42,1.18,1.18,0,0,0,.3-.56l.06-.43a1.22,1.22,0,0,0-.14-.63,1.24,1.24,0,0,0-.34-.53l-.34-.26a1.19,1.19,0,0,0-.61-.19,1.2,1.2,0,0,0-.65,0l-.39.16a1.17,1.17,0,0,0-.46.42,1.33,1.33,0,0,0-.3.56l0,.44a1.28,1.28,0,0,0,.11.58l.14-1-.12.16-.13.31a.93.93,0,0,0,0,.52.81.81,0,0,0,.08.34,1.07,1.07,0,0,0,.28.42l.26.2.32.14a1,1,0,0,0,.52,0,1,1,0,0,0,.49-.16Z" style="fill:#416eb5"/><path d="M66.42,218.23l1.28-.8a4.34,4.34,0,0,0,.77-.56,6.38,6.38,0,0,0,.61-.86,1.5,1.5,0,0,0-.12-1.67,1.54,1.54,0,0,0-1.57-.54,4,4,0,0,0-1.55.62l-1.17.82a1.78,1.78,0,0,0-.62,2.37,1.75,1.75,0,0,0,2.37.62Z" style="fill:#416eb5"/><path d="M238.59,208c2.56-.1,4.94-1.42,7.11-2.69a11.68,11.68,0,0,0,4.6-5.71,1.9,1.9,0,0,0-1.62-2.82,11.89,11.89,0,0,0-7.11,1.46c-2.07,1.36-4.43,2.87-5.65,5.1a3.12,3.12,0,0,0,2.67,4.66Z" style="fill:#416eb5"/><path d="M253.46,203.77l2.55-1.08a6.11,6.11,0,0,0,1.17-.59,3.06,3.06,0,0,0,1.34-2.45,2.49,2.49,0,0,0-1.79-2.35c-1.48-.62-2.77.48-3.84,1.34l-2.1,1.67a2.18,2.18,0,0,0-.17,2.89,2.26,2.26,0,0,0,2.84.57Z" style="fill:#416eb5"/><path d="M279.62,190.57a5.93,5.93,0,0,0,1.05-.36l.65-.29a2.08,2.08,0,0,0,.6-3.09,2.11,2.11,0,0,0-3.15-.22l-.51.49a6.89,6.89,0,0,0-.66.85l-.17.42-.07.48a1.77,1.77,0,0,0,.38,1.08,1.84,1.84,0,0,0,1.88.64Z" style="fill:#416eb5"/><path d="M303.41,124c3.4,1.21,13.85-3.18,11.1-7.88-1.46-2.5-4.63-1.5-6.75-.63-2.33,1-5.38,2.81-6.15,5.34a2.64,2.64,0,0,0,1.8,3.17Z" style="fill:#416eb5"/></svg>